%TF.GenerationSoftware,KiCad,Pcbnew,9.0.1*%
%TF.CreationDate,2025-08-16T12:46:44+08:00*%
%TF.ProjectId,final version,66696e61-6c20-4766-9572-73696f6e2e6b,rev?*%
%TF.SameCoordinates,Original*%
%TF.FileFunction,Drillmap*%
%TF.FilePolarity,Positive*%
%FSLAX45Y45*%
G04 Gerber Fmt 4.5, Leading zero omitted, Abs format (unit mm)*
G04 Created by KiCad (PCBNEW 9.0.1) date 2025-08-16 12:46:44*
%MOMM*%
%LPD*%
G01*
G04 APERTURE LIST*
%ADD10C,0.050000*%
%ADD11C,0.200000*%
%ADD12C,0.170000*%
G04 APERTURE END LIST*
D10*
X24400000Y-6725000D02*
X24400000Y-30025000D01*
D11*
X7624500Y-7176000D02*
G75*
G02*
X7184500Y-7176000I-220000J0D01*
G01*
X7184500Y-7176000D02*
G75*
G02*
X7624500Y-7176000I220000J0D01*
G01*
D10*
X6450000Y-32025000D02*
X22400000Y-32025000D01*
D11*
X7624500Y-10224000D02*
G75*
G02*
X7184500Y-10224000I-220000J0D01*
G01*
X7184500Y-10224000D02*
G75*
G02*
X7624500Y-10224000I220000J0D01*
G01*
D10*
X4450000Y-12330000D02*
G75*
G02*
X4750000Y-12030000I300000J0D01*
G01*
X6700000Y-11945000D02*
G75*
G02*
X6615000Y-12030000I-85000J0D01*
G01*
D11*
X24200000Y-6825000D02*
G75*
G02*
X23800000Y-6825000I-200000J0D01*
G01*
X23800000Y-6825000D02*
G75*
G02*
X24200000Y-6825000I200000J0D01*
G01*
D10*
X4750000Y-12030000D02*
X6615000Y-12030000D01*
X24400000Y-30025000D02*
G75*
G02*
X22400000Y-32025000I-2000000J0D01*
G01*
D11*
X11815500Y-10224000D02*
G75*
G02*
X11375500Y-10224000I-220000J0D01*
G01*
X11375500Y-10224000D02*
G75*
G02*
X11815500Y-10224000I220000J0D01*
G01*
D10*
X6700000Y-6720000D02*
G75*
G02*
X7000000Y-6420000I300000J0D01*
G01*
X6450000Y-32025000D02*
G75*
G02*
X4450000Y-30025000I0J2000000D01*
G01*
D11*
X11815500Y-7176000D02*
G75*
G02*
X11375500Y-7176000I-220000J0D01*
G01*
X11375500Y-7176000D02*
G75*
G02*
X11815500Y-7176000I220000J0D01*
G01*
D10*
X4450000Y-12330000D02*
X4450000Y-30025000D01*
X7000000Y-6420000D02*
X24100000Y-6425000D01*
D11*
X23800000Y-31225000D02*
G75*
G02*
X23400000Y-31225000I-200000J0D01*
G01*
X23400000Y-31225000D02*
G75*
G02*
X23800000Y-31225000I200000J0D01*
G01*
D10*
X6700000Y-6720000D02*
X6700000Y-11945000D01*
D11*
X5450000Y-31225000D02*
G75*
G02*
X5050000Y-31225000I-200000J0D01*
G01*
X5050000Y-31225000D02*
G75*
G02*
X5450000Y-31225000I200000J0D01*
G01*
D10*
X24100000Y-6425000D02*
G75*
G02*
X24400000Y-6725000I0J-300000D01*
G01*
D11*
D12*
X22853000Y-6728000D02*
X23023000Y-6898000D01*
X23023000Y-6728000D02*
X22853000Y-6898000D01*
X22853000Y-7428000D02*
X23023000Y-7598000D01*
X23023000Y-7428000D02*
X22853000Y-7598000D01*
D11*
X4708277Y-32338984D02*
X4708277Y-32138984D01*
X4708277Y-32138984D02*
X4755896Y-32138984D01*
X4755896Y-32138984D02*
X4784467Y-32148508D01*
X4784467Y-32148508D02*
X4803515Y-32167555D01*
X4803515Y-32167555D02*
X4813039Y-32186603D01*
X4813039Y-32186603D02*
X4822563Y-32224698D01*
X4822563Y-32224698D02*
X4822563Y-32253269D01*
X4822563Y-32253269D02*
X4813039Y-32291365D01*
X4813039Y-32291365D02*
X4803515Y-32310412D01*
X4803515Y-32310412D02*
X4784467Y-32329460D01*
X4784467Y-32329460D02*
X4755896Y-32338984D01*
X4755896Y-32338984D02*
X4708277Y-32338984D01*
X4908277Y-32338984D02*
X4908277Y-32205650D01*
X4908277Y-32243746D02*
X4917801Y-32224698D01*
X4917801Y-32224698D02*
X4927324Y-32215174D01*
X4927324Y-32215174D02*
X4946372Y-32205650D01*
X4946372Y-32205650D02*
X4965420Y-32205650D01*
X5032086Y-32338984D02*
X5032086Y-32205650D01*
X5032086Y-32138984D02*
X5022563Y-32148508D01*
X5022563Y-32148508D02*
X5032086Y-32158031D01*
X5032086Y-32158031D02*
X5041610Y-32148508D01*
X5041610Y-32148508D02*
X5032086Y-32138984D01*
X5032086Y-32138984D02*
X5032086Y-32158031D01*
X5155896Y-32338984D02*
X5136848Y-32329460D01*
X5136848Y-32329460D02*
X5127324Y-32310412D01*
X5127324Y-32310412D02*
X5127324Y-32138984D01*
X5260658Y-32338984D02*
X5241610Y-32329460D01*
X5241610Y-32329460D02*
X5232086Y-32310412D01*
X5232086Y-32310412D02*
X5232086Y-32138984D01*
X5489229Y-32338984D02*
X5489229Y-32138984D01*
X5489229Y-32138984D02*
X5555896Y-32281841D01*
X5555896Y-32281841D02*
X5622562Y-32138984D01*
X5622562Y-32138984D02*
X5622562Y-32338984D01*
X5803515Y-32338984D02*
X5803515Y-32234222D01*
X5803515Y-32234222D02*
X5793991Y-32215174D01*
X5793991Y-32215174D02*
X5774943Y-32205650D01*
X5774943Y-32205650D02*
X5736848Y-32205650D01*
X5736848Y-32205650D02*
X5717801Y-32215174D01*
X5803515Y-32329460D02*
X5784467Y-32338984D01*
X5784467Y-32338984D02*
X5736848Y-32338984D01*
X5736848Y-32338984D02*
X5717801Y-32329460D01*
X5717801Y-32329460D02*
X5708277Y-32310412D01*
X5708277Y-32310412D02*
X5708277Y-32291365D01*
X5708277Y-32291365D02*
X5717801Y-32272317D01*
X5717801Y-32272317D02*
X5736848Y-32262793D01*
X5736848Y-32262793D02*
X5784467Y-32262793D01*
X5784467Y-32262793D02*
X5803515Y-32253269D01*
X5898753Y-32205650D02*
X5898753Y-32405650D01*
X5898753Y-32215174D02*
X5917801Y-32205650D01*
X5917801Y-32205650D02*
X5955896Y-32205650D01*
X5955896Y-32205650D02*
X5974943Y-32215174D01*
X5974943Y-32215174D02*
X5984467Y-32224698D01*
X5984467Y-32224698D02*
X5993991Y-32243746D01*
X5993991Y-32243746D02*
X5993991Y-32300888D01*
X5993991Y-32300888D02*
X5984467Y-32319936D01*
X5984467Y-32319936D02*
X5974943Y-32329460D01*
X5974943Y-32329460D02*
X5955896Y-32338984D01*
X5955896Y-32338984D02*
X5917801Y-32338984D01*
X5917801Y-32338984D02*
X5898753Y-32329460D01*
X6079705Y-32319936D02*
X6089229Y-32329460D01*
X6089229Y-32329460D02*
X6079705Y-32338984D01*
X6079705Y-32338984D02*
X6070182Y-32329460D01*
X6070182Y-32329460D02*
X6079705Y-32319936D01*
X6079705Y-32319936D02*
X6079705Y-32338984D01*
X6079705Y-32215174D02*
X6089229Y-32224698D01*
X6089229Y-32224698D02*
X6079705Y-32234222D01*
X6079705Y-32234222D02*
X6070182Y-32224698D01*
X6070182Y-32224698D02*
X6079705Y-32215174D01*
X6079705Y-32215174D02*
X6079705Y-32234222D01*
D12*
X4277500Y-32582500D02*
X4447500Y-32752500D01*
X4447500Y-32582500D02*
X4277500Y-32752500D01*
D11*
X4813039Y-32758984D02*
X4698753Y-32758984D01*
X4755896Y-32758984D02*
X4755896Y-32558984D01*
X4755896Y-32558984D02*
X4736848Y-32587555D01*
X4736848Y-32587555D02*
X4717801Y-32606603D01*
X4717801Y-32606603D02*
X4698753Y-32616127D01*
X4898753Y-32739936D02*
X4908277Y-32749460D01*
X4908277Y-32749460D02*
X4898753Y-32758984D01*
X4898753Y-32758984D02*
X4889229Y-32749460D01*
X4889229Y-32749460D02*
X4898753Y-32739936D01*
X4898753Y-32739936D02*
X4898753Y-32758984D01*
X4974944Y-32558984D02*
X5108277Y-32558984D01*
X5108277Y-32558984D02*
X5022563Y-32758984D01*
X5222563Y-32558984D02*
X5241610Y-32558984D01*
X5241610Y-32558984D02*
X5260658Y-32568508D01*
X5260658Y-32568508D02*
X5270182Y-32578031D01*
X5270182Y-32578031D02*
X5279705Y-32597079D01*
X5279705Y-32597079D02*
X5289229Y-32635174D01*
X5289229Y-32635174D02*
X5289229Y-32682793D01*
X5289229Y-32682793D02*
X5279705Y-32720888D01*
X5279705Y-32720888D02*
X5270182Y-32739936D01*
X5270182Y-32739936D02*
X5260658Y-32749460D01*
X5260658Y-32749460D02*
X5241610Y-32758984D01*
X5241610Y-32758984D02*
X5222563Y-32758984D01*
X5222563Y-32758984D02*
X5203515Y-32749460D01*
X5203515Y-32749460D02*
X5193991Y-32739936D01*
X5193991Y-32739936D02*
X5184467Y-32720888D01*
X5184467Y-32720888D02*
X5174944Y-32682793D01*
X5174944Y-32682793D02*
X5174944Y-32635174D01*
X5174944Y-32635174D02*
X5184467Y-32597079D01*
X5184467Y-32597079D02*
X5193991Y-32578031D01*
X5193991Y-32578031D02*
X5203515Y-32568508D01*
X5203515Y-32568508D02*
X5222563Y-32558984D01*
X5413039Y-32558984D02*
X5432086Y-32558984D01*
X5432086Y-32558984D02*
X5451134Y-32568508D01*
X5451134Y-32568508D02*
X5460658Y-32578031D01*
X5460658Y-32578031D02*
X5470182Y-32597079D01*
X5470182Y-32597079D02*
X5479705Y-32635174D01*
X5479705Y-32635174D02*
X5479705Y-32682793D01*
X5479705Y-32682793D02*
X5470182Y-32720888D01*
X5470182Y-32720888D02*
X5460658Y-32739936D01*
X5460658Y-32739936D02*
X5451134Y-32749460D01*
X5451134Y-32749460D02*
X5432086Y-32758984D01*
X5432086Y-32758984D02*
X5413039Y-32758984D01*
X5413039Y-32758984D02*
X5393991Y-32749460D01*
X5393991Y-32749460D02*
X5384467Y-32739936D01*
X5384467Y-32739936D02*
X5374944Y-32720888D01*
X5374944Y-32720888D02*
X5365420Y-32682793D01*
X5365420Y-32682793D02*
X5365420Y-32635174D01*
X5365420Y-32635174D02*
X5374944Y-32597079D01*
X5374944Y-32597079D02*
X5384467Y-32578031D01*
X5384467Y-32578031D02*
X5393991Y-32568508D01*
X5393991Y-32568508D02*
X5413039Y-32558984D01*
X5565420Y-32758984D02*
X5565420Y-32625650D01*
X5565420Y-32644698D02*
X5574944Y-32635174D01*
X5574944Y-32635174D02*
X5593991Y-32625650D01*
X5593991Y-32625650D02*
X5622563Y-32625650D01*
X5622563Y-32625650D02*
X5641610Y-32635174D01*
X5641610Y-32635174D02*
X5651134Y-32654222D01*
X5651134Y-32654222D02*
X5651134Y-32758984D01*
X5651134Y-32654222D02*
X5660658Y-32635174D01*
X5660658Y-32635174D02*
X5679705Y-32625650D01*
X5679705Y-32625650D02*
X5708277Y-32625650D01*
X5708277Y-32625650D02*
X5727324Y-32635174D01*
X5727324Y-32635174D02*
X5736848Y-32654222D01*
X5736848Y-32654222D02*
X5736848Y-32758984D01*
X5832086Y-32758984D02*
X5832086Y-32625650D01*
X5832086Y-32644698D02*
X5841610Y-32635174D01*
X5841610Y-32635174D02*
X5860658Y-32625650D01*
X5860658Y-32625650D02*
X5889229Y-32625650D01*
X5889229Y-32625650D02*
X5908277Y-32635174D01*
X5908277Y-32635174D02*
X5917801Y-32654222D01*
X5917801Y-32654222D02*
X5917801Y-32758984D01*
X5917801Y-32654222D02*
X5927324Y-32635174D01*
X5927324Y-32635174D02*
X5946372Y-32625650D01*
X5946372Y-32625650D02*
X5974943Y-32625650D01*
X5974943Y-32625650D02*
X5993991Y-32635174D01*
X5993991Y-32635174D02*
X6003515Y-32654222D01*
X6003515Y-32654222D02*
X6003515Y-32758984D01*
X6393991Y-32549460D02*
X6222563Y-32806603D01*
X6651134Y-32558984D02*
X6670182Y-32558984D01*
X6670182Y-32558984D02*
X6689229Y-32568508D01*
X6689229Y-32568508D02*
X6698753Y-32578031D01*
X6698753Y-32578031D02*
X6708277Y-32597079D01*
X6708277Y-32597079D02*
X6717801Y-32635174D01*
X6717801Y-32635174D02*
X6717801Y-32682793D01*
X6717801Y-32682793D02*
X6708277Y-32720888D01*
X6708277Y-32720888D02*
X6698753Y-32739936D01*
X6698753Y-32739936D02*
X6689229Y-32749460D01*
X6689229Y-32749460D02*
X6670182Y-32758984D01*
X6670182Y-32758984D02*
X6651134Y-32758984D01*
X6651134Y-32758984D02*
X6632086Y-32749460D01*
X6632086Y-32749460D02*
X6622563Y-32739936D01*
X6622563Y-32739936D02*
X6613039Y-32720888D01*
X6613039Y-32720888D02*
X6603515Y-32682793D01*
X6603515Y-32682793D02*
X6603515Y-32635174D01*
X6603515Y-32635174D02*
X6613039Y-32597079D01*
X6613039Y-32597079D02*
X6622563Y-32578031D01*
X6622563Y-32578031D02*
X6632086Y-32568508D01*
X6632086Y-32568508D02*
X6651134Y-32558984D01*
X6803515Y-32739936D02*
X6813039Y-32749460D01*
X6813039Y-32749460D02*
X6803515Y-32758984D01*
X6803515Y-32758984D02*
X6793991Y-32749460D01*
X6793991Y-32749460D02*
X6803515Y-32739936D01*
X6803515Y-32739936D02*
X6803515Y-32758984D01*
X6936848Y-32558984D02*
X6955896Y-32558984D01*
X6955896Y-32558984D02*
X6974944Y-32568508D01*
X6974944Y-32568508D02*
X6984467Y-32578031D01*
X6984467Y-32578031D02*
X6993991Y-32597079D01*
X6993991Y-32597079D02*
X7003515Y-32635174D01*
X7003515Y-32635174D02*
X7003515Y-32682793D01*
X7003515Y-32682793D02*
X6993991Y-32720888D01*
X6993991Y-32720888D02*
X6984467Y-32739936D01*
X6984467Y-32739936D02*
X6974944Y-32749460D01*
X6974944Y-32749460D02*
X6955896Y-32758984D01*
X6955896Y-32758984D02*
X6936848Y-32758984D01*
X6936848Y-32758984D02*
X6917801Y-32749460D01*
X6917801Y-32749460D02*
X6908277Y-32739936D01*
X6908277Y-32739936D02*
X6898753Y-32720888D01*
X6898753Y-32720888D02*
X6889229Y-32682793D01*
X6889229Y-32682793D02*
X6889229Y-32635174D01*
X6889229Y-32635174D02*
X6898753Y-32597079D01*
X6898753Y-32597079D02*
X6908277Y-32578031D01*
X6908277Y-32578031D02*
X6917801Y-32568508D01*
X6917801Y-32568508D02*
X6936848Y-32558984D01*
X7174944Y-32558984D02*
X7136848Y-32558984D01*
X7136848Y-32558984D02*
X7117801Y-32568508D01*
X7117801Y-32568508D02*
X7108277Y-32578031D01*
X7108277Y-32578031D02*
X7089229Y-32606603D01*
X7089229Y-32606603D02*
X7079706Y-32644698D01*
X7079706Y-32644698D02*
X7079706Y-32720888D01*
X7079706Y-32720888D02*
X7089229Y-32739936D01*
X7089229Y-32739936D02*
X7098753Y-32749460D01*
X7098753Y-32749460D02*
X7117801Y-32758984D01*
X7117801Y-32758984D02*
X7155896Y-32758984D01*
X7155896Y-32758984D02*
X7174944Y-32749460D01*
X7174944Y-32749460D02*
X7184467Y-32739936D01*
X7184467Y-32739936D02*
X7193991Y-32720888D01*
X7193991Y-32720888D02*
X7193991Y-32673269D01*
X7193991Y-32673269D02*
X7184467Y-32654222D01*
X7184467Y-32654222D02*
X7174944Y-32644698D01*
X7174944Y-32644698D02*
X7155896Y-32635174D01*
X7155896Y-32635174D02*
X7117801Y-32635174D01*
X7117801Y-32635174D02*
X7098753Y-32644698D01*
X7098753Y-32644698D02*
X7089229Y-32654222D01*
X7089229Y-32654222D02*
X7079706Y-32673269D01*
X7365420Y-32558984D02*
X7327325Y-32558984D01*
X7327325Y-32558984D02*
X7308277Y-32568508D01*
X7308277Y-32568508D02*
X7298753Y-32578031D01*
X7298753Y-32578031D02*
X7279706Y-32606603D01*
X7279706Y-32606603D02*
X7270182Y-32644698D01*
X7270182Y-32644698D02*
X7270182Y-32720888D01*
X7270182Y-32720888D02*
X7279706Y-32739936D01*
X7279706Y-32739936D02*
X7289229Y-32749460D01*
X7289229Y-32749460D02*
X7308277Y-32758984D01*
X7308277Y-32758984D02*
X7346372Y-32758984D01*
X7346372Y-32758984D02*
X7365420Y-32749460D01*
X7365420Y-32749460D02*
X7374944Y-32739936D01*
X7374944Y-32739936D02*
X7384467Y-32720888D01*
X7384467Y-32720888D02*
X7384467Y-32673269D01*
X7384467Y-32673269D02*
X7374944Y-32654222D01*
X7374944Y-32654222D02*
X7365420Y-32644698D01*
X7365420Y-32644698D02*
X7346372Y-32635174D01*
X7346372Y-32635174D02*
X7308277Y-32635174D01*
X7308277Y-32635174D02*
X7289229Y-32644698D01*
X7289229Y-32644698D02*
X7279706Y-32654222D01*
X7279706Y-32654222D02*
X7270182Y-32673269D01*
X7479706Y-32758984D02*
X7517801Y-32758984D01*
X7517801Y-32758984D02*
X7536848Y-32749460D01*
X7536848Y-32749460D02*
X7546372Y-32739936D01*
X7546372Y-32739936D02*
X7565420Y-32711365D01*
X7565420Y-32711365D02*
X7574944Y-32673269D01*
X7574944Y-32673269D02*
X7574944Y-32597079D01*
X7574944Y-32597079D02*
X7565420Y-32578031D01*
X7565420Y-32578031D02*
X7555896Y-32568508D01*
X7555896Y-32568508D02*
X7536848Y-32558984D01*
X7536848Y-32558984D02*
X7498753Y-32558984D01*
X7498753Y-32558984D02*
X7479706Y-32568508D01*
X7479706Y-32568508D02*
X7470182Y-32578031D01*
X7470182Y-32578031D02*
X7460658Y-32597079D01*
X7460658Y-32597079D02*
X7460658Y-32644698D01*
X7460658Y-32644698D02*
X7470182Y-32663746D01*
X7470182Y-32663746D02*
X7479706Y-32673269D01*
X7479706Y-32673269D02*
X7498753Y-32682793D01*
X7498753Y-32682793D02*
X7536848Y-32682793D01*
X7536848Y-32682793D02*
X7555896Y-32673269D01*
X7555896Y-32673269D02*
X7565420Y-32663746D01*
X7565420Y-32663746D02*
X7574944Y-32644698D01*
X7651134Y-32558984D02*
X7651134Y-32597079D01*
X7727325Y-32558984D02*
X7727325Y-32597079D01*
X8022563Y-32835174D02*
X8013039Y-32825650D01*
X8013039Y-32825650D02*
X7993991Y-32797079D01*
X7993991Y-32797079D02*
X7984468Y-32778031D01*
X7984468Y-32778031D02*
X7974944Y-32749460D01*
X7974944Y-32749460D02*
X7965420Y-32701841D01*
X7965420Y-32701841D02*
X7965420Y-32663746D01*
X7965420Y-32663746D02*
X7974944Y-32616127D01*
X7974944Y-32616127D02*
X7984468Y-32587555D01*
X7984468Y-32587555D02*
X7993991Y-32568508D01*
X7993991Y-32568508D02*
X8013039Y-32539936D01*
X8013039Y-32539936D02*
X8022563Y-32530412D01*
X8089229Y-32578031D02*
X8098753Y-32568508D01*
X8098753Y-32568508D02*
X8117801Y-32558984D01*
X8117801Y-32558984D02*
X8165420Y-32558984D01*
X8165420Y-32558984D02*
X8184468Y-32568508D01*
X8184468Y-32568508D02*
X8193991Y-32578031D01*
X8193991Y-32578031D02*
X8203515Y-32597079D01*
X8203515Y-32597079D02*
X8203515Y-32616127D01*
X8203515Y-32616127D02*
X8193991Y-32644698D01*
X8193991Y-32644698D02*
X8079706Y-32758984D01*
X8079706Y-32758984D02*
X8203515Y-32758984D01*
X8441611Y-32758984D02*
X8441611Y-32558984D01*
X8527325Y-32758984D02*
X8527325Y-32654222D01*
X8527325Y-32654222D02*
X8517801Y-32635174D01*
X8517801Y-32635174D02*
X8498753Y-32625650D01*
X8498753Y-32625650D02*
X8470182Y-32625650D01*
X8470182Y-32625650D02*
X8451134Y-32635174D01*
X8451134Y-32635174D02*
X8441611Y-32644698D01*
X8651134Y-32758984D02*
X8632087Y-32749460D01*
X8632087Y-32749460D02*
X8622563Y-32739936D01*
X8622563Y-32739936D02*
X8613039Y-32720888D01*
X8613039Y-32720888D02*
X8613039Y-32663746D01*
X8613039Y-32663746D02*
X8622563Y-32644698D01*
X8622563Y-32644698D02*
X8632087Y-32635174D01*
X8632087Y-32635174D02*
X8651134Y-32625650D01*
X8651134Y-32625650D02*
X8679706Y-32625650D01*
X8679706Y-32625650D02*
X8698753Y-32635174D01*
X8698753Y-32635174D02*
X8708277Y-32644698D01*
X8708277Y-32644698D02*
X8717801Y-32663746D01*
X8717801Y-32663746D02*
X8717801Y-32720888D01*
X8717801Y-32720888D02*
X8708277Y-32739936D01*
X8708277Y-32739936D02*
X8698753Y-32749460D01*
X8698753Y-32749460D02*
X8679706Y-32758984D01*
X8679706Y-32758984D02*
X8651134Y-32758984D01*
X8832087Y-32758984D02*
X8813039Y-32749460D01*
X8813039Y-32749460D02*
X8803515Y-32730412D01*
X8803515Y-32730412D02*
X8803515Y-32558984D01*
X8984468Y-32749460D02*
X8965420Y-32758984D01*
X8965420Y-32758984D02*
X8927325Y-32758984D01*
X8927325Y-32758984D02*
X8908277Y-32749460D01*
X8908277Y-32749460D02*
X8898753Y-32730412D01*
X8898753Y-32730412D02*
X8898753Y-32654222D01*
X8898753Y-32654222D02*
X8908277Y-32635174D01*
X8908277Y-32635174D02*
X8927325Y-32625650D01*
X8927325Y-32625650D02*
X8965420Y-32625650D01*
X8965420Y-32625650D02*
X8984468Y-32635174D01*
X8984468Y-32635174D02*
X8993992Y-32654222D01*
X8993992Y-32654222D02*
X8993992Y-32673269D01*
X8993992Y-32673269D02*
X8898753Y-32692317D01*
X9070182Y-32749460D02*
X9089230Y-32758984D01*
X9089230Y-32758984D02*
X9127325Y-32758984D01*
X9127325Y-32758984D02*
X9146373Y-32749460D01*
X9146373Y-32749460D02*
X9155896Y-32730412D01*
X9155896Y-32730412D02*
X9155896Y-32720888D01*
X9155896Y-32720888D02*
X9146373Y-32701841D01*
X9146373Y-32701841D02*
X9127325Y-32692317D01*
X9127325Y-32692317D02*
X9098753Y-32692317D01*
X9098753Y-32692317D02*
X9079706Y-32682793D01*
X9079706Y-32682793D02*
X9070182Y-32663746D01*
X9070182Y-32663746D02*
X9070182Y-32654222D01*
X9070182Y-32654222D02*
X9079706Y-32635174D01*
X9079706Y-32635174D02*
X9098753Y-32625650D01*
X9098753Y-32625650D02*
X9127325Y-32625650D01*
X9127325Y-32625650D02*
X9146373Y-32635174D01*
X9222563Y-32835174D02*
X9232087Y-32825650D01*
X9232087Y-32825650D02*
X9251134Y-32797079D01*
X9251134Y-32797079D02*
X9260658Y-32778031D01*
X9260658Y-32778031D02*
X9270182Y-32749460D01*
X9270182Y-32749460D02*
X9279706Y-32701841D01*
X9279706Y-32701841D02*
X9279706Y-32663746D01*
X9279706Y-32663746D02*
X9270182Y-32616127D01*
X9270182Y-32616127D02*
X9260658Y-32587555D01*
X9260658Y-32587555D02*
X9251134Y-32568508D01*
X9251134Y-32568508D02*
X9232087Y-32539936D01*
X9232087Y-32539936D02*
X9222563Y-32530412D01*
X9584468Y-32835174D02*
X9574944Y-32825650D01*
X9574944Y-32825650D02*
X9555896Y-32797079D01*
X9555896Y-32797079D02*
X9546373Y-32778031D01*
X9546373Y-32778031D02*
X9536849Y-32749460D01*
X9536849Y-32749460D02*
X9527325Y-32701841D01*
X9527325Y-32701841D02*
X9527325Y-32663746D01*
X9527325Y-32663746D02*
X9536849Y-32616127D01*
X9536849Y-32616127D02*
X9546373Y-32587555D01*
X9546373Y-32587555D02*
X9555896Y-32568508D01*
X9555896Y-32568508D02*
X9574944Y-32539936D01*
X9574944Y-32539936D02*
X9584468Y-32530412D01*
X9660658Y-32625650D02*
X9660658Y-32758984D01*
X9660658Y-32644698D02*
X9670182Y-32635174D01*
X9670182Y-32635174D02*
X9689230Y-32625650D01*
X9689230Y-32625650D02*
X9717801Y-32625650D01*
X9717801Y-32625650D02*
X9736849Y-32635174D01*
X9736849Y-32635174D02*
X9746373Y-32654222D01*
X9746373Y-32654222D02*
X9746373Y-32758984D01*
X9870182Y-32758984D02*
X9851134Y-32749460D01*
X9851134Y-32749460D02*
X9841611Y-32739936D01*
X9841611Y-32739936D02*
X9832087Y-32720888D01*
X9832087Y-32720888D02*
X9832087Y-32663746D01*
X9832087Y-32663746D02*
X9841611Y-32644698D01*
X9841611Y-32644698D02*
X9851134Y-32635174D01*
X9851134Y-32635174D02*
X9870182Y-32625650D01*
X9870182Y-32625650D02*
X9898754Y-32625650D01*
X9898754Y-32625650D02*
X9917801Y-32635174D01*
X9917801Y-32635174D02*
X9927325Y-32644698D01*
X9927325Y-32644698D02*
X9936849Y-32663746D01*
X9936849Y-32663746D02*
X9936849Y-32720888D01*
X9936849Y-32720888D02*
X9927325Y-32739936D01*
X9927325Y-32739936D02*
X9917801Y-32749460D01*
X9917801Y-32749460D02*
X9898754Y-32758984D01*
X9898754Y-32758984D02*
X9870182Y-32758984D01*
X9993992Y-32625650D02*
X10070182Y-32625650D01*
X10022563Y-32558984D02*
X10022563Y-32730412D01*
X10022563Y-32730412D02*
X10032087Y-32749460D01*
X10032087Y-32749460D02*
X10051134Y-32758984D01*
X10051134Y-32758984D02*
X10070182Y-32758984D01*
X10289230Y-32625650D02*
X10289230Y-32825650D01*
X10289230Y-32635174D02*
X10308277Y-32625650D01*
X10308277Y-32625650D02*
X10346373Y-32625650D01*
X10346373Y-32625650D02*
X10365420Y-32635174D01*
X10365420Y-32635174D02*
X10374944Y-32644698D01*
X10374944Y-32644698D02*
X10384468Y-32663746D01*
X10384468Y-32663746D02*
X10384468Y-32720888D01*
X10384468Y-32720888D02*
X10374944Y-32739936D01*
X10374944Y-32739936D02*
X10365420Y-32749460D01*
X10365420Y-32749460D02*
X10346373Y-32758984D01*
X10346373Y-32758984D02*
X10308277Y-32758984D01*
X10308277Y-32758984D02*
X10289230Y-32749460D01*
X10498754Y-32758984D02*
X10479706Y-32749460D01*
X10479706Y-32749460D02*
X10470182Y-32730412D01*
X10470182Y-32730412D02*
X10470182Y-32558984D01*
X10660658Y-32758984D02*
X10660658Y-32654222D01*
X10660658Y-32654222D02*
X10651135Y-32635174D01*
X10651135Y-32635174D02*
X10632087Y-32625650D01*
X10632087Y-32625650D02*
X10593992Y-32625650D01*
X10593992Y-32625650D02*
X10574944Y-32635174D01*
X10660658Y-32749460D02*
X10641611Y-32758984D01*
X10641611Y-32758984D02*
X10593992Y-32758984D01*
X10593992Y-32758984D02*
X10574944Y-32749460D01*
X10574944Y-32749460D02*
X10565420Y-32730412D01*
X10565420Y-32730412D02*
X10565420Y-32711365D01*
X10565420Y-32711365D02*
X10574944Y-32692317D01*
X10574944Y-32692317D02*
X10593992Y-32682793D01*
X10593992Y-32682793D02*
X10641611Y-32682793D01*
X10641611Y-32682793D02*
X10660658Y-32673269D01*
X10727325Y-32625650D02*
X10803515Y-32625650D01*
X10755896Y-32558984D02*
X10755896Y-32730412D01*
X10755896Y-32730412D02*
X10765420Y-32749460D01*
X10765420Y-32749460D02*
X10784468Y-32758984D01*
X10784468Y-32758984D02*
X10803515Y-32758984D01*
X10946373Y-32749460D02*
X10927325Y-32758984D01*
X10927325Y-32758984D02*
X10889230Y-32758984D01*
X10889230Y-32758984D02*
X10870182Y-32749460D01*
X10870182Y-32749460D02*
X10860658Y-32730412D01*
X10860658Y-32730412D02*
X10860658Y-32654222D01*
X10860658Y-32654222D02*
X10870182Y-32635174D01*
X10870182Y-32635174D02*
X10889230Y-32625650D01*
X10889230Y-32625650D02*
X10927325Y-32625650D01*
X10927325Y-32625650D02*
X10946373Y-32635174D01*
X10946373Y-32635174D02*
X10955896Y-32654222D01*
X10955896Y-32654222D02*
X10955896Y-32673269D01*
X10955896Y-32673269D02*
X10860658Y-32692317D01*
X11127325Y-32758984D02*
X11127325Y-32558984D01*
X11127325Y-32749460D02*
X11108277Y-32758984D01*
X11108277Y-32758984D02*
X11070182Y-32758984D01*
X11070182Y-32758984D02*
X11051135Y-32749460D01*
X11051135Y-32749460D02*
X11041611Y-32739936D01*
X11041611Y-32739936D02*
X11032087Y-32720888D01*
X11032087Y-32720888D02*
X11032087Y-32663746D01*
X11032087Y-32663746D02*
X11041611Y-32644698D01*
X11041611Y-32644698D02*
X11051135Y-32635174D01*
X11051135Y-32635174D02*
X11070182Y-32625650D01*
X11070182Y-32625650D02*
X11108277Y-32625650D01*
X11108277Y-32625650D02*
X11127325Y-32635174D01*
X11203515Y-32835174D02*
X11213039Y-32825650D01*
X11213039Y-32825650D02*
X11232087Y-32797079D01*
X11232087Y-32797079D02*
X11241611Y-32778031D01*
X11241611Y-32778031D02*
X11251134Y-32749460D01*
X11251134Y-32749460D02*
X11260658Y-32701841D01*
X11260658Y-32701841D02*
X11260658Y-32663746D01*
X11260658Y-32663746D02*
X11251134Y-32616127D01*
X11251134Y-32616127D02*
X11241611Y-32587555D01*
X11241611Y-32587555D02*
X11232087Y-32568508D01*
X11232087Y-32568508D02*
X11213039Y-32539936D01*
X11213039Y-32539936D02*
X11203515Y-32530412D01*
M02*
