G04 #@! TF.GenerationSoftware,KiCad,Pcbnew,9.0.1*
G04 #@! TF.CreationDate,2025-08-16T12:46:55+08:00*
G04 #@! TF.ProjectId,final version,66696e61-6c20-4766-9572-73696f6e2e6b,rev?*
G04 #@! TF.SameCoordinates,Original*
G04 #@! TF.FileFunction,Paste,Top*
G04 #@! TF.FilePolarity,Positive*
%FSLAX46Y46*%
G04 Gerber Fmt 4.6, Leading zero omitted, Abs format (unit mm)*
G04 Created by KiCad (PCBNEW 9.0.1) date 2025-08-16 12:46:55*
%MOMM*%
%LPD*%
G01*
G04 APERTURE LIST*
G04 Aperture macros list*
%AMRoundRect*
0 Rectangle with rounded corners*
0 $1 Rounding radius*
0 $2 $3 $4 $5 $6 $7 $8 $9 X,Y pos of 4 corners*
0 Add a 4 corners polygon primitive as box body*
4,1,4,$2,$3,$4,$5,$6,$7,$8,$9,$2,$3,0*
0 Add four circle primitives for the rounded corners*
1,1,$1+$1,$2,$3*
1,1,$1+$1,$4,$5*
1,1,$1+$1,$6,$7*
1,1,$1+$1,$8,$9*
0 Add four rect primitives between the rounded corners*
20,1,$1+$1,$2,$3,$4,$5,0*
20,1,$1+$1,$4,$5,$6,$7,0*
20,1,$1+$1,$6,$7,$8,$9,0*
20,1,$1+$1,$8,$9,$2,$3,0*%
G04 Aperture macros list end*
%ADD10RoundRect,0.090000X-0.660000X-0.360000X0.660000X-0.360000X0.660000X0.360000X-0.660000X0.360000X0*%
%ADD11RoundRect,0.250000X-0.475000X0.337500X-0.475000X-0.337500X0.475000X-0.337500X0.475000X0.337500X0*%
%ADD12RoundRect,0.250000X0.475000X-0.337500X0.475000X0.337500X-0.475000X0.337500X-0.475000X-0.337500X0*%
%ADD13RoundRect,0.250000X0.337500X0.475000X-0.337500X0.475000X-0.337500X-0.475000X0.337500X-0.475000X0*%
%ADD14RoundRect,0.250000X-0.450000X0.350000X-0.450000X-0.350000X0.450000X-0.350000X0.450000X0.350000X0*%
%ADD15RoundRect,0.300000X-0.699999X-0.950000X0.699999X-0.950000X0.699999X0.950000X-0.699999X0.950000X0*%
%ADD16RoundRect,0.300000X-0.700000X-0.950000X0.700000X-0.950000X0.700000X0.950000X-0.700000X0.950000X0*%
%ADD17RoundRect,0.150000X0.875000X0.150000X-0.875000X0.150000X-0.875000X-0.150000X0.875000X-0.150000X0*%
%ADD18RoundRect,0.250000X-0.337500X-0.475000X0.337500X-0.475000X0.337500X0.475000X-0.337500X0.475000X0*%
%ADD19RoundRect,0.250000X-0.350000X-0.450000X0.350000X-0.450000X0.350000X0.450000X-0.350000X0.450000X0*%
%ADD20RoundRect,0.100000X-0.637500X-0.100000X0.637500X-0.100000X0.637500X0.100000X-0.637500X0.100000X0*%
%ADD21R,2.184400X0.558800*%
%ADD22RoundRect,0.172500X-0.172500X-0.172500X0.172500X-0.172500X0.172500X0.172500X-0.172500X0.172500X0*%
%ADD23RoundRect,0.062500X-0.375000X-0.062500X0.375000X-0.062500X0.375000X0.062500X-0.375000X0.062500X0*%
%ADD24RoundRect,0.062500X-0.062500X-0.375000X0.062500X-0.375000X0.062500X0.375000X-0.062500X0.375000X0*%
%ADD25R,2.800000X2.200000*%
%ADD26R,2.800000X2.800000*%
%ADD27RoundRect,0.250000X0.350000X0.450000X-0.350000X0.450000X-0.350000X-0.450000X0.350000X-0.450000X0*%
G04 APERTURE END LIST*
D10*
X117930000Y-290970000D03*
X117930000Y-294270000D03*
X122830000Y-294270000D03*
X122830000Y-290970000D03*
D11*
X214100000Y-68912500D03*
X214100000Y-70987500D03*
D12*
X214600000Y-79337500D03*
X214600000Y-77262500D03*
D13*
X200887500Y-78400000D03*
X198812500Y-78400000D03*
D14*
X216880000Y-171000000D03*
X216880000Y-173000000D03*
D12*
X201450000Y-74937500D03*
X201450000Y-72862500D03*
D15*
X113380000Y-262120000D03*
D16*
X116880000Y-262120000D03*
X119880000Y-262120000D03*
D17*
X230300000Y-124885000D03*
X230300000Y-123615000D03*
X230300000Y-122345000D03*
X230300000Y-121075000D03*
X230300000Y-119805000D03*
X230300000Y-118535000D03*
X230300000Y-117265000D03*
X230300000Y-115995000D03*
X230300000Y-114725000D03*
X230300000Y-113455000D03*
X230300000Y-112185000D03*
X230300000Y-110915000D03*
X221000000Y-110915000D03*
X221000000Y-112185000D03*
X221000000Y-113455000D03*
X221000000Y-114725000D03*
X221000000Y-115995000D03*
X221000000Y-117265000D03*
X221000000Y-118535000D03*
X221000000Y-119805000D03*
X221000000Y-121075000D03*
X221000000Y-122345000D03*
X221000000Y-123615000D03*
X221000000Y-124885000D03*
D13*
X66137500Y-146250000D03*
X64062500Y-146250000D03*
D14*
X120380000Y-267000000D03*
X120380000Y-269000000D03*
D10*
X69680000Y-146220000D03*
X69680000Y-149520000D03*
X74580000Y-149520000D03*
X74580000Y-146220000D03*
D12*
X217350000Y-75937500D03*
X217350000Y-73862500D03*
D15*
X113380000Y-165620000D03*
D16*
X116880000Y-165620000D03*
X119880000Y-165620000D03*
D18*
X198862500Y-80950000D03*
X200937500Y-80950000D03*
D13*
X218987500Y-71950000D03*
X216912500Y-71950000D03*
D14*
X120380000Y-219000000D03*
X120380000Y-221000000D03*
D19*
X194650000Y-80950000D03*
X196650000Y-80950000D03*
D14*
X72130000Y-267000000D03*
X72130000Y-269000000D03*
D15*
X113380000Y-310370000D03*
D16*
X116880000Y-310370000D03*
X119880000Y-310370000D03*
D20*
X192995000Y-70675000D03*
X192995000Y-71325000D03*
X192995000Y-71975000D03*
X192995000Y-72625000D03*
X192995000Y-73275000D03*
X192995000Y-73925000D03*
X192995000Y-74575000D03*
X192995000Y-75225000D03*
X192995000Y-75875000D03*
X192995000Y-76525000D03*
X198720000Y-76525000D03*
X198720000Y-75875000D03*
X198720000Y-75225000D03*
X198720000Y-74575000D03*
X198720000Y-73925000D03*
X198720000Y-73275000D03*
X198720000Y-72625000D03*
X198720000Y-71975000D03*
X198720000Y-71325000D03*
X198720000Y-70675000D03*
D18*
X208662500Y-75350000D03*
X210737500Y-75350000D03*
D15*
X113380000Y-213870000D03*
D16*
X116880000Y-213870000D03*
X119880000Y-213870000D03*
D21*
X223225600Y-97830000D03*
X223225600Y-99100000D03*
X223225600Y-100370000D03*
X223225600Y-101640000D03*
X223225600Y-102910000D03*
X223225600Y-104180000D03*
X223225600Y-105450000D03*
X223225600Y-106720000D03*
X227950000Y-106720000D03*
X227950000Y-105450000D03*
X227950000Y-104180000D03*
X227950000Y-102910000D03*
X227950000Y-101640000D03*
X227950000Y-100370000D03*
X227950000Y-99100000D03*
X227950000Y-97830000D03*
D12*
X201450000Y-70937500D03*
X201450000Y-68862500D03*
D15*
X161630000Y-213870000D03*
D16*
X165130000Y-213870000D03*
X168130000Y-213870000D03*
D10*
X214430000Y-290970000D03*
X214430000Y-294270000D03*
X219330000Y-294270000D03*
X219330000Y-290970000D03*
X166180000Y-194470000D03*
X166180000Y-197770000D03*
X171080000Y-197770000D03*
X171080000Y-194470000D03*
D14*
X168630000Y-315000000D03*
X168630000Y-317000000D03*
D22*
X213395000Y-73700000D03*
X213395000Y-74500000D03*
X214195000Y-73700000D03*
X214195000Y-74500000D03*
D23*
X212357500Y-73350000D03*
X212357500Y-73850000D03*
X212357500Y-74350000D03*
X212357500Y-74850000D03*
D24*
X213045000Y-75537500D03*
X213545000Y-75537500D03*
X214045000Y-75537500D03*
X214545000Y-75537500D03*
D23*
X215232500Y-74850000D03*
X215232500Y-74350000D03*
X215232500Y-73850000D03*
X215232500Y-73350000D03*
D24*
X214545000Y-72662500D03*
X214045000Y-72662500D03*
X213545000Y-72662500D03*
X213045000Y-72662500D03*
D14*
X168630000Y-219000000D03*
X168630000Y-221000000D03*
D15*
X209880000Y-310370000D03*
D16*
X213380000Y-310370000D03*
X216380000Y-310370000D03*
D10*
X214430000Y-242720000D03*
X214430000Y-246020000D03*
X219330000Y-246020000D03*
X219330000Y-242720000D03*
D14*
X72130000Y-315000000D03*
X72130000Y-317000000D03*
D10*
X166180000Y-146220000D03*
X166180000Y-149520000D03*
X171080000Y-149520000D03*
X171080000Y-146220000D03*
X166180000Y-242720000D03*
X166180000Y-246020000D03*
X171080000Y-246020000D03*
X171080000Y-242720000D03*
D14*
X120380000Y-315000000D03*
X120380000Y-317000000D03*
D15*
X65130000Y-165620000D03*
D16*
X68630000Y-165620000D03*
X71630000Y-165620000D03*
D12*
X190650000Y-77887500D03*
X190650000Y-75812500D03*
D15*
X209880000Y-213870000D03*
D16*
X213380000Y-213870000D03*
X216380000Y-213870000D03*
D12*
X203700000Y-74987500D03*
X203700000Y-72912500D03*
D25*
X233080000Y-69030000D03*
X225680000Y-67030000D03*
D26*
X225680000Y-76430000D03*
D10*
X214430000Y-194470000D03*
X214430000Y-197770000D03*
X219330000Y-197770000D03*
X219330000Y-194470000D03*
D15*
X209880000Y-262120000D03*
D16*
X213380000Y-262120000D03*
X216380000Y-262120000D03*
D14*
X216880000Y-219000000D03*
X216880000Y-221000000D03*
D11*
X188400000Y-69312500D03*
X188400000Y-71387500D03*
D14*
X216880000Y-267000000D03*
X216880000Y-269000000D03*
X168630000Y-267000000D03*
X168630000Y-269000000D03*
D10*
X117930000Y-146220000D03*
X117930000Y-149520000D03*
X122830000Y-149520000D03*
X122830000Y-146220000D03*
D14*
X216880000Y-315000000D03*
X216880000Y-317000000D03*
D13*
X210737500Y-73250000D03*
X208662500Y-73250000D03*
D15*
X161630000Y-165620000D03*
D16*
X165130000Y-165620000D03*
X168130000Y-165620000D03*
D10*
X117930000Y-194470000D03*
X117930000Y-197770000D03*
X122830000Y-197770000D03*
X122830000Y-194470000D03*
D11*
X183950000Y-69712500D03*
X183950000Y-71787500D03*
D14*
X72130000Y-171000000D03*
X72130000Y-173000000D03*
D10*
X69680000Y-194470000D03*
X69680000Y-197770000D03*
X74580000Y-197770000D03*
X74580000Y-194470000D03*
D11*
X188650000Y-75812500D03*
X188650000Y-77887500D03*
D15*
X65130000Y-213870000D03*
D16*
X68630000Y-213870000D03*
X71630000Y-213870000D03*
D15*
X161630000Y-310370000D03*
D16*
X165130000Y-310370000D03*
X168130000Y-310370000D03*
D15*
X65130000Y-310370000D03*
D16*
X68630000Y-310370000D03*
X71630000Y-310370000D03*
D14*
X72130000Y-219000000D03*
X72130000Y-221000000D03*
X168630000Y-171000000D03*
X168630000Y-173000000D03*
D10*
X117930000Y-242720000D03*
X117930000Y-246020000D03*
X122830000Y-246020000D03*
X122830000Y-242720000D03*
D13*
X190787500Y-73750000D03*
X188712500Y-73750000D03*
D15*
X161630000Y-262120000D03*
D16*
X165130000Y-262120000D03*
X168130000Y-262120000D03*
D10*
X214430000Y-146220000D03*
X214430000Y-149520000D03*
X219330000Y-149520000D03*
X219330000Y-146220000D03*
D13*
X218337500Y-124250000D03*
X216262500Y-124250000D03*
D15*
X209880000Y-165620000D03*
D16*
X213380000Y-165620000D03*
X216380000Y-165620000D03*
D12*
X190750000Y-71387500D03*
X190750000Y-69312500D03*
D11*
X203700000Y-68912500D03*
X203700000Y-70987500D03*
D27*
X78800000Y-146200000D03*
X76800000Y-146200000D03*
D14*
X120380000Y-171000000D03*
X120380000Y-173000000D03*
D10*
X69680000Y-290970000D03*
X69680000Y-294270000D03*
X74580000Y-294270000D03*
X74580000Y-290970000D03*
D15*
X65130000Y-262120000D03*
D16*
X68630000Y-262120000D03*
X71630000Y-262120000D03*
D10*
X69680000Y-242720000D03*
X69680000Y-246020000D03*
X74580000Y-246020000D03*
X74580000Y-242720000D03*
X166180000Y-290970000D03*
X166180000Y-294270000D03*
X171080000Y-294270000D03*
X171080000Y-290970000D03*
D19*
X194650000Y-78400000D03*
X196650000Y-78400000D03*
M02*
