M48
; DRILL file {KiCad 9.0.1} date 2025-08-16T12:46:44+0800
; FORMAT={-:-/ absolute / metric / decimal}
; #@! TF.CreationDate,2025-08-16T12:46:44+08:00
; #@! TF.GenerationSoftware,Kicad,Pcbnew,9.0.1
; #@! TF.FileFunction,Plated,1,2,PTH
FMAT,2
METRIC
; #@! TA.AperFunction,Plated,PTH,ComponentDrill
T1C0.200
; #@! TA.AperFunction,Plated,PTH,ViaDrill
T2C0.300
; #@! TA.AperFunction,Plated,PTH,ComponentDrill
T3C1.000
; #@! TA.AperFunction,Plated,PTH,ComponentDrill
T4C1.200
; #@! TA.AperFunction,Plated,PTH,ComponentDrill
T5C2.000
%
G90
G05
T1
X213.245Y-73.55
X213.245Y-74.65
X214.345Y-73.55
X214.345Y-74.65
T2
X50.5Y-168.9
X51.1Y-169.95
X51.7Y-170.95
X52.2Y-268.35
X52.2Y-269.45
X52.2Y-270.65
X52.3Y-172.55
X65.1Y-168.9
X65.1Y-313.75
X65.15Y-216.8
X65.25Y-222.15
X66.55Y-223.1
X67.35Y-289.85
X67.45Y-241.55
X67.5Y-193.3
X67.6Y-145.0
X67.95Y-149.95
X67.95Y-246.45
X69.65Y-200.0
X70.0Y-119.1
X70.623Y-110.251
X74.58Y-149.52
X74.58Y-197.77
X74.58Y-246.02
X74.58Y-294.27
X74.6Y-240.1
X76.3Y-194.45
X76.7Y-290.95
X80.6Y-141.1
X80.8Y-106.6
X83.0Y-110.8
X83.45Y-106.75
X83.95Y-101.0
X85.55Y-111.4
X87.65Y-98.25
X88.45Y-97.55
X94.45Y-110.35
X100.8Y-110.35
X103.35Y-116.1
X103.35Y-121.9
X105.85Y-111.0
X108.35Y-110.8
X110.97Y-119.27
X112.05Y-235.6
X113.35Y-265.7
X113.4Y-169.6
X113.4Y-216.8
X113.4Y-315.25
X113.51Y-119.27
X114.95Y-115.4
X115.65Y-289.85
X115.725Y-241.575
X115.8Y-193.35
X115.85Y-145.0
X116.0Y-294.75
X116.2Y-149.95
X116.2Y-246.5
X116.25Y-198.2
X122.83Y-149.52
X122.83Y-197.77
X122.83Y-246.02
X122.83Y-294.27
X123.35Y-125.353
X124.15Y-126.0
X124.475Y-145.825
X124.55Y-194.45
X124.55Y-242.7
X124.85Y-116.35
X124.85Y-291.0
X125.15Y-126.7
X125.2Y-119.9
X125.95Y-127.35
X130.35Y-142.9
X136.764Y-113.161
X136.776Y-112.324
X136.8Y-111.5
X140.6Y-143.0
X143.2Y-118.1
X143.8Y-114.4
X143.8Y-115.6
X143.8Y-116.9
X145.0Y-125.353
X145.45Y-107.6
X146.587Y-110.555
X146.587Y-113.095
X146.587Y-119.445
X149.85Y-106.85
X149.95Y-106.05
X153.75Y-120.1
X161.6Y-265.7
X161.65Y-169.35
X161.7Y-316.9
X161.75Y-216.45
X163.9Y-289.85
X164.0Y-241.6
X164.05Y-193.35
X164.1Y-145.0
X164.2Y-294.8
X164.5Y-149.95
X164.5Y-198.25
X164.525Y-246.375
X170.85Y-120.4
X170.85Y-121.65
X170.85Y-122.8
X170.9Y-124.45
X171.08Y-149.52
X171.08Y-197.77
X171.08Y-246.02
X171.08Y-294.27
X172.55Y-105.25
X172.75Y-145.8
X172.8Y-194.45
X173.15Y-242.7
X173.15Y-290.95
X177.25Y-236.0
X177.35Y-139.2
X177.35Y-224.8
X185.6Y-71.8
X185.975Y-73.925
X187.1Y-69.3
X194.5Y-69.7
X195.5Y-69.7
X196.4Y-74.575
X197.175Y-73.925
X197.175Y-75.225
X200.887Y-78.4
X207.55Y-67.85
X207.6Y-70.1
X209.85Y-265.2
X209.9Y-70.7
X209.9Y-169.6
X209.95Y-316.45
X210.0Y-77.2
X210.15Y-215.75
X211.05Y-243.85
X211.45Y-147.2
X212.2Y-241.55
X212.2Y-289.8
X212.3Y-193.3
X212.35Y-145.0
X212.525Y-294.625
X212.75Y-198.25
X213.9Y-151.3
X214.4Y-247.95
X214.85Y-124.25
X215.7Y-101.35
X215.75Y-99.8
X216.262Y-124.25
X216.88Y-173.0
X219.33Y-149.52
X219.33Y-197.77
X219.33Y-246.02
X219.33Y-294.27
X221.0Y-113.455
X221.0Y-194.05
X221.3Y-290.55
X222.9Y-76.4
X223.226Y-100.37
X223.25Y-114.75
X223.295Y-115.995
X223.4Y-117.25
X223.45Y-118.45
X225.65Y-105.45
X225.67Y-106.72
X227.95Y-101.64
X229.95Y-104.7
X230.3Y-127.05
X235.05Y-215.65
X235.05Y-216.45
X235.05Y-217.45
X235.05Y-218.35
X236.3Y-69.1
X238.85Y-216.676
X238.85Y-215.399
T3
X48.5Y-218.08
X48.5Y-220.62
X48.5Y-223.16
X48.5Y-225.7
X74.05Y-78.11
X74.05Y-80.65
X74.05Y-83.19
X74.05Y-85.73
X74.05Y-88.27
X74.05Y-90.81
X74.05Y-93.35
X74.05Y-95.89
X240.0Y-218.0
X240.0Y-220.54
X240.0Y-223.08
X240.0Y-225.62
T4
X127.5Y-80.0
X127.5Y-94.5
X130.0Y-94.5
X132.5Y-80.0
X132.5Y-94.5
T5
G00X124.4Y-86.85
M15
G01X124.4Y-87.15
M16
G05
G00X135.6Y-86.85
M15
G01X135.6Y-87.15
M16
G05
M30
