G04 #@! TF.GenerationSoftware,KiCad,Pcbnew,9.0.1*
G04 #@! TF.CreationDate,2025-08-16T12:46:55+08:00*
G04 #@! TF.ProjectId,final version,66696e61-6c20-4766-9572-73696f6e2e6b,rev?*
G04 #@! TF.SameCoordinates,Original*
G04 #@! TF.FileFunction,Legend,Top*
G04 #@! TF.FilePolarity,Positive*
%FSLAX46Y46*%
G04 Gerber Fmt 4.6, Leading zero omitted, Abs format (unit mm)*
G04 Created by KiCad (PCBNEW 9.0.1) date 2025-08-16 12:46:55*
%MOMM*%
%LPD*%
G01*
G04 APERTURE LIST*
G04 Aperture macros list*
%AMRoundRect*
0 Rectangle with rounded corners*
0 $1 Rounding radius*
0 $2 $3 $4 $5 $6 $7 $8 $9 X,Y pos of 4 corners*
0 Add a 4 corners polygon primitive as box body*
4,1,4,$2,$3,$4,$5,$6,$7,$8,$9,$2,$3,0*
0 Add four circle primitives for the rounded corners*
1,1,$1+$1,$2,$3*
1,1,$1+$1,$4,$5*
1,1,$1+$1,$6,$7*
1,1,$1+$1,$8,$9*
0 Add four rect primitives between the rounded corners*
20,1,$1+$1,$2,$3,$4,$5,0*
20,1,$1+$1,$4,$5,$6,$7,0*
20,1,$1+$1,$6,$7,$8,$9,0*
20,1,$1+$1,$8,$9,$2,$3,0*%
G04 Aperture macros list end*
%ADD10C,0.150000*%
%ADD11C,0.100000*%
%ADD12C,0.120000*%
%ADD13C,0.152400*%
%ADD14C,0.000000*%
%ADD15C,0.127000*%
%ADD16C,0.200000*%
%ADD17C,2.000000*%
%ADD18RoundRect,0.090000X-0.660000X-0.360000X0.660000X-0.360000X0.660000X0.360000X-0.660000X0.360000X0*%
%ADD19RoundRect,0.250000X-0.475000X0.337500X-0.475000X-0.337500X0.475000X-0.337500X0.475000X0.337500X0*%
%ADD20RoundRect,0.250000X0.475000X-0.337500X0.475000X0.337500X-0.475000X0.337500X-0.475000X-0.337500X0*%
%ADD21RoundRect,0.250000X0.337500X0.475000X-0.337500X0.475000X-0.337500X-0.475000X0.337500X-0.475000X0*%
%ADD22RoundRect,0.250000X-0.450000X0.350000X-0.450000X-0.350000X0.450000X-0.350000X0.450000X0.350000X0*%
%ADD23RoundRect,0.300000X-0.699999X-0.950000X0.699999X-0.950000X0.699999X0.950000X-0.699999X0.950000X0*%
%ADD24RoundRect,0.300000X-0.700000X-0.950000X0.700000X-0.950000X0.700000X0.950000X-0.700000X0.950000X0*%
%ADD25RoundRect,0.150000X0.875000X0.150000X-0.875000X0.150000X-0.875000X-0.150000X0.875000X-0.150000X0*%
%ADD26RoundRect,0.250000X-0.337500X-0.475000X0.337500X-0.475000X0.337500X0.475000X-0.337500X0.475000X0*%
%ADD27RoundRect,0.250000X-0.350000X-0.450000X0.350000X-0.450000X0.350000X0.450000X-0.350000X0.450000X0*%
%ADD28RoundRect,0.100000X-0.637500X-0.100000X0.637500X-0.100000X0.637500X0.100000X-0.637500X0.100000X0*%
%ADD29R,2.184400X0.558800*%
%ADD30R,1.700000X1.700000*%
%ADD31C,1.700000*%
%ADD32RoundRect,0.062500X-0.375000X-0.062500X0.375000X-0.062500X0.375000X0.062500X-0.375000X0.062500X0*%
%ADD33RoundRect,0.062500X-0.062500X-0.375000X0.062500X-0.375000X0.062500X0.375000X-0.062500X0.375000X0*%
%ADD34R,1.600000X1.600000*%
%ADD35R,2.800000X2.200000*%
%ADD36R,2.800000X2.800000*%
%ADD37RoundRect,0.102000X-0.900000X-0.900000X0.900000X-0.900000X0.900000X0.900000X-0.900000X0.900000X0*%
%ADD38C,2.004000*%
%ADD39O,3.204000X6.204000*%
%ADD40RoundRect,0.250000X0.350000X0.450000X-0.350000X0.450000X-0.350000X-0.450000X0.350000X-0.450000X0*%
G04 APERTURE END LIST*
D10*
X119165714Y-289574819D02*
X119165714Y-288574819D01*
X119165714Y-288574819D02*
X119403809Y-288574819D01*
X119403809Y-288574819D02*
X119546666Y-288622438D01*
X119546666Y-288622438D02*
X119641904Y-288717676D01*
X119641904Y-288717676D02*
X119689523Y-288812914D01*
X119689523Y-288812914D02*
X119737142Y-289003390D01*
X119737142Y-289003390D02*
X119737142Y-289146247D01*
X119737142Y-289146247D02*
X119689523Y-289336723D01*
X119689523Y-289336723D02*
X119641904Y-289431961D01*
X119641904Y-289431961D02*
X119546666Y-289527200D01*
X119546666Y-289527200D02*
X119403809Y-289574819D01*
X119403809Y-289574819D02*
X119165714Y-289574819D01*
X120689523Y-289574819D02*
X120118095Y-289574819D01*
X120403809Y-289574819D02*
X120403809Y-288574819D01*
X120403809Y-288574819D02*
X120308571Y-288717676D01*
X120308571Y-288717676D02*
X120213333Y-288812914D01*
X120213333Y-288812914D02*
X120118095Y-288860533D01*
X121594285Y-288574819D02*
X121118095Y-288574819D01*
X121118095Y-288574819D02*
X121070476Y-289051009D01*
X121070476Y-289051009D02*
X121118095Y-289003390D01*
X121118095Y-289003390D02*
X121213333Y-288955771D01*
X121213333Y-288955771D02*
X121451428Y-288955771D01*
X121451428Y-288955771D02*
X121546666Y-289003390D01*
X121546666Y-289003390D02*
X121594285Y-289051009D01*
X121594285Y-289051009D02*
X121641904Y-289146247D01*
X121641904Y-289146247D02*
X121641904Y-289384342D01*
X121641904Y-289384342D02*
X121594285Y-289479580D01*
X121594285Y-289479580D02*
X121546666Y-289527200D01*
X121546666Y-289527200D02*
X121451428Y-289574819D01*
X121451428Y-289574819D02*
X121213333Y-289574819D01*
X121213333Y-289574819D02*
X121118095Y-289527200D01*
X121118095Y-289527200D02*
X121070476Y-289479580D01*
X116608571Y-291382295D02*
X116151428Y-291382295D01*
X116380000Y-291382295D02*
X116380000Y-290582295D01*
X116380000Y-290582295D02*
X116303809Y-290696580D01*
X116303809Y-290696580D02*
X116227619Y-290772771D01*
X116227619Y-290772771D02*
X116151428Y-290810866D01*
X216139580Y-70592857D02*
X216187200Y-70640476D01*
X216187200Y-70640476D02*
X216234819Y-70783333D01*
X216234819Y-70783333D02*
X216234819Y-70878571D01*
X216234819Y-70878571D02*
X216187200Y-71021428D01*
X216187200Y-71021428D02*
X216091961Y-71116666D01*
X216091961Y-71116666D02*
X215996723Y-71164285D01*
X215996723Y-71164285D02*
X215806247Y-71211904D01*
X215806247Y-71211904D02*
X215663390Y-71211904D01*
X215663390Y-71211904D02*
X215472914Y-71164285D01*
X215472914Y-71164285D02*
X215377676Y-71116666D01*
X215377676Y-71116666D02*
X215282438Y-71021428D01*
X215282438Y-71021428D02*
X215234819Y-70878571D01*
X215234819Y-70878571D02*
X215234819Y-70783333D01*
X215234819Y-70783333D02*
X215282438Y-70640476D01*
X215282438Y-70640476D02*
X215330057Y-70592857D01*
X215330057Y-70211904D02*
X215282438Y-70164285D01*
X215282438Y-70164285D02*
X215234819Y-70069047D01*
X215234819Y-70069047D02*
X215234819Y-69830952D01*
X215234819Y-69830952D02*
X215282438Y-69735714D01*
X215282438Y-69735714D02*
X215330057Y-69688095D01*
X215330057Y-69688095D02*
X215425295Y-69640476D01*
X215425295Y-69640476D02*
X215520533Y-69640476D01*
X215520533Y-69640476D02*
X215663390Y-69688095D01*
X215663390Y-69688095D02*
X216234819Y-70259523D01*
X216234819Y-70259523D02*
X216234819Y-69640476D01*
X215234819Y-69021428D02*
X215234819Y-68926190D01*
X215234819Y-68926190D02*
X215282438Y-68830952D01*
X215282438Y-68830952D02*
X215330057Y-68783333D01*
X215330057Y-68783333D02*
X215425295Y-68735714D01*
X215425295Y-68735714D02*
X215615771Y-68688095D01*
X215615771Y-68688095D02*
X215853866Y-68688095D01*
X215853866Y-68688095D02*
X216044342Y-68735714D01*
X216044342Y-68735714D02*
X216139580Y-68783333D01*
X216139580Y-68783333D02*
X216187200Y-68830952D01*
X216187200Y-68830952D02*
X216234819Y-68926190D01*
X216234819Y-68926190D02*
X216234819Y-69021428D01*
X216234819Y-69021428D02*
X216187200Y-69116666D01*
X216187200Y-69116666D02*
X216139580Y-69164285D01*
X216139580Y-69164285D02*
X216044342Y-69211904D01*
X216044342Y-69211904D02*
X215853866Y-69259523D01*
X215853866Y-69259523D02*
X215615771Y-69259523D01*
X215615771Y-69259523D02*
X215425295Y-69211904D01*
X215425295Y-69211904D02*
X215330057Y-69164285D01*
X215330057Y-69164285D02*
X215282438Y-69116666D01*
X215282438Y-69116666D02*
X215234819Y-69021428D01*
X213279580Y-78942857D02*
X213327200Y-78990476D01*
X213327200Y-78990476D02*
X213374819Y-79133333D01*
X213374819Y-79133333D02*
X213374819Y-79228571D01*
X213374819Y-79228571D02*
X213327200Y-79371428D01*
X213327200Y-79371428D02*
X213231961Y-79466666D01*
X213231961Y-79466666D02*
X213136723Y-79514285D01*
X213136723Y-79514285D02*
X212946247Y-79561904D01*
X212946247Y-79561904D02*
X212803390Y-79561904D01*
X212803390Y-79561904D02*
X212612914Y-79514285D01*
X212612914Y-79514285D02*
X212517676Y-79466666D01*
X212517676Y-79466666D02*
X212422438Y-79371428D01*
X212422438Y-79371428D02*
X212374819Y-79228571D01*
X212374819Y-79228571D02*
X212374819Y-79133333D01*
X212374819Y-79133333D02*
X212422438Y-78990476D01*
X212422438Y-78990476D02*
X212470057Y-78942857D01*
X213374819Y-77990476D02*
X213374819Y-78561904D01*
X213374819Y-78276190D02*
X212374819Y-78276190D01*
X212374819Y-78276190D02*
X212517676Y-78371428D01*
X212517676Y-78371428D02*
X212612914Y-78466666D01*
X212612914Y-78466666D02*
X212660533Y-78561904D01*
X213374819Y-77514285D02*
X213374819Y-77323809D01*
X213374819Y-77323809D02*
X213327200Y-77228571D01*
X213327200Y-77228571D02*
X213279580Y-77180952D01*
X213279580Y-77180952D02*
X213136723Y-77085714D01*
X213136723Y-77085714D02*
X212946247Y-77038095D01*
X212946247Y-77038095D02*
X212565295Y-77038095D01*
X212565295Y-77038095D02*
X212470057Y-77085714D01*
X212470057Y-77085714D02*
X212422438Y-77133333D01*
X212422438Y-77133333D02*
X212374819Y-77228571D01*
X212374819Y-77228571D02*
X212374819Y-77419047D01*
X212374819Y-77419047D02*
X212422438Y-77514285D01*
X212422438Y-77514285D02*
X212470057Y-77561904D01*
X212470057Y-77561904D02*
X212565295Y-77609523D01*
X212565295Y-77609523D02*
X212803390Y-77609523D01*
X212803390Y-77609523D02*
X212898628Y-77561904D01*
X212898628Y-77561904D02*
X212946247Y-77514285D01*
X212946247Y-77514285D02*
X212993866Y-77419047D01*
X212993866Y-77419047D02*
X212993866Y-77228571D01*
X212993866Y-77228571D02*
X212946247Y-77133333D01*
X212946247Y-77133333D02*
X212898628Y-77085714D01*
X212898628Y-77085714D02*
X212803390Y-77038095D01*
X199207142Y-80439580D02*
X199159523Y-80487200D01*
X199159523Y-80487200D02*
X199016666Y-80534819D01*
X199016666Y-80534819D02*
X198921428Y-80534819D01*
X198921428Y-80534819D02*
X198778571Y-80487200D01*
X198778571Y-80487200D02*
X198683333Y-80391961D01*
X198683333Y-80391961D02*
X198635714Y-80296723D01*
X198635714Y-80296723D02*
X198588095Y-80106247D01*
X198588095Y-80106247D02*
X198588095Y-79963390D01*
X198588095Y-79963390D02*
X198635714Y-79772914D01*
X198635714Y-79772914D02*
X198683333Y-79677676D01*
X198683333Y-79677676D02*
X198778571Y-79582438D01*
X198778571Y-79582438D02*
X198921428Y-79534819D01*
X198921428Y-79534819D02*
X199016666Y-79534819D01*
X199016666Y-79534819D02*
X199159523Y-79582438D01*
X199159523Y-79582438D02*
X199207142Y-79630057D01*
X200159523Y-80534819D02*
X199588095Y-80534819D01*
X199873809Y-80534819D02*
X199873809Y-79534819D01*
X199873809Y-79534819D02*
X199778571Y-79677676D01*
X199778571Y-79677676D02*
X199683333Y-79772914D01*
X199683333Y-79772914D02*
X199588095Y-79820533D01*
X200492857Y-79534819D02*
X201111904Y-79534819D01*
X201111904Y-79534819D02*
X200778571Y-79915771D01*
X200778571Y-79915771D02*
X200921428Y-79915771D01*
X200921428Y-79915771D02*
X201016666Y-79963390D01*
X201016666Y-79963390D02*
X201064285Y-80011009D01*
X201064285Y-80011009D02*
X201111904Y-80106247D01*
X201111904Y-80106247D02*
X201111904Y-80344342D01*
X201111904Y-80344342D02*
X201064285Y-80439580D01*
X201064285Y-80439580D02*
X201016666Y-80487200D01*
X201016666Y-80487200D02*
X200921428Y-80534819D01*
X200921428Y-80534819D02*
X200635714Y-80534819D01*
X200635714Y-80534819D02*
X200540476Y-80487200D01*
X200540476Y-80487200D02*
X200492857Y-80439580D01*
X218984819Y-172166666D02*
X218508628Y-172499999D01*
X218984819Y-172738094D02*
X217984819Y-172738094D01*
X217984819Y-172738094D02*
X217984819Y-172357142D01*
X217984819Y-172357142D02*
X218032438Y-172261904D01*
X218032438Y-172261904D02*
X218080057Y-172214285D01*
X218080057Y-172214285D02*
X218175295Y-172166666D01*
X218175295Y-172166666D02*
X218318152Y-172166666D01*
X218318152Y-172166666D02*
X218413390Y-172214285D01*
X218413390Y-172214285D02*
X218461009Y-172261904D01*
X218461009Y-172261904D02*
X218508628Y-172357142D01*
X218508628Y-172357142D02*
X218508628Y-172738094D01*
X218318152Y-171309523D02*
X218984819Y-171309523D01*
X217937200Y-171547618D02*
X218651485Y-171785713D01*
X218651485Y-171785713D02*
X218651485Y-171166666D01*
X200129580Y-74066666D02*
X200177200Y-74114285D01*
X200177200Y-74114285D02*
X200224819Y-74257142D01*
X200224819Y-74257142D02*
X200224819Y-74352380D01*
X200224819Y-74352380D02*
X200177200Y-74495237D01*
X200177200Y-74495237D02*
X200081961Y-74590475D01*
X200081961Y-74590475D02*
X199986723Y-74638094D01*
X199986723Y-74638094D02*
X199796247Y-74685713D01*
X199796247Y-74685713D02*
X199653390Y-74685713D01*
X199653390Y-74685713D02*
X199462914Y-74638094D01*
X199462914Y-74638094D02*
X199367676Y-74590475D01*
X199367676Y-74590475D02*
X199272438Y-74495237D01*
X199272438Y-74495237D02*
X199224819Y-74352380D01*
X199224819Y-74352380D02*
X199224819Y-74257142D01*
X199224819Y-74257142D02*
X199272438Y-74114285D01*
X199272438Y-74114285D02*
X199320057Y-74066666D01*
X200224819Y-73590475D02*
X200224819Y-73399999D01*
X200224819Y-73399999D02*
X200177200Y-73304761D01*
X200177200Y-73304761D02*
X200129580Y-73257142D01*
X200129580Y-73257142D02*
X199986723Y-73161904D01*
X199986723Y-73161904D02*
X199796247Y-73114285D01*
X199796247Y-73114285D02*
X199415295Y-73114285D01*
X199415295Y-73114285D02*
X199320057Y-73161904D01*
X199320057Y-73161904D02*
X199272438Y-73209523D01*
X199272438Y-73209523D02*
X199224819Y-73304761D01*
X199224819Y-73304761D02*
X199224819Y-73495237D01*
X199224819Y-73495237D02*
X199272438Y-73590475D01*
X199272438Y-73590475D02*
X199320057Y-73638094D01*
X199320057Y-73638094D02*
X199415295Y-73685713D01*
X199415295Y-73685713D02*
X199653390Y-73685713D01*
X199653390Y-73685713D02*
X199748628Y-73638094D01*
X199748628Y-73638094D02*
X199796247Y-73590475D01*
X199796247Y-73590475D02*
X199843866Y-73495237D01*
X199843866Y-73495237D02*
X199843866Y-73304761D01*
X199843866Y-73304761D02*
X199796247Y-73209523D01*
X199796247Y-73209523D02*
X199748628Y-73161904D01*
X199748628Y-73161904D02*
X199653390Y-73114285D01*
D11*
X119141905Y-243327419D02*
X119141905Y-244136942D01*
X119141905Y-244136942D02*
X119189524Y-244232180D01*
X119189524Y-244232180D02*
X119237143Y-244279800D01*
X119237143Y-244279800D02*
X119332381Y-244327419D01*
X119332381Y-244327419D02*
X119522857Y-244327419D01*
X119522857Y-244327419D02*
X119618095Y-244279800D01*
X119618095Y-244279800D02*
X119665714Y-244232180D01*
X119665714Y-244232180D02*
X119713333Y-244136942D01*
X119713333Y-244136942D02*
X119713333Y-243327419D01*
X120713333Y-244327419D02*
X120141905Y-244327419D01*
X120427619Y-244327419D02*
X120427619Y-243327419D01*
X120427619Y-243327419D02*
X120332381Y-243470276D01*
X120332381Y-243470276D02*
X120237143Y-243565514D01*
X120237143Y-243565514D02*
X120141905Y-243613133D01*
X121332381Y-243327419D02*
X121427619Y-243327419D01*
X121427619Y-243327419D02*
X121522857Y-243375038D01*
X121522857Y-243375038D02*
X121570476Y-243422657D01*
X121570476Y-243422657D02*
X121618095Y-243517895D01*
X121618095Y-243517895D02*
X121665714Y-243708371D01*
X121665714Y-243708371D02*
X121665714Y-243946466D01*
X121665714Y-243946466D02*
X121618095Y-244136942D01*
X121618095Y-244136942D02*
X121570476Y-244232180D01*
X121570476Y-244232180D02*
X121522857Y-244279800D01*
X121522857Y-244279800D02*
X121427619Y-244327419D01*
X121427619Y-244327419D02*
X121332381Y-244327419D01*
X121332381Y-244327419D02*
X121237143Y-244279800D01*
X121237143Y-244279800D02*
X121189524Y-244232180D01*
X121189524Y-244232180D02*
X121141905Y-244136942D01*
X121141905Y-244136942D02*
X121094286Y-243946466D01*
X121094286Y-243946466D02*
X121094286Y-243708371D01*
X121094286Y-243708371D02*
X121141905Y-243517895D01*
X121141905Y-243517895D02*
X121189524Y-243422657D01*
X121189524Y-243422657D02*
X121237143Y-243375038D01*
X121237143Y-243375038D02*
X121332381Y-243327419D01*
D10*
X224411905Y-126004819D02*
X224411905Y-126814342D01*
X224411905Y-126814342D02*
X224459524Y-126909580D01*
X224459524Y-126909580D02*
X224507143Y-126957200D01*
X224507143Y-126957200D02*
X224602381Y-127004819D01*
X224602381Y-127004819D02*
X224792857Y-127004819D01*
X224792857Y-127004819D02*
X224888095Y-126957200D01*
X224888095Y-126957200D02*
X224935714Y-126909580D01*
X224935714Y-126909580D02*
X224983333Y-126814342D01*
X224983333Y-126814342D02*
X224983333Y-126004819D01*
X225983333Y-127004819D02*
X225411905Y-127004819D01*
X225697619Y-127004819D02*
X225697619Y-126004819D01*
X225697619Y-126004819D02*
X225602381Y-126147676D01*
X225602381Y-126147676D02*
X225507143Y-126242914D01*
X225507143Y-126242914D02*
X225411905Y-126290533D01*
X226316667Y-126004819D02*
X226983333Y-126004819D01*
X226983333Y-126004819D02*
X226554762Y-127004819D01*
X64457142Y-148289580D02*
X64409523Y-148337200D01*
X64409523Y-148337200D02*
X64266666Y-148384819D01*
X64266666Y-148384819D02*
X64171428Y-148384819D01*
X64171428Y-148384819D02*
X64028571Y-148337200D01*
X64028571Y-148337200D02*
X63933333Y-148241961D01*
X63933333Y-148241961D02*
X63885714Y-148146723D01*
X63885714Y-148146723D02*
X63838095Y-147956247D01*
X63838095Y-147956247D02*
X63838095Y-147813390D01*
X63838095Y-147813390D02*
X63885714Y-147622914D01*
X63885714Y-147622914D02*
X63933333Y-147527676D01*
X63933333Y-147527676D02*
X64028571Y-147432438D01*
X64028571Y-147432438D02*
X64171428Y-147384819D01*
X64171428Y-147384819D02*
X64266666Y-147384819D01*
X64266666Y-147384819D02*
X64409523Y-147432438D01*
X64409523Y-147432438D02*
X64457142Y-147480057D01*
X64838095Y-147480057D02*
X64885714Y-147432438D01*
X64885714Y-147432438D02*
X64980952Y-147384819D01*
X64980952Y-147384819D02*
X65219047Y-147384819D01*
X65219047Y-147384819D02*
X65314285Y-147432438D01*
X65314285Y-147432438D02*
X65361904Y-147480057D01*
X65361904Y-147480057D02*
X65409523Y-147575295D01*
X65409523Y-147575295D02*
X65409523Y-147670533D01*
X65409523Y-147670533D02*
X65361904Y-147813390D01*
X65361904Y-147813390D02*
X64790476Y-148384819D01*
X64790476Y-148384819D02*
X65409523Y-148384819D01*
X66361904Y-148384819D02*
X65790476Y-148384819D01*
X66076190Y-148384819D02*
X66076190Y-147384819D01*
X66076190Y-147384819D02*
X65980952Y-147527676D01*
X65980952Y-147527676D02*
X65885714Y-147622914D01*
X65885714Y-147622914D02*
X65790476Y-147670533D01*
X122484819Y-268642857D02*
X122008628Y-268976190D01*
X122484819Y-269214285D02*
X121484819Y-269214285D01*
X121484819Y-269214285D02*
X121484819Y-268833333D01*
X121484819Y-268833333D02*
X121532438Y-268738095D01*
X121532438Y-268738095D02*
X121580057Y-268690476D01*
X121580057Y-268690476D02*
X121675295Y-268642857D01*
X121675295Y-268642857D02*
X121818152Y-268642857D01*
X121818152Y-268642857D02*
X121913390Y-268690476D01*
X121913390Y-268690476D02*
X121961009Y-268738095D01*
X121961009Y-268738095D02*
X122008628Y-268833333D01*
X122008628Y-268833333D02*
X122008628Y-269214285D01*
X122484819Y-267690476D02*
X122484819Y-268261904D01*
X122484819Y-267976190D02*
X121484819Y-267976190D01*
X121484819Y-267976190D02*
X121627676Y-268071428D01*
X121627676Y-268071428D02*
X121722914Y-268166666D01*
X121722914Y-268166666D02*
X121770533Y-268261904D01*
X121484819Y-267071428D02*
X121484819Y-266976190D01*
X121484819Y-266976190D02*
X121532438Y-266880952D01*
X121532438Y-266880952D02*
X121580057Y-266833333D01*
X121580057Y-266833333D02*
X121675295Y-266785714D01*
X121675295Y-266785714D02*
X121865771Y-266738095D01*
X121865771Y-266738095D02*
X122103866Y-266738095D01*
X122103866Y-266738095D02*
X122294342Y-266785714D01*
X122294342Y-266785714D02*
X122389580Y-266833333D01*
X122389580Y-266833333D02*
X122437200Y-266880952D01*
X122437200Y-266880952D02*
X122484819Y-266976190D01*
X122484819Y-266976190D02*
X122484819Y-267071428D01*
X122484819Y-267071428D02*
X122437200Y-267166666D01*
X122437200Y-267166666D02*
X122389580Y-267214285D01*
X122389580Y-267214285D02*
X122294342Y-267261904D01*
X122294342Y-267261904D02*
X122103866Y-267309523D01*
X122103866Y-267309523D02*
X121865771Y-267309523D01*
X121865771Y-267309523D02*
X121675295Y-267261904D01*
X121675295Y-267261904D02*
X121580057Y-267214285D01*
X121580057Y-267214285D02*
X121532438Y-267166666D01*
X121532438Y-267166666D02*
X121484819Y-267071428D01*
X71391905Y-144824819D02*
X71391905Y-143824819D01*
X71391905Y-143824819D02*
X71630000Y-143824819D01*
X71630000Y-143824819D02*
X71772857Y-143872438D01*
X71772857Y-143872438D02*
X71868095Y-143967676D01*
X71868095Y-143967676D02*
X71915714Y-144062914D01*
X71915714Y-144062914D02*
X71963333Y-144253390D01*
X71963333Y-144253390D02*
X71963333Y-144396247D01*
X71963333Y-144396247D02*
X71915714Y-144586723D01*
X71915714Y-144586723D02*
X71868095Y-144681961D01*
X71868095Y-144681961D02*
X71772857Y-144777200D01*
X71772857Y-144777200D02*
X71630000Y-144824819D01*
X71630000Y-144824819D02*
X71391905Y-144824819D01*
X72915714Y-144824819D02*
X72344286Y-144824819D01*
X72630000Y-144824819D02*
X72630000Y-143824819D01*
X72630000Y-143824819D02*
X72534762Y-143967676D01*
X72534762Y-143967676D02*
X72439524Y-144062914D01*
X72439524Y-144062914D02*
X72344286Y-144110533D01*
X68358571Y-146632295D02*
X67901428Y-146632295D01*
X68130000Y-146632295D02*
X68130000Y-145832295D01*
X68130000Y-145832295D02*
X68053809Y-145946580D01*
X68053809Y-145946580D02*
X67977619Y-146022771D01*
X67977619Y-146022771D02*
X67901428Y-146060866D01*
X216029580Y-75542857D02*
X216077200Y-75590476D01*
X216077200Y-75590476D02*
X216124819Y-75733333D01*
X216124819Y-75733333D02*
X216124819Y-75828571D01*
X216124819Y-75828571D02*
X216077200Y-75971428D01*
X216077200Y-75971428D02*
X215981961Y-76066666D01*
X215981961Y-76066666D02*
X215886723Y-76114285D01*
X215886723Y-76114285D02*
X215696247Y-76161904D01*
X215696247Y-76161904D02*
X215553390Y-76161904D01*
X215553390Y-76161904D02*
X215362914Y-76114285D01*
X215362914Y-76114285D02*
X215267676Y-76066666D01*
X215267676Y-76066666D02*
X215172438Y-75971428D01*
X215172438Y-75971428D02*
X215124819Y-75828571D01*
X215124819Y-75828571D02*
X215124819Y-75733333D01*
X215124819Y-75733333D02*
X215172438Y-75590476D01*
X215172438Y-75590476D02*
X215220057Y-75542857D01*
X216124819Y-74590476D02*
X216124819Y-75161904D01*
X216124819Y-74876190D02*
X215124819Y-74876190D01*
X215124819Y-74876190D02*
X215267676Y-74971428D01*
X215267676Y-74971428D02*
X215362914Y-75066666D01*
X215362914Y-75066666D02*
X215410533Y-75161904D01*
X215124819Y-74257142D02*
X215124819Y-73590476D01*
X215124819Y-73590476D02*
X216124819Y-74019047D01*
D11*
X119618095Y-146827419D02*
X119618095Y-147636942D01*
X119618095Y-147636942D02*
X119665714Y-147732180D01*
X119665714Y-147732180D02*
X119713333Y-147779800D01*
X119713333Y-147779800D02*
X119808571Y-147827419D01*
X119808571Y-147827419D02*
X119999047Y-147827419D01*
X119999047Y-147827419D02*
X120094285Y-147779800D01*
X120094285Y-147779800D02*
X120141904Y-147732180D01*
X120141904Y-147732180D02*
X120189523Y-147636942D01*
X120189523Y-147636942D02*
X120189523Y-146827419D01*
X120618095Y-146922657D02*
X120665714Y-146875038D01*
X120665714Y-146875038D02*
X120760952Y-146827419D01*
X120760952Y-146827419D02*
X120999047Y-146827419D01*
X120999047Y-146827419D02*
X121094285Y-146875038D01*
X121094285Y-146875038D02*
X121141904Y-146922657D01*
X121141904Y-146922657D02*
X121189523Y-147017895D01*
X121189523Y-147017895D02*
X121189523Y-147113133D01*
X121189523Y-147113133D02*
X121141904Y-147255990D01*
X121141904Y-147255990D02*
X120570476Y-147827419D01*
X120570476Y-147827419D02*
X121189523Y-147827419D01*
D10*
X199257142Y-79629580D02*
X199209523Y-79677200D01*
X199209523Y-79677200D02*
X199066666Y-79724819D01*
X199066666Y-79724819D02*
X198971428Y-79724819D01*
X198971428Y-79724819D02*
X198828571Y-79677200D01*
X198828571Y-79677200D02*
X198733333Y-79581961D01*
X198733333Y-79581961D02*
X198685714Y-79486723D01*
X198685714Y-79486723D02*
X198638095Y-79296247D01*
X198638095Y-79296247D02*
X198638095Y-79153390D01*
X198638095Y-79153390D02*
X198685714Y-78962914D01*
X198685714Y-78962914D02*
X198733333Y-78867676D01*
X198733333Y-78867676D02*
X198828571Y-78772438D01*
X198828571Y-78772438D02*
X198971428Y-78724819D01*
X198971428Y-78724819D02*
X199066666Y-78724819D01*
X199066666Y-78724819D02*
X199209523Y-78772438D01*
X199209523Y-78772438D02*
X199257142Y-78820057D01*
X200209523Y-79724819D02*
X199638095Y-79724819D01*
X199923809Y-79724819D02*
X199923809Y-78724819D01*
X199923809Y-78724819D02*
X199828571Y-78867676D01*
X199828571Y-78867676D02*
X199733333Y-78962914D01*
X199733333Y-78962914D02*
X199638095Y-79010533D01*
X201066666Y-79058152D02*
X201066666Y-79724819D01*
X200828571Y-78677200D02*
X200590476Y-79391485D01*
X200590476Y-79391485D02*
X201209523Y-79391485D01*
X217307142Y-73989580D02*
X217259523Y-74037200D01*
X217259523Y-74037200D02*
X217116666Y-74084819D01*
X217116666Y-74084819D02*
X217021428Y-74084819D01*
X217021428Y-74084819D02*
X216878571Y-74037200D01*
X216878571Y-74037200D02*
X216783333Y-73941961D01*
X216783333Y-73941961D02*
X216735714Y-73846723D01*
X216735714Y-73846723D02*
X216688095Y-73656247D01*
X216688095Y-73656247D02*
X216688095Y-73513390D01*
X216688095Y-73513390D02*
X216735714Y-73322914D01*
X216735714Y-73322914D02*
X216783333Y-73227676D01*
X216783333Y-73227676D02*
X216878571Y-73132438D01*
X216878571Y-73132438D02*
X217021428Y-73084819D01*
X217021428Y-73084819D02*
X217116666Y-73084819D01*
X217116666Y-73084819D02*
X217259523Y-73132438D01*
X217259523Y-73132438D02*
X217307142Y-73180057D01*
X218259523Y-74084819D02*
X217688095Y-74084819D01*
X217973809Y-74084819D02*
X217973809Y-73084819D01*
X217973809Y-73084819D02*
X217878571Y-73227676D01*
X217878571Y-73227676D02*
X217783333Y-73322914D01*
X217783333Y-73322914D02*
X217688095Y-73370533D01*
X218830952Y-73513390D02*
X218735714Y-73465771D01*
X218735714Y-73465771D02*
X218688095Y-73418152D01*
X218688095Y-73418152D02*
X218640476Y-73322914D01*
X218640476Y-73322914D02*
X218640476Y-73275295D01*
X218640476Y-73275295D02*
X218688095Y-73180057D01*
X218688095Y-73180057D02*
X218735714Y-73132438D01*
X218735714Y-73132438D02*
X218830952Y-73084819D01*
X218830952Y-73084819D02*
X219021428Y-73084819D01*
X219021428Y-73084819D02*
X219116666Y-73132438D01*
X219116666Y-73132438D02*
X219164285Y-73180057D01*
X219164285Y-73180057D02*
X219211904Y-73275295D01*
X219211904Y-73275295D02*
X219211904Y-73322914D01*
X219211904Y-73322914D02*
X219164285Y-73418152D01*
X219164285Y-73418152D02*
X219116666Y-73465771D01*
X219116666Y-73465771D02*
X219021428Y-73513390D01*
X219021428Y-73513390D02*
X218830952Y-73513390D01*
X218830952Y-73513390D02*
X218735714Y-73561009D01*
X218735714Y-73561009D02*
X218688095Y-73608628D01*
X218688095Y-73608628D02*
X218640476Y-73703866D01*
X218640476Y-73703866D02*
X218640476Y-73894342D01*
X218640476Y-73894342D02*
X218688095Y-73989580D01*
X218688095Y-73989580D02*
X218735714Y-74037200D01*
X218735714Y-74037200D02*
X218830952Y-74084819D01*
X218830952Y-74084819D02*
X219021428Y-74084819D01*
X219021428Y-74084819D02*
X219116666Y-74037200D01*
X219116666Y-74037200D02*
X219164285Y-73989580D01*
X219164285Y-73989580D02*
X219211904Y-73894342D01*
X219211904Y-73894342D02*
X219211904Y-73703866D01*
X219211904Y-73703866D02*
X219164285Y-73608628D01*
X219164285Y-73608628D02*
X219116666Y-73561009D01*
X219116666Y-73561009D02*
X219021428Y-73513390D01*
X122484819Y-220166666D02*
X122008628Y-220499999D01*
X122484819Y-220738094D02*
X121484819Y-220738094D01*
X121484819Y-220738094D02*
X121484819Y-220357142D01*
X121484819Y-220357142D02*
X121532438Y-220261904D01*
X121532438Y-220261904D02*
X121580057Y-220214285D01*
X121580057Y-220214285D02*
X121675295Y-220166666D01*
X121675295Y-220166666D02*
X121818152Y-220166666D01*
X121818152Y-220166666D02*
X121913390Y-220214285D01*
X121913390Y-220214285D02*
X121961009Y-220261904D01*
X121961009Y-220261904D02*
X122008628Y-220357142D01*
X122008628Y-220357142D02*
X122008628Y-220738094D01*
X121484819Y-219309523D02*
X121484819Y-219499999D01*
X121484819Y-219499999D02*
X121532438Y-219595237D01*
X121532438Y-219595237D02*
X121580057Y-219642856D01*
X121580057Y-219642856D02*
X121722914Y-219738094D01*
X121722914Y-219738094D02*
X121913390Y-219785713D01*
X121913390Y-219785713D02*
X122294342Y-219785713D01*
X122294342Y-219785713D02*
X122389580Y-219738094D01*
X122389580Y-219738094D02*
X122437200Y-219690475D01*
X122437200Y-219690475D02*
X122484819Y-219595237D01*
X122484819Y-219595237D02*
X122484819Y-219404761D01*
X122484819Y-219404761D02*
X122437200Y-219309523D01*
X122437200Y-219309523D02*
X122389580Y-219261904D01*
X122389580Y-219261904D02*
X122294342Y-219214285D01*
X122294342Y-219214285D02*
X122056247Y-219214285D01*
X122056247Y-219214285D02*
X121961009Y-219261904D01*
X121961009Y-219261904D02*
X121913390Y-219309523D01*
X121913390Y-219309523D02*
X121865771Y-219404761D01*
X121865771Y-219404761D02*
X121865771Y-219595237D01*
X121865771Y-219595237D02*
X121913390Y-219690475D01*
X121913390Y-219690475D02*
X121961009Y-219738094D01*
X121961009Y-219738094D02*
X122056247Y-219785713D01*
X195007142Y-79754819D02*
X194673809Y-79278628D01*
X194435714Y-79754819D02*
X194435714Y-78754819D01*
X194435714Y-78754819D02*
X194816666Y-78754819D01*
X194816666Y-78754819D02*
X194911904Y-78802438D01*
X194911904Y-78802438D02*
X194959523Y-78850057D01*
X194959523Y-78850057D02*
X195007142Y-78945295D01*
X195007142Y-78945295D02*
X195007142Y-79088152D01*
X195007142Y-79088152D02*
X194959523Y-79183390D01*
X194959523Y-79183390D02*
X194911904Y-79231009D01*
X194911904Y-79231009D02*
X194816666Y-79278628D01*
X194816666Y-79278628D02*
X194435714Y-79278628D01*
X195959523Y-79754819D02*
X195388095Y-79754819D01*
X195673809Y-79754819D02*
X195673809Y-78754819D01*
X195673809Y-78754819D02*
X195578571Y-78897676D01*
X195578571Y-78897676D02*
X195483333Y-78992914D01*
X195483333Y-78992914D02*
X195388095Y-79040533D01*
X196530952Y-79183390D02*
X196435714Y-79135771D01*
X196435714Y-79135771D02*
X196388095Y-79088152D01*
X196388095Y-79088152D02*
X196340476Y-78992914D01*
X196340476Y-78992914D02*
X196340476Y-78945295D01*
X196340476Y-78945295D02*
X196388095Y-78850057D01*
X196388095Y-78850057D02*
X196435714Y-78802438D01*
X196435714Y-78802438D02*
X196530952Y-78754819D01*
X196530952Y-78754819D02*
X196721428Y-78754819D01*
X196721428Y-78754819D02*
X196816666Y-78802438D01*
X196816666Y-78802438D02*
X196864285Y-78850057D01*
X196864285Y-78850057D02*
X196911904Y-78945295D01*
X196911904Y-78945295D02*
X196911904Y-78992914D01*
X196911904Y-78992914D02*
X196864285Y-79088152D01*
X196864285Y-79088152D02*
X196816666Y-79135771D01*
X196816666Y-79135771D02*
X196721428Y-79183390D01*
X196721428Y-79183390D02*
X196530952Y-79183390D01*
X196530952Y-79183390D02*
X196435714Y-79231009D01*
X196435714Y-79231009D02*
X196388095Y-79278628D01*
X196388095Y-79278628D02*
X196340476Y-79373866D01*
X196340476Y-79373866D02*
X196340476Y-79564342D01*
X196340476Y-79564342D02*
X196388095Y-79659580D01*
X196388095Y-79659580D02*
X196435714Y-79707200D01*
X196435714Y-79707200D02*
X196530952Y-79754819D01*
X196530952Y-79754819D02*
X196721428Y-79754819D01*
X196721428Y-79754819D02*
X196816666Y-79707200D01*
X196816666Y-79707200D02*
X196864285Y-79659580D01*
X196864285Y-79659580D02*
X196911904Y-79564342D01*
X196911904Y-79564342D02*
X196911904Y-79373866D01*
X196911904Y-79373866D02*
X196864285Y-79278628D01*
X196864285Y-79278628D02*
X196816666Y-79231009D01*
X196816666Y-79231009D02*
X196721428Y-79183390D01*
X74234819Y-268166666D02*
X73758628Y-268499999D01*
X74234819Y-268738094D02*
X73234819Y-268738094D01*
X73234819Y-268738094D02*
X73234819Y-268357142D01*
X73234819Y-268357142D02*
X73282438Y-268261904D01*
X73282438Y-268261904D02*
X73330057Y-268214285D01*
X73330057Y-268214285D02*
X73425295Y-268166666D01*
X73425295Y-268166666D02*
X73568152Y-268166666D01*
X73568152Y-268166666D02*
X73663390Y-268214285D01*
X73663390Y-268214285D02*
X73711009Y-268261904D01*
X73711009Y-268261904D02*
X73758628Y-268357142D01*
X73758628Y-268357142D02*
X73758628Y-268738094D01*
X74234819Y-267690475D02*
X74234819Y-267499999D01*
X74234819Y-267499999D02*
X74187200Y-267404761D01*
X74187200Y-267404761D02*
X74139580Y-267357142D01*
X74139580Y-267357142D02*
X73996723Y-267261904D01*
X73996723Y-267261904D02*
X73806247Y-267214285D01*
X73806247Y-267214285D02*
X73425295Y-267214285D01*
X73425295Y-267214285D02*
X73330057Y-267261904D01*
X73330057Y-267261904D02*
X73282438Y-267309523D01*
X73282438Y-267309523D02*
X73234819Y-267404761D01*
X73234819Y-267404761D02*
X73234819Y-267595237D01*
X73234819Y-267595237D02*
X73282438Y-267690475D01*
X73282438Y-267690475D02*
X73330057Y-267738094D01*
X73330057Y-267738094D02*
X73425295Y-267785713D01*
X73425295Y-267785713D02*
X73663390Y-267785713D01*
X73663390Y-267785713D02*
X73758628Y-267738094D01*
X73758628Y-267738094D02*
X73806247Y-267690475D01*
X73806247Y-267690475D02*
X73853866Y-267595237D01*
X73853866Y-267595237D02*
X73853866Y-267404761D01*
X73853866Y-267404761D02*
X73806247Y-267309523D01*
X73806247Y-267309523D02*
X73758628Y-267261904D01*
X73758628Y-267261904D02*
X73663390Y-267214285D01*
D11*
X119141905Y-291577419D02*
X119141905Y-292386942D01*
X119141905Y-292386942D02*
X119189524Y-292482180D01*
X119189524Y-292482180D02*
X119237143Y-292529800D01*
X119237143Y-292529800D02*
X119332381Y-292577419D01*
X119332381Y-292577419D02*
X119522857Y-292577419D01*
X119522857Y-292577419D02*
X119618095Y-292529800D01*
X119618095Y-292529800D02*
X119665714Y-292482180D01*
X119665714Y-292482180D02*
X119713333Y-292386942D01*
X119713333Y-292386942D02*
X119713333Y-291577419D01*
X120713333Y-292577419D02*
X120141905Y-292577419D01*
X120427619Y-292577419D02*
X120427619Y-291577419D01*
X120427619Y-291577419D02*
X120332381Y-291720276D01*
X120332381Y-291720276D02*
X120237143Y-291815514D01*
X120237143Y-291815514D02*
X120141905Y-291863133D01*
X121570476Y-291910752D02*
X121570476Y-292577419D01*
X121332381Y-291529800D02*
X121094286Y-292244085D01*
X121094286Y-292244085D02*
X121713333Y-292244085D01*
D10*
X194581905Y-71654819D02*
X194581905Y-72464342D01*
X194581905Y-72464342D02*
X194629524Y-72559580D01*
X194629524Y-72559580D02*
X194677143Y-72607200D01*
X194677143Y-72607200D02*
X194772381Y-72654819D01*
X194772381Y-72654819D02*
X194962857Y-72654819D01*
X194962857Y-72654819D02*
X195058095Y-72607200D01*
X195058095Y-72607200D02*
X195105714Y-72559580D01*
X195105714Y-72559580D02*
X195153333Y-72464342D01*
X195153333Y-72464342D02*
X195153333Y-71654819D01*
X196153333Y-72654819D02*
X195581905Y-72654819D01*
X195867619Y-72654819D02*
X195867619Y-71654819D01*
X195867619Y-71654819D02*
X195772381Y-71797676D01*
X195772381Y-71797676D02*
X195677143Y-71892914D01*
X195677143Y-71892914D02*
X195581905Y-71940533D01*
X196629524Y-72654819D02*
X196820000Y-72654819D01*
X196820000Y-72654819D02*
X196915238Y-72607200D01*
X196915238Y-72607200D02*
X196962857Y-72559580D01*
X196962857Y-72559580D02*
X197058095Y-72416723D01*
X197058095Y-72416723D02*
X197105714Y-72226247D01*
X197105714Y-72226247D02*
X197105714Y-71845295D01*
X197105714Y-71845295D02*
X197058095Y-71750057D01*
X197058095Y-71750057D02*
X197010476Y-71702438D01*
X197010476Y-71702438D02*
X196915238Y-71654819D01*
X196915238Y-71654819D02*
X196724762Y-71654819D01*
X196724762Y-71654819D02*
X196629524Y-71702438D01*
X196629524Y-71702438D02*
X196581905Y-71750057D01*
X196581905Y-71750057D02*
X196534286Y-71845295D01*
X196534286Y-71845295D02*
X196534286Y-72083390D01*
X196534286Y-72083390D02*
X196581905Y-72178628D01*
X196581905Y-72178628D02*
X196629524Y-72226247D01*
X196629524Y-72226247D02*
X196724762Y-72273866D01*
X196724762Y-72273866D02*
X196915238Y-72273866D01*
X196915238Y-72273866D02*
X197010476Y-72226247D01*
X197010476Y-72226247D02*
X197058095Y-72178628D01*
X197058095Y-72178628D02*
X197105714Y-72083390D01*
X209057142Y-74029580D02*
X209009523Y-74077200D01*
X209009523Y-74077200D02*
X208866666Y-74124819D01*
X208866666Y-74124819D02*
X208771428Y-74124819D01*
X208771428Y-74124819D02*
X208628571Y-74077200D01*
X208628571Y-74077200D02*
X208533333Y-73981961D01*
X208533333Y-73981961D02*
X208485714Y-73886723D01*
X208485714Y-73886723D02*
X208438095Y-73696247D01*
X208438095Y-73696247D02*
X208438095Y-73553390D01*
X208438095Y-73553390D02*
X208485714Y-73362914D01*
X208485714Y-73362914D02*
X208533333Y-73267676D01*
X208533333Y-73267676D02*
X208628571Y-73172438D01*
X208628571Y-73172438D02*
X208771428Y-73124819D01*
X208771428Y-73124819D02*
X208866666Y-73124819D01*
X208866666Y-73124819D02*
X209009523Y-73172438D01*
X209009523Y-73172438D02*
X209057142Y-73220057D01*
X210009523Y-74124819D02*
X209438095Y-74124819D01*
X209723809Y-74124819D02*
X209723809Y-73124819D01*
X209723809Y-73124819D02*
X209628571Y-73267676D01*
X209628571Y-73267676D02*
X209533333Y-73362914D01*
X209533333Y-73362914D02*
X209438095Y-73410533D01*
X210914285Y-73124819D02*
X210438095Y-73124819D01*
X210438095Y-73124819D02*
X210390476Y-73601009D01*
X210390476Y-73601009D02*
X210438095Y-73553390D01*
X210438095Y-73553390D02*
X210533333Y-73505771D01*
X210533333Y-73505771D02*
X210771428Y-73505771D01*
X210771428Y-73505771D02*
X210866666Y-73553390D01*
X210866666Y-73553390D02*
X210914285Y-73601009D01*
X210914285Y-73601009D02*
X210961904Y-73696247D01*
X210961904Y-73696247D02*
X210961904Y-73934342D01*
X210961904Y-73934342D02*
X210914285Y-74029580D01*
X210914285Y-74029580D02*
X210866666Y-74077200D01*
X210866666Y-74077200D02*
X210771428Y-74124819D01*
X210771428Y-74124819D02*
X210533333Y-74124819D01*
X210533333Y-74124819D02*
X210438095Y-74077200D01*
X210438095Y-74077200D02*
X210390476Y-74029580D01*
D11*
X119618095Y-195077419D02*
X119618095Y-195886942D01*
X119618095Y-195886942D02*
X119665714Y-195982180D01*
X119665714Y-195982180D02*
X119713333Y-196029800D01*
X119713333Y-196029800D02*
X119808571Y-196077419D01*
X119808571Y-196077419D02*
X119999047Y-196077419D01*
X119999047Y-196077419D02*
X120094285Y-196029800D01*
X120094285Y-196029800D02*
X120141904Y-195982180D01*
X120141904Y-195982180D02*
X120189523Y-195886942D01*
X120189523Y-195886942D02*
X120189523Y-195077419D01*
X121094285Y-195077419D02*
X120903809Y-195077419D01*
X120903809Y-195077419D02*
X120808571Y-195125038D01*
X120808571Y-195125038D02*
X120760952Y-195172657D01*
X120760952Y-195172657D02*
X120665714Y-195315514D01*
X120665714Y-195315514D02*
X120618095Y-195505990D01*
X120618095Y-195505990D02*
X120618095Y-195886942D01*
X120618095Y-195886942D02*
X120665714Y-195982180D01*
X120665714Y-195982180D02*
X120713333Y-196029800D01*
X120713333Y-196029800D02*
X120808571Y-196077419D01*
X120808571Y-196077419D02*
X120999047Y-196077419D01*
X120999047Y-196077419D02*
X121094285Y-196029800D01*
X121094285Y-196029800D02*
X121141904Y-195982180D01*
X121141904Y-195982180D02*
X121189523Y-195886942D01*
X121189523Y-195886942D02*
X121189523Y-195648847D01*
X121189523Y-195648847D02*
X121141904Y-195553609D01*
X121141904Y-195553609D02*
X121094285Y-195505990D01*
X121094285Y-195505990D02*
X120999047Y-195458371D01*
X120999047Y-195458371D02*
X120808571Y-195458371D01*
X120808571Y-195458371D02*
X120713333Y-195505990D01*
X120713333Y-195505990D02*
X120665714Y-195553609D01*
X120665714Y-195553609D02*
X120618095Y-195648847D01*
D10*
X224349705Y-101729819D02*
X224349705Y-102539342D01*
X224349705Y-102539342D02*
X224397324Y-102634580D01*
X224397324Y-102634580D02*
X224444943Y-102682200D01*
X224444943Y-102682200D02*
X224540181Y-102729819D01*
X224540181Y-102729819D02*
X224730657Y-102729819D01*
X224730657Y-102729819D02*
X224825895Y-102682200D01*
X224825895Y-102682200D02*
X224873514Y-102634580D01*
X224873514Y-102634580D02*
X224921133Y-102539342D01*
X224921133Y-102539342D02*
X224921133Y-101729819D01*
X225349705Y-101825057D02*
X225397324Y-101777438D01*
X225397324Y-101777438D02*
X225492562Y-101729819D01*
X225492562Y-101729819D02*
X225730657Y-101729819D01*
X225730657Y-101729819D02*
X225825895Y-101777438D01*
X225825895Y-101777438D02*
X225873514Y-101825057D01*
X225873514Y-101825057D02*
X225921133Y-101920295D01*
X225921133Y-101920295D02*
X225921133Y-102015533D01*
X225921133Y-102015533D02*
X225873514Y-102158390D01*
X225873514Y-102158390D02*
X225302086Y-102729819D01*
X225302086Y-102729819D02*
X225921133Y-102729819D01*
X226873514Y-102729819D02*
X226302086Y-102729819D01*
X226587800Y-102729819D02*
X226587800Y-101729819D01*
X226587800Y-101729819D02*
X226492562Y-101872676D01*
X226492562Y-101872676D02*
X226397324Y-101967914D01*
X226397324Y-101967914D02*
X226302086Y-102015533D01*
X222971600Y-95583019D02*
X222971600Y-95821114D01*
X222733505Y-95725876D02*
X222971600Y-95821114D01*
X222971600Y-95821114D02*
X223209695Y-95725876D01*
X222828743Y-96011590D02*
X222971600Y-95821114D01*
X222971600Y-95821114D02*
X223114457Y-96011590D01*
X222971600Y-95583019D02*
X222971600Y-95821114D01*
X222733505Y-95725876D02*
X222971600Y-95821114D01*
X222971600Y-95821114D02*
X223209695Y-95725876D01*
X222828743Y-96011590D02*
X222971600Y-95821114D01*
X222971600Y-95821114D02*
X223114457Y-96011590D01*
X200129580Y-70542857D02*
X200177200Y-70590476D01*
X200177200Y-70590476D02*
X200224819Y-70733333D01*
X200224819Y-70733333D02*
X200224819Y-70828571D01*
X200224819Y-70828571D02*
X200177200Y-70971428D01*
X200177200Y-70971428D02*
X200081961Y-71066666D01*
X200081961Y-71066666D02*
X199986723Y-71114285D01*
X199986723Y-71114285D02*
X199796247Y-71161904D01*
X199796247Y-71161904D02*
X199653390Y-71161904D01*
X199653390Y-71161904D02*
X199462914Y-71114285D01*
X199462914Y-71114285D02*
X199367676Y-71066666D01*
X199367676Y-71066666D02*
X199272438Y-70971428D01*
X199272438Y-70971428D02*
X199224819Y-70828571D01*
X199224819Y-70828571D02*
X199224819Y-70733333D01*
X199224819Y-70733333D02*
X199272438Y-70590476D01*
X199272438Y-70590476D02*
X199320057Y-70542857D01*
X200224819Y-69590476D02*
X200224819Y-70161904D01*
X200224819Y-69876190D02*
X199224819Y-69876190D01*
X199224819Y-69876190D02*
X199367676Y-69971428D01*
X199367676Y-69971428D02*
X199462914Y-70066666D01*
X199462914Y-70066666D02*
X199510533Y-70161904D01*
X199224819Y-68971428D02*
X199224819Y-68876190D01*
X199224819Y-68876190D02*
X199272438Y-68780952D01*
X199272438Y-68780952D02*
X199320057Y-68733333D01*
X199320057Y-68733333D02*
X199415295Y-68685714D01*
X199415295Y-68685714D02*
X199605771Y-68638095D01*
X199605771Y-68638095D02*
X199843866Y-68638095D01*
X199843866Y-68638095D02*
X200034342Y-68685714D01*
X200034342Y-68685714D02*
X200129580Y-68733333D01*
X200129580Y-68733333D02*
X200177200Y-68780952D01*
X200177200Y-68780952D02*
X200224819Y-68876190D01*
X200224819Y-68876190D02*
X200224819Y-68971428D01*
X200224819Y-68971428D02*
X200177200Y-69066666D01*
X200177200Y-69066666D02*
X200129580Y-69114285D01*
X200129580Y-69114285D02*
X200034342Y-69161904D01*
X200034342Y-69161904D02*
X199843866Y-69209523D01*
X199843866Y-69209523D02*
X199605771Y-69209523D01*
X199605771Y-69209523D02*
X199415295Y-69161904D01*
X199415295Y-69161904D02*
X199320057Y-69114285D01*
X199320057Y-69114285D02*
X199272438Y-69066666D01*
X199272438Y-69066666D02*
X199224819Y-68971428D01*
D11*
X167868095Y-195077419D02*
X167868095Y-195886942D01*
X167868095Y-195886942D02*
X167915714Y-195982180D01*
X167915714Y-195982180D02*
X167963333Y-196029800D01*
X167963333Y-196029800D02*
X168058571Y-196077419D01*
X168058571Y-196077419D02*
X168249047Y-196077419D01*
X168249047Y-196077419D02*
X168344285Y-196029800D01*
X168344285Y-196029800D02*
X168391904Y-195982180D01*
X168391904Y-195982180D02*
X168439523Y-195886942D01*
X168439523Y-195886942D02*
X168439523Y-195077419D01*
X168820476Y-195077419D02*
X169487142Y-195077419D01*
X169487142Y-195077419D02*
X169058571Y-196077419D01*
D10*
X215665714Y-289574819D02*
X215665714Y-288574819D01*
X215665714Y-288574819D02*
X215903809Y-288574819D01*
X215903809Y-288574819D02*
X216046666Y-288622438D01*
X216046666Y-288622438D02*
X216141904Y-288717676D01*
X216141904Y-288717676D02*
X216189523Y-288812914D01*
X216189523Y-288812914D02*
X216237142Y-289003390D01*
X216237142Y-289003390D02*
X216237142Y-289146247D01*
X216237142Y-289146247D02*
X216189523Y-289336723D01*
X216189523Y-289336723D02*
X216141904Y-289431961D01*
X216141904Y-289431961D02*
X216046666Y-289527200D01*
X216046666Y-289527200D02*
X215903809Y-289574819D01*
X215903809Y-289574819D02*
X215665714Y-289574819D01*
X217189523Y-289574819D02*
X216618095Y-289574819D01*
X216903809Y-289574819D02*
X216903809Y-288574819D01*
X216903809Y-288574819D02*
X216808571Y-288717676D01*
X216808571Y-288717676D02*
X216713333Y-288812914D01*
X216713333Y-288812914D02*
X216618095Y-288860533D01*
X217522857Y-288574819D02*
X218141904Y-288574819D01*
X218141904Y-288574819D02*
X217808571Y-288955771D01*
X217808571Y-288955771D02*
X217951428Y-288955771D01*
X217951428Y-288955771D02*
X218046666Y-289003390D01*
X218046666Y-289003390D02*
X218094285Y-289051009D01*
X218094285Y-289051009D02*
X218141904Y-289146247D01*
X218141904Y-289146247D02*
X218141904Y-289384342D01*
X218141904Y-289384342D02*
X218094285Y-289479580D01*
X218094285Y-289479580D02*
X218046666Y-289527200D01*
X218046666Y-289527200D02*
X217951428Y-289574819D01*
X217951428Y-289574819D02*
X217665714Y-289574819D01*
X217665714Y-289574819D02*
X217570476Y-289527200D01*
X217570476Y-289527200D02*
X217522857Y-289479580D01*
X213108571Y-291382295D02*
X212651428Y-291382295D01*
X212880000Y-291382295D02*
X212880000Y-290582295D01*
X212880000Y-290582295D02*
X212803809Y-290696580D01*
X212803809Y-290696580D02*
X212727619Y-290772771D01*
X212727619Y-290772771D02*
X212651428Y-290810866D01*
X50966666Y-225154819D02*
X50966666Y-225869104D01*
X50966666Y-225869104D02*
X50919047Y-226011961D01*
X50919047Y-226011961D02*
X50823809Y-226107200D01*
X50823809Y-226107200D02*
X50680952Y-226154819D01*
X50680952Y-226154819D02*
X50585714Y-226154819D01*
X51919047Y-225154819D02*
X51442857Y-225154819D01*
X51442857Y-225154819D02*
X51395238Y-225631009D01*
X51395238Y-225631009D02*
X51442857Y-225583390D01*
X51442857Y-225583390D02*
X51538095Y-225535771D01*
X51538095Y-225535771D02*
X51776190Y-225535771D01*
X51776190Y-225535771D02*
X51871428Y-225583390D01*
X51871428Y-225583390D02*
X51919047Y-225631009D01*
X51919047Y-225631009D02*
X51966666Y-225726247D01*
X51966666Y-225726247D02*
X51966666Y-225964342D01*
X51966666Y-225964342D02*
X51919047Y-226059580D01*
X51919047Y-226059580D02*
X51871428Y-226107200D01*
X51871428Y-226107200D02*
X51776190Y-226154819D01*
X51776190Y-226154819D02*
X51538095Y-226154819D01*
X51538095Y-226154819D02*
X51442857Y-226107200D01*
X51442857Y-226107200D02*
X51395238Y-226059580D01*
X167891905Y-193074819D02*
X167891905Y-192074819D01*
X167891905Y-192074819D02*
X168130000Y-192074819D01*
X168130000Y-192074819D02*
X168272857Y-192122438D01*
X168272857Y-192122438D02*
X168368095Y-192217676D01*
X168368095Y-192217676D02*
X168415714Y-192312914D01*
X168415714Y-192312914D02*
X168463333Y-192503390D01*
X168463333Y-192503390D02*
X168463333Y-192646247D01*
X168463333Y-192646247D02*
X168415714Y-192836723D01*
X168415714Y-192836723D02*
X168368095Y-192931961D01*
X168368095Y-192931961D02*
X168272857Y-193027200D01*
X168272857Y-193027200D02*
X168130000Y-193074819D01*
X168130000Y-193074819D02*
X167891905Y-193074819D01*
X169320476Y-192074819D02*
X169130000Y-192074819D01*
X169130000Y-192074819D02*
X169034762Y-192122438D01*
X169034762Y-192122438D02*
X168987143Y-192170057D01*
X168987143Y-192170057D02*
X168891905Y-192312914D01*
X168891905Y-192312914D02*
X168844286Y-192503390D01*
X168844286Y-192503390D02*
X168844286Y-192884342D01*
X168844286Y-192884342D02*
X168891905Y-192979580D01*
X168891905Y-192979580D02*
X168939524Y-193027200D01*
X168939524Y-193027200D02*
X169034762Y-193074819D01*
X169034762Y-193074819D02*
X169225238Y-193074819D01*
X169225238Y-193074819D02*
X169320476Y-193027200D01*
X169320476Y-193027200D02*
X169368095Y-192979580D01*
X169368095Y-192979580D02*
X169415714Y-192884342D01*
X169415714Y-192884342D02*
X169415714Y-192646247D01*
X169415714Y-192646247D02*
X169368095Y-192551009D01*
X169368095Y-192551009D02*
X169320476Y-192503390D01*
X169320476Y-192503390D02*
X169225238Y-192455771D01*
X169225238Y-192455771D02*
X169034762Y-192455771D01*
X169034762Y-192455771D02*
X168939524Y-192503390D01*
X168939524Y-192503390D02*
X168891905Y-192551009D01*
X168891905Y-192551009D02*
X168844286Y-192646247D01*
X164858571Y-194882295D02*
X164401428Y-194882295D01*
X164630000Y-194882295D02*
X164630000Y-194082295D01*
X164630000Y-194082295D02*
X164553809Y-194196580D01*
X164553809Y-194196580D02*
X164477619Y-194272771D01*
X164477619Y-194272771D02*
X164401428Y-194310866D01*
X170734819Y-316642857D02*
X170258628Y-316976190D01*
X170734819Y-317214285D02*
X169734819Y-317214285D01*
X169734819Y-317214285D02*
X169734819Y-316833333D01*
X169734819Y-316833333D02*
X169782438Y-316738095D01*
X169782438Y-316738095D02*
X169830057Y-316690476D01*
X169830057Y-316690476D02*
X169925295Y-316642857D01*
X169925295Y-316642857D02*
X170068152Y-316642857D01*
X170068152Y-316642857D02*
X170163390Y-316690476D01*
X170163390Y-316690476D02*
X170211009Y-316738095D01*
X170211009Y-316738095D02*
X170258628Y-316833333D01*
X170258628Y-316833333D02*
X170258628Y-317214285D01*
X170734819Y-315690476D02*
X170734819Y-316261904D01*
X170734819Y-315976190D02*
X169734819Y-315976190D01*
X169734819Y-315976190D02*
X169877676Y-316071428D01*
X169877676Y-316071428D02*
X169972914Y-316166666D01*
X169972914Y-316166666D02*
X170020533Y-316261904D01*
X169734819Y-314785714D02*
X169734819Y-315261904D01*
X169734819Y-315261904D02*
X170211009Y-315309523D01*
X170211009Y-315309523D02*
X170163390Y-315261904D01*
X170163390Y-315261904D02*
X170115771Y-315166666D01*
X170115771Y-315166666D02*
X170115771Y-314928571D01*
X170115771Y-314928571D02*
X170163390Y-314833333D01*
X170163390Y-314833333D02*
X170211009Y-314785714D01*
X170211009Y-314785714D02*
X170306247Y-314738095D01*
X170306247Y-314738095D02*
X170544342Y-314738095D01*
X170544342Y-314738095D02*
X170639580Y-314785714D01*
X170639580Y-314785714D02*
X170687200Y-314833333D01*
X170687200Y-314833333D02*
X170734819Y-314928571D01*
X170734819Y-314928571D02*
X170734819Y-315166666D01*
X170734819Y-315166666D02*
X170687200Y-315261904D01*
X170687200Y-315261904D02*
X170639580Y-315309523D01*
X239666666Y-214454819D02*
X239666666Y-215169104D01*
X239666666Y-215169104D02*
X239619047Y-215311961D01*
X239619047Y-215311961D02*
X239523809Y-215407200D01*
X239523809Y-215407200D02*
X239380952Y-215454819D01*
X239380952Y-215454819D02*
X239285714Y-215454819D01*
X240095238Y-214550057D02*
X240142857Y-214502438D01*
X240142857Y-214502438D02*
X240238095Y-214454819D01*
X240238095Y-214454819D02*
X240476190Y-214454819D01*
X240476190Y-214454819D02*
X240571428Y-214502438D01*
X240571428Y-214502438D02*
X240619047Y-214550057D01*
X240619047Y-214550057D02*
X240666666Y-214645295D01*
X240666666Y-214645295D02*
X240666666Y-214740533D01*
X240666666Y-214740533D02*
X240619047Y-214883390D01*
X240619047Y-214883390D02*
X240047619Y-215454819D01*
X240047619Y-215454819D02*
X240666666Y-215454819D01*
X216041905Y-70654819D02*
X216041905Y-71464342D01*
X216041905Y-71464342D02*
X216089524Y-71559580D01*
X216089524Y-71559580D02*
X216137143Y-71607200D01*
X216137143Y-71607200D02*
X216232381Y-71654819D01*
X216232381Y-71654819D02*
X216422857Y-71654819D01*
X216422857Y-71654819D02*
X216518095Y-71607200D01*
X216518095Y-71607200D02*
X216565714Y-71559580D01*
X216565714Y-71559580D02*
X216613333Y-71464342D01*
X216613333Y-71464342D02*
X216613333Y-70654819D01*
X217041905Y-70750057D02*
X217089524Y-70702438D01*
X217089524Y-70702438D02*
X217184762Y-70654819D01*
X217184762Y-70654819D02*
X217422857Y-70654819D01*
X217422857Y-70654819D02*
X217518095Y-70702438D01*
X217518095Y-70702438D02*
X217565714Y-70750057D01*
X217565714Y-70750057D02*
X217613333Y-70845295D01*
X217613333Y-70845295D02*
X217613333Y-70940533D01*
X217613333Y-70940533D02*
X217565714Y-71083390D01*
X217565714Y-71083390D02*
X216994286Y-71654819D01*
X216994286Y-71654819D02*
X217613333Y-71654819D01*
X218232381Y-70654819D02*
X218327619Y-70654819D01*
X218327619Y-70654819D02*
X218422857Y-70702438D01*
X218422857Y-70702438D02*
X218470476Y-70750057D01*
X218470476Y-70750057D02*
X218518095Y-70845295D01*
X218518095Y-70845295D02*
X218565714Y-71035771D01*
X218565714Y-71035771D02*
X218565714Y-71273866D01*
X218565714Y-71273866D02*
X218518095Y-71464342D01*
X218518095Y-71464342D02*
X218470476Y-71559580D01*
X218470476Y-71559580D02*
X218422857Y-71607200D01*
X218422857Y-71607200D02*
X218327619Y-71654819D01*
X218327619Y-71654819D02*
X218232381Y-71654819D01*
X218232381Y-71654819D02*
X218137143Y-71607200D01*
X218137143Y-71607200D02*
X218089524Y-71559580D01*
X218089524Y-71559580D02*
X218041905Y-71464342D01*
X218041905Y-71464342D02*
X217994286Y-71273866D01*
X217994286Y-71273866D02*
X217994286Y-71035771D01*
X217994286Y-71035771D02*
X218041905Y-70845295D01*
X218041905Y-70845295D02*
X218089524Y-70750057D01*
X218089524Y-70750057D02*
X218137143Y-70702438D01*
X218137143Y-70702438D02*
X218232381Y-70654819D01*
X170734819Y-220166666D02*
X170258628Y-220499999D01*
X170734819Y-220738094D02*
X169734819Y-220738094D01*
X169734819Y-220738094D02*
X169734819Y-220357142D01*
X169734819Y-220357142D02*
X169782438Y-220261904D01*
X169782438Y-220261904D02*
X169830057Y-220214285D01*
X169830057Y-220214285D02*
X169925295Y-220166666D01*
X169925295Y-220166666D02*
X170068152Y-220166666D01*
X170068152Y-220166666D02*
X170163390Y-220214285D01*
X170163390Y-220214285D02*
X170211009Y-220261904D01*
X170211009Y-220261904D02*
X170258628Y-220357142D01*
X170258628Y-220357142D02*
X170258628Y-220738094D01*
X169734819Y-219833332D02*
X169734819Y-219166666D01*
X169734819Y-219166666D02*
X170734819Y-219595237D01*
D11*
X215641905Y-290467419D02*
X215641905Y-291276942D01*
X215641905Y-291276942D02*
X215689524Y-291372180D01*
X215689524Y-291372180D02*
X215737143Y-291419800D01*
X215737143Y-291419800D02*
X215832381Y-291467419D01*
X215832381Y-291467419D02*
X216022857Y-291467419D01*
X216022857Y-291467419D02*
X216118095Y-291419800D01*
X216118095Y-291419800D02*
X216165714Y-291372180D01*
X216165714Y-291372180D02*
X216213333Y-291276942D01*
X216213333Y-291276942D02*
X216213333Y-290467419D01*
X217213333Y-291467419D02*
X216641905Y-291467419D01*
X216927619Y-291467419D02*
X216927619Y-290467419D01*
X216927619Y-290467419D02*
X216832381Y-290610276D01*
X216832381Y-290610276D02*
X216737143Y-290705514D01*
X216737143Y-290705514D02*
X216641905Y-290753133D01*
X218070476Y-290467419D02*
X217880000Y-290467419D01*
X217880000Y-290467419D02*
X217784762Y-290515038D01*
X217784762Y-290515038D02*
X217737143Y-290562657D01*
X217737143Y-290562657D02*
X217641905Y-290705514D01*
X217641905Y-290705514D02*
X217594286Y-290895990D01*
X217594286Y-290895990D02*
X217594286Y-291276942D01*
X217594286Y-291276942D02*
X217641905Y-291372180D01*
X217641905Y-291372180D02*
X217689524Y-291419800D01*
X217689524Y-291419800D02*
X217784762Y-291467419D01*
X217784762Y-291467419D02*
X217975238Y-291467419D01*
X217975238Y-291467419D02*
X218070476Y-291419800D01*
X218070476Y-291419800D02*
X218118095Y-291372180D01*
X218118095Y-291372180D02*
X218165714Y-291276942D01*
X218165714Y-291276942D02*
X218165714Y-291038847D01*
X218165714Y-291038847D02*
X218118095Y-290943609D01*
X218118095Y-290943609D02*
X218070476Y-290895990D01*
X218070476Y-290895990D02*
X217975238Y-290848371D01*
X217975238Y-290848371D02*
X217784762Y-290848371D01*
X217784762Y-290848371D02*
X217689524Y-290895990D01*
X217689524Y-290895990D02*
X217641905Y-290943609D01*
X217641905Y-290943609D02*
X217594286Y-291038847D01*
D10*
X215665714Y-241324819D02*
X215665714Y-240324819D01*
X215665714Y-240324819D02*
X215903809Y-240324819D01*
X215903809Y-240324819D02*
X216046666Y-240372438D01*
X216046666Y-240372438D02*
X216141904Y-240467676D01*
X216141904Y-240467676D02*
X216189523Y-240562914D01*
X216189523Y-240562914D02*
X216237142Y-240753390D01*
X216237142Y-240753390D02*
X216237142Y-240896247D01*
X216237142Y-240896247D02*
X216189523Y-241086723D01*
X216189523Y-241086723D02*
X216141904Y-241181961D01*
X216141904Y-241181961D02*
X216046666Y-241277200D01*
X216046666Y-241277200D02*
X215903809Y-241324819D01*
X215903809Y-241324819D02*
X215665714Y-241324819D01*
X217189523Y-241324819D02*
X216618095Y-241324819D01*
X216903809Y-241324819D02*
X216903809Y-240324819D01*
X216903809Y-240324819D02*
X216808571Y-240467676D01*
X216808571Y-240467676D02*
X216713333Y-240562914D01*
X216713333Y-240562914D02*
X216618095Y-240610533D01*
X217570476Y-240420057D02*
X217618095Y-240372438D01*
X217618095Y-240372438D02*
X217713333Y-240324819D01*
X217713333Y-240324819D02*
X217951428Y-240324819D01*
X217951428Y-240324819D02*
X218046666Y-240372438D01*
X218046666Y-240372438D02*
X218094285Y-240420057D01*
X218094285Y-240420057D02*
X218141904Y-240515295D01*
X218141904Y-240515295D02*
X218141904Y-240610533D01*
X218141904Y-240610533D02*
X218094285Y-240753390D01*
X218094285Y-240753390D02*
X217522857Y-241324819D01*
X217522857Y-241324819D02*
X218141904Y-241324819D01*
X213108571Y-243132295D02*
X212651428Y-243132295D01*
X212880000Y-243132295D02*
X212880000Y-242332295D01*
X212880000Y-242332295D02*
X212803809Y-242446580D01*
X212803809Y-242446580D02*
X212727619Y-242522771D01*
X212727619Y-242522771D02*
X212651428Y-242560866D01*
X74234819Y-316642857D02*
X73758628Y-316976190D01*
X74234819Y-317214285D02*
X73234819Y-317214285D01*
X73234819Y-317214285D02*
X73234819Y-316833333D01*
X73234819Y-316833333D02*
X73282438Y-316738095D01*
X73282438Y-316738095D02*
X73330057Y-316690476D01*
X73330057Y-316690476D02*
X73425295Y-316642857D01*
X73425295Y-316642857D02*
X73568152Y-316642857D01*
X73568152Y-316642857D02*
X73663390Y-316690476D01*
X73663390Y-316690476D02*
X73711009Y-316738095D01*
X73711009Y-316738095D02*
X73758628Y-316833333D01*
X73758628Y-316833333D02*
X73758628Y-317214285D01*
X74234819Y-315690476D02*
X74234819Y-316261904D01*
X74234819Y-315976190D02*
X73234819Y-315976190D01*
X73234819Y-315976190D02*
X73377676Y-316071428D01*
X73377676Y-316071428D02*
X73472914Y-316166666D01*
X73472914Y-316166666D02*
X73520533Y-316261904D01*
X73234819Y-315357142D02*
X73234819Y-314738095D01*
X73234819Y-314738095D02*
X73615771Y-315071428D01*
X73615771Y-315071428D02*
X73615771Y-314928571D01*
X73615771Y-314928571D02*
X73663390Y-314833333D01*
X73663390Y-314833333D02*
X73711009Y-314785714D01*
X73711009Y-314785714D02*
X73806247Y-314738095D01*
X73806247Y-314738095D02*
X74044342Y-314738095D01*
X74044342Y-314738095D02*
X74139580Y-314785714D01*
X74139580Y-314785714D02*
X74187200Y-314833333D01*
X74187200Y-314833333D02*
X74234819Y-314928571D01*
X74234819Y-314928571D02*
X74234819Y-315214285D01*
X74234819Y-315214285D02*
X74187200Y-315309523D01*
X74187200Y-315309523D02*
X74139580Y-315357142D01*
X167891905Y-144824819D02*
X167891905Y-143824819D01*
X167891905Y-143824819D02*
X168130000Y-143824819D01*
X168130000Y-143824819D02*
X168272857Y-143872438D01*
X168272857Y-143872438D02*
X168368095Y-143967676D01*
X168368095Y-143967676D02*
X168415714Y-144062914D01*
X168415714Y-144062914D02*
X168463333Y-144253390D01*
X168463333Y-144253390D02*
X168463333Y-144396247D01*
X168463333Y-144396247D02*
X168415714Y-144586723D01*
X168415714Y-144586723D02*
X168368095Y-144681961D01*
X168368095Y-144681961D02*
X168272857Y-144777200D01*
X168272857Y-144777200D02*
X168130000Y-144824819D01*
X168130000Y-144824819D02*
X167891905Y-144824819D01*
X168796667Y-143824819D02*
X169415714Y-143824819D01*
X169415714Y-143824819D02*
X169082381Y-144205771D01*
X169082381Y-144205771D02*
X169225238Y-144205771D01*
X169225238Y-144205771D02*
X169320476Y-144253390D01*
X169320476Y-144253390D02*
X169368095Y-144301009D01*
X169368095Y-144301009D02*
X169415714Y-144396247D01*
X169415714Y-144396247D02*
X169415714Y-144634342D01*
X169415714Y-144634342D02*
X169368095Y-144729580D01*
X169368095Y-144729580D02*
X169320476Y-144777200D01*
X169320476Y-144777200D02*
X169225238Y-144824819D01*
X169225238Y-144824819D02*
X168939524Y-144824819D01*
X168939524Y-144824819D02*
X168844286Y-144777200D01*
X168844286Y-144777200D02*
X168796667Y-144729580D01*
X164858571Y-146632295D02*
X164401428Y-146632295D01*
X164630000Y-146632295D02*
X164630000Y-145832295D01*
X164630000Y-145832295D02*
X164553809Y-145946580D01*
X164553809Y-145946580D02*
X164477619Y-146022771D01*
X164477619Y-146022771D02*
X164401428Y-146060866D01*
X167415714Y-241324819D02*
X167415714Y-240324819D01*
X167415714Y-240324819D02*
X167653809Y-240324819D01*
X167653809Y-240324819D02*
X167796666Y-240372438D01*
X167796666Y-240372438D02*
X167891904Y-240467676D01*
X167891904Y-240467676D02*
X167939523Y-240562914D01*
X167939523Y-240562914D02*
X167987142Y-240753390D01*
X167987142Y-240753390D02*
X167987142Y-240896247D01*
X167987142Y-240896247D02*
X167939523Y-241086723D01*
X167939523Y-241086723D02*
X167891904Y-241181961D01*
X167891904Y-241181961D02*
X167796666Y-241277200D01*
X167796666Y-241277200D02*
X167653809Y-241324819D01*
X167653809Y-241324819D02*
X167415714Y-241324819D01*
X168939523Y-241324819D02*
X168368095Y-241324819D01*
X168653809Y-241324819D02*
X168653809Y-240324819D01*
X168653809Y-240324819D02*
X168558571Y-240467676D01*
X168558571Y-240467676D02*
X168463333Y-240562914D01*
X168463333Y-240562914D02*
X168368095Y-240610533D01*
X169891904Y-241324819D02*
X169320476Y-241324819D01*
X169606190Y-241324819D02*
X169606190Y-240324819D01*
X169606190Y-240324819D02*
X169510952Y-240467676D01*
X169510952Y-240467676D02*
X169415714Y-240562914D01*
X169415714Y-240562914D02*
X169320476Y-240610533D01*
X164858571Y-243132295D02*
X164401428Y-243132295D01*
X164630000Y-243132295D02*
X164630000Y-242332295D01*
X164630000Y-242332295D02*
X164553809Y-242446580D01*
X164553809Y-242446580D02*
X164477619Y-242522771D01*
X164477619Y-242522771D02*
X164401428Y-242560866D01*
X122484819Y-316642857D02*
X122008628Y-316976190D01*
X122484819Y-317214285D02*
X121484819Y-317214285D01*
X121484819Y-317214285D02*
X121484819Y-316833333D01*
X121484819Y-316833333D02*
X121532438Y-316738095D01*
X121532438Y-316738095D02*
X121580057Y-316690476D01*
X121580057Y-316690476D02*
X121675295Y-316642857D01*
X121675295Y-316642857D02*
X121818152Y-316642857D01*
X121818152Y-316642857D02*
X121913390Y-316690476D01*
X121913390Y-316690476D02*
X121961009Y-316738095D01*
X121961009Y-316738095D02*
X122008628Y-316833333D01*
X122008628Y-316833333D02*
X122008628Y-317214285D01*
X122484819Y-315690476D02*
X122484819Y-316261904D01*
X122484819Y-315976190D02*
X121484819Y-315976190D01*
X121484819Y-315976190D02*
X121627676Y-316071428D01*
X121627676Y-316071428D02*
X121722914Y-316166666D01*
X121722914Y-316166666D02*
X121770533Y-316261904D01*
X121818152Y-314833333D02*
X122484819Y-314833333D01*
X121437200Y-315071428D02*
X122151485Y-315309523D01*
X122151485Y-315309523D02*
X122151485Y-314690476D01*
D11*
X71368095Y-146827419D02*
X71368095Y-147636942D01*
X71368095Y-147636942D02*
X71415714Y-147732180D01*
X71415714Y-147732180D02*
X71463333Y-147779800D01*
X71463333Y-147779800D02*
X71558571Y-147827419D01*
X71558571Y-147827419D02*
X71749047Y-147827419D01*
X71749047Y-147827419D02*
X71844285Y-147779800D01*
X71844285Y-147779800D02*
X71891904Y-147732180D01*
X71891904Y-147732180D02*
X71939523Y-147636942D01*
X71939523Y-147636942D02*
X71939523Y-146827419D01*
X72939523Y-147827419D02*
X72368095Y-147827419D01*
X72653809Y-147827419D02*
X72653809Y-146827419D01*
X72653809Y-146827419D02*
X72558571Y-146970276D01*
X72558571Y-146970276D02*
X72463333Y-147065514D01*
X72463333Y-147065514D02*
X72368095Y-147113133D01*
D10*
X189329580Y-77016666D02*
X189377200Y-77064285D01*
X189377200Y-77064285D02*
X189424819Y-77207142D01*
X189424819Y-77207142D02*
X189424819Y-77302380D01*
X189424819Y-77302380D02*
X189377200Y-77445237D01*
X189377200Y-77445237D02*
X189281961Y-77540475D01*
X189281961Y-77540475D02*
X189186723Y-77588094D01*
X189186723Y-77588094D02*
X188996247Y-77635713D01*
X188996247Y-77635713D02*
X188853390Y-77635713D01*
X188853390Y-77635713D02*
X188662914Y-77588094D01*
X188662914Y-77588094D02*
X188567676Y-77540475D01*
X188567676Y-77540475D02*
X188472438Y-77445237D01*
X188472438Y-77445237D02*
X188424819Y-77302380D01*
X188424819Y-77302380D02*
X188424819Y-77207142D01*
X188424819Y-77207142D02*
X188472438Y-77064285D01*
X188472438Y-77064285D02*
X188520057Y-77016666D01*
X188424819Y-76683332D02*
X188424819Y-76064285D01*
X188424819Y-76064285D02*
X188805771Y-76397618D01*
X188805771Y-76397618D02*
X188805771Y-76254761D01*
X188805771Y-76254761D02*
X188853390Y-76159523D01*
X188853390Y-76159523D02*
X188901009Y-76111904D01*
X188901009Y-76111904D02*
X188996247Y-76064285D01*
X188996247Y-76064285D02*
X189234342Y-76064285D01*
X189234342Y-76064285D02*
X189329580Y-76111904D01*
X189329580Y-76111904D02*
X189377200Y-76159523D01*
X189377200Y-76159523D02*
X189424819Y-76254761D01*
X189424819Y-76254761D02*
X189424819Y-76540475D01*
X189424819Y-76540475D02*
X189377200Y-76635713D01*
X189377200Y-76635713D02*
X189329580Y-76683332D01*
D11*
X216118095Y-195077419D02*
X216118095Y-195886942D01*
X216118095Y-195886942D02*
X216165714Y-195982180D01*
X216165714Y-195982180D02*
X216213333Y-196029800D01*
X216213333Y-196029800D02*
X216308571Y-196077419D01*
X216308571Y-196077419D02*
X216499047Y-196077419D01*
X216499047Y-196077419D02*
X216594285Y-196029800D01*
X216594285Y-196029800D02*
X216641904Y-195982180D01*
X216641904Y-195982180D02*
X216689523Y-195886942D01*
X216689523Y-195886942D02*
X216689523Y-195077419D01*
X217308571Y-195505990D02*
X217213333Y-195458371D01*
X217213333Y-195458371D02*
X217165714Y-195410752D01*
X217165714Y-195410752D02*
X217118095Y-195315514D01*
X217118095Y-195315514D02*
X217118095Y-195267895D01*
X217118095Y-195267895D02*
X217165714Y-195172657D01*
X217165714Y-195172657D02*
X217213333Y-195125038D01*
X217213333Y-195125038D02*
X217308571Y-195077419D01*
X217308571Y-195077419D02*
X217499047Y-195077419D01*
X217499047Y-195077419D02*
X217594285Y-195125038D01*
X217594285Y-195125038D02*
X217641904Y-195172657D01*
X217641904Y-195172657D02*
X217689523Y-195267895D01*
X217689523Y-195267895D02*
X217689523Y-195315514D01*
X217689523Y-195315514D02*
X217641904Y-195410752D01*
X217641904Y-195410752D02*
X217594285Y-195458371D01*
X217594285Y-195458371D02*
X217499047Y-195505990D01*
X217499047Y-195505990D02*
X217308571Y-195505990D01*
X217308571Y-195505990D02*
X217213333Y-195553609D01*
X217213333Y-195553609D02*
X217165714Y-195601228D01*
X217165714Y-195601228D02*
X217118095Y-195696466D01*
X217118095Y-195696466D02*
X217118095Y-195886942D01*
X217118095Y-195886942D02*
X217165714Y-195982180D01*
X217165714Y-195982180D02*
X217213333Y-196029800D01*
X217213333Y-196029800D02*
X217308571Y-196077419D01*
X217308571Y-196077419D02*
X217499047Y-196077419D01*
X217499047Y-196077419D02*
X217594285Y-196029800D01*
X217594285Y-196029800D02*
X217641904Y-195982180D01*
X217641904Y-195982180D02*
X217689523Y-195886942D01*
X217689523Y-195886942D02*
X217689523Y-195696466D01*
X217689523Y-195696466D02*
X217641904Y-195601228D01*
X217641904Y-195601228D02*
X217594285Y-195553609D01*
X217594285Y-195553609D02*
X217499047Y-195505990D01*
D10*
X202379580Y-74592857D02*
X202427200Y-74640476D01*
X202427200Y-74640476D02*
X202474819Y-74783333D01*
X202474819Y-74783333D02*
X202474819Y-74878571D01*
X202474819Y-74878571D02*
X202427200Y-75021428D01*
X202427200Y-75021428D02*
X202331961Y-75116666D01*
X202331961Y-75116666D02*
X202236723Y-75164285D01*
X202236723Y-75164285D02*
X202046247Y-75211904D01*
X202046247Y-75211904D02*
X201903390Y-75211904D01*
X201903390Y-75211904D02*
X201712914Y-75164285D01*
X201712914Y-75164285D02*
X201617676Y-75116666D01*
X201617676Y-75116666D02*
X201522438Y-75021428D01*
X201522438Y-75021428D02*
X201474819Y-74878571D01*
X201474819Y-74878571D02*
X201474819Y-74783333D01*
X201474819Y-74783333D02*
X201522438Y-74640476D01*
X201522438Y-74640476D02*
X201570057Y-74592857D01*
X202474819Y-73640476D02*
X202474819Y-74211904D01*
X202474819Y-73926190D02*
X201474819Y-73926190D01*
X201474819Y-73926190D02*
X201617676Y-74021428D01*
X201617676Y-74021428D02*
X201712914Y-74116666D01*
X201712914Y-74116666D02*
X201760533Y-74211904D01*
X201570057Y-73259523D02*
X201522438Y-73211904D01*
X201522438Y-73211904D02*
X201474819Y-73116666D01*
X201474819Y-73116666D02*
X201474819Y-72878571D01*
X201474819Y-72878571D02*
X201522438Y-72783333D01*
X201522438Y-72783333D02*
X201570057Y-72735714D01*
X201570057Y-72735714D02*
X201665295Y-72688095D01*
X201665295Y-72688095D02*
X201760533Y-72688095D01*
X201760533Y-72688095D02*
X201903390Y-72735714D01*
X201903390Y-72735714D02*
X202474819Y-73307142D01*
X202474819Y-73307142D02*
X202474819Y-72688095D01*
X229046666Y-60184819D02*
X229046666Y-60899104D01*
X229046666Y-60899104D02*
X228999047Y-61041961D01*
X228999047Y-61041961D02*
X228903809Y-61137200D01*
X228903809Y-61137200D02*
X228760952Y-61184819D01*
X228760952Y-61184819D02*
X228665714Y-61184819D01*
X229951428Y-60518152D02*
X229951428Y-61184819D01*
X229713333Y-60137200D02*
X229475238Y-60851485D01*
X229475238Y-60851485D02*
X230094285Y-60851485D01*
X216141905Y-193074819D02*
X216141905Y-192074819D01*
X216141905Y-192074819D02*
X216380000Y-192074819D01*
X216380000Y-192074819D02*
X216522857Y-192122438D01*
X216522857Y-192122438D02*
X216618095Y-192217676D01*
X216618095Y-192217676D02*
X216665714Y-192312914D01*
X216665714Y-192312914D02*
X216713333Y-192503390D01*
X216713333Y-192503390D02*
X216713333Y-192646247D01*
X216713333Y-192646247D02*
X216665714Y-192836723D01*
X216665714Y-192836723D02*
X216618095Y-192931961D01*
X216618095Y-192931961D02*
X216522857Y-193027200D01*
X216522857Y-193027200D02*
X216380000Y-193074819D01*
X216380000Y-193074819D02*
X216141905Y-193074819D01*
X217618095Y-192074819D02*
X217141905Y-192074819D01*
X217141905Y-192074819D02*
X217094286Y-192551009D01*
X217094286Y-192551009D02*
X217141905Y-192503390D01*
X217141905Y-192503390D02*
X217237143Y-192455771D01*
X217237143Y-192455771D02*
X217475238Y-192455771D01*
X217475238Y-192455771D02*
X217570476Y-192503390D01*
X217570476Y-192503390D02*
X217618095Y-192551009D01*
X217618095Y-192551009D02*
X217665714Y-192646247D01*
X217665714Y-192646247D02*
X217665714Y-192884342D01*
X217665714Y-192884342D02*
X217618095Y-192979580D01*
X217618095Y-192979580D02*
X217570476Y-193027200D01*
X217570476Y-193027200D02*
X217475238Y-193074819D01*
X217475238Y-193074819D02*
X217237143Y-193074819D01*
X217237143Y-193074819D02*
X217141905Y-193027200D01*
X217141905Y-193027200D02*
X217094286Y-192979580D01*
X213108571Y-194882295D02*
X212651428Y-194882295D01*
X212880000Y-194882295D02*
X212880000Y-194082295D01*
X212880000Y-194082295D02*
X212803809Y-194196580D01*
X212803809Y-194196580D02*
X212727619Y-194272771D01*
X212727619Y-194272771D02*
X212651428Y-194310866D01*
D11*
X215661905Y-241887419D02*
X215661905Y-242696942D01*
X215661905Y-242696942D02*
X215709524Y-242792180D01*
X215709524Y-242792180D02*
X215757143Y-242839800D01*
X215757143Y-242839800D02*
X215852381Y-242887419D01*
X215852381Y-242887419D02*
X216042857Y-242887419D01*
X216042857Y-242887419D02*
X216138095Y-242839800D01*
X216138095Y-242839800D02*
X216185714Y-242792180D01*
X216185714Y-242792180D02*
X216233333Y-242696942D01*
X216233333Y-242696942D02*
X216233333Y-241887419D01*
X217233333Y-242887419D02*
X216661905Y-242887419D01*
X216947619Y-242887419D02*
X216947619Y-241887419D01*
X216947619Y-241887419D02*
X216852381Y-242030276D01*
X216852381Y-242030276D02*
X216757143Y-242125514D01*
X216757143Y-242125514D02*
X216661905Y-242173133D01*
X217614286Y-241982657D02*
X217661905Y-241935038D01*
X217661905Y-241935038D02*
X217757143Y-241887419D01*
X217757143Y-241887419D02*
X217995238Y-241887419D01*
X217995238Y-241887419D02*
X218090476Y-241935038D01*
X218090476Y-241935038D02*
X218138095Y-241982657D01*
X218138095Y-241982657D02*
X218185714Y-242077895D01*
X218185714Y-242077895D02*
X218185714Y-242173133D01*
X218185714Y-242173133D02*
X218138095Y-242315990D01*
X218138095Y-242315990D02*
X217566667Y-242887419D01*
X217566667Y-242887419D02*
X218185714Y-242887419D01*
D10*
X218984819Y-220166666D02*
X218508628Y-220499999D01*
X218984819Y-220738094D02*
X217984819Y-220738094D01*
X217984819Y-220738094D02*
X217984819Y-220357142D01*
X217984819Y-220357142D02*
X218032438Y-220261904D01*
X218032438Y-220261904D02*
X218080057Y-220214285D01*
X218080057Y-220214285D02*
X218175295Y-220166666D01*
X218175295Y-220166666D02*
X218318152Y-220166666D01*
X218318152Y-220166666D02*
X218413390Y-220214285D01*
X218413390Y-220214285D02*
X218461009Y-220261904D01*
X218461009Y-220261904D02*
X218508628Y-220357142D01*
X218508628Y-220357142D02*
X218508628Y-220738094D01*
X218413390Y-219595237D02*
X218365771Y-219690475D01*
X218365771Y-219690475D02*
X218318152Y-219738094D01*
X218318152Y-219738094D02*
X218222914Y-219785713D01*
X218222914Y-219785713D02*
X218175295Y-219785713D01*
X218175295Y-219785713D02*
X218080057Y-219738094D01*
X218080057Y-219738094D02*
X218032438Y-219690475D01*
X218032438Y-219690475D02*
X217984819Y-219595237D01*
X217984819Y-219595237D02*
X217984819Y-219404761D01*
X217984819Y-219404761D02*
X218032438Y-219309523D01*
X218032438Y-219309523D02*
X218080057Y-219261904D01*
X218080057Y-219261904D02*
X218175295Y-219214285D01*
X218175295Y-219214285D02*
X218222914Y-219214285D01*
X218222914Y-219214285D02*
X218318152Y-219261904D01*
X218318152Y-219261904D02*
X218365771Y-219309523D01*
X218365771Y-219309523D02*
X218413390Y-219404761D01*
X218413390Y-219404761D02*
X218413390Y-219595237D01*
X218413390Y-219595237D02*
X218461009Y-219690475D01*
X218461009Y-219690475D02*
X218508628Y-219738094D01*
X218508628Y-219738094D02*
X218603866Y-219785713D01*
X218603866Y-219785713D02*
X218794342Y-219785713D01*
X218794342Y-219785713D02*
X218889580Y-219738094D01*
X218889580Y-219738094D02*
X218937200Y-219690475D01*
X218937200Y-219690475D02*
X218984819Y-219595237D01*
X218984819Y-219595237D02*
X218984819Y-219404761D01*
X218984819Y-219404761D02*
X218937200Y-219309523D01*
X218937200Y-219309523D02*
X218889580Y-219261904D01*
X218889580Y-219261904D02*
X218794342Y-219214285D01*
X218794342Y-219214285D02*
X218603866Y-219214285D01*
X218603866Y-219214285D02*
X218508628Y-219261904D01*
X218508628Y-219261904D02*
X218461009Y-219309523D01*
X218461009Y-219309523D02*
X218413390Y-219404761D01*
X190439580Y-70516666D02*
X190487200Y-70564285D01*
X190487200Y-70564285D02*
X190534819Y-70707142D01*
X190534819Y-70707142D02*
X190534819Y-70802380D01*
X190534819Y-70802380D02*
X190487200Y-70945237D01*
X190487200Y-70945237D02*
X190391961Y-71040475D01*
X190391961Y-71040475D02*
X190296723Y-71088094D01*
X190296723Y-71088094D02*
X190106247Y-71135713D01*
X190106247Y-71135713D02*
X189963390Y-71135713D01*
X189963390Y-71135713D02*
X189772914Y-71088094D01*
X189772914Y-71088094D02*
X189677676Y-71040475D01*
X189677676Y-71040475D02*
X189582438Y-70945237D01*
X189582438Y-70945237D02*
X189534819Y-70802380D01*
X189534819Y-70802380D02*
X189534819Y-70707142D01*
X189534819Y-70707142D02*
X189582438Y-70564285D01*
X189582438Y-70564285D02*
X189630057Y-70516666D01*
X189534819Y-69659523D02*
X189534819Y-69849999D01*
X189534819Y-69849999D02*
X189582438Y-69945237D01*
X189582438Y-69945237D02*
X189630057Y-69992856D01*
X189630057Y-69992856D02*
X189772914Y-70088094D01*
X189772914Y-70088094D02*
X189963390Y-70135713D01*
X189963390Y-70135713D02*
X190344342Y-70135713D01*
X190344342Y-70135713D02*
X190439580Y-70088094D01*
X190439580Y-70088094D02*
X190487200Y-70040475D01*
X190487200Y-70040475D02*
X190534819Y-69945237D01*
X190534819Y-69945237D02*
X190534819Y-69754761D01*
X190534819Y-69754761D02*
X190487200Y-69659523D01*
X190487200Y-69659523D02*
X190439580Y-69611904D01*
X190439580Y-69611904D02*
X190344342Y-69564285D01*
X190344342Y-69564285D02*
X190106247Y-69564285D01*
X190106247Y-69564285D02*
X190011009Y-69611904D01*
X190011009Y-69611904D02*
X189963390Y-69659523D01*
X189963390Y-69659523D02*
X189915771Y-69754761D01*
X189915771Y-69754761D02*
X189915771Y-69945237D01*
X189915771Y-69945237D02*
X189963390Y-70040475D01*
X189963390Y-70040475D02*
X190011009Y-70088094D01*
X190011009Y-70088094D02*
X190106247Y-70135713D01*
X218984819Y-268642857D02*
X218508628Y-268976190D01*
X218984819Y-269214285D02*
X217984819Y-269214285D01*
X217984819Y-269214285D02*
X217984819Y-268833333D01*
X217984819Y-268833333D02*
X218032438Y-268738095D01*
X218032438Y-268738095D02*
X218080057Y-268690476D01*
X218080057Y-268690476D02*
X218175295Y-268642857D01*
X218175295Y-268642857D02*
X218318152Y-268642857D01*
X218318152Y-268642857D02*
X218413390Y-268690476D01*
X218413390Y-268690476D02*
X218461009Y-268738095D01*
X218461009Y-268738095D02*
X218508628Y-268833333D01*
X218508628Y-268833333D02*
X218508628Y-269214285D01*
X218984819Y-267690476D02*
X218984819Y-268261904D01*
X218984819Y-267976190D02*
X217984819Y-267976190D01*
X217984819Y-267976190D02*
X218127676Y-268071428D01*
X218127676Y-268071428D02*
X218222914Y-268166666D01*
X218222914Y-268166666D02*
X218270533Y-268261904D01*
X218080057Y-267309523D02*
X218032438Y-267261904D01*
X218032438Y-267261904D02*
X217984819Y-267166666D01*
X217984819Y-267166666D02*
X217984819Y-266928571D01*
X217984819Y-266928571D02*
X218032438Y-266833333D01*
X218032438Y-266833333D02*
X218080057Y-266785714D01*
X218080057Y-266785714D02*
X218175295Y-266738095D01*
X218175295Y-266738095D02*
X218270533Y-266738095D01*
X218270533Y-266738095D02*
X218413390Y-266785714D01*
X218413390Y-266785714D02*
X218984819Y-267357142D01*
X218984819Y-267357142D02*
X218984819Y-266738095D01*
X170734819Y-268642857D02*
X170258628Y-268976190D01*
X170734819Y-269214285D02*
X169734819Y-269214285D01*
X169734819Y-269214285D02*
X169734819Y-268833333D01*
X169734819Y-268833333D02*
X169782438Y-268738095D01*
X169782438Y-268738095D02*
X169830057Y-268690476D01*
X169830057Y-268690476D02*
X169925295Y-268642857D01*
X169925295Y-268642857D02*
X170068152Y-268642857D01*
X170068152Y-268642857D02*
X170163390Y-268690476D01*
X170163390Y-268690476D02*
X170211009Y-268738095D01*
X170211009Y-268738095D02*
X170258628Y-268833333D01*
X170258628Y-268833333D02*
X170258628Y-269214285D01*
X170734819Y-267690476D02*
X170734819Y-268261904D01*
X170734819Y-267976190D02*
X169734819Y-267976190D01*
X169734819Y-267976190D02*
X169877676Y-268071428D01*
X169877676Y-268071428D02*
X169972914Y-268166666D01*
X169972914Y-268166666D02*
X170020533Y-268261904D01*
X170734819Y-266738095D02*
X170734819Y-267309523D01*
X170734819Y-267023809D02*
X169734819Y-267023809D01*
X169734819Y-267023809D02*
X169877676Y-267119047D01*
X169877676Y-267119047D02*
X169972914Y-267214285D01*
X169972914Y-267214285D02*
X170020533Y-267309523D01*
X119641905Y-144824819D02*
X119641905Y-143824819D01*
X119641905Y-143824819D02*
X119880000Y-143824819D01*
X119880000Y-143824819D02*
X120022857Y-143872438D01*
X120022857Y-143872438D02*
X120118095Y-143967676D01*
X120118095Y-143967676D02*
X120165714Y-144062914D01*
X120165714Y-144062914D02*
X120213333Y-144253390D01*
X120213333Y-144253390D02*
X120213333Y-144396247D01*
X120213333Y-144396247D02*
X120165714Y-144586723D01*
X120165714Y-144586723D02*
X120118095Y-144681961D01*
X120118095Y-144681961D02*
X120022857Y-144777200D01*
X120022857Y-144777200D02*
X119880000Y-144824819D01*
X119880000Y-144824819D02*
X119641905Y-144824819D01*
X120594286Y-143920057D02*
X120641905Y-143872438D01*
X120641905Y-143872438D02*
X120737143Y-143824819D01*
X120737143Y-143824819D02*
X120975238Y-143824819D01*
X120975238Y-143824819D02*
X121070476Y-143872438D01*
X121070476Y-143872438D02*
X121118095Y-143920057D01*
X121118095Y-143920057D02*
X121165714Y-144015295D01*
X121165714Y-144015295D02*
X121165714Y-144110533D01*
X121165714Y-144110533D02*
X121118095Y-144253390D01*
X121118095Y-144253390D02*
X120546667Y-144824819D01*
X120546667Y-144824819D02*
X121165714Y-144824819D01*
X116608571Y-146632295D02*
X116151428Y-146632295D01*
X116380000Y-146632295D02*
X116380000Y-145832295D01*
X116380000Y-145832295D02*
X116303809Y-145946580D01*
X116303809Y-145946580D02*
X116227619Y-146022771D01*
X116227619Y-146022771D02*
X116151428Y-146060866D01*
X218984819Y-316642857D02*
X218508628Y-316976190D01*
X218984819Y-317214285D02*
X217984819Y-317214285D01*
X217984819Y-317214285D02*
X217984819Y-316833333D01*
X217984819Y-316833333D02*
X218032438Y-316738095D01*
X218032438Y-316738095D02*
X218080057Y-316690476D01*
X218080057Y-316690476D02*
X218175295Y-316642857D01*
X218175295Y-316642857D02*
X218318152Y-316642857D01*
X218318152Y-316642857D02*
X218413390Y-316690476D01*
X218413390Y-316690476D02*
X218461009Y-316738095D01*
X218461009Y-316738095D02*
X218508628Y-316833333D01*
X218508628Y-316833333D02*
X218508628Y-317214285D01*
X218984819Y-315690476D02*
X218984819Y-316261904D01*
X218984819Y-315976190D02*
X217984819Y-315976190D01*
X217984819Y-315976190D02*
X218127676Y-316071428D01*
X218127676Y-316071428D02*
X218222914Y-316166666D01*
X218222914Y-316166666D02*
X218270533Y-316261904D01*
X217984819Y-314833333D02*
X217984819Y-315023809D01*
X217984819Y-315023809D02*
X218032438Y-315119047D01*
X218032438Y-315119047D02*
X218080057Y-315166666D01*
X218080057Y-315166666D02*
X218222914Y-315261904D01*
X218222914Y-315261904D02*
X218413390Y-315309523D01*
X218413390Y-315309523D02*
X218794342Y-315309523D01*
X218794342Y-315309523D02*
X218889580Y-315261904D01*
X218889580Y-315261904D02*
X218937200Y-315214285D01*
X218937200Y-315214285D02*
X218984819Y-315119047D01*
X218984819Y-315119047D02*
X218984819Y-314928571D01*
X218984819Y-314928571D02*
X218937200Y-314833333D01*
X218937200Y-314833333D02*
X218889580Y-314785714D01*
X218889580Y-314785714D02*
X218794342Y-314738095D01*
X218794342Y-314738095D02*
X218556247Y-314738095D01*
X218556247Y-314738095D02*
X218461009Y-314785714D01*
X218461009Y-314785714D02*
X218413390Y-314833333D01*
X218413390Y-314833333D02*
X218365771Y-314928571D01*
X218365771Y-314928571D02*
X218365771Y-315119047D01*
X218365771Y-315119047D02*
X218413390Y-315214285D01*
X218413390Y-315214285D02*
X218461009Y-315261904D01*
X218461009Y-315261904D02*
X218556247Y-315309523D01*
X126163095Y-78022200D02*
X126305952Y-78069819D01*
X126305952Y-78069819D02*
X126544047Y-78069819D01*
X126544047Y-78069819D02*
X126639285Y-78022200D01*
X126639285Y-78022200D02*
X126686904Y-77974580D01*
X126686904Y-77974580D02*
X126734523Y-77879342D01*
X126734523Y-77879342D02*
X126734523Y-77784104D01*
X126734523Y-77784104D02*
X126686904Y-77688866D01*
X126686904Y-77688866D02*
X126639285Y-77641247D01*
X126639285Y-77641247D02*
X126544047Y-77593628D01*
X126544047Y-77593628D02*
X126353571Y-77546009D01*
X126353571Y-77546009D02*
X126258333Y-77498390D01*
X126258333Y-77498390D02*
X126210714Y-77450771D01*
X126210714Y-77450771D02*
X126163095Y-77355533D01*
X126163095Y-77355533D02*
X126163095Y-77260295D01*
X126163095Y-77260295D02*
X126210714Y-77165057D01*
X126210714Y-77165057D02*
X126258333Y-77117438D01*
X126258333Y-77117438D02*
X126353571Y-77069819D01*
X126353571Y-77069819D02*
X126591666Y-77069819D01*
X126591666Y-77069819D02*
X126734523Y-77117438D01*
X127686904Y-78069819D02*
X127115476Y-78069819D01*
X127401190Y-78069819D02*
X127401190Y-77069819D01*
X127401190Y-77069819D02*
X127305952Y-77212676D01*
X127305952Y-77212676D02*
X127210714Y-77307914D01*
X127210714Y-77307914D02*
X127115476Y-77355533D01*
X209057142Y-75289580D02*
X209009523Y-75337200D01*
X209009523Y-75337200D02*
X208866666Y-75384819D01*
X208866666Y-75384819D02*
X208771428Y-75384819D01*
X208771428Y-75384819D02*
X208628571Y-75337200D01*
X208628571Y-75337200D02*
X208533333Y-75241961D01*
X208533333Y-75241961D02*
X208485714Y-75146723D01*
X208485714Y-75146723D02*
X208438095Y-74956247D01*
X208438095Y-74956247D02*
X208438095Y-74813390D01*
X208438095Y-74813390D02*
X208485714Y-74622914D01*
X208485714Y-74622914D02*
X208533333Y-74527676D01*
X208533333Y-74527676D02*
X208628571Y-74432438D01*
X208628571Y-74432438D02*
X208771428Y-74384819D01*
X208771428Y-74384819D02*
X208866666Y-74384819D01*
X208866666Y-74384819D02*
X209009523Y-74432438D01*
X209009523Y-74432438D02*
X209057142Y-74480057D01*
X210009523Y-75384819D02*
X209438095Y-75384819D01*
X209723809Y-75384819D02*
X209723809Y-74384819D01*
X209723809Y-74384819D02*
X209628571Y-74527676D01*
X209628571Y-74527676D02*
X209533333Y-74622914D01*
X209533333Y-74622914D02*
X209438095Y-74670533D01*
X210866666Y-74384819D02*
X210676190Y-74384819D01*
X210676190Y-74384819D02*
X210580952Y-74432438D01*
X210580952Y-74432438D02*
X210533333Y-74480057D01*
X210533333Y-74480057D02*
X210438095Y-74622914D01*
X210438095Y-74622914D02*
X210390476Y-74813390D01*
X210390476Y-74813390D02*
X210390476Y-75194342D01*
X210390476Y-75194342D02*
X210438095Y-75289580D01*
X210438095Y-75289580D02*
X210485714Y-75337200D01*
X210485714Y-75337200D02*
X210580952Y-75384819D01*
X210580952Y-75384819D02*
X210771428Y-75384819D01*
X210771428Y-75384819D02*
X210866666Y-75337200D01*
X210866666Y-75337200D02*
X210914285Y-75289580D01*
X210914285Y-75289580D02*
X210961904Y-75194342D01*
X210961904Y-75194342D02*
X210961904Y-74956247D01*
X210961904Y-74956247D02*
X210914285Y-74861009D01*
X210914285Y-74861009D02*
X210866666Y-74813390D01*
X210866666Y-74813390D02*
X210771428Y-74765771D01*
X210771428Y-74765771D02*
X210580952Y-74765771D01*
X210580952Y-74765771D02*
X210485714Y-74813390D01*
X210485714Y-74813390D02*
X210438095Y-74861009D01*
X210438095Y-74861009D02*
X210390476Y-74956247D01*
D11*
X167868095Y-146827419D02*
X167868095Y-147636942D01*
X167868095Y-147636942D02*
X167915714Y-147732180D01*
X167915714Y-147732180D02*
X167963333Y-147779800D01*
X167963333Y-147779800D02*
X168058571Y-147827419D01*
X168058571Y-147827419D02*
X168249047Y-147827419D01*
X168249047Y-147827419D02*
X168344285Y-147779800D01*
X168344285Y-147779800D02*
X168391904Y-147732180D01*
X168391904Y-147732180D02*
X168439523Y-147636942D01*
X168439523Y-147636942D02*
X168439523Y-146827419D01*
X168820476Y-146827419D02*
X169439523Y-146827419D01*
X169439523Y-146827419D02*
X169106190Y-147208371D01*
X169106190Y-147208371D02*
X169249047Y-147208371D01*
X169249047Y-147208371D02*
X169344285Y-147255990D01*
X169344285Y-147255990D02*
X169391904Y-147303609D01*
X169391904Y-147303609D02*
X169439523Y-147398847D01*
X169439523Y-147398847D02*
X169439523Y-147636942D01*
X169439523Y-147636942D02*
X169391904Y-147732180D01*
X169391904Y-147732180D02*
X169344285Y-147779800D01*
X169344285Y-147779800D02*
X169249047Y-147827419D01*
X169249047Y-147827419D02*
X168963333Y-147827419D01*
X168963333Y-147827419D02*
X168868095Y-147779800D01*
X168868095Y-147779800D02*
X168820476Y-147732180D01*
D10*
X73716666Y-75184819D02*
X73716666Y-75899104D01*
X73716666Y-75899104D02*
X73669047Y-76041961D01*
X73669047Y-76041961D02*
X73573809Y-76137200D01*
X73573809Y-76137200D02*
X73430952Y-76184819D01*
X73430952Y-76184819D02*
X73335714Y-76184819D01*
X74097619Y-75184819D02*
X74716666Y-75184819D01*
X74716666Y-75184819D02*
X74383333Y-75565771D01*
X74383333Y-75565771D02*
X74526190Y-75565771D01*
X74526190Y-75565771D02*
X74621428Y-75613390D01*
X74621428Y-75613390D02*
X74669047Y-75661009D01*
X74669047Y-75661009D02*
X74716666Y-75756247D01*
X74716666Y-75756247D02*
X74716666Y-75994342D01*
X74716666Y-75994342D02*
X74669047Y-76089580D01*
X74669047Y-76089580D02*
X74621428Y-76137200D01*
X74621428Y-76137200D02*
X74526190Y-76184819D01*
X74526190Y-76184819D02*
X74240476Y-76184819D01*
X74240476Y-76184819D02*
X74145238Y-76137200D01*
X74145238Y-76137200D02*
X74097619Y-76089580D01*
X119641905Y-193074819D02*
X119641905Y-192074819D01*
X119641905Y-192074819D02*
X119880000Y-192074819D01*
X119880000Y-192074819D02*
X120022857Y-192122438D01*
X120022857Y-192122438D02*
X120118095Y-192217676D01*
X120118095Y-192217676D02*
X120165714Y-192312914D01*
X120165714Y-192312914D02*
X120213333Y-192503390D01*
X120213333Y-192503390D02*
X120213333Y-192646247D01*
X120213333Y-192646247D02*
X120165714Y-192836723D01*
X120165714Y-192836723D02*
X120118095Y-192931961D01*
X120118095Y-192931961D02*
X120022857Y-193027200D01*
X120022857Y-193027200D02*
X119880000Y-193074819D01*
X119880000Y-193074819D02*
X119641905Y-193074819D01*
X120546667Y-192074819D02*
X121213333Y-192074819D01*
X121213333Y-192074819D02*
X120784762Y-193074819D01*
X116608571Y-194882295D02*
X116151428Y-194882295D01*
X116380000Y-194882295D02*
X116380000Y-194082295D01*
X116380000Y-194082295D02*
X116303809Y-194196580D01*
X116303809Y-194196580D02*
X116227619Y-194272771D01*
X116227619Y-194272771D02*
X116151428Y-194310866D01*
X185989580Y-70916666D02*
X186037200Y-70964285D01*
X186037200Y-70964285D02*
X186084819Y-71107142D01*
X186084819Y-71107142D02*
X186084819Y-71202380D01*
X186084819Y-71202380D02*
X186037200Y-71345237D01*
X186037200Y-71345237D02*
X185941961Y-71440475D01*
X185941961Y-71440475D02*
X185846723Y-71488094D01*
X185846723Y-71488094D02*
X185656247Y-71535713D01*
X185656247Y-71535713D02*
X185513390Y-71535713D01*
X185513390Y-71535713D02*
X185322914Y-71488094D01*
X185322914Y-71488094D02*
X185227676Y-71440475D01*
X185227676Y-71440475D02*
X185132438Y-71345237D01*
X185132438Y-71345237D02*
X185084819Y-71202380D01*
X185084819Y-71202380D02*
X185084819Y-71107142D01*
X185084819Y-71107142D02*
X185132438Y-70964285D01*
X185132438Y-70964285D02*
X185180057Y-70916666D01*
X185084819Y-70583332D02*
X185084819Y-69916666D01*
X185084819Y-69916666D02*
X186084819Y-70345237D01*
X74234819Y-172166666D02*
X73758628Y-172499999D01*
X74234819Y-172738094D02*
X73234819Y-172738094D01*
X73234819Y-172738094D02*
X73234819Y-172357142D01*
X73234819Y-172357142D02*
X73282438Y-172261904D01*
X73282438Y-172261904D02*
X73330057Y-172214285D01*
X73330057Y-172214285D02*
X73425295Y-172166666D01*
X73425295Y-172166666D02*
X73568152Y-172166666D01*
X73568152Y-172166666D02*
X73663390Y-172214285D01*
X73663390Y-172214285D02*
X73711009Y-172261904D01*
X73711009Y-172261904D02*
X73758628Y-172357142D01*
X73758628Y-172357142D02*
X73758628Y-172738094D01*
X74234819Y-171214285D02*
X74234819Y-171785713D01*
X74234819Y-171499999D02*
X73234819Y-171499999D01*
X73234819Y-171499999D02*
X73377676Y-171595237D01*
X73377676Y-171595237D02*
X73472914Y-171690475D01*
X73472914Y-171690475D02*
X73520533Y-171785713D01*
X71391905Y-193074819D02*
X71391905Y-192074819D01*
X71391905Y-192074819D02*
X71630000Y-192074819D01*
X71630000Y-192074819D02*
X71772857Y-192122438D01*
X71772857Y-192122438D02*
X71868095Y-192217676D01*
X71868095Y-192217676D02*
X71915714Y-192312914D01*
X71915714Y-192312914D02*
X71963333Y-192503390D01*
X71963333Y-192503390D02*
X71963333Y-192646247D01*
X71963333Y-192646247D02*
X71915714Y-192836723D01*
X71915714Y-192836723D02*
X71868095Y-192931961D01*
X71868095Y-192931961D02*
X71772857Y-193027200D01*
X71772857Y-193027200D02*
X71630000Y-193074819D01*
X71630000Y-193074819D02*
X71391905Y-193074819D01*
X72534762Y-192503390D02*
X72439524Y-192455771D01*
X72439524Y-192455771D02*
X72391905Y-192408152D01*
X72391905Y-192408152D02*
X72344286Y-192312914D01*
X72344286Y-192312914D02*
X72344286Y-192265295D01*
X72344286Y-192265295D02*
X72391905Y-192170057D01*
X72391905Y-192170057D02*
X72439524Y-192122438D01*
X72439524Y-192122438D02*
X72534762Y-192074819D01*
X72534762Y-192074819D02*
X72725238Y-192074819D01*
X72725238Y-192074819D02*
X72820476Y-192122438D01*
X72820476Y-192122438D02*
X72868095Y-192170057D01*
X72868095Y-192170057D02*
X72915714Y-192265295D01*
X72915714Y-192265295D02*
X72915714Y-192312914D01*
X72915714Y-192312914D02*
X72868095Y-192408152D01*
X72868095Y-192408152D02*
X72820476Y-192455771D01*
X72820476Y-192455771D02*
X72725238Y-192503390D01*
X72725238Y-192503390D02*
X72534762Y-192503390D01*
X72534762Y-192503390D02*
X72439524Y-192551009D01*
X72439524Y-192551009D02*
X72391905Y-192598628D01*
X72391905Y-192598628D02*
X72344286Y-192693866D01*
X72344286Y-192693866D02*
X72344286Y-192884342D01*
X72344286Y-192884342D02*
X72391905Y-192979580D01*
X72391905Y-192979580D02*
X72439524Y-193027200D01*
X72439524Y-193027200D02*
X72534762Y-193074819D01*
X72534762Y-193074819D02*
X72725238Y-193074819D01*
X72725238Y-193074819D02*
X72820476Y-193027200D01*
X72820476Y-193027200D02*
X72868095Y-192979580D01*
X72868095Y-192979580D02*
X72915714Y-192884342D01*
X72915714Y-192884342D02*
X72915714Y-192693866D01*
X72915714Y-192693866D02*
X72868095Y-192598628D01*
X72868095Y-192598628D02*
X72820476Y-192551009D01*
X72820476Y-192551009D02*
X72725238Y-192503390D01*
X68358571Y-194882295D02*
X67901428Y-194882295D01*
X68130000Y-194882295D02*
X68130000Y-194082295D01*
X68130000Y-194082295D02*
X68053809Y-194196580D01*
X68053809Y-194196580D02*
X67977619Y-194272771D01*
X67977619Y-194272771D02*
X67901428Y-194310866D01*
X190689580Y-77016666D02*
X190737200Y-77064285D01*
X190737200Y-77064285D02*
X190784819Y-77207142D01*
X190784819Y-77207142D02*
X190784819Y-77302380D01*
X190784819Y-77302380D02*
X190737200Y-77445237D01*
X190737200Y-77445237D02*
X190641961Y-77540475D01*
X190641961Y-77540475D02*
X190546723Y-77588094D01*
X190546723Y-77588094D02*
X190356247Y-77635713D01*
X190356247Y-77635713D02*
X190213390Y-77635713D01*
X190213390Y-77635713D02*
X190022914Y-77588094D01*
X190022914Y-77588094D02*
X189927676Y-77540475D01*
X189927676Y-77540475D02*
X189832438Y-77445237D01*
X189832438Y-77445237D02*
X189784819Y-77302380D01*
X189784819Y-77302380D02*
X189784819Y-77207142D01*
X189784819Y-77207142D02*
X189832438Y-77064285D01*
X189832438Y-77064285D02*
X189880057Y-77016666D01*
X190118152Y-76159523D02*
X190784819Y-76159523D01*
X189737200Y-76397618D02*
X190451485Y-76635713D01*
X190451485Y-76635713D02*
X190451485Y-76016666D01*
D11*
X71368095Y-195077419D02*
X71368095Y-195886942D01*
X71368095Y-195886942D02*
X71415714Y-195982180D01*
X71415714Y-195982180D02*
X71463333Y-196029800D01*
X71463333Y-196029800D02*
X71558571Y-196077419D01*
X71558571Y-196077419D02*
X71749047Y-196077419D01*
X71749047Y-196077419D02*
X71844285Y-196029800D01*
X71844285Y-196029800D02*
X71891904Y-195982180D01*
X71891904Y-195982180D02*
X71939523Y-195886942D01*
X71939523Y-195886942D02*
X71939523Y-195077419D01*
X72891904Y-195077419D02*
X72415714Y-195077419D01*
X72415714Y-195077419D02*
X72368095Y-195553609D01*
X72368095Y-195553609D02*
X72415714Y-195505990D01*
X72415714Y-195505990D02*
X72510952Y-195458371D01*
X72510952Y-195458371D02*
X72749047Y-195458371D01*
X72749047Y-195458371D02*
X72844285Y-195505990D01*
X72844285Y-195505990D02*
X72891904Y-195553609D01*
X72891904Y-195553609D02*
X72939523Y-195648847D01*
X72939523Y-195648847D02*
X72939523Y-195886942D01*
X72939523Y-195886942D02*
X72891904Y-195982180D01*
X72891904Y-195982180D02*
X72844285Y-196029800D01*
X72844285Y-196029800D02*
X72749047Y-196077419D01*
X72749047Y-196077419D02*
X72510952Y-196077419D01*
X72510952Y-196077419D02*
X72415714Y-196029800D01*
X72415714Y-196029800D02*
X72368095Y-195982180D01*
X167341905Y-290357419D02*
X167341905Y-291166942D01*
X167341905Y-291166942D02*
X167389524Y-291262180D01*
X167389524Y-291262180D02*
X167437143Y-291309800D01*
X167437143Y-291309800D02*
X167532381Y-291357419D01*
X167532381Y-291357419D02*
X167722857Y-291357419D01*
X167722857Y-291357419D02*
X167818095Y-291309800D01*
X167818095Y-291309800D02*
X167865714Y-291262180D01*
X167865714Y-291262180D02*
X167913333Y-291166942D01*
X167913333Y-291166942D02*
X167913333Y-290357419D01*
X168913333Y-291357419D02*
X168341905Y-291357419D01*
X168627619Y-291357419D02*
X168627619Y-290357419D01*
X168627619Y-290357419D02*
X168532381Y-290500276D01*
X168532381Y-290500276D02*
X168437143Y-290595514D01*
X168437143Y-290595514D02*
X168341905Y-290643133D01*
X169818095Y-290357419D02*
X169341905Y-290357419D01*
X169341905Y-290357419D02*
X169294286Y-290833609D01*
X169294286Y-290833609D02*
X169341905Y-290785990D01*
X169341905Y-290785990D02*
X169437143Y-290738371D01*
X169437143Y-290738371D02*
X169675238Y-290738371D01*
X169675238Y-290738371D02*
X169770476Y-290785990D01*
X169770476Y-290785990D02*
X169818095Y-290833609D01*
X169818095Y-290833609D02*
X169865714Y-290928847D01*
X169865714Y-290928847D02*
X169865714Y-291166942D01*
X169865714Y-291166942D02*
X169818095Y-291262180D01*
X169818095Y-291262180D02*
X169770476Y-291309800D01*
X169770476Y-291309800D02*
X169675238Y-291357419D01*
X169675238Y-291357419D02*
X169437143Y-291357419D01*
X169437143Y-291357419D02*
X169341905Y-291309800D01*
X169341905Y-291309800D02*
X169294286Y-291262180D01*
X70891905Y-291577419D02*
X70891905Y-292386942D01*
X70891905Y-292386942D02*
X70939524Y-292482180D01*
X70939524Y-292482180D02*
X70987143Y-292529800D01*
X70987143Y-292529800D02*
X71082381Y-292577419D01*
X71082381Y-292577419D02*
X71272857Y-292577419D01*
X71272857Y-292577419D02*
X71368095Y-292529800D01*
X71368095Y-292529800D02*
X71415714Y-292482180D01*
X71415714Y-292482180D02*
X71463333Y-292386942D01*
X71463333Y-292386942D02*
X71463333Y-291577419D01*
X72463333Y-292577419D02*
X71891905Y-292577419D01*
X72177619Y-292577419D02*
X72177619Y-291577419D01*
X72177619Y-291577419D02*
X72082381Y-291720276D01*
X72082381Y-291720276D02*
X71987143Y-291815514D01*
X71987143Y-291815514D02*
X71891905Y-291863133D01*
X72796667Y-291577419D02*
X73415714Y-291577419D01*
X73415714Y-291577419D02*
X73082381Y-291958371D01*
X73082381Y-291958371D02*
X73225238Y-291958371D01*
X73225238Y-291958371D02*
X73320476Y-292005990D01*
X73320476Y-292005990D02*
X73368095Y-292053609D01*
X73368095Y-292053609D02*
X73415714Y-292148847D01*
X73415714Y-292148847D02*
X73415714Y-292386942D01*
X73415714Y-292386942D02*
X73368095Y-292482180D01*
X73368095Y-292482180D02*
X73320476Y-292529800D01*
X73320476Y-292529800D02*
X73225238Y-292577419D01*
X73225238Y-292577419D02*
X72939524Y-292577419D01*
X72939524Y-292577419D02*
X72844286Y-292529800D01*
X72844286Y-292529800D02*
X72796667Y-292482180D01*
D10*
X74234819Y-220166666D02*
X73758628Y-220499999D01*
X74234819Y-220738094D02*
X73234819Y-220738094D01*
X73234819Y-220738094D02*
X73234819Y-220357142D01*
X73234819Y-220357142D02*
X73282438Y-220261904D01*
X73282438Y-220261904D02*
X73330057Y-220214285D01*
X73330057Y-220214285D02*
X73425295Y-220166666D01*
X73425295Y-220166666D02*
X73568152Y-220166666D01*
X73568152Y-220166666D02*
X73663390Y-220214285D01*
X73663390Y-220214285D02*
X73711009Y-220261904D01*
X73711009Y-220261904D02*
X73758628Y-220357142D01*
X73758628Y-220357142D02*
X73758628Y-220738094D01*
X73234819Y-219261904D02*
X73234819Y-219738094D01*
X73234819Y-219738094D02*
X73711009Y-219785713D01*
X73711009Y-219785713D02*
X73663390Y-219738094D01*
X73663390Y-219738094D02*
X73615771Y-219642856D01*
X73615771Y-219642856D02*
X73615771Y-219404761D01*
X73615771Y-219404761D02*
X73663390Y-219309523D01*
X73663390Y-219309523D02*
X73711009Y-219261904D01*
X73711009Y-219261904D02*
X73806247Y-219214285D01*
X73806247Y-219214285D02*
X74044342Y-219214285D01*
X74044342Y-219214285D02*
X74139580Y-219261904D01*
X74139580Y-219261904D02*
X74187200Y-219309523D01*
X74187200Y-219309523D02*
X74234819Y-219404761D01*
X74234819Y-219404761D02*
X74234819Y-219642856D01*
X74234819Y-219642856D02*
X74187200Y-219738094D01*
X74187200Y-219738094D02*
X74139580Y-219785713D01*
X170734819Y-172166666D02*
X170258628Y-172499999D01*
X170734819Y-172738094D02*
X169734819Y-172738094D01*
X169734819Y-172738094D02*
X169734819Y-172357142D01*
X169734819Y-172357142D02*
X169782438Y-172261904D01*
X169782438Y-172261904D02*
X169830057Y-172214285D01*
X169830057Y-172214285D02*
X169925295Y-172166666D01*
X169925295Y-172166666D02*
X170068152Y-172166666D01*
X170068152Y-172166666D02*
X170163390Y-172214285D01*
X170163390Y-172214285D02*
X170211009Y-172261904D01*
X170211009Y-172261904D02*
X170258628Y-172357142D01*
X170258628Y-172357142D02*
X170258628Y-172738094D01*
X169734819Y-171833332D02*
X169734819Y-171214285D01*
X169734819Y-171214285D02*
X170115771Y-171547618D01*
X170115771Y-171547618D02*
X170115771Y-171404761D01*
X170115771Y-171404761D02*
X170163390Y-171309523D01*
X170163390Y-171309523D02*
X170211009Y-171261904D01*
X170211009Y-171261904D02*
X170306247Y-171214285D01*
X170306247Y-171214285D02*
X170544342Y-171214285D01*
X170544342Y-171214285D02*
X170639580Y-171261904D01*
X170639580Y-171261904D02*
X170687200Y-171309523D01*
X170687200Y-171309523D02*
X170734819Y-171404761D01*
X170734819Y-171404761D02*
X170734819Y-171690475D01*
X170734819Y-171690475D02*
X170687200Y-171785713D01*
X170687200Y-171785713D02*
X170639580Y-171833332D01*
X119165714Y-241324819D02*
X119165714Y-240324819D01*
X119165714Y-240324819D02*
X119403809Y-240324819D01*
X119403809Y-240324819D02*
X119546666Y-240372438D01*
X119546666Y-240372438D02*
X119641904Y-240467676D01*
X119641904Y-240467676D02*
X119689523Y-240562914D01*
X119689523Y-240562914D02*
X119737142Y-240753390D01*
X119737142Y-240753390D02*
X119737142Y-240896247D01*
X119737142Y-240896247D02*
X119689523Y-241086723D01*
X119689523Y-241086723D02*
X119641904Y-241181961D01*
X119641904Y-241181961D02*
X119546666Y-241277200D01*
X119546666Y-241277200D02*
X119403809Y-241324819D01*
X119403809Y-241324819D02*
X119165714Y-241324819D01*
X120689523Y-241324819D02*
X120118095Y-241324819D01*
X120403809Y-241324819D02*
X120403809Y-240324819D01*
X120403809Y-240324819D02*
X120308571Y-240467676D01*
X120308571Y-240467676D02*
X120213333Y-240562914D01*
X120213333Y-240562914D02*
X120118095Y-240610533D01*
X121308571Y-240324819D02*
X121403809Y-240324819D01*
X121403809Y-240324819D02*
X121499047Y-240372438D01*
X121499047Y-240372438D02*
X121546666Y-240420057D01*
X121546666Y-240420057D02*
X121594285Y-240515295D01*
X121594285Y-240515295D02*
X121641904Y-240705771D01*
X121641904Y-240705771D02*
X121641904Y-240943866D01*
X121641904Y-240943866D02*
X121594285Y-241134342D01*
X121594285Y-241134342D02*
X121546666Y-241229580D01*
X121546666Y-241229580D02*
X121499047Y-241277200D01*
X121499047Y-241277200D02*
X121403809Y-241324819D01*
X121403809Y-241324819D02*
X121308571Y-241324819D01*
X121308571Y-241324819D02*
X121213333Y-241277200D01*
X121213333Y-241277200D02*
X121165714Y-241229580D01*
X121165714Y-241229580D02*
X121118095Y-241134342D01*
X121118095Y-241134342D02*
X121070476Y-240943866D01*
X121070476Y-240943866D02*
X121070476Y-240705771D01*
X121070476Y-240705771D02*
X121118095Y-240515295D01*
X121118095Y-240515295D02*
X121165714Y-240420057D01*
X121165714Y-240420057D02*
X121213333Y-240372438D01*
X121213333Y-240372438D02*
X121308571Y-240324819D01*
X116608571Y-243132295D02*
X116151428Y-243132295D01*
X116380000Y-243132295D02*
X116380000Y-242332295D01*
X116380000Y-242332295D02*
X116303809Y-242446580D01*
X116303809Y-242446580D02*
X116227619Y-242522771D01*
X116227619Y-242522771D02*
X116151428Y-242560866D01*
X189583333Y-75789580D02*
X189535714Y-75837200D01*
X189535714Y-75837200D02*
X189392857Y-75884819D01*
X189392857Y-75884819D02*
X189297619Y-75884819D01*
X189297619Y-75884819D02*
X189154762Y-75837200D01*
X189154762Y-75837200D02*
X189059524Y-75741961D01*
X189059524Y-75741961D02*
X189011905Y-75646723D01*
X189011905Y-75646723D02*
X188964286Y-75456247D01*
X188964286Y-75456247D02*
X188964286Y-75313390D01*
X188964286Y-75313390D02*
X189011905Y-75122914D01*
X189011905Y-75122914D02*
X189059524Y-75027676D01*
X189059524Y-75027676D02*
X189154762Y-74932438D01*
X189154762Y-74932438D02*
X189297619Y-74884819D01*
X189297619Y-74884819D02*
X189392857Y-74884819D01*
X189392857Y-74884819D02*
X189535714Y-74932438D01*
X189535714Y-74932438D02*
X189583333Y-74980057D01*
X190154762Y-75313390D02*
X190059524Y-75265771D01*
X190059524Y-75265771D02*
X190011905Y-75218152D01*
X190011905Y-75218152D02*
X189964286Y-75122914D01*
X189964286Y-75122914D02*
X189964286Y-75075295D01*
X189964286Y-75075295D02*
X190011905Y-74980057D01*
X190011905Y-74980057D02*
X190059524Y-74932438D01*
X190059524Y-74932438D02*
X190154762Y-74884819D01*
X190154762Y-74884819D02*
X190345238Y-74884819D01*
X190345238Y-74884819D02*
X190440476Y-74932438D01*
X190440476Y-74932438D02*
X190488095Y-74980057D01*
X190488095Y-74980057D02*
X190535714Y-75075295D01*
X190535714Y-75075295D02*
X190535714Y-75122914D01*
X190535714Y-75122914D02*
X190488095Y-75218152D01*
X190488095Y-75218152D02*
X190440476Y-75265771D01*
X190440476Y-75265771D02*
X190345238Y-75313390D01*
X190345238Y-75313390D02*
X190154762Y-75313390D01*
X190154762Y-75313390D02*
X190059524Y-75361009D01*
X190059524Y-75361009D02*
X190011905Y-75408628D01*
X190011905Y-75408628D02*
X189964286Y-75503866D01*
X189964286Y-75503866D02*
X189964286Y-75694342D01*
X189964286Y-75694342D02*
X190011905Y-75789580D01*
X190011905Y-75789580D02*
X190059524Y-75837200D01*
X190059524Y-75837200D02*
X190154762Y-75884819D01*
X190154762Y-75884819D02*
X190345238Y-75884819D01*
X190345238Y-75884819D02*
X190440476Y-75837200D01*
X190440476Y-75837200D02*
X190488095Y-75789580D01*
X190488095Y-75789580D02*
X190535714Y-75694342D01*
X190535714Y-75694342D02*
X190535714Y-75503866D01*
X190535714Y-75503866D02*
X190488095Y-75408628D01*
X190488095Y-75408628D02*
X190440476Y-75361009D01*
X190440476Y-75361009D02*
X190345238Y-75313390D01*
D11*
X167361905Y-243857419D02*
X167361905Y-244666942D01*
X167361905Y-244666942D02*
X167409524Y-244762180D01*
X167409524Y-244762180D02*
X167457143Y-244809800D01*
X167457143Y-244809800D02*
X167552381Y-244857419D01*
X167552381Y-244857419D02*
X167742857Y-244857419D01*
X167742857Y-244857419D02*
X167838095Y-244809800D01*
X167838095Y-244809800D02*
X167885714Y-244762180D01*
X167885714Y-244762180D02*
X167933333Y-244666942D01*
X167933333Y-244666942D02*
X167933333Y-243857419D01*
X168933333Y-244857419D02*
X168361905Y-244857419D01*
X168647619Y-244857419D02*
X168647619Y-243857419D01*
X168647619Y-243857419D02*
X168552381Y-244000276D01*
X168552381Y-244000276D02*
X168457143Y-244095514D01*
X168457143Y-244095514D02*
X168361905Y-244143133D01*
X169885714Y-244857419D02*
X169314286Y-244857419D01*
X169600000Y-244857419D02*
X169600000Y-243857419D01*
X169600000Y-243857419D02*
X169504762Y-244000276D01*
X169504762Y-244000276D02*
X169409524Y-244095514D01*
X169409524Y-244095514D02*
X169314286Y-244143133D01*
D10*
X216141905Y-144824819D02*
X216141905Y-143824819D01*
X216141905Y-143824819D02*
X216380000Y-143824819D01*
X216380000Y-143824819D02*
X216522857Y-143872438D01*
X216522857Y-143872438D02*
X216618095Y-143967676D01*
X216618095Y-143967676D02*
X216665714Y-144062914D01*
X216665714Y-144062914D02*
X216713333Y-144253390D01*
X216713333Y-144253390D02*
X216713333Y-144396247D01*
X216713333Y-144396247D02*
X216665714Y-144586723D01*
X216665714Y-144586723D02*
X216618095Y-144681961D01*
X216618095Y-144681961D02*
X216522857Y-144777200D01*
X216522857Y-144777200D02*
X216380000Y-144824819D01*
X216380000Y-144824819D02*
X216141905Y-144824819D01*
X217570476Y-144158152D02*
X217570476Y-144824819D01*
X217332381Y-143777200D02*
X217094286Y-144491485D01*
X217094286Y-144491485D02*
X217713333Y-144491485D01*
X213108571Y-146632295D02*
X212651428Y-146632295D01*
X212880000Y-146632295D02*
X212880000Y-145832295D01*
X212880000Y-145832295D02*
X212803809Y-145946580D01*
X212803809Y-145946580D02*
X212727619Y-146022771D01*
X212727619Y-146022771D02*
X212651428Y-146060866D01*
X217133333Y-126289580D02*
X217085714Y-126337200D01*
X217085714Y-126337200D02*
X216942857Y-126384819D01*
X216942857Y-126384819D02*
X216847619Y-126384819D01*
X216847619Y-126384819D02*
X216704762Y-126337200D01*
X216704762Y-126337200D02*
X216609524Y-126241961D01*
X216609524Y-126241961D02*
X216561905Y-126146723D01*
X216561905Y-126146723D02*
X216514286Y-125956247D01*
X216514286Y-125956247D02*
X216514286Y-125813390D01*
X216514286Y-125813390D02*
X216561905Y-125622914D01*
X216561905Y-125622914D02*
X216609524Y-125527676D01*
X216609524Y-125527676D02*
X216704762Y-125432438D01*
X216704762Y-125432438D02*
X216847619Y-125384819D01*
X216847619Y-125384819D02*
X216942857Y-125384819D01*
X216942857Y-125384819D02*
X217085714Y-125432438D01*
X217085714Y-125432438D02*
X217133333Y-125480057D01*
X218085714Y-126384819D02*
X217514286Y-126384819D01*
X217800000Y-126384819D02*
X217800000Y-125384819D01*
X217800000Y-125384819D02*
X217704762Y-125527676D01*
X217704762Y-125527676D02*
X217609524Y-125622914D01*
X217609524Y-125622914D02*
X217514286Y-125670533D01*
D11*
X216118095Y-146827419D02*
X216118095Y-147636942D01*
X216118095Y-147636942D02*
X216165714Y-147732180D01*
X216165714Y-147732180D02*
X216213333Y-147779800D01*
X216213333Y-147779800D02*
X216308571Y-147827419D01*
X216308571Y-147827419D02*
X216499047Y-147827419D01*
X216499047Y-147827419D02*
X216594285Y-147779800D01*
X216594285Y-147779800D02*
X216641904Y-147732180D01*
X216641904Y-147732180D02*
X216689523Y-147636942D01*
X216689523Y-147636942D02*
X216689523Y-146827419D01*
X217594285Y-147160752D02*
X217594285Y-147827419D01*
X217356190Y-146779800D02*
X217118095Y-147494085D01*
X217118095Y-147494085D02*
X217737142Y-147494085D01*
D10*
X189429580Y-70516666D02*
X189477200Y-70564285D01*
X189477200Y-70564285D02*
X189524819Y-70707142D01*
X189524819Y-70707142D02*
X189524819Y-70802380D01*
X189524819Y-70802380D02*
X189477200Y-70945237D01*
X189477200Y-70945237D02*
X189381961Y-71040475D01*
X189381961Y-71040475D02*
X189286723Y-71088094D01*
X189286723Y-71088094D02*
X189096247Y-71135713D01*
X189096247Y-71135713D02*
X188953390Y-71135713D01*
X188953390Y-71135713D02*
X188762914Y-71088094D01*
X188762914Y-71088094D02*
X188667676Y-71040475D01*
X188667676Y-71040475D02*
X188572438Y-70945237D01*
X188572438Y-70945237D02*
X188524819Y-70802380D01*
X188524819Y-70802380D02*
X188524819Y-70707142D01*
X188524819Y-70707142D02*
X188572438Y-70564285D01*
X188572438Y-70564285D02*
X188620057Y-70516666D01*
X188524819Y-69611904D02*
X188524819Y-70088094D01*
X188524819Y-70088094D02*
X189001009Y-70135713D01*
X189001009Y-70135713D02*
X188953390Y-70088094D01*
X188953390Y-70088094D02*
X188905771Y-69992856D01*
X188905771Y-69992856D02*
X188905771Y-69754761D01*
X188905771Y-69754761D02*
X188953390Y-69659523D01*
X188953390Y-69659523D02*
X189001009Y-69611904D01*
X189001009Y-69611904D02*
X189096247Y-69564285D01*
X189096247Y-69564285D02*
X189334342Y-69564285D01*
X189334342Y-69564285D02*
X189429580Y-69611904D01*
X189429580Y-69611904D02*
X189477200Y-69659523D01*
X189477200Y-69659523D02*
X189524819Y-69754761D01*
X189524819Y-69754761D02*
X189524819Y-69992856D01*
X189524819Y-69992856D02*
X189477200Y-70088094D01*
X189477200Y-70088094D02*
X189429580Y-70135713D01*
X205739580Y-70592857D02*
X205787200Y-70640476D01*
X205787200Y-70640476D02*
X205834819Y-70783333D01*
X205834819Y-70783333D02*
X205834819Y-70878571D01*
X205834819Y-70878571D02*
X205787200Y-71021428D01*
X205787200Y-71021428D02*
X205691961Y-71116666D01*
X205691961Y-71116666D02*
X205596723Y-71164285D01*
X205596723Y-71164285D02*
X205406247Y-71211904D01*
X205406247Y-71211904D02*
X205263390Y-71211904D01*
X205263390Y-71211904D02*
X205072914Y-71164285D01*
X205072914Y-71164285D02*
X204977676Y-71116666D01*
X204977676Y-71116666D02*
X204882438Y-71021428D01*
X204882438Y-71021428D02*
X204834819Y-70878571D01*
X204834819Y-70878571D02*
X204834819Y-70783333D01*
X204834819Y-70783333D02*
X204882438Y-70640476D01*
X204882438Y-70640476D02*
X204930057Y-70592857D01*
X205834819Y-69640476D02*
X205834819Y-70211904D01*
X205834819Y-69926190D02*
X204834819Y-69926190D01*
X204834819Y-69926190D02*
X204977676Y-70021428D01*
X204977676Y-70021428D02*
X205072914Y-70116666D01*
X205072914Y-70116666D02*
X205120533Y-70211904D01*
X205834819Y-68688095D02*
X205834819Y-69259523D01*
X205834819Y-68973809D02*
X204834819Y-68973809D01*
X204834819Y-68973809D02*
X204977676Y-69069047D01*
X204977676Y-69069047D02*
X205072914Y-69164285D01*
X205072914Y-69164285D02*
X205120533Y-69259523D01*
X77157142Y-148304819D02*
X76823809Y-147828628D01*
X76585714Y-148304819D02*
X76585714Y-147304819D01*
X76585714Y-147304819D02*
X76966666Y-147304819D01*
X76966666Y-147304819D02*
X77061904Y-147352438D01*
X77061904Y-147352438D02*
X77109523Y-147400057D01*
X77109523Y-147400057D02*
X77157142Y-147495295D01*
X77157142Y-147495295D02*
X77157142Y-147638152D01*
X77157142Y-147638152D02*
X77109523Y-147733390D01*
X77109523Y-147733390D02*
X77061904Y-147781009D01*
X77061904Y-147781009D02*
X76966666Y-147828628D01*
X76966666Y-147828628D02*
X76585714Y-147828628D01*
X78109523Y-148304819D02*
X77538095Y-148304819D01*
X77823809Y-148304819D02*
X77823809Y-147304819D01*
X77823809Y-147304819D02*
X77728571Y-147447676D01*
X77728571Y-147447676D02*
X77633333Y-147542914D01*
X77633333Y-147542914D02*
X77538095Y-147590533D01*
X78585714Y-148304819D02*
X78776190Y-148304819D01*
X78776190Y-148304819D02*
X78871428Y-148257200D01*
X78871428Y-148257200D02*
X78919047Y-148209580D01*
X78919047Y-148209580D02*
X79014285Y-148066723D01*
X79014285Y-148066723D02*
X79061904Y-147876247D01*
X79061904Y-147876247D02*
X79061904Y-147495295D01*
X79061904Y-147495295D02*
X79014285Y-147400057D01*
X79014285Y-147400057D02*
X78966666Y-147352438D01*
X78966666Y-147352438D02*
X78871428Y-147304819D01*
X78871428Y-147304819D02*
X78680952Y-147304819D01*
X78680952Y-147304819D02*
X78585714Y-147352438D01*
X78585714Y-147352438D02*
X78538095Y-147400057D01*
X78538095Y-147400057D02*
X78490476Y-147495295D01*
X78490476Y-147495295D02*
X78490476Y-147733390D01*
X78490476Y-147733390D02*
X78538095Y-147828628D01*
X78538095Y-147828628D02*
X78585714Y-147876247D01*
X78585714Y-147876247D02*
X78680952Y-147923866D01*
X78680952Y-147923866D02*
X78871428Y-147923866D01*
X78871428Y-147923866D02*
X78966666Y-147876247D01*
X78966666Y-147876247D02*
X79014285Y-147828628D01*
X79014285Y-147828628D02*
X79061904Y-147733390D01*
X122484819Y-172166666D02*
X122008628Y-172499999D01*
X122484819Y-172738094D02*
X121484819Y-172738094D01*
X121484819Y-172738094D02*
X121484819Y-172357142D01*
X121484819Y-172357142D02*
X121532438Y-172261904D01*
X121532438Y-172261904D02*
X121580057Y-172214285D01*
X121580057Y-172214285D02*
X121675295Y-172166666D01*
X121675295Y-172166666D02*
X121818152Y-172166666D01*
X121818152Y-172166666D02*
X121913390Y-172214285D01*
X121913390Y-172214285D02*
X121961009Y-172261904D01*
X121961009Y-172261904D02*
X122008628Y-172357142D01*
X122008628Y-172357142D02*
X122008628Y-172738094D01*
X121580057Y-171785713D02*
X121532438Y-171738094D01*
X121532438Y-171738094D02*
X121484819Y-171642856D01*
X121484819Y-171642856D02*
X121484819Y-171404761D01*
X121484819Y-171404761D02*
X121532438Y-171309523D01*
X121532438Y-171309523D02*
X121580057Y-171261904D01*
X121580057Y-171261904D02*
X121675295Y-171214285D01*
X121675295Y-171214285D02*
X121770533Y-171214285D01*
X121770533Y-171214285D02*
X121913390Y-171261904D01*
X121913390Y-171261904D02*
X122484819Y-171833332D01*
X122484819Y-171833332D02*
X122484819Y-171214285D01*
X70915714Y-289574819D02*
X70915714Y-288574819D01*
X70915714Y-288574819D02*
X71153809Y-288574819D01*
X71153809Y-288574819D02*
X71296666Y-288622438D01*
X71296666Y-288622438D02*
X71391904Y-288717676D01*
X71391904Y-288717676D02*
X71439523Y-288812914D01*
X71439523Y-288812914D02*
X71487142Y-289003390D01*
X71487142Y-289003390D02*
X71487142Y-289146247D01*
X71487142Y-289146247D02*
X71439523Y-289336723D01*
X71439523Y-289336723D02*
X71391904Y-289431961D01*
X71391904Y-289431961D02*
X71296666Y-289527200D01*
X71296666Y-289527200D02*
X71153809Y-289574819D01*
X71153809Y-289574819D02*
X70915714Y-289574819D01*
X72439523Y-289574819D02*
X71868095Y-289574819D01*
X72153809Y-289574819D02*
X72153809Y-288574819D01*
X72153809Y-288574819D02*
X72058571Y-288717676D01*
X72058571Y-288717676D02*
X71963333Y-288812914D01*
X71963333Y-288812914D02*
X71868095Y-288860533D01*
X73296666Y-288574819D02*
X73106190Y-288574819D01*
X73106190Y-288574819D02*
X73010952Y-288622438D01*
X73010952Y-288622438D02*
X72963333Y-288670057D01*
X72963333Y-288670057D02*
X72868095Y-288812914D01*
X72868095Y-288812914D02*
X72820476Y-289003390D01*
X72820476Y-289003390D02*
X72820476Y-289384342D01*
X72820476Y-289384342D02*
X72868095Y-289479580D01*
X72868095Y-289479580D02*
X72915714Y-289527200D01*
X72915714Y-289527200D02*
X73010952Y-289574819D01*
X73010952Y-289574819D02*
X73201428Y-289574819D01*
X73201428Y-289574819D02*
X73296666Y-289527200D01*
X73296666Y-289527200D02*
X73344285Y-289479580D01*
X73344285Y-289479580D02*
X73391904Y-289384342D01*
X73391904Y-289384342D02*
X73391904Y-289146247D01*
X73391904Y-289146247D02*
X73344285Y-289051009D01*
X73344285Y-289051009D02*
X73296666Y-289003390D01*
X73296666Y-289003390D02*
X73201428Y-288955771D01*
X73201428Y-288955771D02*
X73010952Y-288955771D01*
X73010952Y-288955771D02*
X72915714Y-289003390D01*
X72915714Y-289003390D02*
X72868095Y-289051009D01*
X72868095Y-289051009D02*
X72820476Y-289146247D01*
X68358571Y-291382295D02*
X67901428Y-291382295D01*
X68130000Y-291382295D02*
X68130000Y-290582295D01*
X68130000Y-290582295D02*
X68053809Y-290696580D01*
X68053809Y-290696580D02*
X67977619Y-290772771D01*
X67977619Y-290772771D02*
X67901428Y-290810866D01*
D11*
X71548095Y-241787419D02*
X71548095Y-242596942D01*
X71548095Y-242596942D02*
X71595714Y-242692180D01*
X71595714Y-242692180D02*
X71643333Y-242739800D01*
X71643333Y-242739800D02*
X71738571Y-242787419D01*
X71738571Y-242787419D02*
X71929047Y-242787419D01*
X71929047Y-242787419D02*
X72024285Y-242739800D01*
X72024285Y-242739800D02*
X72071904Y-242692180D01*
X72071904Y-242692180D02*
X72119523Y-242596942D01*
X72119523Y-242596942D02*
X72119523Y-241787419D01*
X72643333Y-242787419D02*
X72833809Y-242787419D01*
X72833809Y-242787419D02*
X72929047Y-242739800D01*
X72929047Y-242739800D02*
X72976666Y-242692180D01*
X72976666Y-242692180D02*
X73071904Y-242549323D01*
X73071904Y-242549323D02*
X73119523Y-242358847D01*
X73119523Y-242358847D02*
X73119523Y-241977895D01*
X73119523Y-241977895D02*
X73071904Y-241882657D01*
X73071904Y-241882657D02*
X73024285Y-241835038D01*
X73024285Y-241835038D02*
X72929047Y-241787419D01*
X72929047Y-241787419D02*
X72738571Y-241787419D01*
X72738571Y-241787419D02*
X72643333Y-241835038D01*
X72643333Y-241835038D02*
X72595714Y-241882657D01*
X72595714Y-241882657D02*
X72548095Y-241977895D01*
X72548095Y-241977895D02*
X72548095Y-242215990D01*
X72548095Y-242215990D02*
X72595714Y-242311228D01*
X72595714Y-242311228D02*
X72643333Y-242358847D01*
X72643333Y-242358847D02*
X72738571Y-242406466D01*
X72738571Y-242406466D02*
X72929047Y-242406466D01*
X72929047Y-242406466D02*
X73024285Y-242358847D01*
X73024285Y-242358847D02*
X73071904Y-242311228D01*
X73071904Y-242311228D02*
X73119523Y-242215990D01*
D10*
X71391905Y-241324819D02*
X71391905Y-240324819D01*
X71391905Y-240324819D02*
X71630000Y-240324819D01*
X71630000Y-240324819D02*
X71772857Y-240372438D01*
X71772857Y-240372438D02*
X71868095Y-240467676D01*
X71868095Y-240467676D02*
X71915714Y-240562914D01*
X71915714Y-240562914D02*
X71963333Y-240753390D01*
X71963333Y-240753390D02*
X71963333Y-240896247D01*
X71963333Y-240896247D02*
X71915714Y-241086723D01*
X71915714Y-241086723D02*
X71868095Y-241181961D01*
X71868095Y-241181961D02*
X71772857Y-241277200D01*
X71772857Y-241277200D02*
X71630000Y-241324819D01*
X71630000Y-241324819D02*
X71391905Y-241324819D01*
X72439524Y-241324819D02*
X72630000Y-241324819D01*
X72630000Y-241324819D02*
X72725238Y-241277200D01*
X72725238Y-241277200D02*
X72772857Y-241229580D01*
X72772857Y-241229580D02*
X72868095Y-241086723D01*
X72868095Y-241086723D02*
X72915714Y-240896247D01*
X72915714Y-240896247D02*
X72915714Y-240515295D01*
X72915714Y-240515295D02*
X72868095Y-240420057D01*
X72868095Y-240420057D02*
X72820476Y-240372438D01*
X72820476Y-240372438D02*
X72725238Y-240324819D01*
X72725238Y-240324819D02*
X72534762Y-240324819D01*
X72534762Y-240324819D02*
X72439524Y-240372438D01*
X72439524Y-240372438D02*
X72391905Y-240420057D01*
X72391905Y-240420057D02*
X72344286Y-240515295D01*
X72344286Y-240515295D02*
X72344286Y-240753390D01*
X72344286Y-240753390D02*
X72391905Y-240848628D01*
X72391905Y-240848628D02*
X72439524Y-240896247D01*
X72439524Y-240896247D02*
X72534762Y-240943866D01*
X72534762Y-240943866D02*
X72725238Y-240943866D01*
X72725238Y-240943866D02*
X72820476Y-240896247D01*
X72820476Y-240896247D02*
X72868095Y-240848628D01*
X72868095Y-240848628D02*
X72915714Y-240753390D01*
X68358571Y-243132295D02*
X67901428Y-243132295D01*
X68130000Y-243132295D02*
X68130000Y-242332295D01*
X68130000Y-242332295D02*
X68053809Y-242446580D01*
X68053809Y-242446580D02*
X67977619Y-242522771D01*
X67977619Y-242522771D02*
X67901428Y-242560866D01*
X167415714Y-289574819D02*
X167415714Y-288574819D01*
X167415714Y-288574819D02*
X167653809Y-288574819D01*
X167653809Y-288574819D02*
X167796666Y-288622438D01*
X167796666Y-288622438D02*
X167891904Y-288717676D01*
X167891904Y-288717676D02*
X167939523Y-288812914D01*
X167939523Y-288812914D02*
X167987142Y-289003390D01*
X167987142Y-289003390D02*
X167987142Y-289146247D01*
X167987142Y-289146247D02*
X167939523Y-289336723D01*
X167939523Y-289336723D02*
X167891904Y-289431961D01*
X167891904Y-289431961D02*
X167796666Y-289527200D01*
X167796666Y-289527200D02*
X167653809Y-289574819D01*
X167653809Y-289574819D02*
X167415714Y-289574819D01*
X168939523Y-289574819D02*
X168368095Y-289574819D01*
X168653809Y-289574819D02*
X168653809Y-288574819D01*
X168653809Y-288574819D02*
X168558571Y-288717676D01*
X168558571Y-288717676D02*
X168463333Y-288812914D01*
X168463333Y-288812914D02*
X168368095Y-288860533D01*
X169796666Y-288908152D02*
X169796666Y-289574819D01*
X169558571Y-288527200D02*
X169320476Y-289241485D01*
X169320476Y-289241485D02*
X169939523Y-289241485D01*
X164858571Y-291382295D02*
X164401428Y-291382295D01*
X164630000Y-291382295D02*
X164630000Y-290582295D01*
X164630000Y-290582295D02*
X164553809Y-290696580D01*
X164553809Y-290696580D02*
X164477619Y-290772771D01*
X164477619Y-290772771D02*
X164401428Y-290810866D01*
X195007142Y-77204819D02*
X194673809Y-76728628D01*
X194435714Y-77204819D02*
X194435714Y-76204819D01*
X194435714Y-76204819D02*
X194816666Y-76204819D01*
X194816666Y-76204819D02*
X194911904Y-76252438D01*
X194911904Y-76252438D02*
X194959523Y-76300057D01*
X194959523Y-76300057D02*
X195007142Y-76395295D01*
X195007142Y-76395295D02*
X195007142Y-76538152D01*
X195007142Y-76538152D02*
X194959523Y-76633390D01*
X194959523Y-76633390D02*
X194911904Y-76681009D01*
X194911904Y-76681009D02*
X194816666Y-76728628D01*
X194816666Y-76728628D02*
X194435714Y-76728628D01*
X195959523Y-77204819D02*
X195388095Y-77204819D01*
X195673809Y-77204819D02*
X195673809Y-76204819D01*
X195673809Y-76204819D02*
X195578571Y-76347676D01*
X195578571Y-76347676D02*
X195483333Y-76442914D01*
X195483333Y-76442914D02*
X195388095Y-76490533D01*
X196292857Y-76204819D02*
X196959523Y-76204819D01*
X196959523Y-76204819D02*
X196530952Y-77204819D01*
D12*
X116880000Y-289870000D02*
X116880000Y-295370000D01*
X116880000Y-289870000D02*
X123880000Y-289870000D01*
X116880000Y-295370000D02*
X123430000Y-295370000D01*
X117680000Y-293520000D02*
X117680000Y-291720000D01*
X123080000Y-293520000D02*
X123080000Y-291720000D01*
X123430000Y-295370000D02*
X123880000Y-294920000D01*
X123880000Y-294920000D02*
X123880000Y-289870000D01*
X213365000Y-69688748D02*
X213365000Y-70211252D01*
X214835000Y-69688748D02*
X214835000Y-70211252D01*
X213865000Y-78561252D02*
X213865000Y-78038748D01*
X215335000Y-78561252D02*
X215335000Y-78038748D01*
X200111252Y-77665000D02*
X199588748Y-77665000D01*
X200111252Y-79135000D02*
X199588748Y-79135000D01*
X216145000Y-171772936D02*
X216145000Y-172227064D01*
X217615000Y-171772936D02*
X217615000Y-172227064D01*
X200715000Y-74161252D02*
X200715000Y-73638748D01*
X202185000Y-74161252D02*
X202185000Y-73638748D01*
X221790000Y-110090000D02*
X221790000Y-110355000D01*
X221790000Y-125710000D02*
X221790000Y-125445000D01*
X225650000Y-110090000D02*
X221790000Y-110090000D01*
X225650000Y-110090000D02*
X229510000Y-110090000D01*
X225650000Y-125710000D02*
X221790000Y-125710000D01*
X225650000Y-125710000D02*
X229510000Y-125710000D01*
X229510000Y-110090000D02*
X229510000Y-110355000D01*
X229510000Y-125710000D02*
X229510000Y-125445000D01*
X230702500Y-125915000D02*
X230022500Y-125915000D01*
X230362500Y-125445000D01*
X230702500Y-125915000D01*
G36*
X230702500Y-125915000D02*
G01*
X230022500Y-125915000D01*
X230362500Y-125445000D01*
X230702500Y-125915000D01*
G37*
X65361252Y-145515000D02*
X64838748Y-145515000D01*
X65361252Y-146985000D02*
X64838748Y-146985000D01*
X119645000Y-267772936D02*
X119645000Y-268227064D01*
X121115000Y-267772936D02*
X121115000Y-268227064D01*
X68630000Y-145120000D02*
X68630000Y-150620000D01*
X68630000Y-145120000D02*
X75630000Y-145120000D01*
X68630000Y-150620000D02*
X75180000Y-150620000D01*
X69430000Y-148770000D02*
X69430000Y-146970000D01*
X74830000Y-148770000D02*
X74830000Y-146970000D01*
X75180000Y-150620000D02*
X75630000Y-150170000D01*
X75630000Y-150170000D02*
X75630000Y-145120000D01*
X216615000Y-75161252D02*
X216615000Y-74638748D01*
X218085000Y-75161252D02*
X218085000Y-74638748D01*
X199638748Y-80215000D02*
X200161252Y-80215000D01*
X199638748Y-81685000D02*
X200161252Y-81685000D01*
X218211252Y-71215000D02*
X217688748Y-71215000D01*
X218211252Y-72685000D02*
X217688748Y-72685000D01*
X119645000Y-219772936D02*
X119645000Y-220227064D01*
X121115000Y-219772936D02*
X121115000Y-220227064D01*
X195422936Y-80215000D02*
X195877064Y-80215000D01*
X195422936Y-81685000D02*
X195877064Y-81685000D01*
X71395000Y-267772936D02*
X71395000Y-268227064D01*
X72865000Y-267772936D02*
X72865000Y-268227064D01*
X195857500Y-70215000D02*
X193657500Y-70215000D01*
X195857500Y-70215000D02*
X198057500Y-70215000D01*
X195857500Y-76985000D02*
X193657500Y-76985000D01*
X195857500Y-76985000D02*
X198057500Y-76985000D01*
X191997500Y-70675000D02*
X191667500Y-70915000D01*
X191667500Y-70435000D01*
X191997500Y-70675000D01*
G36*
X191997500Y-70675000D02*
G01*
X191667500Y-70915000D01*
X191667500Y-70435000D01*
X191997500Y-70675000D01*
G37*
X209438748Y-74615000D02*
X209961252Y-74615000D01*
X209438748Y-76085000D02*
X209961252Y-76085000D01*
D13*
X224498497Y-107278800D02*
X226677103Y-107278800D01*
X226677103Y-97271200D02*
X224498497Y-97271200D01*
X225892600Y-97271200D02*
G75*
G02*
X225283000Y-97271200I-304800J0D01*
G01*
D14*
G36*
X229550200Y-105640500D02*
G01*
X229296200Y-105640500D01*
X229296200Y-105259500D01*
X229550200Y-105259500D01*
X229550200Y-105640500D01*
G37*
D12*
X200715000Y-70161252D02*
X200715000Y-69638748D01*
X202185000Y-70161252D02*
X202185000Y-69638748D01*
X213380000Y-289870000D02*
X213380000Y-295370000D01*
X213380000Y-289870000D02*
X220380000Y-289870000D01*
X213380000Y-295370000D02*
X219930000Y-295370000D01*
X214180000Y-293520000D02*
X214180000Y-291720000D01*
X219580000Y-293520000D02*
X219580000Y-291720000D01*
X219930000Y-295370000D02*
X220380000Y-294920000D01*
X220380000Y-294920000D02*
X220380000Y-289870000D01*
X38350000Y-217650000D02*
X44350000Y-217650000D01*
X38350000Y-218510000D02*
X38350000Y-217650000D01*
X38350000Y-220190000D02*
X44350000Y-220190000D01*
X38350000Y-221050000D02*
X38350000Y-220190000D01*
X38350000Y-222730000D02*
X44350000Y-222730000D01*
X38350000Y-223590000D02*
X38350000Y-222730000D01*
X44350000Y-216700000D02*
X44350000Y-227080000D01*
X44350000Y-218510000D02*
X38350000Y-218510000D01*
X44350000Y-221050000D02*
X38350000Y-221050000D01*
X44350000Y-223590000D02*
X38350000Y-223590000D01*
X44350000Y-227080000D02*
X47110000Y-227080000D01*
X47110000Y-216700000D02*
X44350000Y-216700000D01*
X47110000Y-219350000D02*
X44350000Y-219350000D01*
X47110000Y-221890000D02*
X44350000Y-221890000D01*
X47110000Y-224430000D02*
X44350000Y-224430000D01*
X47110000Y-227080000D02*
X47110000Y-216700000D01*
X47340000Y-225270000D02*
X47110000Y-225270000D01*
X47340000Y-226130000D02*
X47110000Y-226130000D01*
X47422642Y-217650000D02*
X47110000Y-217650000D01*
X47422642Y-218510000D02*
X47110000Y-218510000D01*
X47422642Y-220190000D02*
X47110000Y-220190000D01*
X47422642Y-221050000D02*
X47110000Y-221050000D01*
X47422642Y-222730000D02*
X47110000Y-222730000D01*
X47422642Y-223590000D02*
X47110000Y-223590000D01*
X49770000Y-225700000D02*
X49770000Y-226970000D01*
X49770000Y-226970000D02*
X48500000Y-226970000D01*
X44350000Y-226130000D02*
X38350000Y-226130000D01*
X38350000Y-225270000D01*
X44350000Y-225270000D01*
X44350000Y-226130000D01*
G36*
X44350000Y-226130000D02*
G01*
X38350000Y-226130000D01*
X38350000Y-225270000D01*
X44350000Y-225270000D01*
X44350000Y-226130000D01*
G37*
X165130000Y-193370000D02*
X165130000Y-198870000D01*
X165130000Y-193370000D02*
X172130000Y-193370000D01*
X165130000Y-198870000D02*
X171680000Y-198870000D01*
X165930000Y-197020000D02*
X165930000Y-195220000D01*
X171330000Y-197020000D02*
X171330000Y-195220000D01*
X171680000Y-198870000D02*
X172130000Y-198420000D01*
X172130000Y-198420000D02*
X172130000Y-193370000D01*
X167895000Y-315772936D02*
X167895000Y-316227064D01*
X169365000Y-315772936D02*
X169365000Y-316227064D01*
X238730000Y-216730000D02*
X240000000Y-216730000D01*
X238730000Y-218000000D02*
X238730000Y-216730000D01*
X241077358Y-220110000D02*
X241390000Y-220110000D01*
X241077358Y-220970000D02*
X241390000Y-220970000D01*
X241077358Y-222650000D02*
X241390000Y-222650000D01*
X241077358Y-223510000D02*
X241390000Y-223510000D01*
X241077358Y-225190000D02*
X241390000Y-225190000D01*
X241077358Y-226050000D02*
X241390000Y-226050000D01*
X241160000Y-217570000D02*
X241390000Y-217570000D01*
X241160000Y-218430000D02*
X241390000Y-218430000D01*
X241390000Y-216620000D02*
X241390000Y-227000000D01*
X241390000Y-219270000D02*
X244150000Y-219270000D01*
X241390000Y-221810000D02*
X244150000Y-221810000D01*
X241390000Y-224350000D02*
X244150000Y-224350000D01*
X241390000Y-227000000D02*
X244150000Y-227000000D01*
X244150000Y-216620000D02*
X241390000Y-216620000D01*
X244150000Y-220110000D02*
X250150000Y-220110000D01*
X244150000Y-222650000D02*
X250150000Y-222650000D01*
X244150000Y-225190000D02*
X250150000Y-225190000D01*
X244150000Y-227000000D02*
X244150000Y-216620000D01*
X250150000Y-220110000D02*
X250150000Y-220970000D01*
X250150000Y-220970000D02*
X244150000Y-220970000D01*
X250150000Y-222650000D02*
X250150000Y-223510000D01*
X250150000Y-223510000D02*
X244150000Y-223510000D01*
X250150000Y-225190000D02*
X250150000Y-226050000D01*
X250150000Y-226050000D02*
X244150000Y-226050000D01*
X244150000Y-217570000D02*
X250150000Y-217570000D01*
X250150000Y-218430000D01*
X244150000Y-218430000D01*
X244150000Y-217570000D01*
G36*
X244150000Y-217570000D02*
G01*
X250150000Y-217570000D01*
X250150000Y-218430000D01*
X244150000Y-218430000D01*
X244150000Y-217570000D01*
G37*
X212185000Y-72965000D02*
X212185000Y-72730000D01*
X212185000Y-75710000D02*
X212185000Y-75235000D01*
X212660000Y-72490000D02*
X212485000Y-72490000D01*
X212660000Y-75710000D02*
X212185000Y-75710000D01*
X214930000Y-72490000D02*
X215405000Y-72490000D01*
X214930000Y-75710000D02*
X215405000Y-75710000D01*
X215405000Y-72490000D02*
X215405000Y-72965000D01*
X215405000Y-75710000D02*
X215405000Y-75235000D01*
X212185000Y-72490000D02*
X211945000Y-72160000D01*
X212425000Y-72160000D01*
X212185000Y-72490000D01*
G36*
X212185000Y-72490000D02*
G01*
X211945000Y-72160000D01*
X212425000Y-72160000D01*
X212185000Y-72490000D01*
G37*
X167895000Y-219772936D02*
X167895000Y-220227064D01*
X169365000Y-219772936D02*
X169365000Y-220227064D01*
X213380000Y-241620000D02*
X213380000Y-247120000D01*
X213380000Y-241620000D02*
X220380000Y-241620000D01*
X213380000Y-247120000D02*
X219930000Y-247120000D01*
X214180000Y-245270000D02*
X214180000Y-243470000D01*
X219580000Y-245270000D02*
X219580000Y-243470000D01*
X219930000Y-247120000D02*
X220380000Y-246670000D01*
X220380000Y-246670000D02*
X220380000Y-241620000D01*
X71395000Y-315772936D02*
X71395000Y-316227064D01*
X72865000Y-315772936D02*
X72865000Y-316227064D01*
X165130000Y-145120000D02*
X165130000Y-150620000D01*
X165130000Y-145120000D02*
X172130000Y-145120000D01*
X165130000Y-150620000D02*
X171680000Y-150620000D01*
X165930000Y-148770000D02*
X165930000Y-146970000D01*
X171330000Y-148770000D02*
X171330000Y-146970000D01*
X171680000Y-150620000D02*
X172130000Y-150170000D01*
X172130000Y-150170000D02*
X172130000Y-145120000D01*
X165130000Y-241620000D02*
X165130000Y-247120000D01*
X165130000Y-241620000D02*
X172130000Y-241620000D01*
X165130000Y-247120000D02*
X171680000Y-247120000D01*
X165930000Y-245270000D02*
X165930000Y-243470000D01*
X171330000Y-245270000D02*
X171330000Y-243470000D01*
X171680000Y-247120000D02*
X172130000Y-246670000D01*
X172130000Y-246670000D02*
X172130000Y-241620000D01*
X119645000Y-315772936D02*
X119645000Y-316227064D01*
X121115000Y-315772936D02*
X121115000Y-316227064D01*
X189915000Y-77111252D02*
X189915000Y-76588748D01*
X191385000Y-77111252D02*
X191385000Y-76588748D01*
X202965000Y-74211252D02*
X202965000Y-73688748D01*
X204435000Y-74211252D02*
X204435000Y-73688748D01*
X226280000Y-64530000D02*
X226780000Y-64530000D01*
X226280000Y-65730000D02*
X224280000Y-65730000D01*
X226280000Y-65730000D02*
X226280000Y-64530000D01*
X226280000Y-68330000D02*
X224280000Y-68330000D01*
X226280000Y-74830000D02*
X226280000Y-68330000D01*
X226280000Y-79230000D02*
X226280000Y-78030000D01*
X226780000Y-62030000D02*
X231980000Y-62030000D01*
X226780000Y-64530000D02*
X226780000Y-62030000D01*
X231980000Y-62030000D02*
X231980000Y-64530000D01*
X231980000Y-64530000D02*
X232480000Y-64530000D01*
X232480000Y-64530000D02*
X232480000Y-67730000D01*
X232480000Y-70330000D02*
X232480000Y-79230000D01*
X232480000Y-79230000D02*
X226280000Y-79230000D01*
X213380000Y-193370000D02*
X213380000Y-198870000D01*
X213380000Y-193370000D02*
X220380000Y-193370000D01*
X213380000Y-198870000D02*
X219930000Y-198870000D01*
X214180000Y-197020000D02*
X214180000Y-195220000D01*
X219580000Y-197020000D02*
X219580000Y-195220000D01*
X219930000Y-198870000D02*
X220380000Y-198420000D01*
X220380000Y-198420000D02*
X220380000Y-193370000D01*
X216145000Y-219772936D02*
X216145000Y-220227064D01*
X217615000Y-219772936D02*
X217615000Y-220227064D01*
X187665000Y-70088748D02*
X187665000Y-70611252D01*
X189135000Y-70088748D02*
X189135000Y-70611252D01*
X216145000Y-267772936D02*
X216145000Y-268227064D01*
X217615000Y-267772936D02*
X217615000Y-268227064D01*
X167895000Y-267772936D02*
X167895000Y-268227064D01*
X169365000Y-267772936D02*
X169365000Y-268227064D01*
X116880000Y-145120000D02*
X116880000Y-150620000D01*
X116880000Y-145120000D02*
X123880000Y-145120000D01*
X116880000Y-150620000D02*
X123430000Y-150620000D01*
X117680000Y-148770000D02*
X117680000Y-146970000D01*
X123080000Y-148770000D02*
X123080000Y-146970000D01*
X123430000Y-150620000D02*
X123880000Y-150170000D01*
X123880000Y-150170000D02*
X123880000Y-145120000D01*
X216145000Y-315772936D02*
X216145000Y-316227064D01*
X217615000Y-315772936D02*
X217615000Y-316227064D01*
D15*
X123800000Y-80300000D02*
X126280000Y-80300000D01*
X123800000Y-83680000D02*
X123800000Y-80300000D01*
X123800000Y-93700000D02*
X123800000Y-90320000D01*
X126280000Y-93700000D02*
X123800000Y-93700000D01*
X128720000Y-80300000D02*
X131280000Y-80300000D01*
X133720000Y-80300000D02*
X136200000Y-80300000D01*
X136200000Y-80300000D02*
X136200000Y-83680000D01*
X136200000Y-93700000D02*
X133720000Y-93700000D01*
X136200000Y-93700000D02*
X136200000Y-90320000D01*
D16*
X127600000Y-78500000D02*
G75*
G02*
X127400000Y-78500000I-100000J0D01*
G01*
X127400000Y-78500000D02*
G75*
G02*
X127600000Y-78500000I100000J0D01*
G01*
D12*
X209961252Y-72515000D02*
X209438748Y-72515000D01*
X209961252Y-73985000D02*
X209438748Y-73985000D01*
X72670000Y-76730000D02*
X74050000Y-76730000D01*
X72670000Y-78110000D02*
X72670000Y-76730000D01*
X72670000Y-79380000D02*
X72670000Y-97270000D01*
X72670000Y-79380000D02*
X75430000Y-79380000D01*
X72670000Y-97270000D02*
X75430000Y-97270000D01*
X75430000Y-79380000D02*
X75430000Y-97270000D01*
X116880000Y-193370000D02*
X116880000Y-198870000D01*
X116880000Y-193370000D02*
X123880000Y-193370000D01*
X116880000Y-198870000D02*
X123430000Y-198870000D01*
X117680000Y-197020000D02*
X117680000Y-195220000D01*
X123080000Y-197020000D02*
X123080000Y-195220000D01*
X123430000Y-198870000D02*
X123880000Y-198420000D01*
X123880000Y-198420000D02*
X123880000Y-193370000D01*
X183215000Y-70488748D02*
X183215000Y-71011252D01*
X184685000Y-70488748D02*
X184685000Y-71011252D01*
X71395000Y-171772936D02*
X71395000Y-172227064D01*
X72865000Y-171772936D02*
X72865000Y-172227064D01*
X68630000Y-193370000D02*
X68630000Y-198870000D01*
X68630000Y-193370000D02*
X75630000Y-193370000D01*
X68630000Y-198870000D02*
X75180000Y-198870000D01*
X69430000Y-197020000D02*
X69430000Y-195220000D01*
X74830000Y-197020000D02*
X74830000Y-195220000D01*
X75180000Y-198870000D02*
X75630000Y-198420000D01*
X75630000Y-198420000D02*
X75630000Y-193370000D01*
X187915000Y-76588748D02*
X187915000Y-77111252D01*
X189385000Y-76588748D02*
X189385000Y-77111252D01*
X71395000Y-219772936D02*
X71395000Y-220227064D01*
X72865000Y-219772936D02*
X72865000Y-220227064D01*
X167895000Y-171772936D02*
X167895000Y-172227064D01*
X169365000Y-171772936D02*
X169365000Y-172227064D01*
X116880000Y-241620000D02*
X116880000Y-247120000D01*
X116880000Y-241620000D02*
X123880000Y-241620000D01*
X116880000Y-247120000D02*
X123430000Y-247120000D01*
X117680000Y-245270000D02*
X117680000Y-243470000D01*
X123080000Y-245270000D02*
X123080000Y-243470000D01*
X123430000Y-247120000D02*
X123880000Y-246670000D01*
X123880000Y-246670000D02*
X123880000Y-241620000D01*
X190011252Y-73015000D02*
X189488748Y-73015000D01*
X190011252Y-74485000D02*
X189488748Y-74485000D01*
X213380000Y-145120000D02*
X213380000Y-150620000D01*
X213380000Y-145120000D02*
X220380000Y-145120000D01*
X213380000Y-150620000D02*
X219930000Y-150620000D01*
X214180000Y-148770000D02*
X214180000Y-146970000D01*
X219580000Y-148770000D02*
X219580000Y-146970000D01*
X219930000Y-150620000D02*
X220380000Y-150170000D01*
X220380000Y-150170000D02*
X220380000Y-145120000D01*
X217561252Y-123515000D02*
X217038748Y-123515000D01*
X217561252Y-124985000D02*
X217038748Y-124985000D01*
X190015000Y-70611252D02*
X190015000Y-70088748D01*
X191485000Y-70611252D02*
X191485000Y-70088748D01*
X202965000Y-69688748D02*
X202965000Y-70211252D01*
X204435000Y-69688748D02*
X204435000Y-70211252D01*
X78027064Y-145465000D02*
X77572936Y-145465000D01*
X78027064Y-146935000D02*
X77572936Y-146935000D01*
X119645000Y-171772936D02*
X119645000Y-172227064D01*
X121115000Y-171772936D02*
X121115000Y-172227064D01*
X68630000Y-289870000D02*
X68630000Y-295370000D01*
X68630000Y-289870000D02*
X75630000Y-289870000D01*
X68630000Y-295370000D02*
X75180000Y-295370000D01*
X69430000Y-293520000D02*
X69430000Y-291720000D01*
X74830000Y-293520000D02*
X74830000Y-291720000D01*
X75180000Y-295370000D02*
X75630000Y-294920000D01*
X75630000Y-294920000D02*
X75630000Y-289870000D01*
X68630000Y-241620000D02*
X68630000Y-247120000D01*
X68630000Y-241620000D02*
X75630000Y-241620000D01*
X68630000Y-247120000D02*
X75180000Y-247120000D01*
X69430000Y-245270000D02*
X69430000Y-243470000D01*
X74830000Y-245270000D02*
X74830000Y-243470000D01*
X75180000Y-247120000D02*
X75630000Y-246670000D01*
X75630000Y-246670000D02*
X75630000Y-241620000D01*
X165130000Y-289870000D02*
X165130000Y-295370000D01*
X165130000Y-289870000D02*
X172130000Y-289870000D01*
X165130000Y-295370000D02*
X171680000Y-295370000D01*
X165930000Y-293520000D02*
X165930000Y-291720000D01*
X171330000Y-293520000D02*
X171330000Y-291720000D01*
X171680000Y-295370000D02*
X172130000Y-294920000D01*
X172130000Y-294920000D02*
X172130000Y-289870000D01*
X195422936Y-77665000D02*
X195877064Y-77665000D01*
X195422936Y-79135000D02*
X195877064Y-79135000D01*
%LPC*%
D17*
X102380000Y-249370000D02*
X102380000Y-239370000D01*
X105380000Y-249370000D02*
X105380000Y-239370000D01*
X108380000Y-249370000D02*
X108380000Y-239370000D01*
X115380000Y-226370000D02*
X125380000Y-226370000D01*
X115380000Y-229370000D02*
X125380000Y-229370000D01*
X115380000Y-232370000D02*
X125380000Y-232370000D01*
X115380000Y-256370000D02*
X119880000Y-256370000D01*
X116880000Y-259370000D02*
X115380000Y-259370000D01*
X116880000Y-262370000D02*
X116880000Y-259370000D01*
X119880000Y-262370000D02*
X119880000Y-256370000D01*
X132380000Y-239370000D02*
X132380000Y-249370000D01*
X135380000Y-239370000D02*
X135380000Y-249370000D01*
X138380000Y-239370000D02*
X138380000Y-249370000D01*
X102380000Y-239370000D02*
G75*
G02*
X115380000Y-226370000I13000001J-1D01*
G01*
X105380000Y-239370000D02*
G75*
G02*
X115380000Y-229370000I9999999J1D01*
G01*
X108380000Y-239370000D02*
G75*
G02*
X115380000Y-232370000I7000002J-2D01*
G01*
X113392690Y-262290927D02*
G75*
G02*
X102380000Y-249370000I2073564J12920928D01*
G01*
X115380000Y-256370000D02*
G75*
G02*
X108380000Y-249370000I2J7000002D01*
G01*
X115380000Y-259370000D02*
G75*
G02*
X105380000Y-249370000I-1J9999999D01*
G01*
X125380000Y-226370000D02*
G75*
G02*
X138380000Y-239370000I0J-13000000D01*
G01*
X125380000Y-229370000D02*
G75*
G02*
X135380000Y-239369999I0J-10000000D01*
G01*
X125380000Y-232370000D02*
G75*
G02*
X132380000Y-239370000I0J-7000000D01*
G01*
X125380000Y-262370000D02*
G75*
G02*
X125380000Y-256370000I0J3000000D01*
G01*
X132380000Y-249370000D02*
G75*
G02*
X125380000Y-256370000I-7000002J2D01*
G01*
X135308932Y-249441068D02*
G75*
G02*
X125380000Y-259370000I-9928933J1D01*
G01*
X138380000Y-249370000D02*
G75*
G02*
X125380000Y-262370000I-13000000J0D01*
G01*
X102380000Y-152870000D02*
X102380000Y-142870000D01*
X105380000Y-152870000D02*
X105380000Y-142870000D01*
X108380000Y-152870000D02*
X108380000Y-142870000D01*
X115380000Y-129870000D02*
X125380000Y-129870000D01*
X115380000Y-132870000D02*
X125380000Y-132870000D01*
X115380000Y-135870000D02*
X125380000Y-135870000D01*
X115380000Y-159870000D02*
X119880000Y-159870000D01*
X116880000Y-162870000D02*
X115380000Y-162870000D01*
X116880000Y-165870000D02*
X116880000Y-162870000D01*
X119880000Y-165870000D02*
X119880000Y-159870000D01*
X132380000Y-142870000D02*
X132380000Y-152870000D01*
X135380000Y-142870000D02*
X135380000Y-152870000D01*
X138380000Y-142870000D02*
X138380000Y-152870000D01*
X102380000Y-142870000D02*
G75*
G02*
X115380000Y-129870000I13000001J-1D01*
G01*
X105380000Y-142870000D02*
G75*
G02*
X115380000Y-132870000I9999999J1D01*
G01*
X108380000Y-142870000D02*
G75*
G02*
X115380000Y-135870000I7000002J-2D01*
G01*
X113392690Y-165790927D02*
G75*
G02*
X102380000Y-152870000I2073564J12920928D01*
G01*
X115380000Y-159870000D02*
G75*
G02*
X108380000Y-152870000I2J7000002D01*
G01*
X115380000Y-162870000D02*
G75*
G02*
X105380000Y-152870000I-1J9999999D01*
G01*
X125380000Y-129870000D02*
G75*
G02*
X138380000Y-142870000I0J-13000000D01*
G01*
X125380000Y-132870000D02*
G75*
G02*
X135380000Y-142869999I0J-10000000D01*
G01*
X125380000Y-135870000D02*
G75*
G02*
X132380000Y-142870000I0J-7000000D01*
G01*
X125380000Y-165870000D02*
G75*
G02*
X125380000Y-159870000I0J3000000D01*
G01*
X132380000Y-152870000D02*
G75*
G02*
X125380000Y-159870000I-7000002J2D01*
G01*
X135308932Y-152941068D02*
G75*
G02*
X125380000Y-162870000I-9928933J1D01*
G01*
X138380000Y-152870000D02*
G75*
G02*
X125380000Y-165870000I-13000000J0D01*
G01*
X102380000Y-297620000D02*
X102380000Y-287620000D01*
X105380000Y-297620000D02*
X105380000Y-287620000D01*
X108380000Y-297620000D02*
X108380000Y-287620000D01*
X115380000Y-274620000D02*
X125380000Y-274620000D01*
X115380000Y-277620000D02*
X125380000Y-277620000D01*
X115380000Y-280620000D02*
X125380000Y-280620000D01*
X115380000Y-304620000D02*
X119880000Y-304620000D01*
X116880000Y-307620000D02*
X115380000Y-307620000D01*
X116880000Y-310620000D02*
X116880000Y-307620000D01*
X119880000Y-310620000D02*
X119880000Y-304620000D01*
X132380000Y-287620000D02*
X132380000Y-297620000D01*
X135380000Y-287620000D02*
X135380000Y-297620000D01*
X138380000Y-287620000D02*
X138380000Y-297620000D01*
X102380000Y-287620000D02*
G75*
G02*
X115380000Y-274620000I13000001J-1D01*
G01*
X105380000Y-287620000D02*
G75*
G02*
X115380000Y-277620000I9999999J1D01*
G01*
X108380000Y-287620000D02*
G75*
G02*
X115380000Y-280620000I7000002J-2D01*
G01*
X113392690Y-310540927D02*
G75*
G02*
X102380000Y-297620000I2073564J12920928D01*
G01*
X115380000Y-304620000D02*
G75*
G02*
X108380000Y-297620000I2J7000002D01*
G01*
X115380000Y-307620000D02*
G75*
G02*
X105380000Y-297620000I-1J9999999D01*
G01*
X125380000Y-274620000D02*
G75*
G02*
X138380000Y-287620000I0J-13000000D01*
G01*
X125380000Y-277620000D02*
G75*
G02*
X135380000Y-287619999I0J-10000000D01*
G01*
X125380000Y-280620000D02*
G75*
G02*
X132380000Y-287620000I0J-7000000D01*
G01*
X125380000Y-310620000D02*
G75*
G02*
X125380000Y-304620000I0J3000000D01*
G01*
X132380000Y-297620000D02*
G75*
G02*
X125380000Y-304620000I-7000002J2D01*
G01*
X135308932Y-297691068D02*
G75*
G02*
X125380000Y-307620000I-9928933J1D01*
G01*
X138380000Y-297620000D02*
G75*
G02*
X125380000Y-310620000I-13000000J0D01*
G01*
X102380000Y-201120000D02*
X102380000Y-191120000D01*
X105380000Y-201120000D02*
X105380000Y-191120000D01*
X108380000Y-201120000D02*
X108380000Y-191120000D01*
X115380000Y-178120000D02*
X125380000Y-178120000D01*
X115380000Y-181120000D02*
X125380000Y-181120000D01*
X115380000Y-184120000D02*
X125380000Y-184120000D01*
X115380000Y-208120000D02*
X119880000Y-208120000D01*
X116880000Y-211120000D02*
X115380000Y-211120000D01*
X116880000Y-214120000D02*
X116880000Y-211120000D01*
X119880000Y-214120000D02*
X119880000Y-208120000D01*
X132380000Y-191120000D02*
X132380000Y-201120000D01*
X135380000Y-191120000D02*
X135380000Y-201120000D01*
X138380000Y-191120000D02*
X138380000Y-201120000D01*
X102380000Y-191120000D02*
G75*
G02*
X115380000Y-178120000I13000001J-1D01*
G01*
X105380000Y-191120000D02*
G75*
G02*
X115380000Y-181120000I9999999J1D01*
G01*
X108380000Y-191120000D02*
G75*
G02*
X115380000Y-184120000I7000002J-2D01*
G01*
X113392690Y-214040927D02*
G75*
G02*
X102380000Y-201120000I2073564J12920928D01*
G01*
X115380000Y-208120000D02*
G75*
G02*
X108380000Y-201120000I2J7000002D01*
G01*
X115380000Y-211120000D02*
G75*
G02*
X105380000Y-201120000I-1J9999999D01*
G01*
X125380000Y-178120000D02*
G75*
G02*
X138380000Y-191120000I0J-13000000D01*
G01*
X125380000Y-181120000D02*
G75*
G02*
X135380000Y-191119999I0J-10000000D01*
G01*
X125380000Y-184120000D02*
G75*
G02*
X132380000Y-191120000I0J-7000000D01*
G01*
X125380000Y-214120000D02*
G75*
G02*
X125380000Y-208120000I0J3000000D01*
G01*
X132380000Y-201120000D02*
G75*
G02*
X125380000Y-208120000I-7000002J2D01*
G01*
X135308932Y-201191068D02*
G75*
G02*
X125380000Y-211120000I-9928933J1D01*
G01*
X138380000Y-201120000D02*
G75*
G02*
X125380000Y-214120000I-13000000J0D01*
G01*
X150630000Y-201120000D02*
X150630000Y-191120000D01*
X153630000Y-201120000D02*
X153630000Y-191120000D01*
X156630000Y-201120000D02*
X156630000Y-191120000D01*
X163630000Y-178120000D02*
X173630000Y-178120000D01*
X163630000Y-181120000D02*
X173630000Y-181120000D01*
X163630000Y-184120000D02*
X173630000Y-184120000D01*
X163630000Y-208120000D02*
X168130000Y-208120000D01*
X165130000Y-211120000D02*
X163630000Y-211120000D01*
X165130000Y-214120000D02*
X165130000Y-211120000D01*
X168130000Y-214120000D02*
X168130000Y-208120000D01*
X180630000Y-191120000D02*
X180630000Y-201120000D01*
X183630000Y-191120000D02*
X183630000Y-201120000D01*
X186630000Y-191120000D02*
X186630000Y-201120000D01*
X150630000Y-191120000D02*
G75*
G02*
X163630000Y-178120000I13000001J-1D01*
G01*
X153630000Y-191120000D02*
G75*
G02*
X163630000Y-181120000I9999999J1D01*
G01*
X156630000Y-191120000D02*
G75*
G02*
X163630000Y-184120000I7000002J-2D01*
G01*
X161642690Y-214040927D02*
G75*
G02*
X150630000Y-201120000I2073564J12920928D01*
G01*
X163630000Y-208120000D02*
G75*
G02*
X156630000Y-201120000I2J7000002D01*
G01*
X163630000Y-211120000D02*
G75*
G02*
X153630000Y-201120000I-1J9999999D01*
G01*
X173630000Y-178120000D02*
G75*
G02*
X186630000Y-191120000I0J-13000000D01*
G01*
X173630000Y-181120000D02*
G75*
G02*
X183630000Y-191119999I0J-10000000D01*
G01*
X173630000Y-184120000D02*
G75*
G02*
X180630000Y-191120000I0J-7000000D01*
G01*
X173630000Y-214120000D02*
G75*
G02*
X173630000Y-208120000I0J3000000D01*
G01*
X180630000Y-201120000D02*
G75*
G02*
X173630000Y-208120000I-7000002J2D01*
G01*
X183558932Y-201191068D02*
G75*
G02*
X173630000Y-211120000I-9928933J1D01*
G01*
X186630000Y-201120000D02*
G75*
G02*
X173630000Y-214120000I-13000000J0D01*
G01*
X198880000Y-297620000D02*
X198880000Y-287620000D01*
X201880000Y-297620000D02*
X201880000Y-287620000D01*
X204880000Y-297620000D02*
X204880000Y-287620000D01*
X211880000Y-274620000D02*
X221880000Y-274620000D01*
X211880000Y-277620000D02*
X221880000Y-277620000D01*
X211880000Y-280620000D02*
X221880000Y-280620000D01*
X211880000Y-304620000D02*
X216380000Y-304620000D01*
X213380000Y-307620000D02*
X211880000Y-307620000D01*
X213380000Y-310620000D02*
X213380000Y-307620000D01*
X216380000Y-310620000D02*
X216380000Y-304620000D01*
X228880000Y-287620000D02*
X228880000Y-297620000D01*
X231880000Y-287620000D02*
X231880000Y-297620000D01*
X234880000Y-287620000D02*
X234880000Y-297620000D01*
X198880000Y-287620000D02*
G75*
G02*
X211880000Y-274620000I13000001J-1D01*
G01*
X201880000Y-287620000D02*
G75*
G02*
X211880000Y-277620000I9999999J1D01*
G01*
X204880000Y-287620000D02*
G75*
G02*
X211880000Y-280620000I7000002J-2D01*
G01*
X209892690Y-310540927D02*
G75*
G02*
X198880000Y-297620000I2073564J12920928D01*
G01*
X211880000Y-304620000D02*
G75*
G02*
X204880000Y-297620000I2J7000002D01*
G01*
X211880000Y-307620000D02*
G75*
G02*
X201880000Y-297620000I-1J9999999D01*
G01*
X221880000Y-274620000D02*
G75*
G02*
X234880000Y-287620000I0J-13000000D01*
G01*
X221880000Y-277620000D02*
G75*
G02*
X231880000Y-287619999I0J-10000000D01*
G01*
X221880000Y-280620000D02*
G75*
G02*
X228880000Y-287620000I0J-7000000D01*
G01*
X221880000Y-310620000D02*
G75*
G02*
X221880000Y-304620000I0J3000000D01*
G01*
X228880000Y-297620000D02*
G75*
G02*
X221880000Y-304620000I-7000002J2D01*
G01*
X231808932Y-297691068D02*
G75*
G02*
X221880000Y-307620000I-9928933J1D01*
G01*
X234880000Y-297620000D02*
G75*
G02*
X221880000Y-310620000I-13000000J0D01*
G01*
X54130000Y-152870000D02*
X54130000Y-142870000D01*
X57130000Y-152870000D02*
X57130000Y-142870000D01*
X60130000Y-152870000D02*
X60130000Y-142870000D01*
X67130000Y-129870000D02*
X77130000Y-129870000D01*
X67130000Y-132870000D02*
X77130000Y-132870000D01*
X67130000Y-135870000D02*
X77130000Y-135870000D01*
X67130000Y-159870000D02*
X71630000Y-159870000D01*
X68630000Y-162870000D02*
X67130000Y-162870000D01*
X68630000Y-165870000D02*
X68630000Y-162870000D01*
X71630000Y-165870000D02*
X71630000Y-159870000D01*
X84130000Y-142870000D02*
X84130000Y-152870000D01*
X87130000Y-142870000D02*
X87130000Y-152870000D01*
X90130000Y-142870000D02*
X90130000Y-152870000D01*
X54130000Y-142870000D02*
G75*
G02*
X67130000Y-129870000I13000001J-1D01*
G01*
X57130000Y-142870000D02*
G75*
G02*
X67130000Y-132870000I9999999J1D01*
G01*
X60130000Y-142870000D02*
G75*
G02*
X67130000Y-135870000I7000002J-2D01*
G01*
X65142690Y-165790927D02*
G75*
G02*
X54130000Y-152870000I2073564J12920928D01*
G01*
X67130000Y-159870000D02*
G75*
G02*
X60130000Y-152870000I2J7000002D01*
G01*
X67130000Y-162870000D02*
G75*
G02*
X57130000Y-152870000I-1J9999999D01*
G01*
X77130000Y-129870000D02*
G75*
G02*
X90130000Y-142870000I0J-13000000D01*
G01*
X77130000Y-132870000D02*
G75*
G02*
X87130000Y-142869999I0J-10000000D01*
G01*
X77130000Y-135870000D02*
G75*
G02*
X84130000Y-142870000I0J-7000000D01*
G01*
X77130000Y-165870000D02*
G75*
G02*
X77130000Y-159870000I0J3000000D01*
G01*
X84130000Y-152870000D02*
G75*
G02*
X77130000Y-159870000I-7000002J2D01*
G01*
X87058932Y-152941068D02*
G75*
G02*
X77130000Y-162870000I-9928933J1D01*
G01*
X90130000Y-152870000D02*
G75*
G02*
X77130000Y-165870000I-13000000J0D01*
G01*
X198880000Y-201120000D02*
X198880000Y-191120000D01*
X201880000Y-201120000D02*
X201880000Y-191120000D01*
X204880000Y-201120000D02*
X204880000Y-191120000D01*
X211880000Y-178120000D02*
X221880000Y-178120000D01*
X211880000Y-181120000D02*
X221880000Y-181120000D01*
X211880000Y-184120000D02*
X221880000Y-184120000D01*
X211880000Y-208120000D02*
X216380000Y-208120000D01*
X213380000Y-211120000D02*
X211880000Y-211120000D01*
X213380000Y-214120000D02*
X213380000Y-211120000D01*
X216380000Y-214120000D02*
X216380000Y-208120000D01*
X228880000Y-191120000D02*
X228880000Y-201120000D01*
X231880000Y-191120000D02*
X231880000Y-201120000D01*
X234880000Y-191120000D02*
X234880000Y-201120000D01*
X198880000Y-191120000D02*
G75*
G02*
X211880000Y-178120000I13000001J-1D01*
G01*
X201880000Y-191120000D02*
G75*
G02*
X211880000Y-181120000I9999999J1D01*
G01*
X204880000Y-191120000D02*
G75*
G02*
X211880000Y-184120000I7000002J-2D01*
G01*
X209892690Y-214040927D02*
G75*
G02*
X198880000Y-201120000I2073564J12920928D01*
G01*
X211880000Y-208120000D02*
G75*
G02*
X204880000Y-201120000I2J7000002D01*
G01*
X211880000Y-211120000D02*
G75*
G02*
X201880000Y-201120000I-1J9999999D01*
G01*
X221880000Y-178120000D02*
G75*
G02*
X234880000Y-191120000I0J-13000000D01*
G01*
X221880000Y-181120000D02*
G75*
G02*
X231880000Y-191119999I0J-10000000D01*
G01*
X221880000Y-184120000D02*
G75*
G02*
X228880000Y-191120000I0J-7000000D01*
G01*
X221880000Y-214120000D02*
G75*
G02*
X221880000Y-208120000I0J3000000D01*
G01*
X228880000Y-201120000D02*
G75*
G02*
X221880000Y-208120000I-7000002J2D01*
G01*
X231808932Y-201191068D02*
G75*
G02*
X221880000Y-211120000I-9928933J1D01*
G01*
X234880000Y-201120000D02*
G75*
G02*
X221880000Y-214120000I-13000000J0D01*
G01*
X198880000Y-249370000D02*
X198880000Y-239370000D01*
X201880000Y-249370000D02*
X201880000Y-239370000D01*
X204880000Y-249370000D02*
X204880000Y-239370000D01*
X211880000Y-226370000D02*
X221880000Y-226370000D01*
X211880000Y-229370000D02*
X221880000Y-229370000D01*
X211880000Y-232370000D02*
X221880000Y-232370000D01*
X211880000Y-256370000D02*
X216380000Y-256370000D01*
X213380000Y-259370000D02*
X211880000Y-259370000D01*
X213380000Y-262370000D02*
X213380000Y-259370000D01*
X216380000Y-262370000D02*
X216380000Y-256370000D01*
X228880000Y-239370000D02*
X228880000Y-249370000D01*
X231880000Y-239370000D02*
X231880000Y-249370000D01*
X234880000Y-239370000D02*
X234880000Y-249370000D01*
X198880000Y-239370000D02*
G75*
G02*
X211880000Y-226370000I13000001J-1D01*
G01*
X201880000Y-239370000D02*
G75*
G02*
X211880000Y-229370000I9999999J1D01*
G01*
X204880000Y-239370000D02*
G75*
G02*
X211880000Y-232370000I7000002J-2D01*
G01*
X209892690Y-262290927D02*
G75*
G02*
X198880000Y-249370000I2073564J12920928D01*
G01*
X211880000Y-256370000D02*
G75*
G02*
X204880000Y-249370000I2J7000002D01*
G01*
X211880000Y-259370000D02*
G75*
G02*
X201880000Y-249370000I-1J9999999D01*
G01*
X221880000Y-226370000D02*
G75*
G02*
X234880000Y-239370000I0J-13000000D01*
G01*
X221880000Y-229370000D02*
G75*
G02*
X231880000Y-239369999I0J-10000000D01*
G01*
X221880000Y-232370000D02*
G75*
G02*
X228880000Y-239370000I0J-7000000D01*
G01*
X221880000Y-262370000D02*
G75*
G02*
X221880000Y-256370000I0J3000000D01*
G01*
X228880000Y-249370000D02*
G75*
G02*
X221880000Y-256370000I-7000002J2D01*
G01*
X231808932Y-249441068D02*
G75*
G02*
X221880000Y-259370000I-9928933J1D01*
G01*
X234880000Y-249370000D02*
G75*
G02*
X221880000Y-262370000I-13000000J0D01*
G01*
X150630000Y-152870000D02*
X150630000Y-142870000D01*
X153630000Y-152870000D02*
X153630000Y-142870000D01*
X156630000Y-152870000D02*
X156630000Y-142870000D01*
X163630000Y-129870000D02*
X173630000Y-129870000D01*
X163630000Y-132870000D02*
X173630000Y-132870000D01*
X163630000Y-135870000D02*
X173630000Y-135870000D01*
X163630000Y-159870000D02*
X168130000Y-159870000D01*
X165130000Y-162870000D02*
X163630000Y-162870000D01*
X165130000Y-165870000D02*
X165130000Y-162870000D01*
X168130000Y-165870000D02*
X168130000Y-159870000D01*
X180630000Y-142870000D02*
X180630000Y-152870000D01*
X183630000Y-142870000D02*
X183630000Y-152870000D01*
X186630000Y-142870000D02*
X186630000Y-152870000D01*
X150630000Y-142870000D02*
G75*
G02*
X163630000Y-129870000I13000001J-1D01*
G01*
X153630000Y-142870000D02*
G75*
G02*
X163630000Y-132870000I9999999J1D01*
G01*
X156630000Y-142870000D02*
G75*
G02*
X163630000Y-135870000I7000002J-2D01*
G01*
X161642690Y-165790927D02*
G75*
G02*
X150630000Y-152870000I2073564J12920928D01*
G01*
X163630000Y-159870000D02*
G75*
G02*
X156630000Y-152870000I2J7000002D01*
G01*
X163630000Y-162870000D02*
G75*
G02*
X153630000Y-152870000I-1J9999999D01*
G01*
X173630000Y-129870000D02*
G75*
G02*
X186630000Y-142870000I0J-13000000D01*
G01*
X173630000Y-132870000D02*
G75*
G02*
X183630000Y-142869999I0J-10000000D01*
G01*
X173630000Y-135870000D02*
G75*
G02*
X180630000Y-142870000I0J-7000000D01*
G01*
X173630000Y-165870000D02*
G75*
G02*
X173630000Y-159870000I0J3000000D01*
G01*
X180630000Y-152870000D02*
G75*
G02*
X173630000Y-159870000I-7000002J2D01*
G01*
X183558932Y-152941068D02*
G75*
G02*
X173630000Y-162870000I-9928933J1D01*
G01*
X186630000Y-152870000D02*
G75*
G02*
X173630000Y-165870000I-13000000J0D01*
G01*
X54130000Y-201120000D02*
X54130000Y-191120000D01*
X57130000Y-201120000D02*
X57130000Y-191120000D01*
X60130000Y-201120000D02*
X60130000Y-191120000D01*
X67130000Y-178120000D02*
X77130000Y-178120000D01*
X67130000Y-181120000D02*
X77130000Y-181120000D01*
X67130000Y-184120000D02*
X77130000Y-184120000D01*
X67130000Y-208120000D02*
X71630000Y-208120000D01*
X68630000Y-211120000D02*
X67130000Y-211120000D01*
X68630000Y-214120000D02*
X68630000Y-211120000D01*
X71630000Y-214120000D02*
X71630000Y-208120000D01*
X84130000Y-191120000D02*
X84130000Y-201120000D01*
X87130000Y-191120000D02*
X87130000Y-201120000D01*
X90130000Y-191120000D02*
X90130000Y-201120000D01*
X54130000Y-191120000D02*
G75*
G02*
X67130000Y-178120000I13000001J-1D01*
G01*
X57130000Y-191120000D02*
G75*
G02*
X67130000Y-181120000I9999999J1D01*
G01*
X60130000Y-191120000D02*
G75*
G02*
X67130000Y-184120000I7000002J-2D01*
G01*
X65142690Y-214040927D02*
G75*
G02*
X54130000Y-201120000I2073564J12920928D01*
G01*
X67130000Y-208120000D02*
G75*
G02*
X60130000Y-201120000I2J7000002D01*
G01*
X67130000Y-211120000D02*
G75*
G02*
X57130000Y-201120000I-1J9999999D01*
G01*
X77130000Y-178120000D02*
G75*
G02*
X90130000Y-191120000I0J-13000000D01*
G01*
X77130000Y-181120000D02*
G75*
G02*
X87130000Y-191119999I0J-10000000D01*
G01*
X77130000Y-184120000D02*
G75*
G02*
X84130000Y-191120000I0J-7000000D01*
G01*
X77130000Y-214120000D02*
G75*
G02*
X77130000Y-208120000I0J3000000D01*
G01*
X84130000Y-201120000D02*
G75*
G02*
X77130000Y-208120000I-7000002J2D01*
G01*
X87058932Y-201191068D02*
G75*
G02*
X77130000Y-211120000I-9928933J1D01*
G01*
X90130000Y-201120000D02*
G75*
G02*
X77130000Y-214120000I-13000000J0D01*
G01*
X150630000Y-297620000D02*
X150630000Y-287620000D01*
X153630000Y-297620000D02*
X153630000Y-287620000D01*
X156630000Y-297620000D02*
X156630000Y-287620000D01*
X163630000Y-274620000D02*
X173630000Y-274620000D01*
X163630000Y-277620000D02*
X173630000Y-277620000D01*
X163630000Y-280620000D02*
X173630000Y-280620000D01*
X163630000Y-304620000D02*
X168130000Y-304620000D01*
X165130000Y-307620000D02*
X163630000Y-307620000D01*
X165130000Y-310620000D02*
X165130000Y-307620000D01*
X168130000Y-310620000D02*
X168130000Y-304620000D01*
X180630000Y-287620000D02*
X180630000Y-297620000D01*
X183630000Y-287620000D02*
X183630000Y-297620000D01*
X186630000Y-287620000D02*
X186630000Y-297620000D01*
X150630000Y-287620000D02*
G75*
G02*
X163630000Y-274620000I13000001J-1D01*
G01*
X153630000Y-287620000D02*
G75*
G02*
X163630000Y-277620000I9999999J1D01*
G01*
X156630000Y-287620000D02*
G75*
G02*
X163630000Y-280620000I7000002J-2D01*
G01*
X161642690Y-310540927D02*
G75*
G02*
X150630000Y-297620000I2073564J12920928D01*
G01*
X163630000Y-304620000D02*
G75*
G02*
X156630000Y-297620000I2J7000002D01*
G01*
X163630000Y-307620000D02*
G75*
G02*
X153630000Y-297620000I-1J9999999D01*
G01*
X173630000Y-274620000D02*
G75*
G02*
X186630000Y-287620000I0J-13000000D01*
G01*
X173630000Y-277620000D02*
G75*
G02*
X183630000Y-287619999I0J-10000000D01*
G01*
X173630000Y-280620000D02*
G75*
G02*
X180630000Y-287620000I0J-7000000D01*
G01*
X173630000Y-310620000D02*
G75*
G02*
X173630000Y-304620000I0J3000000D01*
G01*
X180630000Y-297620000D02*
G75*
G02*
X173630000Y-304620000I-7000002J2D01*
G01*
X183558932Y-297691068D02*
G75*
G02*
X173630000Y-307620000I-9928933J1D01*
G01*
X186630000Y-297620000D02*
G75*
G02*
X173630000Y-310620000I-13000000J0D01*
G01*
X54130000Y-297620000D02*
X54130000Y-287620000D01*
X57130000Y-297620000D02*
X57130000Y-287620000D01*
X60130000Y-297620000D02*
X60130000Y-287620000D01*
X67130000Y-274620000D02*
X77130000Y-274620000D01*
X67130000Y-277620000D02*
X77130000Y-277620000D01*
X67130000Y-280620000D02*
X77130000Y-280620000D01*
X67130000Y-304620000D02*
X71630000Y-304620000D01*
X68630000Y-307620000D02*
X67130000Y-307620000D01*
X68630000Y-310620000D02*
X68630000Y-307620000D01*
X71630000Y-310620000D02*
X71630000Y-304620000D01*
X84130000Y-287620000D02*
X84130000Y-297620000D01*
X87130000Y-287620000D02*
X87130000Y-297620000D01*
X90130000Y-287620000D02*
X90130000Y-297620000D01*
X54130000Y-287620000D02*
G75*
G02*
X67130000Y-274620000I13000001J-1D01*
G01*
X57130000Y-287620000D02*
G75*
G02*
X67130000Y-277620000I9999999J1D01*
G01*
X60130000Y-287620000D02*
G75*
G02*
X67130000Y-280620000I7000002J-2D01*
G01*
X65142690Y-310540927D02*
G75*
G02*
X54130000Y-297620000I2073564J12920928D01*
G01*
X67130000Y-304620000D02*
G75*
G02*
X60130000Y-297620000I2J7000002D01*
G01*
X67130000Y-307620000D02*
G75*
G02*
X57130000Y-297620000I-1J9999999D01*
G01*
X77130000Y-274620000D02*
G75*
G02*
X90130000Y-287620000I0J-13000000D01*
G01*
X77130000Y-277620000D02*
G75*
G02*
X87130000Y-287619999I0J-10000000D01*
G01*
X77130000Y-280620000D02*
G75*
G02*
X84130000Y-287620000I0J-7000000D01*
G01*
X77130000Y-310620000D02*
G75*
G02*
X77130000Y-304620000I0J3000000D01*
G01*
X84130000Y-297620000D02*
G75*
G02*
X77130000Y-304620000I-7000002J2D01*
G01*
X87058932Y-297691068D02*
G75*
G02*
X77130000Y-307620000I-9928933J1D01*
G01*
X90130000Y-297620000D02*
G75*
G02*
X77130000Y-310620000I-13000000J0D01*
G01*
X150630000Y-249370000D02*
X150630000Y-239370000D01*
X153630000Y-249370000D02*
X153630000Y-239370000D01*
X156630000Y-249370000D02*
X156630000Y-239370000D01*
X163630000Y-226370000D02*
X173630000Y-226370000D01*
X163630000Y-229370000D02*
X173630000Y-229370000D01*
X163630000Y-232370000D02*
X173630000Y-232370000D01*
X163630000Y-256370000D02*
X168130000Y-256370000D01*
X165130000Y-259370000D02*
X163630000Y-259370000D01*
X165130000Y-262370000D02*
X165130000Y-259370000D01*
X168130000Y-262370000D02*
X168130000Y-256370000D01*
X180630000Y-239370000D02*
X180630000Y-249370000D01*
X183630000Y-239370000D02*
X183630000Y-249370000D01*
X186630000Y-239370000D02*
X186630000Y-249370000D01*
X150630000Y-239370000D02*
G75*
G02*
X163630000Y-226370000I13000001J-1D01*
G01*
X153630000Y-239370000D02*
G75*
G02*
X163630000Y-229370000I9999999J1D01*
G01*
X156630000Y-239370000D02*
G75*
G02*
X163630000Y-232370000I7000002J-2D01*
G01*
X161642690Y-262290927D02*
G75*
G02*
X150630000Y-249370000I2073564J12920928D01*
G01*
X163630000Y-256370000D02*
G75*
G02*
X156630000Y-249370000I2J7000002D01*
G01*
X163630000Y-259370000D02*
G75*
G02*
X153630000Y-249370000I-1J9999999D01*
G01*
X173630000Y-226370000D02*
G75*
G02*
X186630000Y-239370000I0J-13000000D01*
G01*
X173630000Y-229370000D02*
G75*
G02*
X183630000Y-239369999I0J-10000000D01*
G01*
X173630000Y-232370000D02*
G75*
G02*
X180630000Y-239370000I0J-7000000D01*
G01*
X173630000Y-262370000D02*
G75*
G02*
X173630000Y-256370000I0J3000000D01*
G01*
X180630000Y-249370000D02*
G75*
G02*
X173630000Y-256370000I-7000002J2D01*
G01*
X183558932Y-249441068D02*
G75*
G02*
X173630000Y-259370000I-9928933J1D01*
G01*
X186630000Y-249370000D02*
G75*
G02*
X173630000Y-262370000I-13000000J0D01*
G01*
X198880000Y-152870000D02*
X198880000Y-142870000D01*
X201880000Y-152870000D02*
X201880000Y-142870000D01*
X204880000Y-152870000D02*
X204880000Y-142870000D01*
X211880000Y-129870000D02*
X221880000Y-129870000D01*
X211880000Y-132870000D02*
X221880000Y-132870000D01*
X211880000Y-135870000D02*
X221880000Y-135870000D01*
X211880000Y-159870000D02*
X216380000Y-159870000D01*
X213380000Y-162870000D02*
X211880000Y-162870000D01*
X213380000Y-165870000D02*
X213380000Y-162870000D01*
X216380000Y-165870000D02*
X216380000Y-159870000D01*
X228880000Y-142870000D02*
X228880000Y-152870000D01*
X231880000Y-142870000D02*
X231880000Y-152870000D01*
X234880000Y-142870000D02*
X234880000Y-152870000D01*
X198880000Y-142870000D02*
G75*
G02*
X211880000Y-129870000I13000001J-1D01*
G01*
X201880000Y-142870000D02*
G75*
G02*
X211880000Y-132870000I9999999J1D01*
G01*
X204880000Y-142870000D02*
G75*
G02*
X211880000Y-135870000I7000002J-2D01*
G01*
X209892690Y-165790927D02*
G75*
G02*
X198880000Y-152870000I2073564J12920928D01*
G01*
X211880000Y-159870000D02*
G75*
G02*
X204880000Y-152870000I2J7000002D01*
G01*
X211880000Y-162870000D02*
G75*
G02*
X201880000Y-152870000I-1J9999999D01*
G01*
X221880000Y-129870000D02*
G75*
G02*
X234880000Y-142870000I0J-13000000D01*
G01*
X221880000Y-132870000D02*
G75*
G02*
X231880000Y-142869999I0J-10000000D01*
G01*
X221880000Y-135870000D02*
G75*
G02*
X228880000Y-142870000I0J-7000000D01*
G01*
X221880000Y-165870000D02*
G75*
G02*
X221880000Y-159870000I0J3000000D01*
G01*
X228880000Y-152870000D02*
G75*
G02*
X221880000Y-159870000I-7000002J2D01*
G01*
X231808932Y-152941068D02*
G75*
G02*
X221880000Y-162870000I-9928933J1D01*
G01*
X234880000Y-152870000D02*
G75*
G02*
X221880000Y-165870000I-13000000J0D01*
G01*
X54130000Y-249370000D02*
X54130000Y-239370000D01*
X57130000Y-249370000D02*
X57130000Y-239370000D01*
X60130000Y-249370000D02*
X60130000Y-239370000D01*
X67130000Y-226370000D02*
X77130000Y-226370000D01*
X67130000Y-229370000D02*
X77130000Y-229370000D01*
X67130000Y-232370000D02*
X77130000Y-232370000D01*
X67130000Y-256370000D02*
X71630000Y-256370000D01*
X68630000Y-259370000D02*
X67130000Y-259370000D01*
X68630000Y-262370000D02*
X68630000Y-259370000D01*
X71630000Y-262370000D02*
X71630000Y-256370000D01*
X84130000Y-239370000D02*
X84130000Y-249370000D01*
X87130000Y-239370000D02*
X87130000Y-249370000D01*
X90130000Y-239370000D02*
X90130000Y-249370000D01*
X54130000Y-239370000D02*
G75*
G02*
X67130000Y-226370000I13000001J-1D01*
G01*
X57130000Y-239370000D02*
G75*
G02*
X67130000Y-229370000I9999999J1D01*
G01*
X60130000Y-239370000D02*
G75*
G02*
X67130000Y-232370000I7000002J-2D01*
G01*
X65142690Y-262290927D02*
G75*
G02*
X54130000Y-249370000I2073564J12920928D01*
G01*
X67130000Y-256370000D02*
G75*
G02*
X60130000Y-249370000I2J7000002D01*
G01*
X67130000Y-259370000D02*
G75*
G02*
X57130000Y-249370000I-1J9999999D01*
G01*
X77130000Y-226370000D02*
G75*
G02*
X90130000Y-239370000I0J-13000000D01*
G01*
X77130000Y-229370000D02*
G75*
G02*
X87130000Y-239369999I0J-10000000D01*
G01*
X77130000Y-232370000D02*
G75*
G02*
X84130000Y-239370000I0J-7000000D01*
G01*
X77130000Y-262370000D02*
G75*
G02*
X77130000Y-256370000I0J3000000D01*
G01*
X84130000Y-249370000D02*
G75*
G02*
X77130000Y-256370000I-7000002J2D01*
G01*
X87058932Y-249441068D02*
G75*
G02*
X77130000Y-259370000I-9928933J1D01*
G01*
X90130000Y-249370000D02*
G75*
G02*
X77130000Y-262370000I-13000000J0D01*
G01*
D18*
X117930000Y-290970000D03*
X117930000Y-294270000D03*
X122830000Y-294270000D03*
X122830000Y-290970000D03*
D19*
X214100000Y-68912500D03*
X214100000Y-70987500D03*
D20*
X214600000Y-79337500D03*
X214600000Y-77262500D03*
D21*
X200887500Y-78400000D03*
X198812500Y-78400000D03*
D22*
X216880000Y-171000000D03*
X216880000Y-173000000D03*
D20*
X201450000Y-74937500D03*
X201450000Y-72862500D03*
D23*
X113380000Y-262120000D03*
D24*
X116880000Y-262120000D03*
X119880000Y-262120000D03*
D25*
X230300000Y-124885000D03*
X230300000Y-123615000D03*
X230300000Y-122345000D03*
X230300000Y-121075000D03*
X230300000Y-119805000D03*
X230300000Y-118535000D03*
X230300000Y-117265000D03*
X230300000Y-115995000D03*
X230300000Y-114725000D03*
X230300000Y-113455000D03*
X230300000Y-112185000D03*
X230300000Y-110915000D03*
X221000000Y-110915000D03*
X221000000Y-112185000D03*
X221000000Y-113455000D03*
X221000000Y-114725000D03*
X221000000Y-115995000D03*
X221000000Y-117265000D03*
X221000000Y-118535000D03*
X221000000Y-119805000D03*
X221000000Y-121075000D03*
X221000000Y-122345000D03*
X221000000Y-123615000D03*
X221000000Y-124885000D03*
D21*
X66137500Y-146250000D03*
X64062500Y-146250000D03*
D22*
X120380000Y-267000000D03*
X120380000Y-269000000D03*
D18*
X69680000Y-146220000D03*
X69680000Y-149520000D03*
X74580000Y-149520000D03*
X74580000Y-146220000D03*
D20*
X217350000Y-75937500D03*
X217350000Y-73862500D03*
D23*
X113380000Y-165620000D03*
D24*
X116880000Y-165620000D03*
X119880000Y-165620000D03*
D26*
X198862500Y-80950000D03*
X200937500Y-80950000D03*
D21*
X218987500Y-71950000D03*
X216912500Y-71950000D03*
D22*
X120380000Y-219000000D03*
X120380000Y-221000000D03*
D27*
X194650000Y-80950000D03*
X196650000Y-80950000D03*
D22*
X72130000Y-267000000D03*
X72130000Y-269000000D03*
D23*
X113380000Y-310370000D03*
D24*
X116880000Y-310370000D03*
X119880000Y-310370000D03*
D28*
X192995000Y-70675000D03*
X192995000Y-71325000D03*
X192995000Y-71975000D03*
X192995000Y-72625000D03*
X192995000Y-73275000D03*
X192995000Y-73925000D03*
X192995000Y-74575000D03*
X192995000Y-75225000D03*
X192995000Y-75875000D03*
X192995000Y-76525000D03*
X198720000Y-76525000D03*
X198720000Y-75875000D03*
X198720000Y-75225000D03*
X198720000Y-74575000D03*
X198720000Y-73925000D03*
X198720000Y-73275000D03*
X198720000Y-72625000D03*
X198720000Y-71975000D03*
X198720000Y-71325000D03*
X198720000Y-70675000D03*
D26*
X208662500Y-75350000D03*
X210737500Y-75350000D03*
D23*
X113380000Y-213870000D03*
D24*
X116880000Y-213870000D03*
X119880000Y-213870000D03*
D29*
X223225600Y-97830000D03*
X223225600Y-99100000D03*
X223225600Y-100370000D03*
X223225600Y-101640000D03*
X223225600Y-102910000D03*
X223225600Y-104180000D03*
X223225600Y-105450000D03*
X223225600Y-106720000D03*
X227950000Y-106720000D03*
X227950000Y-105450000D03*
X227950000Y-104180000D03*
X227950000Y-102910000D03*
X227950000Y-101640000D03*
X227950000Y-100370000D03*
X227950000Y-99100000D03*
X227950000Y-97830000D03*
D20*
X201450000Y-70937500D03*
X201450000Y-68862500D03*
D23*
X161630000Y-213870000D03*
D24*
X165130000Y-213870000D03*
X168130000Y-213870000D03*
D18*
X214430000Y-290970000D03*
X214430000Y-294270000D03*
X219330000Y-294270000D03*
X219330000Y-290970000D03*
D30*
X48500000Y-225700000D03*
D31*
X48500000Y-223160000D03*
X48500000Y-220620000D03*
X48500000Y-218080000D03*
D18*
X166180000Y-194470000D03*
X166180000Y-197770000D03*
X171080000Y-197770000D03*
X171080000Y-194470000D03*
D22*
X168630000Y-315000000D03*
X168630000Y-317000000D03*
D30*
X240000000Y-218000000D03*
D31*
X240000000Y-220540000D03*
X240000000Y-223080000D03*
X240000000Y-225620000D03*
D32*
X212357500Y-73350000D03*
X212357500Y-73850000D03*
X212357500Y-74350000D03*
X212357500Y-74850000D03*
D33*
X213045000Y-75537500D03*
X213545000Y-75537500D03*
X214045000Y-75537500D03*
X214545000Y-75537500D03*
D32*
X215232500Y-74850000D03*
X215232500Y-74350000D03*
X215232500Y-73850000D03*
X215232500Y-73350000D03*
D33*
X214545000Y-72662500D03*
X214045000Y-72662500D03*
X213545000Y-72662500D03*
X213045000Y-72662500D03*
D34*
X213795000Y-74100000D03*
D22*
X168630000Y-219000000D03*
X168630000Y-221000000D03*
D23*
X209880000Y-310370000D03*
D24*
X213380000Y-310370000D03*
X216380000Y-310370000D03*
D18*
X214430000Y-242720000D03*
X214430000Y-246020000D03*
X219330000Y-246020000D03*
X219330000Y-242720000D03*
D22*
X72130000Y-315000000D03*
X72130000Y-317000000D03*
D18*
X166180000Y-146220000D03*
X166180000Y-149520000D03*
X171080000Y-149520000D03*
X171080000Y-146220000D03*
X166180000Y-242720000D03*
X166180000Y-246020000D03*
X171080000Y-246020000D03*
X171080000Y-242720000D03*
D22*
X120380000Y-315000000D03*
X120380000Y-317000000D03*
D23*
X65130000Y-165620000D03*
D24*
X68630000Y-165620000D03*
X71630000Y-165620000D03*
D20*
X190650000Y-77887500D03*
X190650000Y-75812500D03*
D23*
X209880000Y-213870000D03*
D24*
X213380000Y-213870000D03*
X216380000Y-213870000D03*
D20*
X203700000Y-74987500D03*
X203700000Y-72912500D03*
D31*
X229380000Y-68130000D03*
X229380000Y-75130000D03*
D35*
X233080000Y-69030000D03*
X225680000Y-67030000D03*
D36*
X225680000Y-76430000D03*
D18*
X214430000Y-194470000D03*
X214430000Y-197770000D03*
X219330000Y-197770000D03*
X219330000Y-194470000D03*
D23*
X209880000Y-262120000D03*
D24*
X213380000Y-262120000D03*
X216380000Y-262120000D03*
D22*
X216880000Y-219000000D03*
X216880000Y-221000000D03*
D19*
X188400000Y-69312500D03*
X188400000Y-71387500D03*
D22*
X216880000Y-267000000D03*
X216880000Y-269000000D03*
X168630000Y-267000000D03*
X168630000Y-269000000D03*
D18*
X117930000Y-146220000D03*
X117930000Y-149520000D03*
X122830000Y-149520000D03*
X122830000Y-146220000D03*
D22*
X216880000Y-315000000D03*
X216880000Y-317000000D03*
D37*
X127500000Y-80000000D03*
D38*
X132500000Y-80000000D03*
X127500000Y-94500000D03*
X132500000Y-94500000D03*
X130000000Y-94500000D03*
D39*
X124400000Y-87000000D03*
X135600000Y-87000000D03*
D21*
X210737500Y-73250000D03*
X208662500Y-73250000D03*
D23*
X161630000Y-165620000D03*
D24*
X165130000Y-165620000D03*
X168130000Y-165620000D03*
D30*
X74050000Y-78110000D03*
D31*
X74050000Y-80650000D03*
X74050000Y-83190000D03*
X74050000Y-85730000D03*
X74050000Y-88270000D03*
X74050000Y-90810000D03*
X74050000Y-93350000D03*
X74050000Y-95890000D03*
D18*
X117930000Y-194470000D03*
X117930000Y-197770000D03*
X122830000Y-197770000D03*
X122830000Y-194470000D03*
D19*
X183950000Y-69712500D03*
X183950000Y-71787500D03*
D22*
X72130000Y-171000000D03*
X72130000Y-173000000D03*
D18*
X69680000Y-194470000D03*
X69680000Y-197770000D03*
X74580000Y-197770000D03*
X74580000Y-194470000D03*
D19*
X188650000Y-75812500D03*
X188650000Y-77887500D03*
D23*
X65130000Y-213870000D03*
D24*
X68630000Y-213870000D03*
X71630000Y-213870000D03*
D23*
X161630000Y-310370000D03*
D24*
X165130000Y-310370000D03*
X168130000Y-310370000D03*
D23*
X65130000Y-310370000D03*
D24*
X68630000Y-310370000D03*
X71630000Y-310370000D03*
D22*
X72130000Y-219000000D03*
X72130000Y-221000000D03*
X168630000Y-171000000D03*
X168630000Y-173000000D03*
D18*
X117930000Y-242720000D03*
X117930000Y-246020000D03*
X122830000Y-246020000D03*
X122830000Y-242720000D03*
D21*
X190787500Y-73750000D03*
X188712500Y-73750000D03*
D23*
X161630000Y-262120000D03*
D24*
X165130000Y-262120000D03*
X168130000Y-262120000D03*
D18*
X214430000Y-146220000D03*
X214430000Y-149520000D03*
X219330000Y-149520000D03*
X219330000Y-146220000D03*
D21*
X218337500Y-124250000D03*
X216262500Y-124250000D03*
D23*
X209880000Y-165620000D03*
D24*
X213380000Y-165620000D03*
X216380000Y-165620000D03*
D20*
X190750000Y-71387500D03*
X190750000Y-69312500D03*
D19*
X203700000Y-68912500D03*
X203700000Y-70987500D03*
D40*
X78800000Y-146200000D03*
X76800000Y-146200000D03*
D22*
X120380000Y-171000000D03*
X120380000Y-173000000D03*
D18*
X69680000Y-290970000D03*
X69680000Y-294270000D03*
X74580000Y-294270000D03*
X74580000Y-290970000D03*
D23*
X65130000Y-262120000D03*
D24*
X68630000Y-262120000D03*
X71630000Y-262120000D03*
D18*
X69680000Y-242720000D03*
X69680000Y-246020000D03*
X74580000Y-246020000D03*
X74580000Y-242720000D03*
X166180000Y-290970000D03*
X166180000Y-294270000D03*
X171080000Y-294270000D03*
X171080000Y-290970000D03*
D27*
X194650000Y-78400000D03*
X196650000Y-78400000D03*
%LPD*%
M02*
