G04 #@! TF.GenerationSoftware,KiCad,Pcbnew,9.0.1*
G04 #@! TF.CreationDate,2025-08-16T12:46:55+08:00*
G04 #@! TF.ProjectId,final version,66696e61-6c20-4766-9572-73696f6e2e6b,rev?*
G04 #@! TF.SameCoordinates,Original*
G04 #@! TF.FileFunction,Soldermask,Bot*
G04 #@! TF.FilePolarity,Negative*
%FSLAX46Y46*%
G04 Gerber Fmt 4.6, Leading zero omitted, Abs format (unit mm)*
G04 Created by KiCad (PCBNEW 9.0.1) date 2025-08-16 12:46:55*
%MOMM*%
%LPD*%
G01*
G04 APERTURE LIST*
G04 Aperture macros list*
%AMRoundRect*
0 Rectangle with rounded corners*
0 $1 Rounding radius*
0 $2 $3 $4 $5 $6 $7 $8 $9 X,Y pos of 4 corners*
0 Add a 4 corners polygon primitive as box body*
4,1,4,$2,$3,$4,$5,$6,$7,$8,$9,$2,$3,0*
0 Add four circle primitives for the rounded corners*
1,1,$1+$1,$2,$3*
1,1,$1+$1,$4,$5*
1,1,$1+$1,$6,$7*
1,1,$1+$1,$8,$9*
0 Add four rect primitives between the rounded corners*
20,1,$1+$1,$2,$3,$4,$5,0*
20,1,$1+$1,$4,$5,$6,$7,0*
20,1,$1+$1,$6,$7,$8,$9,0*
20,1,$1+$1,$8,$9,$2,$3,0*%
G04 Aperture macros list end*
%ADD10R,1.700000X1.700000*%
%ADD11C,1.700000*%
%ADD12RoundRect,0.102000X-0.900000X-0.900000X0.900000X-0.900000X0.900000X0.900000X-0.900000X0.900000X0*%
%ADD13C,2.004000*%
%ADD14O,3.204000X6.204000*%
%ADD15RoundRect,0.250000X0.337500X0.475000X-0.337500X0.475000X-0.337500X-0.475000X0.337500X-0.475000X0*%
%ADD16R,2.286000X0.558800*%
%ADD17R,1.000000X3.000000*%
G04 APERTURE END LIST*
D10*
X48500000Y-225700000D03*
D11*
X48500000Y-223160000D03*
X48500000Y-220620000D03*
X48500000Y-218080000D03*
D10*
X240000000Y-218000000D03*
D11*
X240000000Y-220540000D03*
X240000000Y-223080000D03*
X240000000Y-225620000D03*
X229380000Y-68130000D03*
X229380000Y-75130000D03*
D12*
X127500000Y-80000000D03*
D13*
X132500000Y-80000000D03*
X127500000Y-94500000D03*
X132500000Y-94500000D03*
X130000000Y-94500000D03*
D14*
X124400000Y-87000000D03*
X135600000Y-87000000D03*
D10*
X74050000Y-78110000D03*
D11*
X74050000Y-80650000D03*
X74050000Y-83190000D03*
X74050000Y-85730000D03*
X74050000Y-88270000D03*
X74050000Y-90810000D03*
X74050000Y-93350000D03*
X74050000Y-95890000D03*
D15*
X143737500Y-111850000D03*
X141662500Y-111850000D03*
D16*
X151413000Y-110555000D03*
X151413000Y-111825000D03*
X151413000Y-113095000D03*
X151413000Y-114365000D03*
X151413000Y-115635000D03*
X151413000Y-116905000D03*
X151413000Y-118175000D03*
X151413000Y-119445000D03*
X146587000Y-119445000D03*
X146587000Y-118175000D03*
X146587000Y-116905000D03*
X146587000Y-115635000D03*
X146587000Y-114365000D03*
X146587000Y-113095000D03*
X146587000Y-111825000D03*
X146587000Y-110555000D03*
D17*
X121130000Y-114230000D03*
X121130000Y-119270000D03*
X118590000Y-114230000D03*
X118590000Y-119270000D03*
X116050000Y-114230000D03*
X116050000Y-119270000D03*
X113510000Y-114230000D03*
X113510000Y-119270000D03*
X110970000Y-114230000D03*
X110970000Y-119270000D03*
X108430000Y-114230000D03*
X108430000Y-119270000D03*
X105890000Y-114230000D03*
X105890000Y-119270000D03*
X103350000Y-114230000D03*
X103350000Y-119270000D03*
X100810000Y-114230000D03*
X100810000Y-119270000D03*
X98270000Y-114230000D03*
X98270000Y-119270000D03*
X95730000Y-114230000D03*
X95730000Y-119270000D03*
X93190000Y-114230000D03*
X93190000Y-119270000D03*
X90650000Y-114230000D03*
X90650000Y-119270000D03*
X88110000Y-114230000D03*
X88110000Y-119270000D03*
X85570000Y-114230000D03*
X85570000Y-119270000D03*
X83030000Y-114230000D03*
X83030000Y-119270000D03*
X80490000Y-114230000D03*
X80490000Y-119270000D03*
X77950000Y-114230000D03*
X77950000Y-119270000D03*
X75410000Y-114230000D03*
X75410000Y-119270000D03*
X72870000Y-114230000D03*
X72870000Y-119270000D03*
M02*
