%TF.GenerationSoftware,KiCad,Pcbnew,9.0.1*%
%TF.CreationDate,2025-08-16T12:46:44+08:00*%
%TF.ProjectId,final version,66696e61-6c20-4766-9572-73696f6e2e6b,rev?*%
%TF.SameCoordinates,Original*%
%TF.FileFunction,Drillmap*%
%TF.FilePolarity,Positive*%
%FSLAX45Y45*%
G04 Gerber Fmt 4.5, Leading zero omitted, Abs format (unit mm)*
G04 Created by KiCad (PCBNEW 9.0.1) date 2025-08-16 12:46:44*
%MOMM*%
%LPD*%
G01*
G04 APERTURE LIST*
%ADD10C,0.050000*%
%ADD11C,0.200000*%
%ADD12C,0.100000*%
%ADD13C,0.120000*%
G04 APERTURE END LIST*
D10*
X24400000Y-6725000D02*
X24400000Y-30025000D01*
D11*
X7624500Y-7176000D02*
G75*
G02*
X7184500Y-7176000I-220000J0D01*
G01*
X7184500Y-7176000D02*
G75*
G02*
X7624500Y-7176000I220000J0D01*
G01*
D10*
X6450000Y-32025000D02*
X22400000Y-32025000D01*
D11*
X7624500Y-10224000D02*
G75*
G02*
X7184500Y-10224000I-220000J0D01*
G01*
X7184500Y-10224000D02*
G75*
G02*
X7624500Y-10224000I220000J0D01*
G01*
D10*
X4450000Y-12330000D02*
G75*
G02*
X4750000Y-12030000I300000J0D01*
G01*
X6700000Y-11945000D02*
G75*
G02*
X6615000Y-12030000I-85000J0D01*
G01*
D11*
X24200000Y-6825000D02*
G75*
G02*
X23800000Y-6825000I-200000J0D01*
G01*
X23800000Y-6825000D02*
G75*
G02*
X24200000Y-6825000I200000J0D01*
G01*
D10*
X4750000Y-12030000D02*
X6615000Y-12030000D01*
X24400000Y-30025000D02*
G75*
G02*
X22400000Y-32025000I-2000000J0D01*
G01*
D11*
X11815500Y-10224000D02*
G75*
G02*
X11375500Y-10224000I-220000J0D01*
G01*
X11375500Y-10224000D02*
G75*
G02*
X11815500Y-10224000I220000J0D01*
G01*
D10*
X6700000Y-6720000D02*
G75*
G02*
X7000000Y-6420000I300000J0D01*
G01*
X6450000Y-32025000D02*
G75*
G02*
X4450000Y-30025000I0J2000000D01*
G01*
D11*
X11815500Y-7176000D02*
G75*
G02*
X11375500Y-7176000I-220000J0D01*
G01*
X11375500Y-7176000D02*
G75*
G02*
X11815500Y-7176000I220000J0D01*
G01*
D10*
X4450000Y-12330000D02*
X4450000Y-30025000D01*
X7000000Y-6420000D02*
X24100000Y-6425000D01*
D11*
X23800000Y-31225000D02*
G75*
G02*
X23400000Y-31225000I-200000J0D01*
G01*
X23400000Y-31225000D02*
G75*
G02*
X23800000Y-31225000I200000J0D01*
G01*
D10*
X6700000Y-6720000D02*
X6700000Y-11945000D01*
D11*
X5450000Y-31225000D02*
G75*
G02*
X5050000Y-31225000I-200000J0D01*
G01*
X5050000Y-31225000D02*
G75*
G02*
X5450000Y-31225000I200000J0D01*
G01*
D10*
X24100000Y-6425000D02*
G75*
G02*
X24400000Y-6725000I0J-300000D01*
G01*
D11*
D12*
X21314500Y-7345000D02*
X21334500Y-7365000D01*
X21334500Y-7345000D02*
X21314500Y-7365000D01*
X21314500Y-7455000D02*
X21334500Y-7475000D01*
X21334500Y-7455000D02*
X21314500Y-7475000D01*
X21424500Y-7345000D02*
X21444500Y-7365000D01*
X21444500Y-7345000D02*
X21424500Y-7365000D01*
X21424500Y-7455000D02*
X21444500Y-7475000D01*
X21444500Y-7455000D02*
X21424500Y-7475000D01*
X5065000Y-16890000D02*
G75*
G02*
X5035000Y-16890000I-15000J0D01*
G01*
X5035000Y-16890000D02*
G75*
G02*
X5065000Y-16890000I15000J0D01*
G01*
X5125000Y-16995000D02*
G75*
G02*
X5095000Y-16995000I-15000J0D01*
G01*
X5095000Y-16995000D02*
G75*
G02*
X5125000Y-16995000I15000J0D01*
G01*
X5185000Y-17095000D02*
G75*
G02*
X5155000Y-17095000I-15000J0D01*
G01*
X5155000Y-17095000D02*
G75*
G02*
X5185000Y-17095000I15000J0D01*
G01*
X5235000Y-26835000D02*
G75*
G02*
X5205000Y-26835000I-15000J0D01*
G01*
X5205000Y-26835000D02*
G75*
G02*
X5235000Y-26835000I15000J0D01*
G01*
X5235000Y-26945000D02*
G75*
G02*
X5205000Y-26945000I-15000J0D01*
G01*
X5205000Y-26945000D02*
G75*
G02*
X5235000Y-26945000I15000J0D01*
G01*
X5235000Y-27065000D02*
G75*
G02*
X5205000Y-27065000I-15000J0D01*
G01*
X5205000Y-27065000D02*
G75*
G02*
X5235000Y-27065000I15000J0D01*
G01*
X5245000Y-17255000D02*
G75*
G02*
X5215000Y-17255000I-15000J0D01*
G01*
X5215000Y-17255000D02*
G75*
G02*
X5245000Y-17255000I15000J0D01*
G01*
X6525000Y-16890000D02*
G75*
G02*
X6495000Y-16890000I-15000J0D01*
G01*
X6495000Y-16890000D02*
G75*
G02*
X6525000Y-16890000I15000J0D01*
G01*
X6525000Y-31375000D02*
G75*
G02*
X6495000Y-31375000I-15000J0D01*
G01*
X6495000Y-31375000D02*
G75*
G02*
X6525000Y-31375000I15000J0D01*
G01*
X6530000Y-21680000D02*
G75*
G02*
X6500000Y-21680000I-15000J0D01*
G01*
X6500000Y-21680000D02*
G75*
G02*
X6530000Y-21680000I15000J0D01*
G01*
X6540000Y-22215000D02*
G75*
G02*
X6510000Y-22215000I-15000J0D01*
G01*
X6510000Y-22215000D02*
G75*
G02*
X6540000Y-22215000I15000J0D01*
G01*
X6670000Y-22310000D02*
G75*
G02*
X6640000Y-22310000I-15000J0D01*
G01*
X6640000Y-22310000D02*
G75*
G02*
X6670000Y-22310000I15000J0D01*
G01*
X6750000Y-28985000D02*
G75*
G02*
X6720000Y-28985000I-15000J0D01*
G01*
X6720000Y-28985000D02*
G75*
G02*
X6750000Y-28985000I15000J0D01*
G01*
X6760000Y-24155000D02*
G75*
G02*
X6730000Y-24155000I-15000J0D01*
G01*
X6730000Y-24155000D02*
G75*
G02*
X6760000Y-24155000I15000J0D01*
G01*
X6765000Y-19330000D02*
G75*
G02*
X6735000Y-19330000I-15000J0D01*
G01*
X6735000Y-19330000D02*
G75*
G02*
X6765000Y-19330000I15000J0D01*
G01*
X6775000Y-14500000D02*
G75*
G02*
X6745000Y-14500000I-15000J0D01*
G01*
X6745000Y-14500000D02*
G75*
G02*
X6775000Y-14500000I15000J0D01*
G01*
X6810000Y-14995000D02*
G75*
G02*
X6780000Y-14995000I-15000J0D01*
G01*
X6780000Y-14995000D02*
G75*
G02*
X6810000Y-14995000I15000J0D01*
G01*
X6810000Y-24645000D02*
G75*
G02*
X6780000Y-24645000I-15000J0D01*
G01*
X6780000Y-24645000D02*
G75*
G02*
X6810000Y-24645000I15000J0D01*
G01*
X6980000Y-20000000D02*
G75*
G02*
X6950000Y-20000000I-15000J0D01*
G01*
X6950000Y-20000000D02*
G75*
G02*
X6980000Y-20000000I15000J0D01*
G01*
X7015000Y-11910000D02*
G75*
G02*
X6985000Y-11910000I-15000J0D01*
G01*
X6985000Y-11910000D02*
G75*
G02*
X7015000Y-11910000I15000J0D01*
G01*
X7077326Y-11025100D02*
G75*
G02*
X7047326Y-11025100I-15000J0D01*
G01*
X7047326Y-11025100D02*
G75*
G02*
X7077326Y-11025100I15000J0D01*
G01*
X7473000Y-14952000D02*
G75*
G02*
X7443000Y-14952000I-15000J0D01*
G01*
X7443000Y-14952000D02*
G75*
G02*
X7473000Y-14952000I15000J0D01*
G01*
X7473000Y-19777000D02*
G75*
G02*
X7443000Y-19777000I-15000J0D01*
G01*
X7443000Y-19777000D02*
G75*
G02*
X7473000Y-19777000I15000J0D01*
G01*
X7473000Y-24602000D02*
G75*
G02*
X7443000Y-24602000I-15000J0D01*
G01*
X7443000Y-24602000D02*
G75*
G02*
X7473000Y-24602000I15000J0D01*
G01*
X7473000Y-29427000D02*
G75*
G02*
X7443000Y-29427000I-15000J0D01*
G01*
X7443000Y-29427000D02*
G75*
G02*
X7473000Y-29427000I15000J0D01*
G01*
X7475000Y-24010000D02*
G75*
G02*
X7445000Y-24010000I-15000J0D01*
G01*
X7445000Y-24010000D02*
G75*
G02*
X7475000Y-24010000I15000J0D01*
G01*
X7645000Y-19445000D02*
G75*
G02*
X7615000Y-19445000I-15000J0D01*
G01*
X7615000Y-19445000D02*
G75*
G02*
X7645000Y-19445000I15000J0D01*
G01*
X7685000Y-29095000D02*
G75*
G02*
X7655000Y-29095000I-15000J0D01*
G01*
X7655000Y-29095000D02*
G75*
G02*
X7685000Y-29095000I15000J0D01*
G01*
X8075000Y-14110000D02*
G75*
G02*
X8045000Y-14110000I-15000J0D01*
G01*
X8045000Y-14110000D02*
G75*
G02*
X8075000Y-14110000I15000J0D01*
G01*
X8095000Y-10660000D02*
G75*
G02*
X8065000Y-10660000I-15000J0D01*
G01*
X8065000Y-10660000D02*
G75*
G02*
X8095000Y-10660000I15000J0D01*
G01*
X8315000Y-11080000D02*
G75*
G02*
X8285000Y-11080000I-15000J0D01*
G01*
X8285000Y-11080000D02*
G75*
G02*
X8315000Y-11080000I15000J0D01*
G01*
X8360000Y-10675000D02*
G75*
G02*
X8330000Y-10675000I-15000J0D01*
G01*
X8330000Y-10675000D02*
G75*
G02*
X8360000Y-10675000I15000J0D01*
G01*
X8410000Y-10100000D02*
G75*
G02*
X8380000Y-10100000I-15000J0D01*
G01*
X8380000Y-10100000D02*
G75*
G02*
X8410000Y-10100000I15000J0D01*
G01*
X8570000Y-11140000D02*
G75*
G02*
X8540000Y-11140000I-15000J0D01*
G01*
X8540000Y-11140000D02*
G75*
G02*
X8570000Y-11140000I15000J0D01*
G01*
X8780000Y-9825000D02*
G75*
G02*
X8750000Y-9825000I-15000J0D01*
G01*
X8750000Y-9825000D02*
G75*
G02*
X8780000Y-9825000I15000J0D01*
G01*
X8860000Y-9755000D02*
G75*
G02*
X8830000Y-9755000I-15000J0D01*
G01*
X8830000Y-9755000D02*
G75*
G02*
X8860000Y-9755000I15000J0D01*
G01*
X9460000Y-11035000D02*
G75*
G02*
X9430000Y-11035000I-15000J0D01*
G01*
X9430000Y-11035000D02*
G75*
G02*
X9460000Y-11035000I15000J0D01*
G01*
X10095000Y-11035000D02*
G75*
G02*
X10065000Y-11035000I-15000J0D01*
G01*
X10065000Y-11035000D02*
G75*
G02*
X10095000Y-11035000I15000J0D01*
G01*
X10350000Y-11610000D02*
G75*
G02*
X10320000Y-11610000I-15000J0D01*
G01*
X10320000Y-11610000D02*
G75*
G02*
X10350000Y-11610000I15000J0D01*
G01*
X10350000Y-12190000D02*
G75*
G02*
X10320000Y-12190000I-15000J0D01*
G01*
X10320000Y-12190000D02*
G75*
G02*
X10350000Y-12190000I15000J0D01*
G01*
X10600000Y-11100000D02*
G75*
G02*
X10570000Y-11100000I-15000J0D01*
G01*
X10570000Y-11100000D02*
G75*
G02*
X10600000Y-11100000I15000J0D01*
G01*
X10850000Y-11080000D02*
G75*
G02*
X10820000Y-11080000I-15000J0D01*
G01*
X10820000Y-11080000D02*
G75*
G02*
X10850000Y-11080000I15000J0D01*
G01*
X11112000Y-11927000D02*
G75*
G02*
X11082000Y-11927000I-15000J0D01*
G01*
X11082000Y-11927000D02*
G75*
G02*
X11112000Y-11927000I15000J0D01*
G01*
X11220000Y-23560000D02*
G75*
G02*
X11190000Y-23560000I-15000J0D01*
G01*
X11190000Y-23560000D02*
G75*
G02*
X11220000Y-23560000I15000J0D01*
G01*
X11350000Y-26570000D02*
G75*
G02*
X11320000Y-26570000I-15000J0D01*
G01*
X11320000Y-26570000D02*
G75*
G02*
X11350000Y-26570000I15000J0D01*
G01*
X11355000Y-16960000D02*
G75*
G02*
X11325000Y-16960000I-15000J0D01*
G01*
X11325000Y-16960000D02*
G75*
G02*
X11355000Y-16960000I15000J0D01*
G01*
X11355000Y-21680000D02*
G75*
G02*
X11325000Y-21680000I-15000J0D01*
G01*
X11325000Y-21680000D02*
G75*
G02*
X11355000Y-21680000I15000J0D01*
G01*
X11355000Y-31525000D02*
G75*
G02*
X11325000Y-31525000I-15000J0D01*
G01*
X11325000Y-31525000D02*
G75*
G02*
X11355000Y-31525000I15000J0D01*
G01*
X11366000Y-11927000D02*
G75*
G02*
X11336000Y-11927000I-15000J0D01*
G01*
X11336000Y-11927000D02*
G75*
G02*
X11366000Y-11927000I15000J0D01*
G01*
X11510000Y-11540000D02*
G75*
G02*
X11480000Y-11540000I-15000J0D01*
G01*
X11480000Y-11540000D02*
G75*
G02*
X11510000Y-11540000I15000J0D01*
G01*
X11580000Y-28985000D02*
G75*
G02*
X11550000Y-28985000I-15000J0D01*
G01*
X11550000Y-28985000D02*
G75*
G02*
X11580000Y-28985000I15000J0D01*
G01*
X11587500Y-24157500D02*
G75*
G02*
X11557500Y-24157500I-15000J0D01*
G01*
X11557500Y-24157500D02*
G75*
G02*
X11587500Y-24157500I15000J0D01*
G01*
X11595000Y-19335000D02*
G75*
G02*
X11565000Y-19335000I-15000J0D01*
G01*
X11565000Y-19335000D02*
G75*
G02*
X11595000Y-19335000I15000J0D01*
G01*
X11600000Y-14500000D02*
G75*
G02*
X11570000Y-14500000I-15000J0D01*
G01*
X11570000Y-14500000D02*
G75*
G02*
X11600000Y-14500000I15000J0D01*
G01*
X11615000Y-29475000D02*
G75*
G02*
X11585000Y-29475000I-15000J0D01*
G01*
X11585000Y-29475000D02*
G75*
G02*
X11615000Y-29475000I15000J0D01*
G01*
X11635000Y-14995000D02*
G75*
G02*
X11605000Y-14995000I-15000J0D01*
G01*
X11605000Y-14995000D02*
G75*
G02*
X11635000Y-14995000I15000J0D01*
G01*
X11635000Y-24650000D02*
G75*
G02*
X11605000Y-24650000I-15000J0D01*
G01*
X11605000Y-24650000D02*
G75*
G02*
X11635000Y-24650000I15000J0D01*
G01*
X11640000Y-19820000D02*
G75*
G02*
X11610000Y-19820000I-15000J0D01*
G01*
X11610000Y-19820000D02*
G75*
G02*
X11640000Y-19820000I15000J0D01*
G01*
X12298000Y-14952000D02*
G75*
G02*
X12268000Y-14952000I-15000J0D01*
G01*
X12268000Y-14952000D02*
G75*
G02*
X12298000Y-14952000I15000J0D01*
G01*
X12298000Y-19777000D02*
G75*
G02*
X12268000Y-19777000I-15000J0D01*
G01*
X12268000Y-19777000D02*
G75*
G02*
X12298000Y-19777000I15000J0D01*
G01*
X12298000Y-24602000D02*
G75*
G02*
X12268000Y-24602000I-15000J0D01*
G01*
X12268000Y-24602000D02*
G75*
G02*
X12298000Y-24602000I15000J0D01*
G01*
X12298000Y-29427000D02*
G75*
G02*
X12268000Y-29427000I-15000J0D01*
G01*
X12268000Y-29427000D02*
G75*
G02*
X12298000Y-29427000I15000J0D01*
G01*
X12350000Y-12535300D02*
G75*
G02*
X12320000Y-12535300I-15000J0D01*
G01*
X12320000Y-12535300D02*
G75*
G02*
X12350000Y-12535300I15000J0D01*
G01*
X12430000Y-12600000D02*
G75*
G02*
X12400000Y-12600000I-15000J0D01*
G01*
X12400000Y-12600000D02*
G75*
G02*
X12430000Y-12600000I15000J0D01*
G01*
X12462500Y-14582500D02*
G75*
G02*
X12432500Y-14582500I-15000J0D01*
G01*
X12432500Y-14582500D02*
G75*
G02*
X12462500Y-14582500I15000J0D01*
G01*
X12470000Y-19445000D02*
G75*
G02*
X12440000Y-19445000I-15000J0D01*
G01*
X12440000Y-19445000D02*
G75*
G02*
X12470000Y-19445000I15000J0D01*
G01*
X12470000Y-24270000D02*
G75*
G02*
X12440000Y-24270000I-15000J0D01*
G01*
X12440000Y-24270000D02*
G75*
G02*
X12470000Y-24270000I15000J0D01*
G01*
X12500000Y-11635000D02*
G75*
G02*
X12470000Y-11635000I-15000J0D01*
G01*
X12470000Y-11635000D02*
G75*
G02*
X12500000Y-11635000I15000J0D01*
G01*
X12500000Y-29100000D02*
G75*
G02*
X12470000Y-29100000I-15000J0D01*
G01*
X12470000Y-29100000D02*
G75*
G02*
X12500000Y-29100000I15000J0D01*
G01*
X12530000Y-12670000D02*
G75*
G02*
X12500000Y-12670000I-15000J0D01*
G01*
X12500000Y-12670000D02*
G75*
G02*
X12530000Y-12670000I15000J0D01*
G01*
X12535000Y-11990000D02*
G75*
G02*
X12505000Y-11990000I-15000J0D01*
G01*
X12505000Y-11990000D02*
G75*
G02*
X12535000Y-11990000I15000J0D01*
G01*
X12610000Y-12735000D02*
G75*
G02*
X12580000Y-12735000I-15000J0D01*
G01*
X12580000Y-12735000D02*
G75*
G02*
X12610000Y-12735000I15000J0D01*
G01*
X13050000Y-14290000D02*
G75*
G02*
X13020000Y-14290000I-15000J0D01*
G01*
X13020000Y-14290000D02*
G75*
G02*
X13050000Y-14290000I15000J0D01*
G01*
X13691378Y-11316084D02*
G75*
G02*
X13661378Y-11316084I-15000J0D01*
G01*
X13661378Y-11316084D02*
G75*
G02*
X13691378Y-11316084I15000J0D01*
G01*
X13692573Y-11232426D02*
G75*
G02*
X13662573Y-11232426I-15000J0D01*
G01*
X13662573Y-11232426D02*
G75*
G02*
X13692573Y-11232426I15000J0D01*
G01*
X13695000Y-11150000D02*
G75*
G02*
X13665000Y-11150000I-15000J0D01*
G01*
X13665000Y-11150000D02*
G75*
G02*
X13695000Y-11150000I15000J0D01*
G01*
X14075000Y-14300000D02*
G75*
G02*
X14045000Y-14300000I-15000J0D01*
G01*
X14045000Y-14300000D02*
G75*
G02*
X14075000Y-14300000I15000J0D01*
G01*
X14335000Y-11810000D02*
G75*
G02*
X14305000Y-11810000I-15000J0D01*
G01*
X14305000Y-11810000D02*
G75*
G02*
X14335000Y-11810000I15000J0D01*
G01*
X14395000Y-11440000D02*
G75*
G02*
X14365000Y-11440000I-15000J0D01*
G01*
X14365000Y-11440000D02*
G75*
G02*
X14395000Y-11440000I15000J0D01*
G01*
X14395000Y-11560000D02*
G75*
G02*
X14365000Y-11560000I-15000J0D01*
G01*
X14365000Y-11560000D02*
G75*
G02*
X14395000Y-11560000I15000J0D01*
G01*
X14395000Y-11690000D02*
G75*
G02*
X14365000Y-11690000I-15000J0D01*
G01*
X14365000Y-11690000D02*
G75*
G02*
X14395000Y-11690000I15000J0D01*
G01*
X14515000Y-12535300D02*
G75*
G02*
X14485000Y-12535300I-15000J0D01*
G01*
X14485000Y-12535300D02*
G75*
G02*
X14515000Y-12535300I15000J0D01*
G01*
X14560000Y-10760000D02*
G75*
G02*
X14530000Y-10760000I-15000J0D01*
G01*
X14530000Y-10760000D02*
G75*
G02*
X14560000Y-10760000I15000J0D01*
G01*
X14673700Y-11055500D02*
G75*
G02*
X14643700Y-11055500I-15000J0D01*
G01*
X14643700Y-11055500D02*
G75*
G02*
X14673700Y-11055500I15000J0D01*
G01*
X14673700Y-11309500D02*
G75*
G02*
X14643700Y-11309500I-15000J0D01*
G01*
X14643700Y-11309500D02*
G75*
G02*
X14673700Y-11309500I15000J0D01*
G01*
X14673700Y-11944500D02*
G75*
G02*
X14643700Y-11944500I-15000J0D01*
G01*
X14643700Y-11944500D02*
G75*
G02*
X14673700Y-11944500I15000J0D01*
G01*
X15000000Y-10685000D02*
G75*
G02*
X14970000Y-10685000I-15000J0D01*
G01*
X14970000Y-10685000D02*
G75*
G02*
X15000000Y-10685000I15000J0D01*
G01*
X15010000Y-10605000D02*
G75*
G02*
X14980000Y-10605000I-15000J0D01*
G01*
X14980000Y-10605000D02*
G75*
G02*
X15010000Y-10605000I15000J0D01*
G01*
X15390000Y-12010000D02*
G75*
G02*
X15360000Y-12010000I-15000J0D01*
G01*
X15360000Y-12010000D02*
G75*
G02*
X15390000Y-12010000I15000J0D01*
G01*
X16175000Y-26570000D02*
G75*
G02*
X16145000Y-26570000I-15000J0D01*
G01*
X16145000Y-26570000D02*
G75*
G02*
X16175000Y-26570000I15000J0D01*
G01*
X16180000Y-16935000D02*
G75*
G02*
X16150000Y-16935000I-15000J0D01*
G01*
X16150000Y-16935000D02*
G75*
G02*
X16180000Y-16935000I15000J0D01*
G01*
X16185000Y-31690000D02*
G75*
G02*
X16155000Y-31690000I-15000J0D01*
G01*
X16155000Y-31690000D02*
G75*
G02*
X16185000Y-31690000I15000J0D01*
G01*
X16190000Y-21645000D02*
G75*
G02*
X16160000Y-21645000I-15000J0D01*
G01*
X16160000Y-21645000D02*
G75*
G02*
X16190000Y-21645000I15000J0D01*
G01*
X16405000Y-28985000D02*
G75*
G02*
X16375000Y-28985000I-15000J0D01*
G01*
X16375000Y-28985000D02*
G75*
G02*
X16405000Y-28985000I15000J0D01*
G01*
X16415000Y-24160000D02*
G75*
G02*
X16385000Y-24160000I-15000J0D01*
G01*
X16385000Y-24160000D02*
G75*
G02*
X16415000Y-24160000I15000J0D01*
G01*
X16420000Y-19335000D02*
G75*
G02*
X16390000Y-19335000I-15000J0D01*
G01*
X16390000Y-19335000D02*
G75*
G02*
X16420000Y-19335000I15000J0D01*
G01*
X16425000Y-14500000D02*
G75*
G02*
X16395000Y-14500000I-15000J0D01*
G01*
X16395000Y-14500000D02*
G75*
G02*
X16425000Y-14500000I15000J0D01*
G01*
X16435000Y-29480000D02*
G75*
G02*
X16405000Y-29480000I-15000J0D01*
G01*
X16405000Y-29480000D02*
G75*
G02*
X16435000Y-29480000I15000J0D01*
G01*
X16465000Y-14995000D02*
G75*
G02*
X16435000Y-14995000I-15000J0D01*
G01*
X16435000Y-14995000D02*
G75*
G02*
X16465000Y-14995000I15000J0D01*
G01*
X16465000Y-19825000D02*
G75*
G02*
X16435000Y-19825000I-15000J0D01*
G01*
X16435000Y-19825000D02*
G75*
G02*
X16465000Y-19825000I15000J0D01*
G01*
X16467500Y-24637500D02*
G75*
G02*
X16437500Y-24637500I-15000J0D01*
G01*
X16437500Y-24637500D02*
G75*
G02*
X16467500Y-24637500I15000J0D01*
G01*
X17100000Y-12040000D02*
G75*
G02*
X17070000Y-12040000I-15000J0D01*
G01*
X17070000Y-12040000D02*
G75*
G02*
X17100000Y-12040000I15000J0D01*
G01*
X17100000Y-12165000D02*
G75*
G02*
X17070000Y-12165000I-15000J0D01*
G01*
X17070000Y-12165000D02*
G75*
G02*
X17100000Y-12165000I15000J0D01*
G01*
X17100000Y-12280000D02*
G75*
G02*
X17070000Y-12280000I-15000J0D01*
G01*
X17070000Y-12280000D02*
G75*
G02*
X17100000Y-12280000I15000J0D01*
G01*
X17105000Y-12445000D02*
G75*
G02*
X17075000Y-12445000I-15000J0D01*
G01*
X17075000Y-12445000D02*
G75*
G02*
X17105000Y-12445000I15000J0D01*
G01*
X17123000Y-14952000D02*
G75*
G02*
X17093000Y-14952000I-15000J0D01*
G01*
X17093000Y-14952000D02*
G75*
G02*
X17123000Y-14952000I15000J0D01*
G01*
X17123000Y-19777000D02*
G75*
G02*
X17093000Y-19777000I-15000J0D01*
G01*
X17093000Y-19777000D02*
G75*
G02*
X17123000Y-19777000I15000J0D01*
G01*
X17123000Y-24602000D02*
G75*
G02*
X17093000Y-24602000I-15000J0D01*
G01*
X17093000Y-24602000D02*
G75*
G02*
X17123000Y-24602000I15000J0D01*
G01*
X17123000Y-29427000D02*
G75*
G02*
X17093000Y-29427000I-15000J0D01*
G01*
X17093000Y-29427000D02*
G75*
G02*
X17123000Y-29427000I15000J0D01*
G01*
X17270000Y-10525000D02*
G75*
G02*
X17240000Y-10525000I-15000J0D01*
G01*
X17240000Y-10525000D02*
G75*
G02*
X17270000Y-10525000I15000J0D01*
G01*
X17290000Y-14580000D02*
G75*
G02*
X17260000Y-14580000I-15000J0D01*
G01*
X17260000Y-14580000D02*
G75*
G02*
X17290000Y-14580000I15000J0D01*
G01*
X17295000Y-19445000D02*
G75*
G02*
X17265000Y-19445000I-15000J0D01*
G01*
X17265000Y-19445000D02*
G75*
G02*
X17295000Y-19445000I15000J0D01*
G01*
X17330000Y-24270000D02*
G75*
G02*
X17300000Y-24270000I-15000J0D01*
G01*
X17300000Y-24270000D02*
G75*
G02*
X17330000Y-24270000I15000J0D01*
G01*
X17330000Y-29095000D02*
G75*
G02*
X17300000Y-29095000I-15000J0D01*
G01*
X17300000Y-29095000D02*
G75*
G02*
X17330000Y-29095000I15000J0D01*
G01*
X17740000Y-23600000D02*
G75*
G02*
X17710000Y-23600000I-15000J0D01*
G01*
X17710000Y-23600000D02*
G75*
G02*
X17740000Y-23600000I15000J0D01*
G01*
X17750000Y-13920000D02*
G75*
G02*
X17720000Y-13920000I-15000J0D01*
G01*
X17720000Y-13920000D02*
G75*
G02*
X17750000Y-13920000I15000J0D01*
G01*
X17750000Y-22480000D02*
G75*
G02*
X17720000Y-22480000I-15000J0D01*
G01*
X17720000Y-22480000D02*
G75*
G02*
X17750000Y-22480000I15000J0D01*
G01*
X18575000Y-7180000D02*
G75*
G02*
X18545000Y-7180000I-15000J0D01*
G01*
X18545000Y-7180000D02*
G75*
G02*
X18575000Y-7180000I15000J0D01*
G01*
X18612500Y-7392500D02*
G75*
G02*
X18582500Y-7392500I-15000J0D01*
G01*
X18582500Y-7392500D02*
G75*
G02*
X18612500Y-7392500I15000J0D01*
G01*
X18725000Y-6930000D02*
G75*
G02*
X18695000Y-6930000I-15000J0D01*
G01*
X18695000Y-6930000D02*
G75*
G02*
X18725000Y-6930000I15000J0D01*
G01*
X19465000Y-6970000D02*
G75*
G02*
X19435000Y-6970000I-15000J0D01*
G01*
X19435000Y-6970000D02*
G75*
G02*
X19465000Y-6970000I15000J0D01*
G01*
X19565000Y-6970000D02*
G75*
G02*
X19535000Y-6970000I-15000J0D01*
G01*
X19535000Y-6970000D02*
G75*
G02*
X19565000Y-6970000I15000J0D01*
G01*
X19655000Y-7457500D02*
G75*
G02*
X19625000Y-7457500I-15000J0D01*
G01*
X19625000Y-7457500D02*
G75*
G02*
X19655000Y-7457500I15000J0D01*
G01*
X19732500Y-7392500D02*
G75*
G02*
X19702500Y-7392500I-15000J0D01*
G01*
X19702500Y-7392500D02*
G75*
G02*
X19732500Y-7392500I15000J0D01*
G01*
X19732500Y-7522500D02*
G75*
G02*
X19702500Y-7522500I-15000J0D01*
G01*
X19702500Y-7522500D02*
G75*
G02*
X19732500Y-7522500I15000J0D01*
G01*
X20103750Y-7840000D02*
G75*
G02*
X20073750Y-7840000I-15000J0D01*
G01*
X20073750Y-7840000D02*
G75*
G02*
X20103750Y-7840000I15000J0D01*
G01*
X20770000Y-6785000D02*
G75*
G02*
X20740000Y-6785000I-15000J0D01*
G01*
X20740000Y-6785000D02*
G75*
G02*
X20770000Y-6785000I15000J0D01*
G01*
X20775000Y-7010000D02*
G75*
G02*
X20745000Y-7010000I-15000J0D01*
G01*
X20745000Y-7010000D02*
G75*
G02*
X20775000Y-7010000I15000J0D01*
G01*
X21000000Y-26520000D02*
G75*
G02*
X20970000Y-26520000I-15000J0D01*
G01*
X20970000Y-26520000D02*
G75*
G02*
X21000000Y-26520000I15000J0D01*
G01*
X21005000Y-7070000D02*
G75*
G02*
X20975000Y-7070000I-15000J0D01*
G01*
X20975000Y-7070000D02*
G75*
G02*
X21005000Y-7070000I15000J0D01*
G01*
X21005000Y-16960000D02*
G75*
G02*
X20975000Y-16960000I-15000J0D01*
G01*
X20975000Y-16960000D02*
G75*
G02*
X21005000Y-16960000I15000J0D01*
G01*
X21010000Y-31645000D02*
G75*
G02*
X20980000Y-31645000I-15000J0D01*
G01*
X20980000Y-31645000D02*
G75*
G02*
X21010000Y-31645000I15000J0D01*
G01*
X21015000Y-7720000D02*
G75*
G02*
X20985000Y-7720000I-15000J0D01*
G01*
X20985000Y-7720000D02*
G75*
G02*
X21015000Y-7720000I15000J0D01*
G01*
X21030000Y-21575000D02*
G75*
G02*
X21000000Y-21575000I-15000J0D01*
G01*
X21000000Y-21575000D02*
G75*
G02*
X21030000Y-21575000I15000J0D01*
G01*
X21120000Y-24385000D02*
G75*
G02*
X21090000Y-24385000I-15000J0D01*
G01*
X21090000Y-24385000D02*
G75*
G02*
X21120000Y-24385000I15000J0D01*
G01*
X21160000Y-14720000D02*
G75*
G02*
X21130000Y-14720000I-15000J0D01*
G01*
X21130000Y-14720000D02*
G75*
G02*
X21160000Y-14720000I15000J0D01*
G01*
X21235000Y-24155000D02*
G75*
G02*
X21205000Y-24155000I-15000J0D01*
G01*
X21205000Y-24155000D02*
G75*
G02*
X21235000Y-24155000I15000J0D01*
G01*
X21235000Y-28980000D02*
G75*
G02*
X21205000Y-28980000I-15000J0D01*
G01*
X21205000Y-28980000D02*
G75*
G02*
X21235000Y-28980000I15000J0D01*
G01*
X21245000Y-19330000D02*
G75*
G02*
X21215000Y-19330000I-15000J0D01*
G01*
X21215000Y-19330000D02*
G75*
G02*
X21245000Y-19330000I15000J0D01*
G01*
X21250000Y-14500000D02*
G75*
G02*
X21220000Y-14500000I-15000J0D01*
G01*
X21220000Y-14500000D02*
G75*
G02*
X21250000Y-14500000I15000J0D01*
G01*
X21267500Y-29462500D02*
G75*
G02*
X21237500Y-29462500I-15000J0D01*
G01*
X21237500Y-29462500D02*
G75*
G02*
X21267500Y-29462500I15000J0D01*
G01*
X21290000Y-19825000D02*
G75*
G02*
X21260000Y-19825000I-15000J0D01*
G01*
X21260000Y-19825000D02*
G75*
G02*
X21290000Y-19825000I15000J0D01*
G01*
X21405000Y-15130000D02*
G75*
G02*
X21375000Y-15130000I-15000J0D01*
G01*
X21375000Y-15130000D02*
G75*
G02*
X21405000Y-15130000I15000J0D01*
G01*
X21455000Y-24795000D02*
G75*
G02*
X21425000Y-24795000I-15000J0D01*
G01*
X21425000Y-24795000D02*
G75*
G02*
X21455000Y-24795000I15000J0D01*
G01*
X21500000Y-12425000D02*
G75*
G02*
X21470000Y-12425000I-15000J0D01*
G01*
X21470000Y-12425000D02*
G75*
G02*
X21500000Y-12425000I15000J0D01*
G01*
X21585000Y-10135000D02*
G75*
G02*
X21555000Y-10135000I-15000J0D01*
G01*
X21555000Y-10135000D02*
G75*
G02*
X21585000Y-10135000I15000J0D01*
G01*
X21590000Y-9980000D02*
G75*
G02*
X21560000Y-9980000I-15000J0D01*
G01*
X21560000Y-9980000D02*
G75*
G02*
X21590000Y-9980000I15000J0D01*
G01*
X21641250Y-12425000D02*
G75*
G02*
X21611250Y-12425000I-15000J0D01*
G01*
X21611250Y-12425000D02*
G75*
G02*
X21641250Y-12425000I15000J0D01*
G01*
X21703000Y-17300000D02*
G75*
G02*
X21673000Y-17300000I-15000J0D01*
G01*
X21673000Y-17300000D02*
G75*
G02*
X21703000Y-17300000I15000J0D01*
G01*
X21948000Y-14952000D02*
G75*
G02*
X21918000Y-14952000I-15000J0D01*
G01*
X21918000Y-14952000D02*
G75*
G02*
X21948000Y-14952000I15000J0D01*
G01*
X21948000Y-19777000D02*
G75*
G02*
X21918000Y-19777000I-15000J0D01*
G01*
X21918000Y-19777000D02*
G75*
G02*
X21948000Y-19777000I15000J0D01*
G01*
X21948000Y-24602000D02*
G75*
G02*
X21918000Y-24602000I-15000J0D01*
G01*
X21918000Y-24602000D02*
G75*
G02*
X21948000Y-24602000I15000J0D01*
G01*
X21948000Y-29427000D02*
G75*
G02*
X21918000Y-29427000I-15000J0D01*
G01*
X21918000Y-29427000D02*
G75*
G02*
X21948000Y-29427000I15000J0D01*
G01*
X22115000Y-11345500D02*
G75*
G02*
X22085000Y-11345500I-15000J0D01*
G01*
X22085000Y-11345500D02*
G75*
G02*
X22115000Y-11345500I15000J0D01*
G01*
X22115000Y-19405000D02*
G75*
G02*
X22085000Y-19405000I-15000J0D01*
G01*
X22085000Y-19405000D02*
G75*
G02*
X22115000Y-19405000I15000J0D01*
G01*
X22145000Y-29055000D02*
G75*
G02*
X22115000Y-29055000I-15000J0D01*
G01*
X22115000Y-29055000D02*
G75*
G02*
X22145000Y-29055000I15000J0D01*
G01*
X22305000Y-7640000D02*
G75*
G02*
X22275000Y-7640000I-15000J0D01*
G01*
X22275000Y-7640000D02*
G75*
G02*
X22305000Y-7640000I15000J0D01*
G01*
X22337560Y-10037000D02*
G75*
G02*
X22307560Y-10037000I-15000J0D01*
G01*
X22307560Y-10037000D02*
G75*
G02*
X22337560Y-10037000I15000J0D01*
G01*
X22340000Y-11475000D02*
G75*
G02*
X22310000Y-11475000I-15000J0D01*
G01*
X22310000Y-11475000D02*
G75*
G02*
X22340000Y-11475000I15000J0D01*
G01*
X22344500Y-11599500D02*
G75*
G02*
X22314500Y-11599500I-15000J0D01*
G01*
X22314500Y-11599500D02*
G75*
G02*
X22344500Y-11599500I15000J0D01*
G01*
X22355000Y-11725000D02*
G75*
G02*
X22325000Y-11725000I-15000J0D01*
G01*
X22325000Y-11725000D02*
G75*
G02*
X22355000Y-11725000I15000J0D01*
G01*
X22360000Y-11845000D02*
G75*
G02*
X22330000Y-11845000I-15000J0D01*
G01*
X22330000Y-11845000D02*
G75*
G02*
X22360000Y-11845000I15000J0D01*
G01*
X22580000Y-10545000D02*
G75*
G02*
X22550000Y-10545000I-15000J0D01*
G01*
X22550000Y-10545000D02*
G75*
G02*
X22580000Y-10545000I15000J0D01*
G01*
X22582000Y-10672000D02*
G75*
G02*
X22552000Y-10672000I-15000J0D01*
G01*
X22552000Y-10672000D02*
G75*
G02*
X22582000Y-10672000I15000J0D01*
G01*
X22810000Y-10164000D02*
G75*
G02*
X22780000Y-10164000I-15000J0D01*
G01*
X22780000Y-10164000D02*
G75*
G02*
X22810000Y-10164000I15000J0D01*
G01*
X23010000Y-10470000D02*
G75*
G02*
X22980000Y-10470000I-15000J0D01*
G01*
X22980000Y-10470000D02*
G75*
G02*
X23010000Y-10470000I15000J0D01*
G01*
X23045000Y-12705000D02*
G75*
G02*
X23015000Y-12705000I-15000J0D01*
G01*
X23015000Y-12705000D02*
G75*
G02*
X23045000Y-12705000I15000J0D01*
G01*
X23520000Y-21565000D02*
G75*
G02*
X23490000Y-21565000I-15000J0D01*
G01*
X23490000Y-21565000D02*
G75*
G02*
X23520000Y-21565000I15000J0D01*
G01*
X23520000Y-21645000D02*
G75*
G02*
X23490000Y-21645000I-15000J0D01*
G01*
X23490000Y-21645000D02*
G75*
G02*
X23520000Y-21645000I15000J0D01*
G01*
X23520000Y-21745000D02*
G75*
G02*
X23490000Y-21745000I-15000J0D01*
G01*
X23490000Y-21745000D02*
G75*
G02*
X23520000Y-21745000I15000J0D01*
G01*
X23520000Y-21835000D02*
G75*
G02*
X23490000Y-21835000I-15000J0D01*
G01*
X23490000Y-21835000D02*
G75*
G02*
X23520000Y-21835000I15000J0D01*
G01*
X23645000Y-6910000D02*
G75*
G02*
X23615000Y-6910000I-15000J0D01*
G01*
X23615000Y-6910000D02*
G75*
G02*
X23645000Y-6910000I15000J0D01*
G01*
X23900000Y-21667587D02*
G75*
G02*
X23870000Y-21667587I-15000J0D01*
G01*
X23870000Y-21667587D02*
G75*
G02*
X23900000Y-21667587I15000J0D01*
G01*
X23900000Y-21539853D02*
G75*
G02*
X23870000Y-21539853I-15000J0D01*
G01*
X23870000Y-21539853D02*
G75*
G02*
X23900000Y-21539853I15000J0D01*
G01*
X4850000Y-21758000D02*
X4850000Y-21858000D01*
X4800000Y-21808000D02*
X4900000Y-21808000D01*
X4850000Y-22012000D02*
X4850000Y-22112000D01*
X4800000Y-22062000D02*
X4900000Y-22062000D01*
X4850000Y-22266000D02*
X4850000Y-22366000D01*
X4800000Y-22316000D02*
X4900000Y-22316000D01*
X4850000Y-22520000D02*
X4850000Y-22620000D01*
X4800000Y-22570000D02*
X4900000Y-22570000D01*
X7405000Y-7761000D02*
X7405000Y-7861000D01*
X7355000Y-7811000D02*
X7455000Y-7811000D01*
X7405000Y-8015000D02*
X7405000Y-8115000D01*
X7355000Y-8065000D02*
X7455000Y-8065000D01*
X7405000Y-8269000D02*
X7405000Y-8369000D01*
X7355000Y-8319000D02*
X7455000Y-8319000D01*
X7405000Y-8523000D02*
X7405000Y-8623000D01*
X7355000Y-8573000D02*
X7455000Y-8573000D01*
X7405000Y-8777000D02*
X7405000Y-8877000D01*
X7355000Y-8827000D02*
X7455000Y-8827000D01*
X7405000Y-9031000D02*
X7405000Y-9131000D01*
X7355000Y-9081000D02*
X7455000Y-9081000D01*
X7405000Y-9285000D02*
X7405000Y-9385000D01*
X7355000Y-9335000D02*
X7455000Y-9335000D01*
X7405000Y-9539000D02*
X7405000Y-9639000D01*
X7355000Y-9589000D02*
X7455000Y-9589000D01*
X24000000Y-21750000D02*
X24000000Y-21850000D01*
X23950000Y-21800000D02*
X24050000Y-21800000D01*
X24000000Y-22004000D02*
X24000000Y-22104000D01*
X23950000Y-22054000D02*
X24050000Y-22054000D01*
X24000000Y-22258000D02*
X24000000Y-22358000D01*
X23950000Y-22308000D02*
X24050000Y-22308000D01*
X24000000Y-22512000D02*
X24000000Y-22612000D01*
X23950000Y-22562000D02*
X24050000Y-22562000D01*
D13*
X12792427Y-8042427D02*
X12792427Y-7957573D01*
X12707573Y-7957573D01*
X12707573Y-8042427D01*
X12792427Y-8042427D01*
X12792427Y-9492427D02*
X12792427Y-9407573D01*
X12707573Y-9407573D01*
X12707573Y-9492427D01*
X12792427Y-9492427D01*
X13042427Y-9492427D02*
X13042427Y-9407573D01*
X12957573Y-9407573D01*
X12957573Y-9492427D01*
X13042427Y-9492427D01*
X13292427Y-8042427D02*
X13292427Y-7957573D01*
X13207573Y-7957573D01*
X13207573Y-8042427D01*
X13292427Y-8042427D01*
X13292427Y-9492427D02*
X13292427Y-9407573D01*
X13207573Y-9407573D01*
X13207573Y-9492427D01*
X13292427Y-9492427D01*
D11*
X12440000Y-8800000D02*
X12540000Y-8700000D01*
X12440000Y-8600000D01*
X12340000Y-8700000D01*
X12440000Y-8800000D01*
D12*
X12340000Y-8685000D02*
X12340000Y-8715000D01*
X12540000Y-8715000D02*
G75*
G02*
X12340000Y-8715000I-100000J0D01*
G01*
X12540000Y-8715000D02*
X12540000Y-8685000D01*
X12540000Y-8685000D02*
G75*
G03*
X12340000Y-8685000I-100000J0D01*
G01*
D11*
X13560000Y-8800000D02*
X13660000Y-8700000D01*
X13560000Y-8600000D01*
X13460000Y-8700000D01*
X13560000Y-8800000D01*
D12*
X13460000Y-8685000D02*
X13460000Y-8715000D01*
X13660000Y-8715000D02*
G75*
G02*
X13460000Y-8715000I-100000J0D01*
G01*
X13660000Y-8715000D02*
X13660000Y-8685000D01*
X13660000Y-8685000D02*
G75*
G03*
X13460000Y-8685000I-100000J0D01*
G01*
D11*
X4708277Y-32338984D02*
X4708277Y-32138984D01*
X4708277Y-32138984D02*
X4755896Y-32138984D01*
X4755896Y-32138984D02*
X4784467Y-32148508D01*
X4784467Y-32148508D02*
X4803515Y-32167555D01*
X4803515Y-32167555D02*
X4813039Y-32186603D01*
X4813039Y-32186603D02*
X4822563Y-32224698D01*
X4822563Y-32224698D02*
X4822563Y-32253269D01*
X4822563Y-32253269D02*
X4813039Y-32291365D01*
X4813039Y-32291365D02*
X4803515Y-32310412D01*
X4803515Y-32310412D02*
X4784467Y-32329460D01*
X4784467Y-32329460D02*
X4755896Y-32338984D01*
X4755896Y-32338984D02*
X4708277Y-32338984D01*
X4908277Y-32338984D02*
X4908277Y-32205650D01*
X4908277Y-32243746D02*
X4917801Y-32224698D01*
X4917801Y-32224698D02*
X4927324Y-32215174D01*
X4927324Y-32215174D02*
X4946372Y-32205650D01*
X4946372Y-32205650D02*
X4965420Y-32205650D01*
X5032086Y-32338984D02*
X5032086Y-32205650D01*
X5032086Y-32138984D02*
X5022563Y-32148508D01*
X5022563Y-32148508D02*
X5032086Y-32158031D01*
X5032086Y-32158031D02*
X5041610Y-32148508D01*
X5041610Y-32148508D02*
X5032086Y-32138984D01*
X5032086Y-32138984D02*
X5032086Y-32158031D01*
X5155896Y-32338984D02*
X5136848Y-32329460D01*
X5136848Y-32329460D02*
X5127324Y-32310412D01*
X5127324Y-32310412D02*
X5127324Y-32138984D01*
X5260658Y-32338984D02*
X5241610Y-32329460D01*
X5241610Y-32329460D02*
X5232086Y-32310412D01*
X5232086Y-32310412D02*
X5232086Y-32138984D01*
X5489229Y-32338984D02*
X5489229Y-32138984D01*
X5489229Y-32138984D02*
X5555896Y-32281841D01*
X5555896Y-32281841D02*
X5622562Y-32138984D01*
X5622562Y-32138984D02*
X5622562Y-32338984D01*
X5803515Y-32338984D02*
X5803515Y-32234222D01*
X5803515Y-32234222D02*
X5793991Y-32215174D01*
X5793991Y-32215174D02*
X5774943Y-32205650D01*
X5774943Y-32205650D02*
X5736848Y-32205650D01*
X5736848Y-32205650D02*
X5717801Y-32215174D01*
X5803515Y-32329460D02*
X5784467Y-32338984D01*
X5784467Y-32338984D02*
X5736848Y-32338984D01*
X5736848Y-32338984D02*
X5717801Y-32329460D01*
X5717801Y-32329460D02*
X5708277Y-32310412D01*
X5708277Y-32310412D02*
X5708277Y-32291365D01*
X5708277Y-32291365D02*
X5717801Y-32272317D01*
X5717801Y-32272317D02*
X5736848Y-32262793D01*
X5736848Y-32262793D02*
X5784467Y-32262793D01*
X5784467Y-32262793D02*
X5803515Y-32253269D01*
X5898753Y-32205650D02*
X5898753Y-32405650D01*
X5898753Y-32215174D02*
X5917801Y-32205650D01*
X5917801Y-32205650D02*
X5955896Y-32205650D01*
X5955896Y-32205650D02*
X5974943Y-32215174D01*
X5974943Y-32215174D02*
X5984467Y-32224698D01*
X5984467Y-32224698D02*
X5993991Y-32243746D01*
X5993991Y-32243746D02*
X5993991Y-32300888D01*
X5993991Y-32300888D02*
X5984467Y-32319936D01*
X5984467Y-32319936D02*
X5974943Y-32329460D01*
X5974943Y-32329460D02*
X5955896Y-32338984D01*
X5955896Y-32338984D02*
X5917801Y-32338984D01*
X5917801Y-32338984D02*
X5898753Y-32329460D01*
X6079705Y-32319936D02*
X6089229Y-32329460D01*
X6089229Y-32329460D02*
X6079705Y-32338984D01*
X6079705Y-32338984D02*
X6070182Y-32329460D01*
X6070182Y-32329460D02*
X6079705Y-32319936D01*
X6079705Y-32319936D02*
X6079705Y-32338984D01*
X6079705Y-32215174D02*
X6089229Y-32224698D01*
X6089229Y-32224698D02*
X6079705Y-32234222D01*
X6079705Y-32234222D02*
X6070182Y-32224698D01*
X6070182Y-32224698D02*
X6079705Y-32215174D01*
X6079705Y-32215174D02*
X6079705Y-32234222D01*
D12*
X4427500Y-32657500D02*
X4447500Y-32677500D01*
X4447500Y-32657500D02*
X4427500Y-32677500D01*
D11*
X4746372Y-32558984D02*
X4765420Y-32558984D01*
X4765420Y-32558984D02*
X4784467Y-32568508D01*
X4784467Y-32568508D02*
X4793991Y-32578031D01*
X4793991Y-32578031D02*
X4803515Y-32597079D01*
X4803515Y-32597079D02*
X4813039Y-32635174D01*
X4813039Y-32635174D02*
X4813039Y-32682793D01*
X4813039Y-32682793D02*
X4803515Y-32720888D01*
X4803515Y-32720888D02*
X4793991Y-32739936D01*
X4793991Y-32739936D02*
X4784467Y-32749460D01*
X4784467Y-32749460D02*
X4765420Y-32758984D01*
X4765420Y-32758984D02*
X4746372Y-32758984D01*
X4746372Y-32758984D02*
X4727324Y-32749460D01*
X4727324Y-32749460D02*
X4717801Y-32739936D01*
X4717801Y-32739936D02*
X4708277Y-32720888D01*
X4708277Y-32720888D02*
X4698753Y-32682793D01*
X4698753Y-32682793D02*
X4698753Y-32635174D01*
X4698753Y-32635174D02*
X4708277Y-32597079D01*
X4708277Y-32597079D02*
X4717801Y-32578031D01*
X4717801Y-32578031D02*
X4727324Y-32568508D01*
X4727324Y-32568508D02*
X4746372Y-32558984D01*
X4898753Y-32739936D02*
X4908277Y-32749460D01*
X4908277Y-32749460D02*
X4898753Y-32758984D01*
X4898753Y-32758984D02*
X4889229Y-32749460D01*
X4889229Y-32749460D02*
X4898753Y-32739936D01*
X4898753Y-32739936D02*
X4898753Y-32758984D01*
X4984467Y-32578031D02*
X4993991Y-32568508D01*
X4993991Y-32568508D02*
X5013039Y-32558984D01*
X5013039Y-32558984D02*
X5060658Y-32558984D01*
X5060658Y-32558984D02*
X5079705Y-32568508D01*
X5079705Y-32568508D02*
X5089229Y-32578031D01*
X5089229Y-32578031D02*
X5098753Y-32597079D01*
X5098753Y-32597079D02*
X5098753Y-32616127D01*
X5098753Y-32616127D02*
X5089229Y-32644698D01*
X5089229Y-32644698D02*
X4974944Y-32758984D01*
X4974944Y-32758984D02*
X5098753Y-32758984D01*
X5222563Y-32558984D02*
X5241610Y-32558984D01*
X5241610Y-32558984D02*
X5260658Y-32568508D01*
X5260658Y-32568508D02*
X5270182Y-32578031D01*
X5270182Y-32578031D02*
X5279705Y-32597079D01*
X5279705Y-32597079D02*
X5289229Y-32635174D01*
X5289229Y-32635174D02*
X5289229Y-32682793D01*
X5289229Y-32682793D02*
X5279705Y-32720888D01*
X5279705Y-32720888D02*
X5270182Y-32739936D01*
X5270182Y-32739936D02*
X5260658Y-32749460D01*
X5260658Y-32749460D02*
X5241610Y-32758984D01*
X5241610Y-32758984D02*
X5222563Y-32758984D01*
X5222563Y-32758984D02*
X5203515Y-32749460D01*
X5203515Y-32749460D02*
X5193991Y-32739936D01*
X5193991Y-32739936D02*
X5184467Y-32720888D01*
X5184467Y-32720888D02*
X5174944Y-32682793D01*
X5174944Y-32682793D02*
X5174944Y-32635174D01*
X5174944Y-32635174D02*
X5184467Y-32597079D01*
X5184467Y-32597079D02*
X5193991Y-32578031D01*
X5193991Y-32578031D02*
X5203515Y-32568508D01*
X5203515Y-32568508D02*
X5222563Y-32558984D01*
X5413039Y-32558984D02*
X5432086Y-32558984D01*
X5432086Y-32558984D02*
X5451134Y-32568508D01*
X5451134Y-32568508D02*
X5460658Y-32578031D01*
X5460658Y-32578031D02*
X5470182Y-32597079D01*
X5470182Y-32597079D02*
X5479705Y-32635174D01*
X5479705Y-32635174D02*
X5479705Y-32682793D01*
X5479705Y-32682793D02*
X5470182Y-32720888D01*
X5470182Y-32720888D02*
X5460658Y-32739936D01*
X5460658Y-32739936D02*
X5451134Y-32749460D01*
X5451134Y-32749460D02*
X5432086Y-32758984D01*
X5432086Y-32758984D02*
X5413039Y-32758984D01*
X5413039Y-32758984D02*
X5393991Y-32749460D01*
X5393991Y-32749460D02*
X5384467Y-32739936D01*
X5384467Y-32739936D02*
X5374944Y-32720888D01*
X5374944Y-32720888D02*
X5365420Y-32682793D01*
X5365420Y-32682793D02*
X5365420Y-32635174D01*
X5365420Y-32635174D02*
X5374944Y-32597079D01*
X5374944Y-32597079D02*
X5384467Y-32578031D01*
X5384467Y-32578031D02*
X5393991Y-32568508D01*
X5393991Y-32568508D02*
X5413039Y-32558984D01*
X5565420Y-32758984D02*
X5565420Y-32625650D01*
X5565420Y-32644698D02*
X5574944Y-32635174D01*
X5574944Y-32635174D02*
X5593991Y-32625650D01*
X5593991Y-32625650D02*
X5622563Y-32625650D01*
X5622563Y-32625650D02*
X5641610Y-32635174D01*
X5641610Y-32635174D02*
X5651134Y-32654222D01*
X5651134Y-32654222D02*
X5651134Y-32758984D01*
X5651134Y-32654222D02*
X5660658Y-32635174D01*
X5660658Y-32635174D02*
X5679705Y-32625650D01*
X5679705Y-32625650D02*
X5708277Y-32625650D01*
X5708277Y-32625650D02*
X5727324Y-32635174D01*
X5727324Y-32635174D02*
X5736848Y-32654222D01*
X5736848Y-32654222D02*
X5736848Y-32758984D01*
X5832086Y-32758984D02*
X5832086Y-32625650D01*
X5832086Y-32644698D02*
X5841610Y-32635174D01*
X5841610Y-32635174D02*
X5860658Y-32625650D01*
X5860658Y-32625650D02*
X5889229Y-32625650D01*
X5889229Y-32625650D02*
X5908277Y-32635174D01*
X5908277Y-32635174D02*
X5917801Y-32654222D01*
X5917801Y-32654222D02*
X5917801Y-32758984D01*
X5917801Y-32654222D02*
X5927324Y-32635174D01*
X5927324Y-32635174D02*
X5946372Y-32625650D01*
X5946372Y-32625650D02*
X5974943Y-32625650D01*
X5974943Y-32625650D02*
X5993991Y-32635174D01*
X5993991Y-32635174D02*
X6003515Y-32654222D01*
X6003515Y-32654222D02*
X6003515Y-32758984D01*
X6393991Y-32549460D02*
X6222563Y-32806603D01*
X6651134Y-32558984D02*
X6670182Y-32558984D01*
X6670182Y-32558984D02*
X6689229Y-32568508D01*
X6689229Y-32568508D02*
X6698753Y-32578031D01*
X6698753Y-32578031D02*
X6708277Y-32597079D01*
X6708277Y-32597079D02*
X6717801Y-32635174D01*
X6717801Y-32635174D02*
X6717801Y-32682793D01*
X6717801Y-32682793D02*
X6708277Y-32720888D01*
X6708277Y-32720888D02*
X6698753Y-32739936D01*
X6698753Y-32739936D02*
X6689229Y-32749460D01*
X6689229Y-32749460D02*
X6670182Y-32758984D01*
X6670182Y-32758984D02*
X6651134Y-32758984D01*
X6651134Y-32758984D02*
X6632086Y-32749460D01*
X6632086Y-32749460D02*
X6622563Y-32739936D01*
X6622563Y-32739936D02*
X6613039Y-32720888D01*
X6613039Y-32720888D02*
X6603515Y-32682793D01*
X6603515Y-32682793D02*
X6603515Y-32635174D01*
X6603515Y-32635174D02*
X6613039Y-32597079D01*
X6613039Y-32597079D02*
X6622563Y-32578031D01*
X6622563Y-32578031D02*
X6632086Y-32568508D01*
X6632086Y-32568508D02*
X6651134Y-32558984D01*
X6803515Y-32739936D02*
X6813039Y-32749460D01*
X6813039Y-32749460D02*
X6803515Y-32758984D01*
X6803515Y-32758984D02*
X6793991Y-32749460D01*
X6793991Y-32749460D02*
X6803515Y-32739936D01*
X6803515Y-32739936D02*
X6803515Y-32758984D01*
X6936848Y-32558984D02*
X6955896Y-32558984D01*
X6955896Y-32558984D02*
X6974944Y-32568508D01*
X6974944Y-32568508D02*
X6984467Y-32578031D01*
X6984467Y-32578031D02*
X6993991Y-32597079D01*
X6993991Y-32597079D02*
X7003515Y-32635174D01*
X7003515Y-32635174D02*
X7003515Y-32682793D01*
X7003515Y-32682793D02*
X6993991Y-32720888D01*
X6993991Y-32720888D02*
X6984467Y-32739936D01*
X6984467Y-32739936D02*
X6974944Y-32749460D01*
X6974944Y-32749460D02*
X6955896Y-32758984D01*
X6955896Y-32758984D02*
X6936848Y-32758984D01*
X6936848Y-32758984D02*
X6917801Y-32749460D01*
X6917801Y-32749460D02*
X6908277Y-32739936D01*
X6908277Y-32739936D02*
X6898753Y-32720888D01*
X6898753Y-32720888D02*
X6889229Y-32682793D01*
X6889229Y-32682793D02*
X6889229Y-32635174D01*
X6889229Y-32635174D02*
X6898753Y-32597079D01*
X6898753Y-32597079D02*
X6908277Y-32578031D01*
X6908277Y-32578031D02*
X6917801Y-32568508D01*
X6917801Y-32568508D02*
X6936848Y-32558984D01*
X7127325Y-32558984D02*
X7146372Y-32558984D01*
X7146372Y-32558984D02*
X7165420Y-32568508D01*
X7165420Y-32568508D02*
X7174944Y-32578031D01*
X7174944Y-32578031D02*
X7184467Y-32597079D01*
X7184467Y-32597079D02*
X7193991Y-32635174D01*
X7193991Y-32635174D02*
X7193991Y-32682793D01*
X7193991Y-32682793D02*
X7184467Y-32720888D01*
X7184467Y-32720888D02*
X7174944Y-32739936D01*
X7174944Y-32739936D02*
X7165420Y-32749460D01*
X7165420Y-32749460D02*
X7146372Y-32758984D01*
X7146372Y-32758984D02*
X7127325Y-32758984D01*
X7127325Y-32758984D02*
X7108277Y-32749460D01*
X7108277Y-32749460D02*
X7098753Y-32739936D01*
X7098753Y-32739936D02*
X7089229Y-32720888D01*
X7089229Y-32720888D02*
X7079706Y-32682793D01*
X7079706Y-32682793D02*
X7079706Y-32635174D01*
X7079706Y-32635174D02*
X7089229Y-32597079D01*
X7089229Y-32597079D02*
X7098753Y-32578031D01*
X7098753Y-32578031D02*
X7108277Y-32568508D01*
X7108277Y-32568508D02*
X7127325Y-32558984D01*
X7260658Y-32558984D02*
X7393991Y-32558984D01*
X7393991Y-32558984D02*
X7308277Y-32758984D01*
X7479706Y-32758984D02*
X7517801Y-32758984D01*
X7517801Y-32758984D02*
X7536848Y-32749460D01*
X7536848Y-32749460D02*
X7546372Y-32739936D01*
X7546372Y-32739936D02*
X7565420Y-32711365D01*
X7565420Y-32711365D02*
X7574944Y-32673269D01*
X7574944Y-32673269D02*
X7574944Y-32597079D01*
X7574944Y-32597079D02*
X7565420Y-32578031D01*
X7565420Y-32578031D02*
X7555896Y-32568508D01*
X7555896Y-32568508D02*
X7536848Y-32558984D01*
X7536848Y-32558984D02*
X7498753Y-32558984D01*
X7498753Y-32558984D02*
X7479706Y-32568508D01*
X7479706Y-32568508D02*
X7470182Y-32578031D01*
X7470182Y-32578031D02*
X7460658Y-32597079D01*
X7460658Y-32597079D02*
X7460658Y-32644698D01*
X7460658Y-32644698D02*
X7470182Y-32663746D01*
X7470182Y-32663746D02*
X7479706Y-32673269D01*
X7479706Y-32673269D02*
X7498753Y-32682793D01*
X7498753Y-32682793D02*
X7536848Y-32682793D01*
X7536848Y-32682793D02*
X7555896Y-32673269D01*
X7555896Y-32673269D02*
X7565420Y-32663746D01*
X7565420Y-32663746D02*
X7574944Y-32644698D01*
X7651134Y-32558984D02*
X7651134Y-32597079D01*
X7727325Y-32558984D02*
X7727325Y-32597079D01*
X8022563Y-32835174D02*
X8013039Y-32825650D01*
X8013039Y-32825650D02*
X7993991Y-32797079D01*
X7993991Y-32797079D02*
X7984468Y-32778031D01*
X7984468Y-32778031D02*
X7974944Y-32749460D01*
X7974944Y-32749460D02*
X7965420Y-32701841D01*
X7965420Y-32701841D02*
X7965420Y-32663746D01*
X7965420Y-32663746D02*
X7974944Y-32616127D01*
X7974944Y-32616127D02*
X7984468Y-32587555D01*
X7984468Y-32587555D02*
X7993991Y-32568508D01*
X7993991Y-32568508D02*
X8013039Y-32539936D01*
X8013039Y-32539936D02*
X8022563Y-32530412D01*
X8184468Y-32625650D02*
X8184468Y-32758984D01*
X8136848Y-32549460D02*
X8089229Y-32692317D01*
X8089229Y-32692317D02*
X8213039Y-32692317D01*
X8441611Y-32758984D02*
X8441611Y-32558984D01*
X8527325Y-32758984D02*
X8527325Y-32654222D01*
X8527325Y-32654222D02*
X8517801Y-32635174D01*
X8517801Y-32635174D02*
X8498753Y-32625650D01*
X8498753Y-32625650D02*
X8470182Y-32625650D01*
X8470182Y-32625650D02*
X8451134Y-32635174D01*
X8451134Y-32635174D02*
X8441611Y-32644698D01*
X8651134Y-32758984D02*
X8632087Y-32749460D01*
X8632087Y-32749460D02*
X8622563Y-32739936D01*
X8622563Y-32739936D02*
X8613039Y-32720888D01*
X8613039Y-32720888D02*
X8613039Y-32663746D01*
X8613039Y-32663746D02*
X8622563Y-32644698D01*
X8622563Y-32644698D02*
X8632087Y-32635174D01*
X8632087Y-32635174D02*
X8651134Y-32625650D01*
X8651134Y-32625650D02*
X8679706Y-32625650D01*
X8679706Y-32625650D02*
X8698753Y-32635174D01*
X8698753Y-32635174D02*
X8708277Y-32644698D01*
X8708277Y-32644698D02*
X8717801Y-32663746D01*
X8717801Y-32663746D02*
X8717801Y-32720888D01*
X8717801Y-32720888D02*
X8708277Y-32739936D01*
X8708277Y-32739936D02*
X8698753Y-32749460D01*
X8698753Y-32749460D02*
X8679706Y-32758984D01*
X8679706Y-32758984D02*
X8651134Y-32758984D01*
X8832087Y-32758984D02*
X8813039Y-32749460D01*
X8813039Y-32749460D02*
X8803515Y-32730412D01*
X8803515Y-32730412D02*
X8803515Y-32558984D01*
X8984468Y-32749460D02*
X8965420Y-32758984D01*
X8965420Y-32758984D02*
X8927325Y-32758984D01*
X8927325Y-32758984D02*
X8908277Y-32749460D01*
X8908277Y-32749460D02*
X8898753Y-32730412D01*
X8898753Y-32730412D02*
X8898753Y-32654222D01*
X8898753Y-32654222D02*
X8908277Y-32635174D01*
X8908277Y-32635174D02*
X8927325Y-32625650D01*
X8927325Y-32625650D02*
X8965420Y-32625650D01*
X8965420Y-32625650D02*
X8984468Y-32635174D01*
X8984468Y-32635174D02*
X8993992Y-32654222D01*
X8993992Y-32654222D02*
X8993992Y-32673269D01*
X8993992Y-32673269D02*
X8898753Y-32692317D01*
X9070182Y-32749460D02*
X9089230Y-32758984D01*
X9089230Y-32758984D02*
X9127325Y-32758984D01*
X9127325Y-32758984D02*
X9146373Y-32749460D01*
X9146373Y-32749460D02*
X9155896Y-32730412D01*
X9155896Y-32730412D02*
X9155896Y-32720888D01*
X9155896Y-32720888D02*
X9146373Y-32701841D01*
X9146373Y-32701841D02*
X9127325Y-32692317D01*
X9127325Y-32692317D02*
X9098753Y-32692317D01*
X9098753Y-32692317D02*
X9079706Y-32682793D01*
X9079706Y-32682793D02*
X9070182Y-32663746D01*
X9070182Y-32663746D02*
X9070182Y-32654222D01*
X9070182Y-32654222D02*
X9079706Y-32635174D01*
X9079706Y-32635174D02*
X9098753Y-32625650D01*
X9098753Y-32625650D02*
X9127325Y-32625650D01*
X9127325Y-32625650D02*
X9146373Y-32635174D01*
X9222563Y-32835174D02*
X9232087Y-32825650D01*
X9232087Y-32825650D02*
X9251134Y-32797079D01*
X9251134Y-32797079D02*
X9260658Y-32778031D01*
X9260658Y-32778031D02*
X9270182Y-32749460D01*
X9270182Y-32749460D02*
X9279706Y-32701841D01*
X9279706Y-32701841D02*
X9279706Y-32663746D01*
X9279706Y-32663746D02*
X9270182Y-32616127D01*
X9270182Y-32616127D02*
X9260658Y-32587555D01*
X9260658Y-32587555D02*
X9251134Y-32568508D01*
X9251134Y-32568508D02*
X9232087Y-32539936D01*
X9232087Y-32539936D02*
X9222563Y-32530412D01*
D12*
X4447500Y-32931500D02*
G75*
G02*
X4417500Y-32931500I-15000J0D01*
G01*
X4417500Y-32931500D02*
G75*
G02*
X4447500Y-32931500I15000J0D01*
G01*
D11*
X4746372Y-32822984D02*
X4765420Y-32822984D01*
X4765420Y-32822984D02*
X4784467Y-32832508D01*
X4784467Y-32832508D02*
X4793991Y-32842031D01*
X4793991Y-32842031D02*
X4803515Y-32861079D01*
X4803515Y-32861079D02*
X4813039Y-32899174D01*
X4813039Y-32899174D02*
X4813039Y-32946793D01*
X4813039Y-32946793D02*
X4803515Y-32984888D01*
X4803515Y-32984888D02*
X4793991Y-33003936D01*
X4793991Y-33003936D02*
X4784467Y-33013460D01*
X4784467Y-33013460D02*
X4765420Y-33022984D01*
X4765420Y-33022984D02*
X4746372Y-33022984D01*
X4746372Y-33022984D02*
X4727324Y-33013460D01*
X4727324Y-33013460D02*
X4717801Y-33003936D01*
X4717801Y-33003936D02*
X4708277Y-32984888D01*
X4708277Y-32984888D02*
X4698753Y-32946793D01*
X4698753Y-32946793D02*
X4698753Y-32899174D01*
X4698753Y-32899174D02*
X4708277Y-32861079D01*
X4708277Y-32861079D02*
X4717801Y-32842031D01*
X4717801Y-32842031D02*
X4727324Y-32832508D01*
X4727324Y-32832508D02*
X4746372Y-32822984D01*
X4898753Y-33003936D02*
X4908277Y-33013460D01*
X4908277Y-33013460D02*
X4898753Y-33022984D01*
X4898753Y-33022984D02*
X4889229Y-33013460D01*
X4889229Y-33013460D02*
X4898753Y-33003936D01*
X4898753Y-33003936D02*
X4898753Y-33022984D01*
X4974944Y-32822984D02*
X5098753Y-32822984D01*
X5098753Y-32822984D02*
X5032086Y-32899174D01*
X5032086Y-32899174D02*
X5060658Y-32899174D01*
X5060658Y-32899174D02*
X5079705Y-32908698D01*
X5079705Y-32908698D02*
X5089229Y-32918222D01*
X5089229Y-32918222D02*
X5098753Y-32937269D01*
X5098753Y-32937269D02*
X5098753Y-32984888D01*
X5098753Y-32984888D02*
X5089229Y-33003936D01*
X5089229Y-33003936D02*
X5079705Y-33013460D01*
X5079705Y-33013460D02*
X5060658Y-33022984D01*
X5060658Y-33022984D02*
X5003515Y-33022984D01*
X5003515Y-33022984D02*
X4984467Y-33013460D01*
X4984467Y-33013460D02*
X4974944Y-33003936D01*
X5222563Y-32822984D02*
X5241610Y-32822984D01*
X5241610Y-32822984D02*
X5260658Y-32832508D01*
X5260658Y-32832508D02*
X5270182Y-32842031D01*
X5270182Y-32842031D02*
X5279705Y-32861079D01*
X5279705Y-32861079D02*
X5289229Y-32899174D01*
X5289229Y-32899174D02*
X5289229Y-32946793D01*
X5289229Y-32946793D02*
X5279705Y-32984888D01*
X5279705Y-32984888D02*
X5270182Y-33003936D01*
X5270182Y-33003936D02*
X5260658Y-33013460D01*
X5260658Y-33013460D02*
X5241610Y-33022984D01*
X5241610Y-33022984D02*
X5222563Y-33022984D01*
X5222563Y-33022984D02*
X5203515Y-33013460D01*
X5203515Y-33013460D02*
X5193991Y-33003936D01*
X5193991Y-33003936D02*
X5184467Y-32984888D01*
X5184467Y-32984888D02*
X5174944Y-32946793D01*
X5174944Y-32946793D02*
X5174944Y-32899174D01*
X5174944Y-32899174D02*
X5184467Y-32861079D01*
X5184467Y-32861079D02*
X5193991Y-32842031D01*
X5193991Y-32842031D02*
X5203515Y-32832508D01*
X5203515Y-32832508D02*
X5222563Y-32822984D01*
X5413039Y-32822984D02*
X5432086Y-32822984D01*
X5432086Y-32822984D02*
X5451134Y-32832508D01*
X5451134Y-32832508D02*
X5460658Y-32842031D01*
X5460658Y-32842031D02*
X5470182Y-32861079D01*
X5470182Y-32861079D02*
X5479705Y-32899174D01*
X5479705Y-32899174D02*
X5479705Y-32946793D01*
X5479705Y-32946793D02*
X5470182Y-32984888D01*
X5470182Y-32984888D02*
X5460658Y-33003936D01*
X5460658Y-33003936D02*
X5451134Y-33013460D01*
X5451134Y-33013460D02*
X5432086Y-33022984D01*
X5432086Y-33022984D02*
X5413039Y-33022984D01*
X5413039Y-33022984D02*
X5393991Y-33013460D01*
X5393991Y-33013460D02*
X5384467Y-33003936D01*
X5384467Y-33003936D02*
X5374944Y-32984888D01*
X5374944Y-32984888D02*
X5365420Y-32946793D01*
X5365420Y-32946793D02*
X5365420Y-32899174D01*
X5365420Y-32899174D02*
X5374944Y-32861079D01*
X5374944Y-32861079D02*
X5384467Y-32842031D01*
X5384467Y-32842031D02*
X5393991Y-32832508D01*
X5393991Y-32832508D02*
X5413039Y-32822984D01*
X5565420Y-33022984D02*
X5565420Y-32889650D01*
X5565420Y-32908698D02*
X5574944Y-32899174D01*
X5574944Y-32899174D02*
X5593991Y-32889650D01*
X5593991Y-32889650D02*
X5622563Y-32889650D01*
X5622563Y-32889650D02*
X5641610Y-32899174D01*
X5641610Y-32899174D02*
X5651134Y-32918222D01*
X5651134Y-32918222D02*
X5651134Y-33022984D01*
X5651134Y-32918222D02*
X5660658Y-32899174D01*
X5660658Y-32899174D02*
X5679705Y-32889650D01*
X5679705Y-32889650D02*
X5708277Y-32889650D01*
X5708277Y-32889650D02*
X5727324Y-32899174D01*
X5727324Y-32899174D02*
X5736848Y-32918222D01*
X5736848Y-32918222D02*
X5736848Y-33022984D01*
X5832086Y-33022984D02*
X5832086Y-32889650D01*
X5832086Y-32908698D02*
X5841610Y-32899174D01*
X5841610Y-32899174D02*
X5860658Y-32889650D01*
X5860658Y-32889650D02*
X5889229Y-32889650D01*
X5889229Y-32889650D02*
X5908277Y-32899174D01*
X5908277Y-32899174D02*
X5917801Y-32918222D01*
X5917801Y-32918222D02*
X5917801Y-33022984D01*
X5917801Y-32918222D02*
X5927324Y-32899174D01*
X5927324Y-32899174D02*
X5946372Y-32889650D01*
X5946372Y-32889650D02*
X5974943Y-32889650D01*
X5974943Y-32889650D02*
X5993991Y-32899174D01*
X5993991Y-32899174D02*
X6003515Y-32918222D01*
X6003515Y-32918222D02*
X6003515Y-33022984D01*
X6393991Y-32813460D02*
X6222563Y-33070603D01*
X6651134Y-32822984D02*
X6670182Y-32822984D01*
X6670182Y-32822984D02*
X6689229Y-32832508D01*
X6689229Y-32832508D02*
X6698753Y-32842031D01*
X6698753Y-32842031D02*
X6708277Y-32861079D01*
X6708277Y-32861079D02*
X6717801Y-32899174D01*
X6717801Y-32899174D02*
X6717801Y-32946793D01*
X6717801Y-32946793D02*
X6708277Y-32984888D01*
X6708277Y-32984888D02*
X6698753Y-33003936D01*
X6698753Y-33003936D02*
X6689229Y-33013460D01*
X6689229Y-33013460D02*
X6670182Y-33022984D01*
X6670182Y-33022984D02*
X6651134Y-33022984D01*
X6651134Y-33022984D02*
X6632086Y-33013460D01*
X6632086Y-33013460D02*
X6622563Y-33003936D01*
X6622563Y-33003936D02*
X6613039Y-32984888D01*
X6613039Y-32984888D02*
X6603515Y-32946793D01*
X6603515Y-32946793D02*
X6603515Y-32899174D01*
X6603515Y-32899174D02*
X6613039Y-32861079D01*
X6613039Y-32861079D02*
X6622563Y-32842031D01*
X6622563Y-32842031D02*
X6632086Y-32832508D01*
X6632086Y-32832508D02*
X6651134Y-32822984D01*
X6803515Y-33003936D02*
X6813039Y-33013460D01*
X6813039Y-33013460D02*
X6803515Y-33022984D01*
X6803515Y-33022984D02*
X6793991Y-33013460D01*
X6793991Y-33013460D02*
X6803515Y-33003936D01*
X6803515Y-33003936D02*
X6803515Y-33022984D01*
X6936848Y-32822984D02*
X6955896Y-32822984D01*
X6955896Y-32822984D02*
X6974944Y-32832508D01*
X6974944Y-32832508D02*
X6984467Y-32842031D01*
X6984467Y-32842031D02*
X6993991Y-32861079D01*
X6993991Y-32861079D02*
X7003515Y-32899174D01*
X7003515Y-32899174D02*
X7003515Y-32946793D01*
X7003515Y-32946793D02*
X6993991Y-32984888D01*
X6993991Y-32984888D02*
X6984467Y-33003936D01*
X6984467Y-33003936D02*
X6974944Y-33013460D01*
X6974944Y-33013460D02*
X6955896Y-33022984D01*
X6955896Y-33022984D02*
X6936848Y-33022984D01*
X6936848Y-33022984D02*
X6917801Y-33013460D01*
X6917801Y-33013460D02*
X6908277Y-33003936D01*
X6908277Y-33003936D02*
X6898753Y-32984888D01*
X6898753Y-32984888D02*
X6889229Y-32946793D01*
X6889229Y-32946793D02*
X6889229Y-32899174D01*
X6889229Y-32899174D02*
X6898753Y-32861079D01*
X6898753Y-32861079D02*
X6908277Y-32842031D01*
X6908277Y-32842031D02*
X6917801Y-32832508D01*
X6917801Y-32832508D02*
X6936848Y-32822984D01*
X7193991Y-33022984D02*
X7079706Y-33022984D01*
X7136848Y-33022984D02*
X7136848Y-32822984D01*
X7136848Y-32822984D02*
X7117801Y-32851555D01*
X7117801Y-32851555D02*
X7098753Y-32870603D01*
X7098753Y-32870603D02*
X7079706Y-32880127D01*
X7384467Y-33022984D02*
X7270182Y-33022984D01*
X7327325Y-33022984D02*
X7327325Y-32822984D01*
X7327325Y-32822984D02*
X7308277Y-32851555D01*
X7308277Y-32851555D02*
X7289229Y-32870603D01*
X7289229Y-32870603D02*
X7270182Y-32880127D01*
X7498753Y-32908698D02*
X7479706Y-32899174D01*
X7479706Y-32899174D02*
X7470182Y-32889650D01*
X7470182Y-32889650D02*
X7460658Y-32870603D01*
X7460658Y-32870603D02*
X7460658Y-32861079D01*
X7460658Y-32861079D02*
X7470182Y-32842031D01*
X7470182Y-32842031D02*
X7479706Y-32832508D01*
X7479706Y-32832508D02*
X7498753Y-32822984D01*
X7498753Y-32822984D02*
X7536848Y-32822984D01*
X7536848Y-32822984D02*
X7555896Y-32832508D01*
X7555896Y-32832508D02*
X7565420Y-32842031D01*
X7565420Y-32842031D02*
X7574944Y-32861079D01*
X7574944Y-32861079D02*
X7574944Y-32870603D01*
X7574944Y-32870603D02*
X7565420Y-32889650D01*
X7565420Y-32889650D02*
X7555896Y-32899174D01*
X7555896Y-32899174D02*
X7536848Y-32908698D01*
X7536848Y-32908698D02*
X7498753Y-32908698D01*
X7498753Y-32908698D02*
X7479706Y-32918222D01*
X7479706Y-32918222D02*
X7470182Y-32927746D01*
X7470182Y-32927746D02*
X7460658Y-32946793D01*
X7460658Y-32946793D02*
X7460658Y-32984888D01*
X7460658Y-32984888D02*
X7470182Y-33003936D01*
X7470182Y-33003936D02*
X7479706Y-33013460D01*
X7479706Y-33013460D02*
X7498753Y-33022984D01*
X7498753Y-33022984D02*
X7536848Y-33022984D01*
X7536848Y-33022984D02*
X7555896Y-33013460D01*
X7555896Y-33013460D02*
X7565420Y-33003936D01*
X7565420Y-33003936D02*
X7574944Y-32984888D01*
X7574944Y-32984888D02*
X7574944Y-32946793D01*
X7574944Y-32946793D02*
X7565420Y-32927746D01*
X7565420Y-32927746D02*
X7555896Y-32918222D01*
X7555896Y-32918222D02*
X7536848Y-32908698D01*
X7651134Y-32822984D02*
X7651134Y-32861079D01*
X7727325Y-32822984D02*
X7727325Y-32861079D01*
X8022563Y-33099174D02*
X8013039Y-33089650D01*
X8013039Y-33089650D02*
X7993991Y-33061079D01*
X7993991Y-33061079D02*
X7984468Y-33042031D01*
X7984468Y-33042031D02*
X7974944Y-33013460D01*
X7974944Y-33013460D02*
X7965420Y-32965841D01*
X7965420Y-32965841D02*
X7965420Y-32927746D01*
X7965420Y-32927746D02*
X7974944Y-32880127D01*
X7974944Y-32880127D02*
X7984468Y-32851555D01*
X7984468Y-32851555D02*
X7993991Y-32832508D01*
X7993991Y-32832508D02*
X8013039Y-32803936D01*
X8013039Y-32803936D02*
X8022563Y-32794412D01*
X8203515Y-33022984D02*
X8089229Y-33022984D01*
X8146372Y-33022984D02*
X8146372Y-32822984D01*
X8146372Y-32822984D02*
X8127325Y-32851555D01*
X8127325Y-32851555D02*
X8108277Y-32870603D01*
X8108277Y-32870603D02*
X8089229Y-32880127D01*
X8270182Y-32822984D02*
X8403515Y-32822984D01*
X8403515Y-32822984D02*
X8317801Y-33022984D01*
X8565420Y-32889650D02*
X8565420Y-33022984D01*
X8517801Y-32813460D02*
X8470182Y-32956317D01*
X8470182Y-32956317D02*
X8593991Y-32956317D01*
X8822563Y-33022984D02*
X8822563Y-32822984D01*
X8908277Y-33022984D02*
X8908277Y-32918222D01*
X8908277Y-32918222D02*
X8898753Y-32899174D01*
X8898753Y-32899174D02*
X8879706Y-32889650D01*
X8879706Y-32889650D02*
X8851134Y-32889650D01*
X8851134Y-32889650D02*
X8832087Y-32899174D01*
X8832087Y-32899174D02*
X8822563Y-32908698D01*
X9032087Y-33022984D02*
X9013039Y-33013460D01*
X9013039Y-33013460D02*
X9003515Y-33003936D01*
X9003515Y-33003936D02*
X8993992Y-32984888D01*
X8993992Y-32984888D02*
X8993992Y-32927746D01*
X8993992Y-32927746D02*
X9003515Y-32908698D01*
X9003515Y-32908698D02*
X9013039Y-32899174D01*
X9013039Y-32899174D02*
X9032087Y-32889650D01*
X9032087Y-32889650D02*
X9060658Y-32889650D01*
X9060658Y-32889650D02*
X9079706Y-32899174D01*
X9079706Y-32899174D02*
X9089230Y-32908698D01*
X9089230Y-32908698D02*
X9098753Y-32927746D01*
X9098753Y-32927746D02*
X9098753Y-32984888D01*
X9098753Y-32984888D02*
X9089230Y-33003936D01*
X9089230Y-33003936D02*
X9079706Y-33013460D01*
X9079706Y-33013460D02*
X9060658Y-33022984D01*
X9060658Y-33022984D02*
X9032087Y-33022984D01*
X9213039Y-33022984D02*
X9193992Y-33013460D01*
X9193992Y-33013460D02*
X9184468Y-32994412D01*
X9184468Y-32994412D02*
X9184468Y-32822984D01*
X9365420Y-33013460D02*
X9346373Y-33022984D01*
X9346373Y-33022984D02*
X9308277Y-33022984D01*
X9308277Y-33022984D02*
X9289230Y-33013460D01*
X9289230Y-33013460D02*
X9279706Y-32994412D01*
X9279706Y-32994412D02*
X9279706Y-32918222D01*
X9279706Y-32918222D02*
X9289230Y-32899174D01*
X9289230Y-32899174D02*
X9308277Y-32889650D01*
X9308277Y-32889650D02*
X9346373Y-32889650D01*
X9346373Y-32889650D02*
X9365420Y-32899174D01*
X9365420Y-32899174D02*
X9374944Y-32918222D01*
X9374944Y-32918222D02*
X9374944Y-32937269D01*
X9374944Y-32937269D02*
X9279706Y-32956317D01*
X9451134Y-33013460D02*
X9470182Y-33022984D01*
X9470182Y-33022984D02*
X9508277Y-33022984D01*
X9508277Y-33022984D02*
X9527325Y-33013460D01*
X9527325Y-33013460D02*
X9536849Y-32994412D01*
X9536849Y-32994412D02*
X9536849Y-32984888D01*
X9536849Y-32984888D02*
X9527325Y-32965841D01*
X9527325Y-32965841D02*
X9508277Y-32956317D01*
X9508277Y-32956317D02*
X9479706Y-32956317D01*
X9479706Y-32956317D02*
X9460658Y-32946793D01*
X9460658Y-32946793D02*
X9451134Y-32927746D01*
X9451134Y-32927746D02*
X9451134Y-32918222D01*
X9451134Y-32918222D02*
X9460658Y-32899174D01*
X9460658Y-32899174D02*
X9479706Y-32889650D01*
X9479706Y-32889650D02*
X9508277Y-32889650D01*
X9508277Y-32889650D02*
X9527325Y-32899174D01*
X9603515Y-33099174D02*
X9613039Y-33089650D01*
X9613039Y-33089650D02*
X9632087Y-33061079D01*
X9632087Y-33061079D02*
X9641611Y-33042031D01*
X9641611Y-33042031D02*
X9651134Y-33013460D01*
X9651134Y-33013460D02*
X9660658Y-32965841D01*
X9660658Y-32965841D02*
X9660658Y-32927746D01*
X9660658Y-32927746D02*
X9651134Y-32880127D01*
X9651134Y-32880127D02*
X9641611Y-32851555D01*
X9641611Y-32851555D02*
X9632087Y-32832508D01*
X9632087Y-32832508D02*
X9613039Y-32803936D01*
X9613039Y-32803936D02*
X9603515Y-32794412D01*
D12*
X4397500Y-33145500D02*
X4397500Y-33245500D01*
X4347500Y-33195500D02*
X4447500Y-33195500D01*
D11*
X4813039Y-33286984D02*
X4698753Y-33286984D01*
X4755896Y-33286984D02*
X4755896Y-33086984D01*
X4755896Y-33086984D02*
X4736848Y-33115555D01*
X4736848Y-33115555D02*
X4717801Y-33134603D01*
X4717801Y-33134603D02*
X4698753Y-33144127D01*
X4898753Y-33267936D02*
X4908277Y-33277460D01*
X4908277Y-33277460D02*
X4898753Y-33286984D01*
X4898753Y-33286984D02*
X4889229Y-33277460D01*
X4889229Y-33277460D02*
X4898753Y-33267936D01*
X4898753Y-33267936D02*
X4898753Y-33286984D01*
X5032086Y-33086984D02*
X5051134Y-33086984D01*
X5051134Y-33086984D02*
X5070182Y-33096508D01*
X5070182Y-33096508D02*
X5079705Y-33106031D01*
X5079705Y-33106031D02*
X5089229Y-33125079D01*
X5089229Y-33125079D02*
X5098753Y-33163174D01*
X5098753Y-33163174D02*
X5098753Y-33210793D01*
X5098753Y-33210793D02*
X5089229Y-33248888D01*
X5089229Y-33248888D02*
X5079705Y-33267936D01*
X5079705Y-33267936D02*
X5070182Y-33277460D01*
X5070182Y-33277460D02*
X5051134Y-33286984D01*
X5051134Y-33286984D02*
X5032086Y-33286984D01*
X5032086Y-33286984D02*
X5013039Y-33277460D01*
X5013039Y-33277460D02*
X5003515Y-33267936D01*
X5003515Y-33267936D02*
X4993991Y-33248888D01*
X4993991Y-33248888D02*
X4984467Y-33210793D01*
X4984467Y-33210793D02*
X4984467Y-33163174D01*
X4984467Y-33163174D02*
X4993991Y-33125079D01*
X4993991Y-33125079D02*
X5003515Y-33106031D01*
X5003515Y-33106031D02*
X5013039Y-33096508D01*
X5013039Y-33096508D02*
X5032086Y-33086984D01*
X5222563Y-33086984D02*
X5241610Y-33086984D01*
X5241610Y-33086984D02*
X5260658Y-33096508D01*
X5260658Y-33096508D02*
X5270182Y-33106031D01*
X5270182Y-33106031D02*
X5279705Y-33125079D01*
X5279705Y-33125079D02*
X5289229Y-33163174D01*
X5289229Y-33163174D02*
X5289229Y-33210793D01*
X5289229Y-33210793D02*
X5279705Y-33248888D01*
X5279705Y-33248888D02*
X5270182Y-33267936D01*
X5270182Y-33267936D02*
X5260658Y-33277460D01*
X5260658Y-33277460D02*
X5241610Y-33286984D01*
X5241610Y-33286984D02*
X5222563Y-33286984D01*
X5222563Y-33286984D02*
X5203515Y-33277460D01*
X5203515Y-33277460D02*
X5193991Y-33267936D01*
X5193991Y-33267936D02*
X5184467Y-33248888D01*
X5184467Y-33248888D02*
X5174944Y-33210793D01*
X5174944Y-33210793D02*
X5174944Y-33163174D01*
X5174944Y-33163174D02*
X5184467Y-33125079D01*
X5184467Y-33125079D02*
X5193991Y-33106031D01*
X5193991Y-33106031D02*
X5203515Y-33096508D01*
X5203515Y-33096508D02*
X5222563Y-33086984D01*
X5413039Y-33086984D02*
X5432086Y-33086984D01*
X5432086Y-33086984D02*
X5451134Y-33096508D01*
X5451134Y-33096508D02*
X5460658Y-33106031D01*
X5460658Y-33106031D02*
X5470182Y-33125079D01*
X5470182Y-33125079D02*
X5479705Y-33163174D01*
X5479705Y-33163174D02*
X5479705Y-33210793D01*
X5479705Y-33210793D02*
X5470182Y-33248888D01*
X5470182Y-33248888D02*
X5460658Y-33267936D01*
X5460658Y-33267936D02*
X5451134Y-33277460D01*
X5451134Y-33277460D02*
X5432086Y-33286984D01*
X5432086Y-33286984D02*
X5413039Y-33286984D01*
X5413039Y-33286984D02*
X5393991Y-33277460D01*
X5393991Y-33277460D02*
X5384467Y-33267936D01*
X5384467Y-33267936D02*
X5374944Y-33248888D01*
X5374944Y-33248888D02*
X5365420Y-33210793D01*
X5365420Y-33210793D02*
X5365420Y-33163174D01*
X5365420Y-33163174D02*
X5374944Y-33125079D01*
X5374944Y-33125079D02*
X5384467Y-33106031D01*
X5384467Y-33106031D02*
X5393991Y-33096508D01*
X5393991Y-33096508D02*
X5413039Y-33086984D01*
X5565420Y-33286984D02*
X5565420Y-33153650D01*
X5565420Y-33172698D02*
X5574944Y-33163174D01*
X5574944Y-33163174D02*
X5593991Y-33153650D01*
X5593991Y-33153650D02*
X5622563Y-33153650D01*
X5622563Y-33153650D02*
X5641610Y-33163174D01*
X5641610Y-33163174D02*
X5651134Y-33182222D01*
X5651134Y-33182222D02*
X5651134Y-33286984D01*
X5651134Y-33182222D02*
X5660658Y-33163174D01*
X5660658Y-33163174D02*
X5679705Y-33153650D01*
X5679705Y-33153650D02*
X5708277Y-33153650D01*
X5708277Y-33153650D02*
X5727324Y-33163174D01*
X5727324Y-33163174D02*
X5736848Y-33182222D01*
X5736848Y-33182222D02*
X5736848Y-33286984D01*
X5832086Y-33286984D02*
X5832086Y-33153650D01*
X5832086Y-33172698D02*
X5841610Y-33163174D01*
X5841610Y-33163174D02*
X5860658Y-33153650D01*
X5860658Y-33153650D02*
X5889229Y-33153650D01*
X5889229Y-33153650D02*
X5908277Y-33163174D01*
X5908277Y-33163174D02*
X5917801Y-33182222D01*
X5917801Y-33182222D02*
X5917801Y-33286984D01*
X5917801Y-33182222D02*
X5927324Y-33163174D01*
X5927324Y-33163174D02*
X5946372Y-33153650D01*
X5946372Y-33153650D02*
X5974943Y-33153650D01*
X5974943Y-33153650D02*
X5993991Y-33163174D01*
X5993991Y-33163174D02*
X6003515Y-33182222D01*
X6003515Y-33182222D02*
X6003515Y-33286984D01*
X6393991Y-33077460D02*
X6222563Y-33334603D01*
X6651134Y-33086984D02*
X6670182Y-33086984D01*
X6670182Y-33086984D02*
X6689229Y-33096508D01*
X6689229Y-33096508D02*
X6698753Y-33106031D01*
X6698753Y-33106031D02*
X6708277Y-33125079D01*
X6708277Y-33125079D02*
X6717801Y-33163174D01*
X6717801Y-33163174D02*
X6717801Y-33210793D01*
X6717801Y-33210793D02*
X6708277Y-33248888D01*
X6708277Y-33248888D02*
X6698753Y-33267936D01*
X6698753Y-33267936D02*
X6689229Y-33277460D01*
X6689229Y-33277460D02*
X6670182Y-33286984D01*
X6670182Y-33286984D02*
X6651134Y-33286984D01*
X6651134Y-33286984D02*
X6632086Y-33277460D01*
X6632086Y-33277460D02*
X6622563Y-33267936D01*
X6622563Y-33267936D02*
X6613039Y-33248888D01*
X6613039Y-33248888D02*
X6603515Y-33210793D01*
X6603515Y-33210793D02*
X6603515Y-33163174D01*
X6603515Y-33163174D02*
X6613039Y-33125079D01*
X6613039Y-33125079D02*
X6622563Y-33106031D01*
X6622563Y-33106031D02*
X6632086Y-33096508D01*
X6632086Y-33096508D02*
X6651134Y-33086984D01*
X6803515Y-33267936D02*
X6813039Y-33277460D01*
X6813039Y-33277460D02*
X6803515Y-33286984D01*
X6803515Y-33286984D02*
X6793991Y-33277460D01*
X6793991Y-33277460D02*
X6803515Y-33267936D01*
X6803515Y-33267936D02*
X6803515Y-33286984D01*
X6936848Y-33086984D02*
X6955896Y-33086984D01*
X6955896Y-33086984D02*
X6974944Y-33096508D01*
X6974944Y-33096508D02*
X6984467Y-33106031D01*
X6984467Y-33106031D02*
X6993991Y-33125079D01*
X6993991Y-33125079D02*
X7003515Y-33163174D01*
X7003515Y-33163174D02*
X7003515Y-33210793D01*
X7003515Y-33210793D02*
X6993991Y-33248888D01*
X6993991Y-33248888D02*
X6984467Y-33267936D01*
X6984467Y-33267936D02*
X6974944Y-33277460D01*
X6974944Y-33277460D02*
X6955896Y-33286984D01*
X6955896Y-33286984D02*
X6936848Y-33286984D01*
X6936848Y-33286984D02*
X6917801Y-33277460D01*
X6917801Y-33277460D02*
X6908277Y-33267936D01*
X6908277Y-33267936D02*
X6898753Y-33248888D01*
X6898753Y-33248888D02*
X6889229Y-33210793D01*
X6889229Y-33210793D02*
X6889229Y-33163174D01*
X6889229Y-33163174D02*
X6898753Y-33125079D01*
X6898753Y-33125079D02*
X6908277Y-33106031D01*
X6908277Y-33106031D02*
X6917801Y-33096508D01*
X6917801Y-33096508D02*
X6936848Y-33086984D01*
X7070182Y-33086984D02*
X7193991Y-33086984D01*
X7193991Y-33086984D02*
X7127325Y-33163174D01*
X7127325Y-33163174D02*
X7155896Y-33163174D01*
X7155896Y-33163174D02*
X7174944Y-33172698D01*
X7174944Y-33172698D02*
X7184467Y-33182222D01*
X7184467Y-33182222D02*
X7193991Y-33201269D01*
X7193991Y-33201269D02*
X7193991Y-33248888D01*
X7193991Y-33248888D02*
X7184467Y-33267936D01*
X7184467Y-33267936D02*
X7174944Y-33277460D01*
X7174944Y-33277460D02*
X7155896Y-33286984D01*
X7155896Y-33286984D02*
X7098753Y-33286984D01*
X7098753Y-33286984D02*
X7079706Y-33277460D01*
X7079706Y-33277460D02*
X7070182Y-33267936D01*
X7289229Y-33286984D02*
X7327325Y-33286984D01*
X7327325Y-33286984D02*
X7346372Y-33277460D01*
X7346372Y-33277460D02*
X7355896Y-33267936D01*
X7355896Y-33267936D02*
X7374944Y-33239365D01*
X7374944Y-33239365D02*
X7384467Y-33201269D01*
X7384467Y-33201269D02*
X7384467Y-33125079D01*
X7384467Y-33125079D02*
X7374944Y-33106031D01*
X7374944Y-33106031D02*
X7365420Y-33096508D01*
X7365420Y-33096508D02*
X7346372Y-33086984D01*
X7346372Y-33086984D02*
X7308277Y-33086984D01*
X7308277Y-33086984D02*
X7289229Y-33096508D01*
X7289229Y-33096508D02*
X7279706Y-33106031D01*
X7279706Y-33106031D02*
X7270182Y-33125079D01*
X7270182Y-33125079D02*
X7270182Y-33172698D01*
X7270182Y-33172698D02*
X7279706Y-33191746D01*
X7279706Y-33191746D02*
X7289229Y-33201269D01*
X7289229Y-33201269D02*
X7308277Y-33210793D01*
X7308277Y-33210793D02*
X7346372Y-33210793D01*
X7346372Y-33210793D02*
X7365420Y-33201269D01*
X7365420Y-33201269D02*
X7374944Y-33191746D01*
X7374944Y-33191746D02*
X7384467Y-33172698D01*
X7555896Y-33153650D02*
X7555896Y-33286984D01*
X7508277Y-33077460D02*
X7460658Y-33220317D01*
X7460658Y-33220317D02*
X7584467Y-33220317D01*
X7651134Y-33086984D02*
X7651134Y-33125079D01*
X7727325Y-33086984D02*
X7727325Y-33125079D01*
X8022563Y-33363174D02*
X8013039Y-33353650D01*
X8013039Y-33353650D02*
X7993991Y-33325079D01*
X7993991Y-33325079D02*
X7984468Y-33306031D01*
X7984468Y-33306031D02*
X7974944Y-33277460D01*
X7974944Y-33277460D02*
X7965420Y-33229841D01*
X7965420Y-33229841D02*
X7965420Y-33191746D01*
X7965420Y-33191746D02*
X7974944Y-33144127D01*
X7974944Y-33144127D02*
X7984468Y-33115555D01*
X7984468Y-33115555D02*
X7993991Y-33096508D01*
X7993991Y-33096508D02*
X8013039Y-33067936D01*
X8013039Y-33067936D02*
X8022563Y-33058412D01*
X8203515Y-33286984D02*
X8089229Y-33286984D01*
X8146372Y-33286984D02*
X8146372Y-33086984D01*
X8146372Y-33086984D02*
X8127325Y-33115555D01*
X8127325Y-33115555D02*
X8108277Y-33134603D01*
X8108277Y-33134603D02*
X8089229Y-33144127D01*
X8374944Y-33086984D02*
X8336848Y-33086984D01*
X8336848Y-33086984D02*
X8317801Y-33096508D01*
X8317801Y-33096508D02*
X8308277Y-33106031D01*
X8308277Y-33106031D02*
X8289229Y-33134603D01*
X8289229Y-33134603D02*
X8279706Y-33172698D01*
X8279706Y-33172698D02*
X8279706Y-33248888D01*
X8279706Y-33248888D02*
X8289229Y-33267936D01*
X8289229Y-33267936D02*
X8298753Y-33277460D01*
X8298753Y-33277460D02*
X8317801Y-33286984D01*
X8317801Y-33286984D02*
X8355896Y-33286984D01*
X8355896Y-33286984D02*
X8374944Y-33277460D01*
X8374944Y-33277460D02*
X8384468Y-33267936D01*
X8384468Y-33267936D02*
X8393991Y-33248888D01*
X8393991Y-33248888D02*
X8393991Y-33201269D01*
X8393991Y-33201269D02*
X8384468Y-33182222D01*
X8384468Y-33182222D02*
X8374944Y-33172698D01*
X8374944Y-33172698D02*
X8355896Y-33163174D01*
X8355896Y-33163174D02*
X8317801Y-33163174D01*
X8317801Y-33163174D02*
X8298753Y-33172698D01*
X8298753Y-33172698D02*
X8289229Y-33182222D01*
X8289229Y-33182222D02*
X8279706Y-33201269D01*
X8632087Y-33286984D02*
X8632087Y-33086984D01*
X8717801Y-33286984D02*
X8717801Y-33182222D01*
X8717801Y-33182222D02*
X8708277Y-33163174D01*
X8708277Y-33163174D02*
X8689230Y-33153650D01*
X8689230Y-33153650D02*
X8660658Y-33153650D01*
X8660658Y-33153650D02*
X8641611Y-33163174D01*
X8641611Y-33163174D02*
X8632087Y-33172698D01*
X8841611Y-33286984D02*
X8822563Y-33277460D01*
X8822563Y-33277460D02*
X8813039Y-33267936D01*
X8813039Y-33267936D02*
X8803515Y-33248888D01*
X8803515Y-33248888D02*
X8803515Y-33191746D01*
X8803515Y-33191746D02*
X8813039Y-33172698D01*
X8813039Y-33172698D02*
X8822563Y-33163174D01*
X8822563Y-33163174D02*
X8841611Y-33153650D01*
X8841611Y-33153650D02*
X8870182Y-33153650D01*
X8870182Y-33153650D02*
X8889230Y-33163174D01*
X8889230Y-33163174D02*
X8898753Y-33172698D01*
X8898753Y-33172698D02*
X8908277Y-33191746D01*
X8908277Y-33191746D02*
X8908277Y-33248888D01*
X8908277Y-33248888D02*
X8898753Y-33267936D01*
X8898753Y-33267936D02*
X8889230Y-33277460D01*
X8889230Y-33277460D02*
X8870182Y-33286984D01*
X8870182Y-33286984D02*
X8841611Y-33286984D01*
X9022563Y-33286984D02*
X9003515Y-33277460D01*
X9003515Y-33277460D02*
X8993992Y-33258412D01*
X8993992Y-33258412D02*
X8993992Y-33086984D01*
X9174944Y-33277460D02*
X9155896Y-33286984D01*
X9155896Y-33286984D02*
X9117801Y-33286984D01*
X9117801Y-33286984D02*
X9098753Y-33277460D01*
X9098753Y-33277460D02*
X9089230Y-33258412D01*
X9089230Y-33258412D02*
X9089230Y-33182222D01*
X9089230Y-33182222D02*
X9098753Y-33163174D01*
X9098753Y-33163174D02*
X9117801Y-33153650D01*
X9117801Y-33153650D02*
X9155896Y-33153650D01*
X9155896Y-33153650D02*
X9174944Y-33163174D01*
X9174944Y-33163174D02*
X9184468Y-33182222D01*
X9184468Y-33182222D02*
X9184468Y-33201269D01*
X9184468Y-33201269D02*
X9089230Y-33220317D01*
X9260658Y-33277460D02*
X9279706Y-33286984D01*
X9279706Y-33286984D02*
X9317801Y-33286984D01*
X9317801Y-33286984D02*
X9336849Y-33277460D01*
X9336849Y-33277460D02*
X9346373Y-33258412D01*
X9346373Y-33258412D02*
X9346373Y-33248888D01*
X9346373Y-33248888D02*
X9336849Y-33229841D01*
X9336849Y-33229841D02*
X9317801Y-33220317D01*
X9317801Y-33220317D02*
X9289230Y-33220317D01*
X9289230Y-33220317D02*
X9270182Y-33210793D01*
X9270182Y-33210793D02*
X9260658Y-33191746D01*
X9260658Y-33191746D02*
X9260658Y-33182222D01*
X9260658Y-33182222D02*
X9270182Y-33163174D01*
X9270182Y-33163174D02*
X9289230Y-33153650D01*
X9289230Y-33153650D02*
X9317801Y-33153650D01*
X9317801Y-33153650D02*
X9336849Y-33163174D01*
X9413039Y-33363174D02*
X9422563Y-33353650D01*
X9422563Y-33353650D02*
X9441611Y-33325079D01*
X9441611Y-33325079D02*
X9451134Y-33306031D01*
X9451134Y-33306031D02*
X9460658Y-33277460D01*
X9460658Y-33277460D02*
X9470182Y-33229841D01*
X9470182Y-33229841D02*
X9470182Y-33191746D01*
X9470182Y-33191746D02*
X9460658Y-33144127D01*
X9460658Y-33144127D02*
X9451134Y-33115555D01*
X9451134Y-33115555D02*
X9441611Y-33096508D01*
X9441611Y-33096508D02*
X9422563Y-33067936D01*
X9422563Y-33067936D02*
X9413039Y-33058412D01*
D13*
X4429927Y-33501927D02*
X4429927Y-33417073D01*
X4345073Y-33417073D01*
X4345073Y-33501927D01*
X4429927Y-33501927D01*
D11*
X4813039Y-33550984D02*
X4698753Y-33550984D01*
X4755896Y-33550984D02*
X4755896Y-33350984D01*
X4755896Y-33350984D02*
X4736848Y-33379555D01*
X4736848Y-33379555D02*
X4717801Y-33398603D01*
X4717801Y-33398603D02*
X4698753Y-33408127D01*
X4898753Y-33531936D02*
X4908277Y-33541460D01*
X4908277Y-33541460D02*
X4898753Y-33550984D01*
X4898753Y-33550984D02*
X4889229Y-33541460D01*
X4889229Y-33541460D02*
X4898753Y-33531936D01*
X4898753Y-33531936D02*
X4898753Y-33550984D01*
X4984467Y-33370031D02*
X4993991Y-33360508D01*
X4993991Y-33360508D02*
X5013039Y-33350984D01*
X5013039Y-33350984D02*
X5060658Y-33350984D01*
X5060658Y-33350984D02*
X5079705Y-33360508D01*
X5079705Y-33360508D02*
X5089229Y-33370031D01*
X5089229Y-33370031D02*
X5098753Y-33389079D01*
X5098753Y-33389079D02*
X5098753Y-33408127D01*
X5098753Y-33408127D02*
X5089229Y-33436698D01*
X5089229Y-33436698D02*
X4974944Y-33550984D01*
X4974944Y-33550984D02*
X5098753Y-33550984D01*
X5222563Y-33350984D02*
X5241610Y-33350984D01*
X5241610Y-33350984D02*
X5260658Y-33360508D01*
X5260658Y-33360508D02*
X5270182Y-33370031D01*
X5270182Y-33370031D02*
X5279705Y-33389079D01*
X5279705Y-33389079D02*
X5289229Y-33427174D01*
X5289229Y-33427174D02*
X5289229Y-33474793D01*
X5289229Y-33474793D02*
X5279705Y-33512888D01*
X5279705Y-33512888D02*
X5270182Y-33531936D01*
X5270182Y-33531936D02*
X5260658Y-33541460D01*
X5260658Y-33541460D02*
X5241610Y-33550984D01*
X5241610Y-33550984D02*
X5222563Y-33550984D01*
X5222563Y-33550984D02*
X5203515Y-33541460D01*
X5203515Y-33541460D02*
X5193991Y-33531936D01*
X5193991Y-33531936D02*
X5184467Y-33512888D01*
X5184467Y-33512888D02*
X5174944Y-33474793D01*
X5174944Y-33474793D02*
X5174944Y-33427174D01*
X5174944Y-33427174D02*
X5184467Y-33389079D01*
X5184467Y-33389079D02*
X5193991Y-33370031D01*
X5193991Y-33370031D02*
X5203515Y-33360508D01*
X5203515Y-33360508D02*
X5222563Y-33350984D01*
X5413039Y-33350984D02*
X5432086Y-33350984D01*
X5432086Y-33350984D02*
X5451134Y-33360508D01*
X5451134Y-33360508D02*
X5460658Y-33370031D01*
X5460658Y-33370031D02*
X5470182Y-33389079D01*
X5470182Y-33389079D02*
X5479705Y-33427174D01*
X5479705Y-33427174D02*
X5479705Y-33474793D01*
X5479705Y-33474793D02*
X5470182Y-33512888D01*
X5470182Y-33512888D02*
X5460658Y-33531936D01*
X5460658Y-33531936D02*
X5451134Y-33541460D01*
X5451134Y-33541460D02*
X5432086Y-33550984D01*
X5432086Y-33550984D02*
X5413039Y-33550984D01*
X5413039Y-33550984D02*
X5393991Y-33541460D01*
X5393991Y-33541460D02*
X5384467Y-33531936D01*
X5384467Y-33531936D02*
X5374944Y-33512888D01*
X5374944Y-33512888D02*
X5365420Y-33474793D01*
X5365420Y-33474793D02*
X5365420Y-33427174D01*
X5365420Y-33427174D02*
X5374944Y-33389079D01*
X5374944Y-33389079D02*
X5384467Y-33370031D01*
X5384467Y-33370031D02*
X5393991Y-33360508D01*
X5393991Y-33360508D02*
X5413039Y-33350984D01*
X5565420Y-33550984D02*
X5565420Y-33417650D01*
X5565420Y-33436698D02*
X5574944Y-33427174D01*
X5574944Y-33427174D02*
X5593991Y-33417650D01*
X5593991Y-33417650D02*
X5622563Y-33417650D01*
X5622563Y-33417650D02*
X5641610Y-33427174D01*
X5641610Y-33427174D02*
X5651134Y-33446222D01*
X5651134Y-33446222D02*
X5651134Y-33550984D01*
X5651134Y-33446222D02*
X5660658Y-33427174D01*
X5660658Y-33427174D02*
X5679705Y-33417650D01*
X5679705Y-33417650D02*
X5708277Y-33417650D01*
X5708277Y-33417650D02*
X5727324Y-33427174D01*
X5727324Y-33427174D02*
X5736848Y-33446222D01*
X5736848Y-33446222D02*
X5736848Y-33550984D01*
X5832086Y-33550984D02*
X5832086Y-33417650D01*
X5832086Y-33436698D02*
X5841610Y-33427174D01*
X5841610Y-33427174D02*
X5860658Y-33417650D01*
X5860658Y-33417650D02*
X5889229Y-33417650D01*
X5889229Y-33417650D02*
X5908277Y-33427174D01*
X5908277Y-33427174D02*
X5917801Y-33446222D01*
X5917801Y-33446222D02*
X5917801Y-33550984D01*
X5917801Y-33446222D02*
X5927324Y-33427174D01*
X5927324Y-33427174D02*
X5946372Y-33417650D01*
X5946372Y-33417650D02*
X5974943Y-33417650D01*
X5974943Y-33417650D02*
X5993991Y-33427174D01*
X5993991Y-33427174D02*
X6003515Y-33446222D01*
X6003515Y-33446222D02*
X6003515Y-33550984D01*
X6393991Y-33341460D02*
X6222563Y-33598603D01*
X6651134Y-33350984D02*
X6670182Y-33350984D01*
X6670182Y-33350984D02*
X6689229Y-33360508D01*
X6689229Y-33360508D02*
X6698753Y-33370031D01*
X6698753Y-33370031D02*
X6708277Y-33389079D01*
X6708277Y-33389079D02*
X6717801Y-33427174D01*
X6717801Y-33427174D02*
X6717801Y-33474793D01*
X6717801Y-33474793D02*
X6708277Y-33512888D01*
X6708277Y-33512888D02*
X6698753Y-33531936D01*
X6698753Y-33531936D02*
X6689229Y-33541460D01*
X6689229Y-33541460D02*
X6670182Y-33550984D01*
X6670182Y-33550984D02*
X6651134Y-33550984D01*
X6651134Y-33550984D02*
X6632086Y-33541460D01*
X6632086Y-33541460D02*
X6622563Y-33531936D01*
X6622563Y-33531936D02*
X6613039Y-33512888D01*
X6613039Y-33512888D02*
X6603515Y-33474793D01*
X6603515Y-33474793D02*
X6603515Y-33427174D01*
X6603515Y-33427174D02*
X6613039Y-33389079D01*
X6613039Y-33389079D02*
X6622563Y-33370031D01*
X6622563Y-33370031D02*
X6632086Y-33360508D01*
X6632086Y-33360508D02*
X6651134Y-33350984D01*
X6803515Y-33531936D02*
X6813039Y-33541460D01*
X6813039Y-33541460D02*
X6803515Y-33550984D01*
X6803515Y-33550984D02*
X6793991Y-33541460D01*
X6793991Y-33541460D02*
X6803515Y-33531936D01*
X6803515Y-33531936D02*
X6803515Y-33550984D01*
X6936848Y-33350984D02*
X6955896Y-33350984D01*
X6955896Y-33350984D02*
X6974944Y-33360508D01*
X6974944Y-33360508D02*
X6984467Y-33370031D01*
X6984467Y-33370031D02*
X6993991Y-33389079D01*
X6993991Y-33389079D02*
X7003515Y-33427174D01*
X7003515Y-33427174D02*
X7003515Y-33474793D01*
X7003515Y-33474793D02*
X6993991Y-33512888D01*
X6993991Y-33512888D02*
X6984467Y-33531936D01*
X6984467Y-33531936D02*
X6974944Y-33541460D01*
X6974944Y-33541460D02*
X6955896Y-33550984D01*
X6955896Y-33550984D02*
X6936848Y-33550984D01*
X6936848Y-33550984D02*
X6917801Y-33541460D01*
X6917801Y-33541460D02*
X6908277Y-33531936D01*
X6908277Y-33531936D02*
X6898753Y-33512888D01*
X6898753Y-33512888D02*
X6889229Y-33474793D01*
X6889229Y-33474793D02*
X6889229Y-33427174D01*
X6889229Y-33427174D02*
X6898753Y-33389079D01*
X6898753Y-33389079D02*
X6908277Y-33370031D01*
X6908277Y-33370031D02*
X6917801Y-33360508D01*
X6917801Y-33360508D02*
X6936848Y-33350984D01*
X7174944Y-33417650D02*
X7174944Y-33550984D01*
X7127325Y-33341460D02*
X7079706Y-33484317D01*
X7079706Y-33484317D02*
X7203515Y-33484317D01*
X7260658Y-33350984D02*
X7393991Y-33350984D01*
X7393991Y-33350984D02*
X7308277Y-33550984D01*
X7460658Y-33370031D02*
X7470182Y-33360508D01*
X7470182Y-33360508D02*
X7489229Y-33350984D01*
X7489229Y-33350984D02*
X7536848Y-33350984D01*
X7536848Y-33350984D02*
X7555896Y-33360508D01*
X7555896Y-33360508D02*
X7565420Y-33370031D01*
X7565420Y-33370031D02*
X7574944Y-33389079D01*
X7574944Y-33389079D02*
X7574944Y-33408127D01*
X7574944Y-33408127D02*
X7565420Y-33436698D01*
X7565420Y-33436698D02*
X7451134Y-33550984D01*
X7451134Y-33550984D02*
X7574944Y-33550984D01*
X7651134Y-33350984D02*
X7651134Y-33389079D01*
X7727325Y-33350984D02*
X7727325Y-33389079D01*
X8022563Y-33627174D02*
X8013039Y-33617650D01*
X8013039Y-33617650D02*
X7993991Y-33589079D01*
X7993991Y-33589079D02*
X7984468Y-33570031D01*
X7984468Y-33570031D02*
X7974944Y-33541460D01*
X7974944Y-33541460D02*
X7965420Y-33493841D01*
X7965420Y-33493841D02*
X7965420Y-33455746D01*
X7965420Y-33455746D02*
X7974944Y-33408127D01*
X7974944Y-33408127D02*
X7984468Y-33379555D01*
X7984468Y-33379555D02*
X7993991Y-33360508D01*
X7993991Y-33360508D02*
X8013039Y-33331936D01*
X8013039Y-33331936D02*
X8022563Y-33322412D01*
X8193991Y-33350984D02*
X8098753Y-33350984D01*
X8098753Y-33350984D02*
X8089229Y-33446222D01*
X8089229Y-33446222D02*
X8098753Y-33436698D01*
X8098753Y-33436698D02*
X8117801Y-33427174D01*
X8117801Y-33427174D02*
X8165420Y-33427174D01*
X8165420Y-33427174D02*
X8184468Y-33436698D01*
X8184468Y-33436698D02*
X8193991Y-33446222D01*
X8193991Y-33446222D02*
X8203515Y-33465269D01*
X8203515Y-33465269D02*
X8203515Y-33512888D01*
X8203515Y-33512888D02*
X8193991Y-33531936D01*
X8193991Y-33531936D02*
X8184468Y-33541460D01*
X8184468Y-33541460D02*
X8165420Y-33550984D01*
X8165420Y-33550984D02*
X8117801Y-33550984D01*
X8117801Y-33550984D02*
X8098753Y-33541460D01*
X8098753Y-33541460D02*
X8089229Y-33531936D01*
X8441611Y-33550984D02*
X8441611Y-33350984D01*
X8527325Y-33550984D02*
X8527325Y-33446222D01*
X8527325Y-33446222D02*
X8517801Y-33427174D01*
X8517801Y-33427174D02*
X8498753Y-33417650D01*
X8498753Y-33417650D02*
X8470182Y-33417650D01*
X8470182Y-33417650D02*
X8451134Y-33427174D01*
X8451134Y-33427174D02*
X8441611Y-33436698D01*
X8651134Y-33550984D02*
X8632087Y-33541460D01*
X8632087Y-33541460D02*
X8622563Y-33531936D01*
X8622563Y-33531936D02*
X8613039Y-33512888D01*
X8613039Y-33512888D02*
X8613039Y-33455746D01*
X8613039Y-33455746D02*
X8622563Y-33436698D01*
X8622563Y-33436698D02*
X8632087Y-33427174D01*
X8632087Y-33427174D02*
X8651134Y-33417650D01*
X8651134Y-33417650D02*
X8679706Y-33417650D01*
X8679706Y-33417650D02*
X8698753Y-33427174D01*
X8698753Y-33427174D02*
X8708277Y-33436698D01*
X8708277Y-33436698D02*
X8717801Y-33455746D01*
X8717801Y-33455746D02*
X8717801Y-33512888D01*
X8717801Y-33512888D02*
X8708277Y-33531936D01*
X8708277Y-33531936D02*
X8698753Y-33541460D01*
X8698753Y-33541460D02*
X8679706Y-33550984D01*
X8679706Y-33550984D02*
X8651134Y-33550984D01*
X8832087Y-33550984D02*
X8813039Y-33541460D01*
X8813039Y-33541460D02*
X8803515Y-33522412D01*
X8803515Y-33522412D02*
X8803515Y-33350984D01*
X8984468Y-33541460D02*
X8965420Y-33550984D01*
X8965420Y-33550984D02*
X8927325Y-33550984D01*
X8927325Y-33550984D02*
X8908277Y-33541460D01*
X8908277Y-33541460D02*
X8898753Y-33522412D01*
X8898753Y-33522412D02*
X8898753Y-33446222D01*
X8898753Y-33446222D02*
X8908277Y-33427174D01*
X8908277Y-33427174D02*
X8927325Y-33417650D01*
X8927325Y-33417650D02*
X8965420Y-33417650D01*
X8965420Y-33417650D02*
X8984468Y-33427174D01*
X8984468Y-33427174D02*
X8993992Y-33446222D01*
X8993992Y-33446222D02*
X8993992Y-33465269D01*
X8993992Y-33465269D02*
X8898753Y-33484317D01*
X9070182Y-33541460D02*
X9089230Y-33550984D01*
X9089230Y-33550984D02*
X9127325Y-33550984D01*
X9127325Y-33550984D02*
X9146373Y-33541460D01*
X9146373Y-33541460D02*
X9155896Y-33522412D01*
X9155896Y-33522412D02*
X9155896Y-33512888D01*
X9155896Y-33512888D02*
X9146373Y-33493841D01*
X9146373Y-33493841D02*
X9127325Y-33484317D01*
X9127325Y-33484317D02*
X9098753Y-33484317D01*
X9098753Y-33484317D02*
X9079706Y-33474793D01*
X9079706Y-33474793D02*
X9070182Y-33455746D01*
X9070182Y-33455746D02*
X9070182Y-33446222D01*
X9070182Y-33446222D02*
X9079706Y-33427174D01*
X9079706Y-33427174D02*
X9098753Y-33417650D01*
X9098753Y-33417650D02*
X9127325Y-33417650D01*
X9127325Y-33417650D02*
X9146373Y-33427174D01*
X9222563Y-33627174D02*
X9232087Y-33617650D01*
X9232087Y-33617650D02*
X9251134Y-33589079D01*
X9251134Y-33589079D02*
X9260658Y-33570031D01*
X9260658Y-33570031D02*
X9270182Y-33541460D01*
X9270182Y-33541460D02*
X9279706Y-33493841D01*
X9279706Y-33493841D02*
X9279706Y-33455746D01*
X9279706Y-33455746D02*
X9270182Y-33408127D01*
X9270182Y-33408127D02*
X9260658Y-33379555D01*
X9260658Y-33379555D02*
X9251134Y-33360508D01*
X9251134Y-33360508D02*
X9232087Y-33331936D01*
X9232087Y-33331936D02*
X9222563Y-33322412D01*
X4347500Y-33823500D02*
X4447500Y-33723500D01*
X4347500Y-33623500D01*
X4247500Y-33723500D01*
X4347500Y-33823500D01*
X4698753Y-33634031D02*
X4708277Y-33624508D01*
X4708277Y-33624508D02*
X4727324Y-33614984D01*
X4727324Y-33614984D02*
X4774944Y-33614984D01*
X4774944Y-33614984D02*
X4793991Y-33624508D01*
X4793991Y-33624508D02*
X4803515Y-33634031D01*
X4803515Y-33634031D02*
X4813039Y-33653079D01*
X4813039Y-33653079D02*
X4813039Y-33672127D01*
X4813039Y-33672127D02*
X4803515Y-33700698D01*
X4803515Y-33700698D02*
X4689229Y-33814984D01*
X4689229Y-33814984D02*
X4813039Y-33814984D01*
X4898753Y-33795936D02*
X4908277Y-33805460D01*
X4908277Y-33805460D02*
X4898753Y-33814984D01*
X4898753Y-33814984D02*
X4889229Y-33805460D01*
X4889229Y-33805460D02*
X4898753Y-33795936D01*
X4898753Y-33795936D02*
X4898753Y-33814984D01*
X5032086Y-33614984D02*
X5051134Y-33614984D01*
X5051134Y-33614984D02*
X5070182Y-33624508D01*
X5070182Y-33624508D02*
X5079705Y-33634031D01*
X5079705Y-33634031D02*
X5089229Y-33653079D01*
X5089229Y-33653079D02*
X5098753Y-33691174D01*
X5098753Y-33691174D02*
X5098753Y-33738793D01*
X5098753Y-33738793D02*
X5089229Y-33776889D01*
X5089229Y-33776889D02*
X5079705Y-33795936D01*
X5079705Y-33795936D02*
X5070182Y-33805460D01*
X5070182Y-33805460D02*
X5051134Y-33814984D01*
X5051134Y-33814984D02*
X5032086Y-33814984D01*
X5032086Y-33814984D02*
X5013039Y-33805460D01*
X5013039Y-33805460D02*
X5003515Y-33795936D01*
X5003515Y-33795936D02*
X4993991Y-33776889D01*
X4993991Y-33776889D02*
X4984467Y-33738793D01*
X4984467Y-33738793D02*
X4984467Y-33691174D01*
X4984467Y-33691174D02*
X4993991Y-33653079D01*
X4993991Y-33653079D02*
X5003515Y-33634031D01*
X5003515Y-33634031D02*
X5013039Y-33624508D01*
X5013039Y-33624508D02*
X5032086Y-33614984D01*
X5222563Y-33614984D02*
X5241610Y-33614984D01*
X5241610Y-33614984D02*
X5260658Y-33624508D01*
X5260658Y-33624508D02*
X5270182Y-33634031D01*
X5270182Y-33634031D02*
X5279705Y-33653079D01*
X5279705Y-33653079D02*
X5289229Y-33691174D01*
X5289229Y-33691174D02*
X5289229Y-33738793D01*
X5289229Y-33738793D02*
X5279705Y-33776889D01*
X5279705Y-33776889D02*
X5270182Y-33795936D01*
X5270182Y-33795936D02*
X5260658Y-33805460D01*
X5260658Y-33805460D02*
X5241610Y-33814984D01*
X5241610Y-33814984D02*
X5222563Y-33814984D01*
X5222563Y-33814984D02*
X5203515Y-33805460D01*
X5203515Y-33805460D02*
X5193991Y-33795936D01*
X5193991Y-33795936D02*
X5184467Y-33776889D01*
X5184467Y-33776889D02*
X5174944Y-33738793D01*
X5174944Y-33738793D02*
X5174944Y-33691174D01*
X5174944Y-33691174D02*
X5184467Y-33653079D01*
X5184467Y-33653079D02*
X5193991Y-33634031D01*
X5193991Y-33634031D02*
X5203515Y-33624508D01*
X5203515Y-33624508D02*
X5222563Y-33614984D01*
X5413039Y-33614984D02*
X5432086Y-33614984D01*
X5432086Y-33614984D02*
X5451134Y-33624508D01*
X5451134Y-33624508D02*
X5460658Y-33634031D01*
X5460658Y-33634031D02*
X5470182Y-33653079D01*
X5470182Y-33653079D02*
X5479705Y-33691174D01*
X5479705Y-33691174D02*
X5479705Y-33738793D01*
X5479705Y-33738793D02*
X5470182Y-33776889D01*
X5470182Y-33776889D02*
X5460658Y-33795936D01*
X5460658Y-33795936D02*
X5451134Y-33805460D01*
X5451134Y-33805460D02*
X5432086Y-33814984D01*
X5432086Y-33814984D02*
X5413039Y-33814984D01*
X5413039Y-33814984D02*
X5393991Y-33805460D01*
X5393991Y-33805460D02*
X5384467Y-33795936D01*
X5384467Y-33795936D02*
X5374944Y-33776889D01*
X5374944Y-33776889D02*
X5365420Y-33738793D01*
X5365420Y-33738793D02*
X5365420Y-33691174D01*
X5365420Y-33691174D02*
X5374944Y-33653079D01*
X5374944Y-33653079D02*
X5384467Y-33634031D01*
X5384467Y-33634031D02*
X5393991Y-33624508D01*
X5393991Y-33624508D02*
X5413039Y-33614984D01*
X5565420Y-33814984D02*
X5565420Y-33681650D01*
X5565420Y-33700698D02*
X5574944Y-33691174D01*
X5574944Y-33691174D02*
X5593991Y-33681650D01*
X5593991Y-33681650D02*
X5622563Y-33681650D01*
X5622563Y-33681650D02*
X5641610Y-33691174D01*
X5641610Y-33691174D02*
X5651134Y-33710222D01*
X5651134Y-33710222D02*
X5651134Y-33814984D01*
X5651134Y-33710222D02*
X5660658Y-33691174D01*
X5660658Y-33691174D02*
X5679705Y-33681650D01*
X5679705Y-33681650D02*
X5708277Y-33681650D01*
X5708277Y-33681650D02*
X5727324Y-33691174D01*
X5727324Y-33691174D02*
X5736848Y-33710222D01*
X5736848Y-33710222D02*
X5736848Y-33814984D01*
X5832086Y-33814984D02*
X5832086Y-33681650D01*
X5832086Y-33700698D02*
X5841610Y-33691174D01*
X5841610Y-33691174D02*
X5860658Y-33681650D01*
X5860658Y-33681650D02*
X5889229Y-33681650D01*
X5889229Y-33681650D02*
X5908277Y-33691174D01*
X5908277Y-33691174D02*
X5917801Y-33710222D01*
X5917801Y-33710222D02*
X5917801Y-33814984D01*
X5917801Y-33710222D02*
X5927324Y-33691174D01*
X5927324Y-33691174D02*
X5946372Y-33681650D01*
X5946372Y-33681650D02*
X5974943Y-33681650D01*
X5974943Y-33681650D02*
X5993991Y-33691174D01*
X5993991Y-33691174D02*
X6003515Y-33710222D01*
X6003515Y-33710222D02*
X6003515Y-33814984D01*
X6393991Y-33605460D02*
X6222563Y-33862603D01*
X6651134Y-33614984D02*
X6670182Y-33614984D01*
X6670182Y-33614984D02*
X6689229Y-33624508D01*
X6689229Y-33624508D02*
X6698753Y-33634031D01*
X6698753Y-33634031D02*
X6708277Y-33653079D01*
X6708277Y-33653079D02*
X6717801Y-33691174D01*
X6717801Y-33691174D02*
X6717801Y-33738793D01*
X6717801Y-33738793D02*
X6708277Y-33776889D01*
X6708277Y-33776889D02*
X6698753Y-33795936D01*
X6698753Y-33795936D02*
X6689229Y-33805460D01*
X6689229Y-33805460D02*
X6670182Y-33814984D01*
X6670182Y-33814984D02*
X6651134Y-33814984D01*
X6651134Y-33814984D02*
X6632086Y-33805460D01*
X6632086Y-33805460D02*
X6622563Y-33795936D01*
X6622563Y-33795936D02*
X6613039Y-33776889D01*
X6613039Y-33776889D02*
X6603515Y-33738793D01*
X6603515Y-33738793D02*
X6603515Y-33691174D01*
X6603515Y-33691174D02*
X6613039Y-33653079D01*
X6613039Y-33653079D02*
X6622563Y-33634031D01*
X6622563Y-33634031D02*
X6632086Y-33624508D01*
X6632086Y-33624508D02*
X6651134Y-33614984D01*
X6803515Y-33795936D02*
X6813039Y-33805460D01*
X6813039Y-33805460D02*
X6803515Y-33814984D01*
X6803515Y-33814984D02*
X6793991Y-33805460D01*
X6793991Y-33805460D02*
X6803515Y-33795936D01*
X6803515Y-33795936D02*
X6803515Y-33814984D01*
X6936848Y-33614984D02*
X6955896Y-33614984D01*
X6955896Y-33614984D02*
X6974944Y-33624508D01*
X6974944Y-33624508D02*
X6984467Y-33634031D01*
X6984467Y-33634031D02*
X6993991Y-33653079D01*
X6993991Y-33653079D02*
X7003515Y-33691174D01*
X7003515Y-33691174D02*
X7003515Y-33738793D01*
X7003515Y-33738793D02*
X6993991Y-33776889D01*
X6993991Y-33776889D02*
X6984467Y-33795936D01*
X6984467Y-33795936D02*
X6974944Y-33805460D01*
X6974944Y-33805460D02*
X6955896Y-33814984D01*
X6955896Y-33814984D02*
X6936848Y-33814984D01*
X6936848Y-33814984D02*
X6917801Y-33805460D01*
X6917801Y-33805460D02*
X6908277Y-33795936D01*
X6908277Y-33795936D02*
X6898753Y-33776889D01*
X6898753Y-33776889D02*
X6889229Y-33738793D01*
X6889229Y-33738793D02*
X6889229Y-33691174D01*
X6889229Y-33691174D02*
X6898753Y-33653079D01*
X6898753Y-33653079D02*
X6908277Y-33634031D01*
X6908277Y-33634031D02*
X6917801Y-33624508D01*
X6917801Y-33624508D02*
X6936848Y-33614984D01*
X7070182Y-33614984D02*
X7203515Y-33614984D01*
X7203515Y-33614984D02*
X7117801Y-33814984D01*
X7308277Y-33700698D02*
X7289229Y-33691174D01*
X7289229Y-33691174D02*
X7279706Y-33681650D01*
X7279706Y-33681650D02*
X7270182Y-33662603D01*
X7270182Y-33662603D02*
X7270182Y-33653079D01*
X7270182Y-33653079D02*
X7279706Y-33634031D01*
X7279706Y-33634031D02*
X7289229Y-33624508D01*
X7289229Y-33624508D02*
X7308277Y-33614984D01*
X7308277Y-33614984D02*
X7346372Y-33614984D01*
X7346372Y-33614984D02*
X7365420Y-33624508D01*
X7365420Y-33624508D02*
X7374944Y-33634031D01*
X7374944Y-33634031D02*
X7384467Y-33653079D01*
X7384467Y-33653079D02*
X7384467Y-33662603D01*
X7384467Y-33662603D02*
X7374944Y-33681650D01*
X7374944Y-33681650D02*
X7365420Y-33691174D01*
X7365420Y-33691174D02*
X7346372Y-33700698D01*
X7346372Y-33700698D02*
X7308277Y-33700698D01*
X7308277Y-33700698D02*
X7289229Y-33710222D01*
X7289229Y-33710222D02*
X7279706Y-33719746D01*
X7279706Y-33719746D02*
X7270182Y-33738793D01*
X7270182Y-33738793D02*
X7270182Y-33776889D01*
X7270182Y-33776889D02*
X7279706Y-33795936D01*
X7279706Y-33795936D02*
X7289229Y-33805460D01*
X7289229Y-33805460D02*
X7308277Y-33814984D01*
X7308277Y-33814984D02*
X7346372Y-33814984D01*
X7346372Y-33814984D02*
X7365420Y-33805460D01*
X7365420Y-33805460D02*
X7374944Y-33795936D01*
X7374944Y-33795936D02*
X7384467Y-33776889D01*
X7384467Y-33776889D02*
X7384467Y-33738793D01*
X7384467Y-33738793D02*
X7374944Y-33719746D01*
X7374944Y-33719746D02*
X7365420Y-33710222D01*
X7365420Y-33710222D02*
X7346372Y-33700698D01*
X7451134Y-33614984D02*
X7584467Y-33614984D01*
X7584467Y-33614984D02*
X7498753Y-33814984D01*
X7651134Y-33614984D02*
X7651134Y-33653079D01*
X7727325Y-33614984D02*
X7727325Y-33653079D01*
X8022563Y-33891174D02*
X8013039Y-33881650D01*
X8013039Y-33881650D02*
X7993991Y-33853079D01*
X7993991Y-33853079D02*
X7984468Y-33834031D01*
X7984468Y-33834031D02*
X7974944Y-33805460D01*
X7974944Y-33805460D02*
X7965420Y-33757841D01*
X7965420Y-33757841D02*
X7965420Y-33719746D01*
X7965420Y-33719746D02*
X7974944Y-33672127D01*
X7974944Y-33672127D02*
X7984468Y-33643555D01*
X7984468Y-33643555D02*
X7993991Y-33624508D01*
X7993991Y-33624508D02*
X8013039Y-33595936D01*
X8013039Y-33595936D02*
X8022563Y-33586412D01*
X8136848Y-33614984D02*
X8155896Y-33614984D01*
X8155896Y-33614984D02*
X8174944Y-33624508D01*
X8174944Y-33624508D02*
X8184468Y-33634031D01*
X8184468Y-33634031D02*
X8193991Y-33653079D01*
X8193991Y-33653079D02*
X8203515Y-33691174D01*
X8203515Y-33691174D02*
X8203515Y-33738793D01*
X8203515Y-33738793D02*
X8193991Y-33776889D01*
X8193991Y-33776889D02*
X8184468Y-33795936D01*
X8184468Y-33795936D02*
X8174944Y-33805460D01*
X8174944Y-33805460D02*
X8155896Y-33814984D01*
X8155896Y-33814984D02*
X8136848Y-33814984D01*
X8136848Y-33814984D02*
X8117801Y-33805460D01*
X8117801Y-33805460D02*
X8108277Y-33795936D01*
X8108277Y-33795936D02*
X8098753Y-33776889D01*
X8098753Y-33776889D02*
X8089229Y-33738793D01*
X8089229Y-33738793D02*
X8089229Y-33691174D01*
X8089229Y-33691174D02*
X8098753Y-33653079D01*
X8098753Y-33653079D02*
X8108277Y-33634031D01*
X8108277Y-33634031D02*
X8117801Y-33624508D01*
X8117801Y-33624508D02*
X8136848Y-33614984D01*
X8441611Y-33814984D02*
X8441611Y-33614984D01*
X8527325Y-33814984D02*
X8527325Y-33710222D01*
X8527325Y-33710222D02*
X8517801Y-33691174D01*
X8517801Y-33691174D02*
X8498753Y-33681650D01*
X8498753Y-33681650D02*
X8470182Y-33681650D01*
X8470182Y-33681650D02*
X8451134Y-33691174D01*
X8451134Y-33691174D02*
X8441611Y-33700698D01*
X8651134Y-33814984D02*
X8632087Y-33805460D01*
X8632087Y-33805460D02*
X8622563Y-33795936D01*
X8622563Y-33795936D02*
X8613039Y-33776889D01*
X8613039Y-33776889D02*
X8613039Y-33719746D01*
X8613039Y-33719746D02*
X8622563Y-33700698D01*
X8622563Y-33700698D02*
X8632087Y-33691174D01*
X8632087Y-33691174D02*
X8651134Y-33681650D01*
X8651134Y-33681650D02*
X8679706Y-33681650D01*
X8679706Y-33681650D02*
X8698753Y-33691174D01*
X8698753Y-33691174D02*
X8708277Y-33700698D01*
X8708277Y-33700698D02*
X8717801Y-33719746D01*
X8717801Y-33719746D02*
X8717801Y-33776889D01*
X8717801Y-33776889D02*
X8708277Y-33795936D01*
X8708277Y-33795936D02*
X8698753Y-33805460D01*
X8698753Y-33805460D02*
X8679706Y-33814984D01*
X8679706Y-33814984D02*
X8651134Y-33814984D01*
X8832087Y-33814984D02*
X8813039Y-33805460D01*
X8813039Y-33805460D02*
X8803515Y-33786412D01*
X8803515Y-33786412D02*
X8803515Y-33614984D01*
X8984468Y-33805460D02*
X8965420Y-33814984D01*
X8965420Y-33814984D02*
X8927325Y-33814984D01*
X8927325Y-33814984D02*
X8908277Y-33805460D01*
X8908277Y-33805460D02*
X8898753Y-33786412D01*
X8898753Y-33786412D02*
X8898753Y-33710222D01*
X8898753Y-33710222D02*
X8908277Y-33691174D01*
X8908277Y-33691174D02*
X8927325Y-33681650D01*
X8927325Y-33681650D02*
X8965420Y-33681650D01*
X8965420Y-33681650D02*
X8984468Y-33691174D01*
X8984468Y-33691174D02*
X8993992Y-33710222D01*
X8993992Y-33710222D02*
X8993992Y-33729270D01*
X8993992Y-33729270D02*
X8898753Y-33748317D01*
X9070182Y-33805460D02*
X9089230Y-33814984D01*
X9089230Y-33814984D02*
X9127325Y-33814984D01*
X9127325Y-33814984D02*
X9146373Y-33805460D01*
X9146373Y-33805460D02*
X9155896Y-33786412D01*
X9155896Y-33786412D02*
X9155896Y-33776889D01*
X9155896Y-33776889D02*
X9146373Y-33757841D01*
X9146373Y-33757841D02*
X9127325Y-33748317D01*
X9127325Y-33748317D02*
X9098753Y-33748317D01*
X9098753Y-33748317D02*
X9079706Y-33738793D01*
X9079706Y-33738793D02*
X9070182Y-33719746D01*
X9070182Y-33719746D02*
X9070182Y-33710222D01*
X9070182Y-33710222D02*
X9079706Y-33691174D01*
X9079706Y-33691174D02*
X9098753Y-33681650D01*
X9098753Y-33681650D02*
X9127325Y-33681650D01*
X9127325Y-33681650D02*
X9146373Y-33691174D01*
X9393992Y-33738793D02*
X9546373Y-33738793D01*
X9470182Y-33814984D02*
X9470182Y-33662603D01*
X9784468Y-33634031D02*
X9793992Y-33624508D01*
X9793992Y-33624508D02*
X9813039Y-33614984D01*
X9813039Y-33614984D02*
X9860658Y-33614984D01*
X9860658Y-33614984D02*
X9879706Y-33624508D01*
X9879706Y-33624508D02*
X9889230Y-33634031D01*
X9889230Y-33634031D02*
X9898754Y-33653079D01*
X9898754Y-33653079D02*
X9898754Y-33672127D01*
X9898754Y-33672127D02*
X9889230Y-33700698D01*
X9889230Y-33700698D02*
X9774944Y-33814984D01*
X9774944Y-33814984D02*
X9898754Y-33814984D01*
X10127325Y-33805460D02*
X10146373Y-33814984D01*
X10146373Y-33814984D02*
X10184468Y-33814984D01*
X10184468Y-33814984D02*
X10203516Y-33805460D01*
X10203516Y-33805460D02*
X10213039Y-33786412D01*
X10213039Y-33786412D02*
X10213039Y-33776889D01*
X10213039Y-33776889D02*
X10203516Y-33757841D01*
X10203516Y-33757841D02*
X10184468Y-33748317D01*
X10184468Y-33748317D02*
X10155896Y-33748317D01*
X10155896Y-33748317D02*
X10136849Y-33738793D01*
X10136849Y-33738793D02*
X10127325Y-33719746D01*
X10127325Y-33719746D02*
X10127325Y-33710222D01*
X10127325Y-33710222D02*
X10136849Y-33691174D01*
X10136849Y-33691174D02*
X10155896Y-33681650D01*
X10155896Y-33681650D02*
X10184468Y-33681650D01*
X10184468Y-33681650D02*
X10203516Y-33691174D01*
X10327325Y-33814984D02*
X10308277Y-33805460D01*
X10308277Y-33805460D02*
X10298754Y-33786412D01*
X10298754Y-33786412D02*
X10298754Y-33614984D01*
X10432087Y-33814984D02*
X10413039Y-33805460D01*
X10413039Y-33805460D02*
X10403516Y-33795936D01*
X10403516Y-33795936D02*
X10393992Y-33776889D01*
X10393992Y-33776889D02*
X10393992Y-33719746D01*
X10393992Y-33719746D02*
X10403516Y-33700698D01*
X10403516Y-33700698D02*
X10413039Y-33691174D01*
X10413039Y-33691174D02*
X10432087Y-33681650D01*
X10432087Y-33681650D02*
X10460658Y-33681650D01*
X10460658Y-33681650D02*
X10479706Y-33691174D01*
X10479706Y-33691174D02*
X10489230Y-33700698D01*
X10489230Y-33700698D02*
X10498754Y-33719746D01*
X10498754Y-33719746D02*
X10498754Y-33776889D01*
X10498754Y-33776889D02*
X10489230Y-33795936D01*
X10489230Y-33795936D02*
X10479706Y-33805460D01*
X10479706Y-33805460D02*
X10460658Y-33814984D01*
X10460658Y-33814984D02*
X10432087Y-33814984D01*
X10555897Y-33681650D02*
X10632087Y-33681650D01*
X10584468Y-33614984D02*
X10584468Y-33786412D01*
X10584468Y-33786412D02*
X10593992Y-33805460D01*
X10593992Y-33805460D02*
X10613039Y-33814984D01*
X10613039Y-33814984D02*
X10632087Y-33814984D01*
X10689230Y-33805460D02*
X10708277Y-33814984D01*
X10708277Y-33814984D02*
X10746373Y-33814984D01*
X10746373Y-33814984D02*
X10765420Y-33805460D01*
X10765420Y-33805460D02*
X10774944Y-33786412D01*
X10774944Y-33786412D02*
X10774944Y-33776889D01*
X10774944Y-33776889D02*
X10765420Y-33757841D01*
X10765420Y-33757841D02*
X10746373Y-33748317D01*
X10746373Y-33748317D02*
X10717801Y-33748317D01*
X10717801Y-33748317D02*
X10698754Y-33738793D01*
X10698754Y-33738793D02*
X10689230Y-33719746D01*
X10689230Y-33719746D02*
X10689230Y-33710222D01*
X10689230Y-33710222D02*
X10698754Y-33691174D01*
X10698754Y-33691174D02*
X10717801Y-33681650D01*
X10717801Y-33681650D02*
X10746373Y-33681650D01*
X10746373Y-33681650D02*
X10765420Y-33691174D01*
X10841611Y-33891174D02*
X10851135Y-33881650D01*
X10851135Y-33881650D02*
X10870182Y-33853079D01*
X10870182Y-33853079D02*
X10879706Y-33834031D01*
X10879706Y-33834031D02*
X10889230Y-33805460D01*
X10889230Y-33805460D02*
X10898754Y-33757841D01*
X10898754Y-33757841D02*
X10898754Y-33719746D01*
X10898754Y-33719746D02*
X10889230Y-33672127D01*
X10889230Y-33672127D02*
X10879706Y-33643555D01*
X10879706Y-33643555D02*
X10870182Y-33624508D01*
X10870182Y-33624508D02*
X10851135Y-33595936D01*
X10851135Y-33595936D02*
X10841611Y-33586412D01*
M02*
