G04 #@! TF.GenerationSoftware,KiCad,Pcbnew,9.0.1*
G04 #@! TF.CreationDate,2025-08-16T12:46:55+08:00*
G04 #@! TF.ProjectId,final version,66696e61-6c20-4766-9572-73696f6e2e6b,rev?*
G04 #@! TF.SameCoordinates,Original*
G04 #@! TF.FileFunction,Soldermask,Top*
G04 #@! TF.FilePolarity,Negative*
%FSLAX46Y46*%
G04 Gerber Fmt 4.6, Leading zero omitted, Abs format (unit mm)*
G04 Created by KiCad (PCBNEW 9.0.1) date 2025-08-16 12:46:55*
%MOMM*%
%LPD*%
G01*
G04 APERTURE LIST*
G04 Aperture macros list*
%AMRoundRect*
0 Rectangle with rounded corners*
0 $1 Rounding radius*
0 $2 $3 $4 $5 $6 $7 $8 $9 X,Y pos of 4 corners*
0 Add a 4 corners polygon primitive as box body*
4,1,4,$2,$3,$4,$5,$6,$7,$8,$9,$2,$3,0*
0 Add four circle primitives for the rounded corners*
1,1,$1+$1,$2,$3*
1,1,$1+$1,$4,$5*
1,1,$1+$1,$6,$7*
1,1,$1+$1,$8,$9*
0 Add four rect primitives between the rounded corners*
20,1,$1+$1,$2,$3,$4,$5,0*
20,1,$1+$1,$4,$5,$6,$7,0*
20,1,$1+$1,$6,$7,$8,$9,0*
20,1,$1+$1,$8,$9,$2,$3,0*%
G04 Aperture macros list end*
%ADD10C,2.000000*%
%ADD11RoundRect,0.090000X-0.660000X-0.360000X0.660000X-0.360000X0.660000X0.360000X-0.660000X0.360000X0*%
%ADD12RoundRect,0.250000X-0.475000X0.337500X-0.475000X-0.337500X0.475000X-0.337500X0.475000X0.337500X0*%
%ADD13RoundRect,0.250000X0.475000X-0.337500X0.475000X0.337500X-0.475000X0.337500X-0.475000X-0.337500X0*%
%ADD14RoundRect,0.250000X0.337500X0.475000X-0.337500X0.475000X-0.337500X-0.475000X0.337500X-0.475000X0*%
%ADD15RoundRect,0.250000X-0.450000X0.350000X-0.450000X-0.350000X0.450000X-0.350000X0.450000X0.350000X0*%
%ADD16RoundRect,0.300000X-0.699999X-0.950000X0.699999X-0.950000X0.699999X0.950000X-0.699999X0.950000X0*%
%ADD17RoundRect,0.300000X-0.700000X-0.950000X0.700000X-0.950000X0.700000X0.950000X-0.700000X0.950000X0*%
%ADD18RoundRect,0.150000X0.875000X0.150000X-0.875000X0.150000X-0.875000X-0.150000X0.875000X-0.150000X0*%
%ADD19RoundRect,0.250000X-0.337500X-0.475000X0.337500X-0.475000X0.337500X0.475000X-0.337500X0.475000X0*%
%ADD20RoundRect,0.250000X-0.350000X-0.450000X0.350000X-0.450000X0.350000X0.450000X-0.350000X0.450000X0*%
%ADD21RoundRect,0.100000X-0.637500X-0.100000X0.637500X-0.100000X0.637500X0.100000X-0.637500X0.100000X0*%
%ADD22R,2.184400X0.558800*%
%ADD23R,1.700000X1.700000*%
%ADD24C,1.700000*%
%ADD25RoundRect,0.062500X-0.375000X-0.062500X0.375000X-0.062500X0.375000X0.062500X-0.375000X0.062500X0*%
%ADD26RoundRect,0.062500X-0.062500X-0.375000X0.062500X-0.375000X0.062500X0.375000X-0.062500X0.375000X0*%
%ADD27R,1.600000X1.600000*%
%ADD28R,2.800000X2.200000*%
%ADD29R,2.800000X2.800000*%
%ADD30RoundRect,0.102000X-0.900000X-0.900000X0.900000X-0.900000X0.900000X0.900000X-0.900000X0.900000X0*%
%ADD31C,2.004000*%
%ADD32O,3.204000X6.204000*%
%ADD33RoundRect,0.250000X0.350000X0.450000X-0.350000X0.450000X-0.350000X-0.450000X0.350000X-0.450000X0*%
G04 APERTURE END LIST*
D10*
X102380000Y-249370000D02*
X102380000Y-239370000D01*
X105380000Y-249370000D02*
X105380000Y-239370000D01*
X108380000Y-249370000D02*
X108380000Y-239370000D01*
X115380000Y-226370000D02*
X125380000Y-226370000D01*
X115380000Y-229370000D02*
X125380000Y-229370000D01*
X115380000Y-232370000D02*
X125380000Y-232370000D01*
X115380000Y-256370000D02*
X119880000Y-256370000D01*
X116880000Y-259370000D02*
X115380000Y-259370000D01*
X116880000Y-262370000D02*
X116880000Y-259370000D01*
X119880000Y-262370000D02*
X119880000Y-256370000D01*
X132380000Y-239370000D02*
X132380000Y-249370000D01*
X135380000Y-239370000D02*
X135380000Y-249370000D01*
X138380000Y-239370000D02*
X138380000Y-249370000D01*
X102380000Y-239370000D02*
G75*
G02*
X115380000Y-226370000I13000001J-1D01*
G01*
X105380000Y-239370000D02*
G75*
G02*
X115380000Y-229370000I9999999J1D01*
G01*
X108380000Y-239370000D02*
G75*
G02*
X115380000Y-232370000I7000002J-2D01*
G01*
X113392690Y-262290927D02*
G75*
G02*
X102380000Y-249370000I2073564J12920928D01*
G01*
X115380000Y-256370000D02*
G75*
G02*
X108380000Y-249370000I2J7000002D01*
G01*
X115380000Y-259370000D02*
G75*
G02*
X105380000Y-249370000I-1J9999999D01*
G01*
X125380000Y-226370000D02*
G75*
G02*
X138380000Y-239370000I0J-13000000D01*
G01*
X125380000Y-229370000D02*
G75*
G02*
X135380000Y-239369999I0J-10000000D01*
G01*
X125380000Y-232370000D02*
G75*
G02*
X132380000Y-239370000I0J-7000000D01*
G01*
X125380000Y-262370000D02*
G75*
G02*
X125380000Y-256370000I0J3000000D01*
G01*
X132380000Y-249370000D02*
G75*
G02*
X125380000Y-256370000I-7000002J2D01*
G01*
X135308932Y-249441068D02*
G75*
G02*
X125380000Y-259370000I-9928933J1D01*
G01*
X138380000Y-249370000D02*
G75*
G02*
X125380000Y-262370000I-13000000J0D01*
G01*
X102380000Y-152870000D02*
X102380000Y-142870000D01*
X105380000Y-152870000D02*
X105380000Y-142870000D01*
X108380000Y-152870000D02*
X108380000Y-142870000D01*
X115380000Y-129870000D02*
X125380000Y-129870000D01*
X115380000Y-132870000D02*
X125380000Y-132870000D01*
X115380000Y-135870000D02*
X125380000Y-135870000D01*
X115380000Y-159870000D02*
X119880000Y-159870000D01*
X116880000Y-162870000D02*
X115380000Y-162870000D01*
X116880000Y-165870000D02*
X116880000Y-162870000D01*
X119880000Y-165870000D02*
X119880000Y-159870000D01*
X132380000Y-142870000D02*
X132380000Y-152870000D01*
X135380000Y-142870000D02*
X135380000Y-152870000D01*
X138380000Y-142870000D02*
X138380000Y-152870000D01*
X102380000Y-142870000D02*
G75*
G02*
X115380000Y-129870000I13000001J-1D01*
G01*
X105380000Y-142870000D02*
G75*
G02*
X115380000Y-132870000I9999999J1D01*
G01*
X108380000Y-142870000D02*
G75*
G02*
X115380000Y-135870000I7000002J-2D01*
G01*
X113392690Y-165790927D02*
G75*
G02*
X102380000Y-152870000I2073564J12920928D01*
G01*
X115380000Y-159870000D02*
G75*
G02*
X108380000Y-152870000I2J7000002D01*
G01*
X115380000Y-162870000D02*
G75*
G02*
X105380000Y-152870000I-1J9999999D01*
G01*
X125380000Y-129870000D02*
G75*
G02*
X138380000Y-142870000I0J-13000000D01*
G01*
X125380000Y-132870000D02*
G75*
G02*
X135380000Y-142869999I0J-10000000D01*
G01*
X125380000Y-135870000D02*
G75*
G02*
X132380000Y-142870000I0J-7000000D01*
G01*
X125380000Y-165870000D02*
G75*
G02*
X125380000Y-159870000I0J3000000D01*
G01*
X132380000Y-152870000D02*
G75*
G02*
X125380000Y-159870000I-7000002J2D01*
G01*
X135308932Y-152941068D02*
G75*
G02*
X125380000Y-162870000I-9928933J1D01*
G01*
X138380000Y-152870000D02*
G75*
G02*
X125380000Y-165870000I-13000000J0D01*
G01*
X102380000Y-297620000D02*
X102380000Y-287620000D01*
X105380000Y-297620000D02*
X105380000Y-287620000D01*
X108380000Y-297620000D02*
X108380000Y-287620000D01*
X115380000Y-274620000D02*
X125380000Y-274620000D01*
X115380000Y-277620000D02*
X125380000Y-277620000D01*
X115380000Y-280620000D02*
X125380000Y-280620000D01*
X115380000Y-304620000D02*
X119880000Y-304620000D01*
X116880000Y-307620000D02*
X115380000Y-307620000D01*
X116880000Y-310620000D02*
X116880000Y-307620000D01*
X119880000Y-310620000D02*
X119880000Y-304620000D01*
X132380000Y-287620000D02*
X132380000Y-297620000D01*
X135380000Y-287620000D02*
X135380000Y-297620000D01*
X138380000Y-287620000D02*
X138380000Y-297620000D01*
X102380000Y-287620000D02*
G75*
G02*
X115380000Y-274620000I13000001J-1D01*
G01*
X105380000Y-287620000D02*
G75*
G02*
X115380000Y-277620000I9999999J1D01*
G01*
X108380000Y-287620000D02*
G75*
G02*
X115380000Y-280620000I7000002J-2D01*
G01*
X113392690Y-310540927D02*
G75*
G02*
X102380000Y-297620000I2073564J12920928D01*
G01*
X115380000Y-304620000D02*
G75*
G02*
X108380000Y-297620000I2J7000002D01*
G01*
X115380000Y-307620000D02*
G75*
G02*
X105380000Y-297620000I-1J9999999D01*
G01*
X125380000Y-274620000D02*
G75*
G02*
X138380000Y-287620000I0J-13000000D01*
G01*
X125380000Y-277620000D02*
G75*
G02*
X135380000Y-287619999I0J-10000000D01*
G01*
X125380000Y-280620000D02*
G75*
G02*
X132380000Y-287620000I0J-7000000D01*
G01*
X125380000Y-310620000D02*
G75*
G02*
X125380000Y-304620000I0J3000000D01*
G01*
X132380000Y-297620000D02*
G75*
G02*
X125380000Y-304620000I-7000002J2D01*
G01*
X135308932Y-297691068D02*
G75*
G02*
X125380000Y-307620000I-9928933J1D01*
G01*
X138380000Y-297620000D02*
G75*
G02*
X125380000Y-310620000I-13000000J0D01*
G01*
X102380000Y-201120000D02*
X102380000Y-191120000D01*
X105380000Y-201120000D02*
X105380000Y-191120000D01*
X108380000Y-201120000D02*
X108380000Y-191120000D01*
X115380000Y-178120000D02*
X125380000Y-178120000D01*
X115380000Y-181120000D02*
X125380000Y-181120000D01*
X115380000Y-184120000D02*
X125380000Y-184120000D01*
X115380000Y-208120000D02*
X119880000Y-208120000D01*
X116880000Y-211120000D02*
X115380000Y-211120000D01*
X116880000Y-214120000D02*
X116880000Y-211120000D01*
X119880000Y-214120000D02*
X119880000Y-208120000D01*
X132380000Y-191120000D02*
X132380000Y-201120000D01*
X135380000Y-191120000D02*
X135380000Y-201120000D01*
X138380000Y-191120000D02*
X138380000Y-201120000D01*
X102380000Y-191120000D02*
G75*
G02*
X115380000Y-178120000I13000001J-1D01*
G01*
X105380000Y-191120000D02*
G75*
G02*
X115380000Y-181120000I9999999J1D01*
G01*
X108380000Y-191120000D02*
G75*
G02*
X115380000Y-184120000I7000002J-2D01*
G01*
X113392690Y-214040927D02*
G75*
G02*
X102380000Y-201120000I2073564J12920928D01*
G01*
X115380000Y-208120000D02*
G75*
G02*
X108380000Y-201120000I2J7000002D01*
G01*
X115380000Y-211120000D02*
G75*
G02*
X105380000Y-201120000I-1J9999999D01*
G01*
X125380000Y-178120000D02*
G75*
G02*
X138380000Y-191120000I0J-13000000D01*
G01*
X125380000Y-181120000D02*
G75*
G02*
X135380000Y-191119999I0J-10000000D01*
G01*
X125380000Y-184120000D02*
G75*
G02*
X132380000Y-191120000I0J-7000000D01*
G01*
X125380000Y-214120000D02*
G75*
G02*
X125380000Y-208120000I0J3000000D01*
G01*
X132380000Y-201120000D02*
G75*
G02*
X125380000Y-208120000I-7000002J2D01*
G01*
X135308932Y-201191068D02*
G75*
G02*
X125380000Y-211120000I-9928933J1D01*
G01*
X138380000Y-201120000D02*
G75*
G02*
X125380000Y-214120000I-13000000J0D01*
G01*
X150630000Y-201120000D02*
X150630000Y-191120000D01*
X153630000Y-201120000D02*
X153630000Y-191120000D01*
X156630000Y-201120000D02*
X156630000Y-191120000D01*
X163630000Y-178120000D02*
X173630000Y-178120000D01*
X163630000Y-181120000D02*
X173630000Y-181120000D01*
X163630000Y-184120000D02*
X173630000Y-184120000D01*
X163630000Y-208120000D02*
X168130000Y-208120000D01*
X165130000Y-211120000D02*
X163630000Y-211120000D01*
X165130000Y-214120000D02*
X165130000Y-211120000D01*
X168130000Y-214120000D02*
X168130000Y-208120000D01*
X180630000Y-191120000D02*
X180630000Y-201120000D01*
X183630000Y-191120000D02*
X183630000Y-201120000D01*
X186630000Y-191120000D02*
X186630000Y-201120000D01*
X150630000Y-191120000D02*
G75*
G02*
X163630000Y-178120000I13000001J-1D01*
G01*
X153630000Y-191120000D02*
G75*
G02*
X163630000Y-181120000I9999999J1D01*
G01*
X156630000Y-191120000D02*
G75*
G02*
X163630000Y-184120000I7000002J-2D01*
G01*
X161642690Y-214040927D02*
G75*
G02*
X150630000Y-201120000I2073564J12920928D01*
G01*
X163630000Y-208120000D02*
G75*
G02*
X156630000Y-201120000I2J7000002D01*
G01*
X163630000Y-211120000D02*
G75*
G02*
X153630000Y-201120000I-1J9999999D01*
G01*
X173630000Y-178120000D02*
G75*
G02*
X186630000Y-191120000I0J-13000000D01*
G01*
X173630000Y-181120000D02*
G75*
G02*
X183630000Y-191119999I0J-10000000D01*
G01*
X173630000Y-184120000D02*
G75*
G02*
X180630000Y-191120000I0J-7000000D01*
G01*
X173630000Y-214120000D02*
G75*
G02*
X173630000Y-208120000I0J3000000D01*
G01*
X180630000Y-201120000D02*
G75*
G02*
X173630000Y-208120000I-7000002J2D01*
G01*
X183558932Y-201191068D02*
G75*
G02*
X173630000Y-211120000I-9928933J1D01*
G01*
X186630000Y-201120000D02*
G75*
G02*
X173630000Y-214120000I-13000000J0D01*
G01*
X198880000Y-297620000D02*
X198880000Y-287620000D01*
X201880000Y-297620000D02*
X201880000Y-287620000D01*
X204880000Y-297620000D02*
X204880000Y-287620000D01*
X211880000Y-274620000D02*
X221880000Y-274620000D01*
X211880000Y-277620000D02*
X221880000Y-277620000D01*
X211880000Y-280620000D02*
X221880000Y-280620000D01*
X211880000Y-304620000D02*
X216380000Y-304620000D01*
X213380000Y-307620000D02*
X211880000Y-307620000D01*
X213380000Y-310620000D02*
X213380000Y-307620000D01*
X216380000Y-310620000D02*
X216380000Y-304620000D01*
X228880000Y-287620000D02*
X228880000Y-297620000D01*
X231880000Y-287620000D02*
X231880000Y-297620000D01*
X234880000Y-287620000D02*
X234880000Y-297620000D01*
X198880000Y-287620000D02*
G75*
G02*
X211880000Y-274620000I13000001J-1D01*
G01*
X201880000Y-287620000D02*
G75*
G02*
X211880000Y-277620000I9999999J1D01*
G01*
X204880000Y-287620000D02*
G75*
G02*
X211880000Y-280620000I7000002J-2D01*
G01*
X209892690Y-310540927D02*
G75*
G02*
X198880000Y-297620000I2073564J12920928D01*
G01*
X211880000Y-304620000D02*
G75*
G02*
X204880000Y-297620000I2J7000002D01*
G01*
X211880000Y-307620000D02*
G75*
G02*
X201880000Y-297620000I-1J9999999D01*
G01*
X221880000Y-274620000D02*
G75*
G02*
X234880000Y-287620000I0J-13000000D01*
G01*
X221880000Y-277620000D02*
G75*
G02*
X231880000Y-287619999I0J-10000000D01*
G01*
X221880000Y-280620000D02*
G75*
G02*
X228880000Y-287620000I0J-7000000D01*
G01*
X221880000Y-310620000D02*
G75*
G02*
X221880000Y-304620000I0J3000000D01*
G01*
X228880000Y-297620000D02*
G75*
G02*
X221880000Y-304620000I-7000002J2D01*
G01*
X231808932Y-297691068D02*
G75*
G02*
X221880000Y-307620000I-9928933J1D01*
G01*
X234880000Y-297620000D02*
G75*
G02*
X221880000Y-310620000I-13000000J0D01*
G01*
X54130000Y-152870000D02*
X54130000Y-142870000D01*
X57130000Y-152870000D02*
X57130000Y-142870000D01*
X60130000Y-152870000D02*
X60130000Y-142870000D01*
X67130000Y-129870000D02*
X77130000Y-129870000D01*
X67130000Y-132870000D02*
X77130000Y-132870000D01*
X67130000Y-135870000D02*
X77130000Y-135870000D01*
X67130000Y-159870000D02*
X71630000Y-159870000D01*
X68630000Y-162870000D02*
X67130000Y-162870000D01*
X68630000Y-165870000D02*
X68630000Y-162870000D01*
X71630000Y-165870000D02*
X71630000Y-159870000D01*
X84130000Y-142870000D02*
X84130000Y-152870000D01*
X87130000Y-142870000D02*
X87130000Y-152870000D01*
X90130000Y-142870000D02*
X90130000Y-152870000D01*
X54130000Y-142870000D02*
G75*
G02*
X67130000Y-129870000I13000001J-1D01*
G01*
X57130000Y-142870000D02*
G75*
G02*
X67130000Y-132870000I9999999J1D01*
G01*
X60130000Y-142870000D02*
G75*
G02*
X67130000Y-135870000I7000002J-2D01*
G01*
X65142690Y-165790927D02*
G75*
G02*
X54130000Y-152870000I2073564J12920928D01*
G01*
X67130000Y-159870000D02*
G75*
G02*
X60130000Y-152870000I2J7000002D01*
G01*
X67130000Y-162870000D02*
G75*
G02*
X57130000Y-152870000I-1J9999999D01*
G01*
X77130000Y-129870000D02*
G75*
G02*
X90130000Y-142870000I0J-13000000D01*
G01*
X77130000Y-132870000D02*
G75*
G02*
X87130000Y-142869999I0J-10000000D01*
G01*
X77130000Y-135870000D02*
G75*
G02*
X84130000Y-142870000I0J-7000000D01*
G01*
X77130000Y-165870000D02*
G75*
G02*
X77130000Y-159870000I0J3000000D01*
G01*
X84130000Y-152870000D02*
G75*
G02*
X77130000Y-159870000I-7000002J2D01*
G01*
X87058932Y-152941068D02*
G75*
G02*
X77130000Y-162870000I-9928933J1D01*
G01*
X90130000Y-152870000D02*
G75*
G02*
X77130000Y-165870000I-13000000J0D01*
G01*
X198880000Y-201120000D02*
X198880000Y-191120000D01*
X201880000Y-201120000D02*
X201880000Y-191120000D01*
X204880000Y-201120000D02*
X204880000Y-191120000D01*
X211880000Y-178120000D02*
X221880000Y-178120000D01*
X211880000Y-181120000D02*
X221880000Y-181120000D01*
X211880000Y-184120000D02*
X221880000Y-184120000D01*
X211880000Y-208120000D02*
X216380000Y-208120000D01*
X213380000Y-211120000D02*
X211880000Y-211120000D01*
X213380000Y-214120000D02*
X213380000Y-211120000D01*
X216380000Y-214120000D02*
X216380000Y-208120000D01*
X228880000Y-191120000D02*
X228880000Y-201120000D01*
X231880000Y-191120000D02*
X231880000Y-201120000D01*
X234880000Y-191120000D02*
X234880000Y-201120000D01*
X198880000Y-191120000D02*
G75*
G02*
X211880000Y-178120000I13000001J-1D01*
G01*
X201880000Y-191120000D02*
G75*
G02*
X211880000Y-181120000I9999999J1D01*
G01*
X204880000Y-191120000D02*
G75*
G02*
X211880000Y-184120000I7000002J-2D01*
G01*
X209892690Y-214040927D02*
G75*
G02*
X198880000Y-201120000I2073564J12920928D01*
G01*
X211880000Y-208120000D02*
G75*
G02*
X204880000Y-201120000I2J7000002D01*
G01*
X211880000Y-211120000D02*
G75*
G02*
X201880000Y-201120000I-1J9999999D01*
G01*
X221880000Y-178120000D02*
G75*
G02*
X234880000Y-191120000I0J-13000000D01*
G01*
X221880000Y-181120000D02*
G75*
G02*
X231880000Y-191119999I0J-10000000D01*
G01*
X221880000Y-184120000D02*
G75*
G02*
X228880000Y-191120000I0J-7000000D01*
G01*
X221880000Y-214120000D02*
G75*
G02*
X221880000Y-208120000I0J3000000D01*
G01*
X228880000Y-201120000D02*
G75*
G02*
X221880000Y-208120000I-7000002J2D01*
G01*
X231808932Y-201191068D02*
G75*
G02*
X221880000Y-211120000I-9928933J1D01*
G01*
X234880000Y-201120000D02*
G75*
G02*
X221880000Y-214120000I-13000000J0D01*
G01*
X198880000Y-249370000D02*
X198880000Y-239370000D01*
X201880000Y-249370000D02*
X201880000Y-239370000D01*
X204880000Y-249370000D02*
X204880000Y-239370000D01*
X211880000Y-226370000D02*
X221880000Y-226370000D01*
X211880000Y-229370000D02*
X221880000Y-229370000D01*
X211880000Y-232370000D02*
X221880000Y-232370000D01*
X211880000Y-256370000D02*
X216380000Y-256370000D01*
X213380000Y-259370000D02*
X211880000Y-259370000D01*
X213380000Y-262370000D02*
X213380000Y-259370000D01*
X216380000Y-262370000D02*
X216380000Y-256370000D01*
X228880000Y-239370000D02*
X228880000Y-249370000D01*
X231880000Y-239370000D02*
X231880000Y-249370000D01*
X234880000Y-239370000D02*
X234880000Y-249370000D01*
X198880000Y-239370000D02*
G75*
G02*
X211880000Y-226370000I13000001J-1D01*
G01*
X201880000Y-239370000D02*
G75*
G02*
X211880000Y-229370000I9999999J1D01*
G01*
X204880000Y-239370000D02*
G75*
G02*
X211880000Y-232370000I7000002J-2D01*
G01*
X209892690Y-262290927D02*
G75*
G02*
X198880000Y-249370000I2073564J12920928D01*
G01*
X211880000Y-256370000D02*
G75*
G02*
X204880000Y-249370000I2J7000002D01*
G01*
X211880000Y-259370000D02*
G75*
G02*
X201880000Y-249370000I-1J9999999D01*
G01*
X221880000Y-226370000D02*
G75*
G02*
X234880000Y-239370000I0J-13000000D01*
G01*
X221880000Y-229370000D02*
G75*
G02*
X231880000Y-239369999I0J-10000000D01*
G01*
X221880000Y-232370000D02*
G75*
G02*
X228880000Y-239370000I0J-7000000D01*
G01*
X221880000Y-262370000D02*
G75*
G02*
X221880000Y-256370000I0J3000000D01*
G01*
X228880000Y-249370000D02*
G75*
G02*
X221880000Y-256370000I-7000002J2D01*
G01*
X231808932Y-249441068D02*
G75*
G02*
X221880000Y-259370000I-9928933J1D01*
G01*
X234880000Y-249370000D02*
G75*
G02*
X221880000Y-262370000I-13000000J0D01*
G01*
X150630000Y-152870000D02*
X150630000Y-142870000D01*
X153630000Y-152870000D02*
X153630000Y-142870000D01*
X156630000Y-152870000D02*
X156630000Y-142870000D01*
X163630000Y-129870000D02*
X173630000Y-129870000D01*
X163630000Y-132870000D02*
X173630000Y-132870000D01*
X163630000Y-135870000D02*
X173630000Y-135870000D01*
X163630000Y-159870000D02*
X168130000Y-159870000D01*
X165130000Y-162870000D02*
X163630000Y-162870000D01*
X165130000Y-165870000D02*
X165130000Y-162870000D01*
X168130000Y-165870000D02*
X168130000Y-159870000D01*
X180630000Y-142870000D02*
X180630000Y-152870000D01*
X183630000Y-142870000D02*
X183630000Y-152870000D01*
X186630000Y-142870000D02*
X186630000Y-152870000D01*
X150630000Y-142870000D02*
G75*
G02*
X163630000Y-129870000I13000001J-1D01*
G01*
X153630000Y-142870000D02*
G75*
G02*
X163630000Y-132870000I9999999J1D01*
G01*
X156630000Y-142870000D02*
G75*
G02*
X163630000Y-135870000I7000002J-2D01*
G01*
X161642690Y-165790927D02*
G75*
G02*
X150630000Y-152870000I2073564J12920928D01*
G01*
X163630000Y-159870000D02*
G75*
G02*
X156630000Y-152870000I2J7000002D01*
G01*
X163630000Y-162870000D02*
G75*
G02*
X153630000Y-152870000I-1J9999999D01*
G01*
X173630000Y-129870000D02*
G75*
G02*
X186630000Y-142870000I0J-13000000D01*
G01*
X173630000Y-132870000D02*
G75*
G02*
X183630000Y-142869999I0J-10000000D01*
G01*
X173630000Y-135870000D02*
G75*
G02*
X180630000Y-142870000I0J-7000000D01*
G01*
X173630000Y-165870000D02*
G75*
G02*
X173630000Y-159870000I0J3000000D01*
G01*
X180630000Y-152870000D02*
G75*
G02*
X173630000Y-159870000I-7000002J2D01*
G01*
X183558932Y-152941068D02*
G75*
G02*
X173630000Y-162870000I-9928933J1D01*
G01*
X186630000Y-152870000D02*
G75*
G02*
X173630000Y-165870000I-13000000J0D01*
G01*
X54130000Y-201120000D02*
X54130000Y-191120000D01*
X57130000Y-201120000D02*
X57130000Y-191120000D01*
X60130000Y-201120000D02*
X60130000Y-191120000D01*
X67130000Y-178120000D02*
X77130000Y-178120000D01*
X67130000Y-181120000D02*
X77130000Y-181120000D01*
X67130000Y-184120000D02*
X77130000Y-184120000D01*
X67130000Y-208120000D02*
X71630000Y-208120000D01*
X68630000Y-211120000D02*
X67130000Y-211120000D01*
X68630000Y-214120000D02*
X68630000Y-211120000D01*
X71630000Y-214120000D02*
X71630000Y-208120000D01*
X84130000Y-191120000D02*
X84130000Y-201120000D01*
X87130000Y-191120000D02*
X87130000Y-201120000D01*
X90130000Y-191120000D02*
X90130000Y-201120000D01*
X54130000Y-191120000D02*
G75*
G02*
X67130000Y-178120000I13000001J-1D01*
G01*
X57130000Y-191120000D02*
G75*
G02*
X67130000Y-181120000I9999999J1D01*
G01*
X60130000Y-191120000D02*
G75*
G02*
X67130000Y-184120000I7000002J-2D01*
G01*
X65142690Y-214040927D02*
G75*
G02*
X54130000Y-201120000I2073564J12920928D01*
G01*
X67130000Y-208120000D02*
G75*
G02*
X60130000Y-201120000I2J7000002D01*
G01*
X67130000Y-211120000D02*
G75*
G02*
X57130000Y-201120000I-1J9999999D01*
G01*
X77130000Y-178120000D02*
G75*
G02*
X90130000Y-191120000I0J-13000000D01*
G01*
X77130000Y-181120000D02*
G75*
G02*
X87130000Y-191119999I0J-10000000D01*
G01*
X77130000Y-184120000D02*
G75*
G02*
X84130000Y-191120000I0J-7000000D01*
G01*
X77130000Y-214120000D02*
G75*
G02*
X77130000Y-208120000I0J3000000D01*
G01*
X84130000Y-201120000D02*
G75*
G02*
X77130000Y-208120000I-7000002J2D01*
G01*
X87058932Y-201191068D02*
G75*
G02*
X77130000Y-211120000I-9928933J1D01*
G01*
X90130000Y-201120000D02*
G75*
G02*
X77130000Y-214120000I-13000000J0D01*
G01*
X150630000Y-297620000D02*
X150630000Y-287620000D01*
X153630000Y-297620000D02*
X153630000Y-287620000D01*
X156630000Y-297620000D02*
X156630000Y-287620000D01*
X163630000Y-274620000D02*
X173630000Y-274620000D01*
X163630000Y-277620000D02*
X173630000Y-277620000D01*
X163630000Y-280620000D02*
X173630000Y-280620000D01*
X163630000Y-304620000D02*
X168130000Y-304620000D01*
X165130000Y-307620000D02*
X163630000Y-307620000D01*
X165130000Y-310620000D02*
X165130000Y-307620000D01*
X168130000Y-310620000D02*
X168130000Y-304620000D01*
X180630000Y-287620000D02*
X180630000Y-297620000D01*
X183630000Y-287620000D02*
X183630000Y-297620000D01*
X186630000Y-287620000D02*
X186630000Y-297620000D01*
X150630000Y-287620000D02*
G75*
G02*
X163630000Y-274620000I13000001J-1D01*
G01*
X153630000Y-287620000D02*
G75*
G02*
X163630000Y-277620000I9999999J1D01*
G01*
X156630000Y-287620000D02*
G75*
G02*
X163630000Y-280620000I7000002J-2D01*
G01*
X161642690Y-310540927D02*
G75*
G02*
X150630000Y-297620000I2073564J12920928D01*
G01*
X163630000Y-304620000D02*
G75*
G02*
X156630000Y-297620000I2J7000002D01*
G01*
X163630000Y-307620000D02*
G75*
G02*
X153630000Y-297620000I-1J9999999D01*
G01*
X173630000Y-274620000D02*
G75*
G02*
X186630000Y-287620000I0J-13000000D01*
G01*
X173630000Y-277620000D02*
G75*
G02*
X183630000Y-287619999I0J-10000000D01*
G01*
X173630000Y-280620000D02*
G75*
G02*
X180630000Y-287620000I0J-7000000D01*
G01*
X173630000Y-310620000D02*
G75*
G02*
X173630000Y-304620000I0J3000000D01*
G01*
X180630000Y-297620000D02*
G75*
G02*
X173630000Y-304620000I-7000002J2D01*
G01*
X183558932Y-297691068D02*
G75*
G02*
X173630000Y-307620000I-9928933J1D01*
G01*
X186630000Y-297620000D02*
G75*
G02*
X173630000Y-310620000I-13000000J0D01*
G01*
X54130000Y-297620000D02*
X54130000Y-287620000D01*
X57130000Y-297620000D02*
X57130000Y-287620000D01*
X60130000Y-297620000D02*
X60130000Y-287620000D01*
X67130000Y-274620000D02*
X77130000Y-274620000D01*
X67130000Y-277620000D02*
X77130000Y-277620000D01*
X67130000Y-280620000D02*
X77130000Y-280620000D01*
X67130000Y-304620000D02*
X71630000Y-304620000D01*
X68630000Y-307620000D02*
X67130000Y-307620000D01*
X68630000Y-310620000D02*
X68630000Y-307620000D01*
X71630000Y-310620000D02*
X71630000Y-304620000D01*
X84130000Y-287620000D02*
X84130000Y-297620000D01*
X87130000Y-287620000D02*
X87130000Y-297620000D01*
X90130000Y-287620000D02*
X90130000Y-297620000D01*
X54130000Y-287620000D02*
G75*
G02*
X67130000Y-274620000I13000001J-1D01*
G01*
X57130000Y-287620000D02*
G75*
G02*
X67130000Y-277620000I9999999J1D01*
G01*
X60130000Y-287620000D02*
G75*
G02*
X67130000Y-280620000I7000002J-2D01*
G01*
X65142690Y-310540927D02*
G75*
G02*
X54130000Y-297620000I2073564J12920928D01*
G01*
X67130000Y-304620000D02*
G75*
G02*
X60130000Y-297620000I2J7000002D01*
G01*
X67130000Y-307620000D02*
G75*
G02*
X57130000Y-297620000I-1J9999999D01*
G01*
X77130000Y-274620000D02*
G75*
G02*
X90130000Y-287620000I0J-13000000D01*
G01*
X77130000Y-277620000D02*
G75*
G02*
X87130000Y-287619999I0J-10000000D01*
G01*
X77130000Y-280620000D02*
G75*
G02*
X84130000Y-287620000I0J-7000000D01*
G01*
X77130000Y-310620000D02*
G75*
G02*
X77130000Y-304620000I0J3000000D01*
G01*
X84130000Y-297620000D02*
G75*
G02*
X77130000Y-304620000I-7000002J2D01*
G01*
X87058932Y-297691068D02*
G75*
G02*
X77130000Y-307620000I-9928933J1D01*
G01*
X90130000Y-297620000D02*
G75*
G02*
X77130000Y-310620000I-13000000J0D01*
G01*
X150630000Y-249370000D02*
X150630000Y-239370000D01*
X153630000Y-249370000D02*
X153630000Y-239370000D01*
X156630000Y-249370000D02*
X156630000Y-239370000D01*
X163630000Y-226370000D02*
X173630000Y-226370000D01*
X163630000Y-229370000D02*
X173630000Y-229370000D01*
X163630000Y-232370000D02*
X173630000Y-232370000D01*
X163630000Y-256370000D02*
X168130000Y-256370000D01*
X165130000Y-259370000D02*
X163630000Y-259370000D01*
X165130000Y-262370000D02*
X165130000Y-259370000D01*
X168130000Y-262370000D02*
X168130000Y-256370000D01*
X180630000Y-239370000D02*
X180630000Y-249370000D01*
X183630000Y-239370000D02*
X183630000Y-249370000D01*
X186630000Y-239370000D02*
X186630000Y-249370000D01*
X150630000Y-239370000D02*
G75*
G02*
X163630000Y-226370000I13000001J-1D01*
G01*
X153630000Y-239370000D02*
G75*
G02*
X163630000Y-229370000I9999999J1D01*
G01*
X156630000Y-239370000D02*
G75*
G02*
X163630000Y-232370000I7000002J-2D01*
G01*
X161642690Y-262290927D02*
G75*
G02*
X150630000Y-249370000I2073564J12920928D01*
G01*
X163630000Y-256370000D02*
G75*
G02*
X156630000Y-249370000I2J7000002D01*
G01*
X163630000Y-259370000D02*
G75*
G02*
X153630000Y-249370000I-1J9999999D01*
G01*
X173630000Y-226370000D02*
G75*
G02*
X186630000Y-239370000I0J-13000000D01*
G01*
X173630000Y-229370000D02*
G75*
G02*
X183630000Y-239369999I0J-10000000D01*
G01*
X173630000Y-232370000D02*
G75*
G02*
X180630000Y-239370000I0J-7000000D01*
G01*
X173630000Y-262370000D02*
G75*
G02*
X173630000Y-256370000I0J3000000D01*
G01*
X180630000Y-249370000D02*
G75*
G02*
X173630000Y-256370000I-7000002J2D01*
G01*
X183558932Y-249441068D02*
G75*
G02*
X173630000Y-259370000I-9928933J1D01*
G01*
X186630000Y-249370000D02*
G75*
G02*
X173630000Y-262370000I-13000000J0D01*
G01*
X198880000Y-152870000D02*
X198880000Y-142870000D01*
X201880000Y-152870000D02*
X201880000Y-142870000D01*
X204880000Y-152870000D02*
X204880000Y-142870000D01*
X211880000Y-129870000D02*
X221880000Y-129870000D01*
X211880000Y-132870000D02*
X221880000Y-132870000D01*
X211880000Y-135870000D02*
X221880000Y-135870000D01*
X211880000Y-159870000D02*
X216380000Y-159870000D01*
X213380000Y-162870000D02*
X211880000Y-162870000D01*
X213380000Y-165870000D02*
X213380000Y-162870000D01*
X216380000Y-165870000D02*
X216380000Y-159870000D01*
X228880000Y-142870000D02*
X228880000Y-152870000D01*
X231880000Y-142870000D02*
X231880000Y-152870000D01*
X234880000Y-142870000D02*
X234880000Y-152870000D01*
X198880000Y-142870000D02*
G75*
G02*
X211880000Y-129870000I13000001J-1D01*
G01*
X201880000Y-142870000D02*
G75*
G02*
X211880000Y-132870000I9999999J1D01*
G01*
X204880000Y-142870000D02*
G75*
G02*
X211880000Y-135870000I7000002J-2D01*
G01*
X209892690Y-165790927D02*
G75*
G02*
X198880000Y-152870000I2073564J12920928D01*
G01*
X211880000Y-159870000D02*
G75*
G02*
X204880000Y-152870000I2J7000002D01*
G01*
X211880000Y-162870000D02*
G75*
G02*
X201880000Y-152870000I-1J9999999D01*
G01*
X221880000Y-129870000D02*
G75*
G02*
X234880000Y-142870000I0J-13000000D01*
G01*
X221880000Y-132870000D02*
G75*
G02*
X231880000Y-142869999I0J-10000000D01*
G01*
X221880000Y-135870000D02*
G75*
G02*
X228880000Y-142870000I0J-7000000D01*
G01*
X221880000Y-165870000D02*
G75*
G02*
X221880000Y-159870000I0J3000000D01*
G01*
X228880000Y-152870000D02*
G75*
G02*
X221880000Y-159870000I-7000002J2D01*
G01*
X231808932Y-152941068D02*
G75*
G02*
X221880000Y-162870000I-9928933J1D01*
G01*
X234880000Y-152870000D02*
G75*
G02*
X221880000Y-165870000I-13000000J0D01*
G01*
X54130000Y-249370000D02*
X54130000Y-239370000D01*
X57130000Y-249370000D02*
X57130000Y-239370000D01*
X60130000Y-249370000D02*
X60130000Y-239370000D01*
X67130000Y-226370000D02*
X77130000Y-226370000D01*
X67130000Y-229370000D02*
X77130000Y-229370000D01*
X67130000Y-232370000D02*
X77130000Y-232370000D01*
X67130000Y-256370000D02*
X71630000Y-256370000D01*
X68630000Y-259370000D02*
X67130000Y-259370000D01*
X68630000Y-262370000D02*
X68630000Y-259370000D01*
X71630000Y-262370000D02*
X71630000Y-256370000D01*
X84130000Y-239370000D02*
X84130000Y-249370000D01*
X87130000Y-239370000D02*
X87130000Y-249370000D01*
X90130000Y-239370000D02*
X90130000Y-249370000D01*
X54130000Y-239370000D02*
G75*
G02*
X67130000Y-226370000I13000001J-1D01*
G01*
X57130000Y-239370000D02*
G75*
G02*
X67130000Y-229370000I9999999J1D01*
G01*
X60130000Y-239370000D02*
G75*
G02*
X67130000Y-232370000I7000002J-2D01*
G01*
X65142690Y-262290927D02*
G75*
G02*
X54130000Y-249370000I2073564J12920928D01*
G01*
X67130000Y-256370000D02*
G75*
G02*
X60130000Y-249370000I2J7000002D01*
G01*
X67130000Y-259370000D02*
G75*
G02*
X57130000Y-249370000I-1J9999999D01*
G01*
X77130000Y-226370000D02*
G75*
G02*
X90130000Y-239370000I0J-13000000D01*
G01*
X77130000Y-229370000D02*
G75*
G02*
X87130000Y-239369999I0J-10000000D01*
G01*
X77130000Y-232370000D02*
G75*
G02*
X84130000Y-239370000I0J-7000000D01*
G01*
X77130000Y-262370000D02*
G75*
G02*
X77130000Y-256370000I0J3000000D01*
G01*
X84130000Y-249370000D02*
G75*
G02*
X77130000Y-256370000I-7000002J2D01*
G01*
X87058932Y-249441068D02*
G75*
G02*
X77130000Y-259370000I-9928933J1D01*
G01*
X90130000Y-249370000D02*
G75*
G02*
X77130000Y-262370000I-13000000J0D01*
G01*
D11*
X117930000Y-290970000D03*
X117930000Y-294270000D03*
X122830000Y-294270000D03*
X122830000Y-290970000D03*
D12*
X214100000Y-68912500D03*
X214100000Y-70987500D03*
D13*
X214600000Y-79337500D03*
X214600000Y-77262500D03*
D14*
X200887500Y-78400000D03*
X198812500Y-78400000D03*
D15*
X216880000Y-171000000D03*
X216880000Y-173000000D03*
D13*
X201450000Y-74937500D03*
X201450000Y-72862500D03*
D16*
X113380000Y-262120000D03*
D17*
X116880000Y-262120000D03*
X119880000Y-262120000D03*
D18*
X230300000Y-124885000D03*
X230300000Y-123615000D03*
X230300000Y-122345000D03*
X230300000Y-121075000D03*
X230300000Y-119805000D03*
X230300000Y-118535000D03*
X230300000Y-117265000D03*
X230300000Y-115995000D03*
X230300000Y-114725000D03*
X230300000Y-113455000D03*
X230300000Y-112185000D03*
X230300000Y-110915000D03*
X221000000Y-110915000D03*
X221000000Y-112185000D03*
X221000000Y-113455000D03*
X221000000Y-114725000D03*
X221000000Y-115995000D03*
X221000000Y-117265000D03*
X221000000Y-118535000D03*
X221000000Y-119805000D03*
X221000000Y-121075000D03*
X221000000Y-122345000D03*
X221000000Y-123615000D03*
X221000000Y-124885000D03*
D14*
X66137500Y-146250000D03*
X64062500Y-146250000D03*
D15*
X120380000Y-267000000D03*
X120380000Y-269000000D03*
D11*
X69680000Y-146220000D03*
X69680000Y-149520000D03*
X74580000Y-149520000D03*
X74580000Y-146220000D03*
D13*
X217350000Y-75937500D03*
X217350000Y-73862500D03*
D16*
X113380000Y-165620000D03*
D17*
X116880000Y-165620000D03*
X119880000Y-165620000D03*
D19*
X198862500Y-80950000D03*
X200937500Y-80950000D03*
D14*
X218987500Y-71950000D03*
X216912500Y-71950000D03*
D15*
X120380000Y-219000000D03*
X120380000Y-221000000D03*
D20*
X194650000Y-80950000D03*
X196650000Y-80950000D03*
D15*
X72130000Y-267000000D03*
X72130000Y-269000000D03*
D16*
X113380000Y-310370000D03*
D17*
X116880000Y-310370000D03*
X119880000Y-310370000D03*
D21*
X192995000Y-70675000D03*
X192995000Y-71325000D03*
X192995000Y-71975000D03*
X192995000Y-72625000D03*
X192995000Y-73275000D03*
X192995000Y-73925000D03*
X192995000Y-74575000D03*
X192995000Y-75225000D03*
X192995000Y-75875000D03*
X192995000Y-76525000D03*
X198720000Y-76525000D03*
X198720000Y-75875000D03*
X198720000Y-75225000D03*
X198720000Y-74575000D03*
X198720000Y-73925000D03*
X198720000Y-73275000D03*
X198720000Y-72625000D03*
X198720000Y-71975000D03*
X198720000Y-71325000D03*
X198720000Y-70675000D03*
D19*
X208662500Y-75350000D03*
X210737500Y-75350000D03*
D16*
X113380000Y-213870000D03*
D17*
X116880000Y-213870000D03*
X119880000Y-213870000D03*
D22*
X223225600Y-97830000D03*
X223225600Y-99100000D03*
X223225600Y-100370000D03*
X223225600Y-101640000D03*
X223225600Y-102910000D03*
X223225600Y-104180000D03*
X223225600Y-105450000D03*
X223225600Y-106720000D03*
X227950000Y-106720000D03*
X227950000Y-105450000D03*
X227950000Y-104180000D03*
X227950000Y-102910000D03*
X227950000Y-101640000D03*
X227950000Y-100370000D03*
X227950000Y-99100000D03*
X227950000Y-97830000D03*
D13*
X201450000Y-70937500D03*
X201450000Y-68862500D03*
D16*
X161630000Y-213870000D03*
D17*
X165130000Y-213870000D03*
X168130000Y-213870000D03*
D11*
X214430000Y-290970000D03*
X214430000Y-294270000D03*
X219330000Y-294270000D03*
X219330000Y-290970000D03*
D23*
X48500000Y-225700000D03*
D24*
X48500000Y-223160000D03*
X48500000Y-220620000D03*
X48500000Y-218080000D03*
D11*
X166180000Y-194470000D03*
X166180000Y-197770000D03*
X171080000Y-197770000D03*
X171080000Y-194470000D03*
D15*
X168630000Y-315000000D03*
X168630000Y-317000000D03*
D23*
X240000000Y-218000000D03*
D24*
X240000000Y-220540000D03*
X240000000Y-223080000D03*
X240000000Y-225620000D03*
D25*
X212357500Y-73350000D03*
X212357500Y-73850000D03*
X212357500Y-74350000D03*
X212357500Y-74850000D03*
D26*
X213045000Y-75537500D03*
X213545000Y-75537500D03*
X214045000Y-75537500D03*
X214545000Y-75537500D03*
D25*
X215232500Y-74850000D03*
X215232500Y-74350000D03*
X215232500Y-73850000D03*
X215232500Y-73350000D03*
D26*
X214545000Y-72662500D03*
X214045000Y-72662500D03*
X213545000Y-72662500D03*
X213045000Y-72662500D03*
D27*
X213795000Y-74100000D03*
D15*
X168630000Y-219000000D03*
X168630000Y-221000000D03*
D16*
X209880000Y-310370000D03*
D17*
X213380000Y-310370000D03*
X216380000Y-310370000D03*
D11*
X214430000Y-242720000D03*
X214430000Y-246020000D03*
X219330000Y-246020000D03*
X219330000Y-242720000D03*
D15*
X72130000Y-315000000D03*
X72130000Y-317000000D03*
D11*
X166180000Y-146220000D03*
X166180000Y-149520000D03*
X171080000Y-149520000D03*
X171080000Y-146220000D03*
X166180000Y-242720000D03*
X166180000Y-246020000D03*
X171080000Y-246020000D03*
X171080000Y-242720000D03*
D15*
X120380000Y-315000000D03*
X120380000Y-317000000D03*
D16*
X65130000Y-165620000D03*
D17*
X68630000Y-165620000D03*
X71630000Y-165620000D03*
D13*
X190650000Y-77887500D03*
X190650000Y-75812500D03*
D16*
X209880000Y-213870000D03*
D17*
X213380000Y-213870000D03*
X216380000Y-213870000D03*
D13*
X203700000Y-74987500D03*
X203700000Y-72912500D03*
D24*
X229380000Y-68130000D03*
X229380000Y-75130000D03*
D28*
X233080000Y-69030000D03*
X225680000Y-67030000D03*
D29*
X225680000Y-76430000D03*
D11*
X214430000Y-194470000D03*
X214430000Y-197770000D03*
X219330000Y-197770000D03*
X219330000Y-194470000D03*
D16*
X209880000Y-262120000D03*
D17*
X213380000Y-262120000D03*
X216380000Y-262120000D03*
D15*
X216880000Y-219000000D03*
X216880000Y-221000000D03*
D12*
X188400000Y-69312500D03*
X188400000Y-71387500D03*
D15*
X216880000Y-267000000D03*
X216880000Y-269000000D03*
X168630000Y-267000000D03*
X168630000Y-269000000D03*
D11*
X117930000Y-146220000D03*
X117930000Y-149520000D03*
X122830000Y-149520000D03*
X122830000Y-146220000D03*
D15*
X216880000Y-315000000D03*
X216880000Y-317000000D03*
D30*
X127500000Y-80000000D03*
D31*
X132500000Y-80000000D03*
X127500000Y-94500000D03*
X132500000Y-94500000D03*
X130000000Y-94500000D03*
D32*
X124400000Y-87000000D03*
X135600000Y-87000000D03*
D14*
X210737500Y-73250000D03*
X208662500Y-73250000D03*
D16*
X161630000Y-165620000D03*
D17*
X165130000Y-165620000D03*
X168130000Y-165620000D03*
D23*
X74050000Y-78110000D03*
D24*
X74050000Y-80650000D03*
X74050000Y-83190000D03*
X74050000Y-85730000D03*
X74050000Y-88270000D03*
X74050000Y-90810000D03*
X74050000Y-93350000D03*
X74050000Y-95890000D03*
D11*
X117930000Y-194470000D03*
X117930000Y-197770000D03*
X122830000Y-197770000D03*
X122830000Y-194470000D03*
D12*
X183950000Y-69712500D03*
X183950000Y-71787500D03*
D15*
X72130000Y-171000000D03*
X72130000Y-173000000D03*
D11*
X69680000Y-194470000D03*
X69680000Y-197770000D03*
X74580000Y-197770000D03*
X74580000Y-194470000D03*
D12*
X188650000Y-75812500D03*
X188650000Y-77887500D03*
D16*
X65130000Y-213870000D03*
D17*
X68630000Y-213870000D03*
X71630000Y-213870000D03*
D16*
X161630000Y-310370000D03*
D17*
X165130000Y-310370000D03*
X168130000Y-310370000D03*
D16*
X65130000Y-310370000D03*
D17*
X68630000Y-310370000D03*
X71630000Y-310370000D03*
D15*
X72130000Y-219000000D03*
X72130000Y-221000000D03*
X168630000Y-171000000D03*
X168630000Y-173000000D03*
D11*
X117930000Y-242720000D03*
X117930000Y-246020000D03*
X122830000Y-246020000D03*
X122830000Y-242720000D03*
D14*
X190787500Y-73750000D03*
X188712500Y-73750000D03*
D16*
X161630000Y-262120000D03*
D17*
X165130000Y-262120000D03*
X168130000Y-262120000D03*
D11*
X214430000Y-146220000D03*
X214430000Y-149520000D03*
X219330000Y-149520000D03*
X219330000Y-146220000D03*
D14*
X218337500Y-124250000D03*
X216262500Y-124250000D03*
D16*
X209880000Y-165620000D03*
D17*
X213380000Y-165620000D03*
X216380000Y-165620000D03*
D13*
X190750000Y-71387500D03*
X190750000Y-69312500D03*
D12*
X203700000Y-68912500D03*
X203700000Y-70987500D03*
D33*
X78800000Y-146200000D03*
X76800000Y-146200000D03*
D15*
X120380000Y-171000000D03*
X120380000Y-173000000D03*
D11*
X69680000Y-290970000D03*
X69680000Y-294270000D03*
X74580000Y-294270000D03*
X74580000Y-290970000D03*
D16*
X65130000Y-262120000D03*
D17*
X68630000Y-262120000D03*
X71630000Y-262120000D03*
D11*
X69680000Y-242720000D03*
X69680000Y-246020000D03*
X74580000Y-246020000D03*
X74580000Y-242720000D03*
X166180000Y-290970000D03*
X166180000Y-294270000D03*
X171080000Y-294270000D03*
X171080000Y-290970000D03*
D20*
X194650000Y-78400000D03*
X196650000Y-78400000D03*
M02*
